<?xml version="1.0" encoding="utf-8"?>
<!-- Generator: Adobe Illustrator 23.0.3, SVG Export Plug-In . SVG Version: 6.00 Build 0)  -->
<svg version="1.1" xmlns="http://www.w3.org/2000/svg" xmlns:xlink="http://www.w3.org/1999/xlink" x="0px" y="0px"
	 viewBox="0 0 400 210.72" style="enable-background:new 0 0 400 210.72;" xml:space="preserve">
<style type="text/css">
	.st0{fill:#15A1AA;}
	.st1{display:none;}
	.st2{display:inline;}
	.st3{fill:#1F2242;}
	.st4{display:inline;fill:#1F2242;}
	.st5{fill:#FFFFFF;}
</style>
<g id="Layer_5">
	<circle class="st0" cx="200.09" cy="92.58" r="80.5"/>
</g>
<g id="Layer_1" class="st1">
	<g class="st2">
		<path class="st0" d="M-645.33-638.06c1.88,0,3.49,0.66,4.83,1.98c1.35,1.32,2.04,2.92,2.07,4.79c0.02,1.92-0.66,3.57-2.06,4.95
			c-1.39,1.37-3.06,2.06-5.01,2.06h-7.6v11.62c0,0.17-0.08,0.25-0.25,0.25h-1.2c-0.17,0-0.25-0.08-0.25-0.25v-25.16
			c0-0.17,0.08-0.25,0.25-0.25H-645.33z M-645.33-625.96c1.43,0,2.66-0.51,3.68-1.54c1.01-1.01,1.52-2.23,1.52-3.67
			c0-1.44-0.51-2.67-1.52-3.68c-1.02-1.03-2.25-1.54-3.68-1.54h-7.76v10.42H-645.33z"/>
		<path class="st0" d="M-632.87-612.44c-0.17,0-0.25-0.08-0.25-0.25v-25.08c0-0.17,0.08-0.25,0.25-0.25h1.2
			c0.15,0,0.23,0.08,0.23,0.25v25.08c0,0.17-0.08,0.25-0.23,0.25H-632.87z M-615.15-624.39h-17.97v-1.7h17.97V-624.39z
			 M-616.58-612.41c-0.17,0-0.25-0.08-0.25-0.25v-25.08c0-0.17,0.08-0.25,0.25-0.25h1.2c0.15,0,0.23,0.08,0.23,0.25v25.08
			c0,0.17-0.08,0.25-0.23,0.25H-616.58z"/>
		<path class="st0" d="M-602.14-613.41c-1.53-0.66-2.88-1.57-4.08-2.75c-1.18-1.19-2.1-2.55-2.75-4.08c-0.67-1.58-1-3.25-1-4.99
			c0-1.74,0.33-3.4,1-4.99c0.66-1.53,1.57-2.88,2.75-4.08c1.19-1.18,2.55-2.09,4.08-2.74c1.59-0.68,3.25-1.02,4.99-1.02
			s3.4,0.34,4.99,1.02c1.53,0.64,2.88,1.56,4.08,2.74c1.18,1.19,2.09,2.55,2.74,4.08c0.68,1.58,1.02,3.25,1.02,4.99
			c0,1.74-0.34,3.4-1.02,4.99c-0.64,1.53-1.56,2.88-2.74,4.08c-1.19,1.18-2.55,2.1-4.08,2.75c-1.59,0.67-3.25,1-4.99,1
			S-600.55-612.74-602.14-613.41z M-601.48-635.47c-1.33,0.56-2.52,1.35-3.54,2.38c-1.02,1.03-1.82,2.21-2.38,3.54
			c-0.58,1.38-0.88,2.83-0.88,4.33c0,1.5,0.29,2.94,0.88,4.33c0.56,1.33,1.35,2.51,2.38,3.54s2.21,1.82,3.54,2.38
			c1.38,0.58,2.82,0.88,4.33,0.88s2.94-0.29,4.33-0.88c1.33-0.56,2.51-1.35,3.54-2.38c1.02-1.03,1.82-2.21,2.38-3.54
			c0.58-1.38,0.88-2.83,0.88-4.33c0-1.5-0.29-2.94-0.88-4.33c-0.56-1.33-1.35-2.51-2.38-3.54c-1.03-1.02-2.21-1.82-3.54-2.38
			c-1.38-0.58-2.82-0.88-4.33-0.88S-600.09-636.05-601.48-635.47z"/>
		<path class="st0" d="M-568.22-638.03c0.17,0,0.25,0.08,0.25,0.25v1.2c0,0.17-0.08,0.25-0.25,0.25h-7.21v23.67
			c0,0.17-0.08,0.25-0.25,0.25h-1.2c-0.15,0-0.23-0.08-0.23-0.25v-23.67h-7.21c-0.17,0-0.25-0.08-0.25-0.25v-1.2
			c0-0.17,0.08-0.25,0.25-0.25H-568.22z"/>
		<path class="st0" d="M-561.18-613.41c-1.53-0.66-2.88-1.57-4.08-2.75c-1.18-1.19-2.1-2.55-2.75-4.08c-0.67-1.58-1-3.25-1-4.99
			c0-1.74,0.33-3.4,1-4.99c0.66-1.53,1.57-2.88,2.75-4.08c1.19-1.18,2.55-2.09,4.08-2.74c1.59-0.68,3.25-1.02,4.99-1.02
			s3.4,0.34,4.99,1.02c1.53,0.64,2.88,1.56,4.08,2.74c1.18,1.19,2.09,2.55,2.74,4.08c0.68,1.58,1.02,3.25,1.02,4.99
			c0,1.74-0.34,3.4-1.02,4.99c-0.64,1.53-1.56,2.88-2.74,4.08c-1.19,1.18-2.55,2.1-4.08,2.75c-1.59,0.67-3.25,1-4.99,1
			S-559.59-612.74-561.18-613.41z M-560.52-635.47c-1.33,0.56-2.52,1.35-3.54,2.38c-1.02,1.03-1.82,2.21-2.38,3.54
			c-0.58,1.38-0.88,2.83-0.88,4.33c0,1.5,0.29,2.94,0.88,4.33c0.56,1.33,1.35,2.51,2.38,3.54s2.21,1.82,3.54,2.38
			c1.38,0.58,2.82,0.88,4.33,0.88s2.94-0.29,4.33-0.88c1.33-0.56,2.51-1.35,3.54-2.38c1.02-1.03,1.82-2.21,2.38-3.54
			c0.58-1.38,0.88-2.83,0.88-4.33c0-1.5-0.29-2.94-0.88-4.33c-0.56-1.33-1.35-2.51-2.38-3.54c-1.03-1.02-2.21-1.82-3.54-2.38
			c-1.38-0.58-2.82-0.88-4.33-0.88S-559.14-636.05-560.52-635.47z"/>
		<path class="st0" d="M-530.55-613.34c-1.68-0.68-3.15-1.67-4.42-2.97c-1.26-1.31-2.21-2.82-2.84-4.52
			c-0.64-1.78-0.88-3.62-0.72-5.52c0.27-3.12,1.55-5.79,3.83-8.01c2.28-2.22,4.98-3.42,8.12-3.61c1.85-0.12,3.62,0.14,5.31,0.79
			c1.69,0.63,3.19,1.59,4.51,2.88c0.12,0.12,0.12,0.24,0,0.36l-0.86,0.84c-0.12,0.11-0.24,0.11-0.36,0
			c-2.13-2.12-4.71-3.19-7.72-3.2c-2.9-0.02-5.42,0.95-7.58,2.93c-2.16,1.99-3.35,4.43-3.58,7.31c-0.12,1.6,0.09,3.13,0.63,4.61
			c0.51,1.43,1.29,2.7,2.32,3.81c1.04,1.12,2.25,1.98,3.63,2.59c1.43,0.64,2.93,0.97,4.51,0.97c2.98,0,5.54-1.03,7.69-3.09v-5.9
			h-5.36c-0.17,0-0.25-0.08-0.25-0.25v-1.2c0-0.17,0.08-0.25,0.25-0.25h6.79c0.17,0,0.25,0.08,0.25,0.25v7.94
			c0,0.07-0.02,0.13-0.07,0.18l-0.04,0.04c-1.16,1.17-2.46,2.1-3.92,2.79c-1.5,0.69-3.06,1.08-4.67,1.16
			C-527-612.33-528.81-612.63-530.55-613.34z"/>
		<path class="st0" d="M-510.32-624.24v-13.52c0-0.17,0.08-0.25,0.25-0.25h9.19c1.87,0,3.48,0.66,4.83,1.97
			c1.33,1.32,2.02,2.92,2.06,4.79c0.02,1.92-0.66,3.57-2.06,4.95c-1.39,1.37-3.06,2.06-4.99,2.06H-510.32z M-510.07-612.41
			c-0.17,0-0.25-0.08-0.25-0.25v-15.29h1.68v15.29c0,0.17-0.08,0.25-0.23,0.25H-510.07z M-508.63-625.94h7.76
			c1.43,0,2.65-0.51,3.67-1.52c1.01-1.01,1.52-2.23,1.52-3.67s-0.51-2.66-1.52-3.68c-1.01-1.01-2.24-1.52-3.67-1.52h-7.76V-625.94z
			 M-496.16-612.41c-0.1,0-0.17-0.04-0.21-0.13l-6.53-11.92l1.48-0.8l6.83,12.5c0.05,0.07,0.05,0.15,0,0.23
			c-0.05,0.08-0.12,0.13-0.21,0.13H-496.16z"/>
		<path class="st0" d="M-479.69-638.05c0.11,0,0.18,0.05,0.23,0.14l10.44,25.16c0.04,0.08,0.03,0.16-0.02,0.23s-0.12,0.11-0.21,0.11
			h-1.29c-0.11,0-0.18-0.05-0.23-0.16l-4.34-10.48h-10.69l-4.36,10.48c-0.05,0.11-0.13,0.16-0.23,0.16h-1.29
			c-0.08,0-0.15-0.04-0.21-0.11c-0.05-0.07-0.05-0.15-0.02-0.23l10.44-25.16c0.05-0.09,0.13-0.14,0.23-0.14H-479.69z
			 M-475.81-624.73l-4.65-11.19l-4.65,11.19H-475.81z"/>
		<path class="st0" d="M-456.34-638.06c1.88,0,3.49,0.66,4.83,1.98c1.35,1.32,2.04,2.92,2.07,4.79c0.02,1.92-0.66,3.57-2.06,4.95
			c-1.39,1.37-3.06,2.06-5.01,2.06h-7.6v11.62c0,0.17-0.08,0.25-0.25,0.25h-1.2c-0.17,0-0.25-0.08-0.25-0.25v-25.16
			c0-0.17,0.08-0.25,0.25-0.25H-456.34z M-456.34-625.96c1.43,0,2.66-0.51,3.68-1.54c1.01-1.01,1.52-2.23,1.52-3.67
			c0-1.44-0.51-2.67-1.52-3.68c-1.03-1.03-2.25-1.54-3.68-1.54h-7.76v10.42H-456.34z"/>
		<path class="st0" d="M-443.88-612.44c-0.17,0-0.25-0.08-0.25-0.25v-25.08c0-0.17,0.08-0.25,0.25-0.25h1.2
			c0.15,0,0.23,0.08,0.23,0.25v25.08c0,0.17-0.08,0.25-0.23,0.25H-443.88z M-426.16-624.39h-17.97v-1.7h17.97V-624.39z
			 M-427.59-612.41c-0.17,0-0.25-0.08-0.25-0.25v-25.08c0-0.17,0.08-0.25,0.25-0.25h1.2c0.16,0,0.23,0.08,0.23,0.25v25.08
			c0,0.17-0.08,0.25-0.23,0.25H-427.59z"/>
		<path class="st0" d="M-407.37-638.06c0.09,0,0.17,0.04,0.21,0.13c0.05,0.08,0.05,0.17,0,0.25l-7.29,11.58l-0.16,0.27v13.18
			c0,0.17-0.08,0.25-0.25,0.25h-1.2c-0.15,0-0.23-0.08-0.23-0.25v-13.21l-7.44-11.82c-0.05-0.08-0.05-0.17,0-0.25
			c0.05-0.08,0.12-0.13,0.21-0.13h1.41c0.1,0,0.17,0.04,0.21,0.11l6.44,10.26l6.45-10.26c0.05-0.07,0.12-0.11,0.21-0.11H-407.37z"/>
	</g>
	<g class="st2">
		<path class="st3" d="M-760.27-713.74v3.23c0,0.89,0,1.75,0,2.57c0,0.83-0.13,1.62-0.38,2.38c0,0.38,0.09,0.7,0.29,0.95
			c0.19,0.26,0.29,0.57,0.29,0.95h0.38v-0.38c1.14-2.92,2.5-5.77,4.09-8.56c1.58-2.79,3.2-5.45,4.85-7.99
			c2.03-3.42,4.06-6.82,6.09-10.18c2.03-3.36,4.31-6.63,6.85-9.8c1.77-2.54,3.62-4.98,5.52-7.33c1.9-2.34,4-4.66,6.28-6.94
			c1.9-2.54,4.63-4.95,8.18-7.23c1.01-0.89,2.03-1.65,3.04-2.28c1.01-0.63,2.03-1.27,3.04-1.9c2.28-1.39,4.82-2.47,7.61-3.23h1.33
			c1.01,0,1.77,0.13,2.28,0.38c0.51,0.26,1.08,0.57,1.71,0.95c3.3,2.41,5.2,5.2,5.71,8.37c0.25,0.89,0.41,1.71,0.48,2.47
			c0.06,0.76,0.1,1.59,0.1,2.47v2.09v1.71c0,2.79-0.19,5.71-0.57,8.75c-0.26,2.03-0.64,3.97-1.14,5.8c-0.51,1.84-0.95,3.78-1.33,5.8
			c-0.38,1.65-0.73,3.27-1.05,4.85c-0.32,1.59-0.6,3.08-0.86,4.47c-0.64,1.78-1.17,3.49-1.62,5.14c-0.45,1.65-0.98,3.3-1.62,4.95
			c-0.64,2.16-1.27,4.25-1.9,6.28c-0.64,2.03-1.21,4.12-1.71,6.28c-2.54,6.98-4.69,14.43-6.47,22.36
			c-1.78,7.93-3.93,15.51-6.47,22.74l-1.33,4.19c-0.38,0.89-0.92,2.41-1.62,4.57c-0.7,2.16-1.43,4.47-2.19,6.95
			c-0.76,2.47-1.49,4.85-2.19,7.13c-0.7,2.28-1.24,4-1.62,5.14c-0.26,0.5-0.57,1.05-0.95,1.62c-0.38,0.57-0.57,1.17-0.57,1.81
			c0,0.25-0.19,0.44-0.57,0.57c-0.38,0.13-0.7,0.19-0.95,0.19h-0.19c-0.64-0.13-1.17-0.19-1.62-0.19c-0.45,0-0.79-0.19-1.05-0.57
			c-0.13,0-0.35-0.07-0.67-0.19c-0.32-0.13-0.54-0.19-0.67-0.19c-1.02-0.51-1.59-1.08-1.71-1.71c0.25-0.64,0.41-1.37,0.48-2.19
			c0.06-0.83,0.22-1.68,0.48-2.57c0.51-4.31,1.39-8.63,2.66-12.94c0.13-1.78,0.41-3.46,0.86-5.04c0.44-1.59,0.86-3.27,1.24-5.04
			c0.38-2.28,0.79-4.5,1.24-6.66c0.44-2.16,1.05-4.38,1.81-6.66c0.25-2.16,0.7-4.28,1.33-6.37c0.63-2.09,1.27-4.28,1.9-6.56
			c0.63-2.03,1.27-4.12,1.9-6.28c0.63-2.16,1.2-4.31,1.71-6.47c0.76-3.17,1.68-6.31,2.76-9.42c1.08-3.11,2.12-6.18,3.14-9.23
			c0.63-2.03,1.33-4.12,2.09-6.28c0.76-2.16,1.52-4.25,2.28-6.28l3.23-8.94c0.63-1.77,1.27-3.49,1.9-5.14
			c0.63-1.65,1.14-3.36,1.52-5.14c0.63-1.52,1.2-3.2,1.71-5.04c0.51-1.84,0.95-3.64,1.33-5.42c0.25-0.63,0.51-1.58,0.76-2.85
			c0.25-1.27,0.38-2.47,0.38-3.61v-0.76c0-0.5,0-1.01,0-1.52c0-0.51-0.07-0.82-0.19-0.95c-0.26-0.38-0.64-0.6-1.14-0.67
			c-0.51-0.06-1.02-0.1-1.52-0.1c-1.02,0-2.13,0.19-3.33,0.57c-1.21,0.38-2.13,0.7-2.76,0.95c-1.4,0.64-2.63,1.43-3.71,2.38
			c-1.08,0.95-2.13,1.87-3.14,2.76c-5.84,5.2-11.13,10.69-15.89,16.46c-4.76,5.77-9.04,11.89-12.84,18.36
			c-2.41,4.19-4.73,8.44-6.94,12.75c-2.22,4.31-4.41,8.69-6.56,13.13c-1.02,2.03-2.03,4.09-3.04,6.18
			c-1.02,2.09-1.97,4.16-2.85,6.18c-0.89,2.03-1.52,4.19-1.9,6.47c-0.38,2.28-0.7,4.44-0.95,6.47c-0.26,1.02-0.45,1.75-0.57,2.19
			c-0.13,0.45-0.45,0.67-0.95,0.67c-0.89,0-1.78-0.7-2.66-2.09c-2.28-2.03-3.62-4.31-4-6.85c0-1.27,0.06-2.5,0.19-3.71
			c0.13-1.2,0.51-2.44,1.14-3.71c1.39-6.47,2.47-12.87,3.23-19.22c0.76-6.34,1.14-12.87,1.14-19.6v-4.38v-1.52
			c0-0.89-0.16-1.68-0.48-2.38c-0.32-0.7-0.67-1.24-1.05-1.62c-1.14-0.76-2.47-1.14-4-1.14c-1.65,0-3.11,0.38-4.38,1.14
			c-2.92,2.28-4.63,5.07-5.14,8.37c-0.51,3.3-0.89,6.41-1.14,9.32c-0.26,1.65-0.51,3.3-0.76,4.95c-0.26,1.65-0.64,3.3-1.14,4.95
			c-0.64,4.06-1.46,8.06-2.47,11.99c-1.02,3.93-2.22,7.8-3.62,11.6c-0.64,2.79-1.46,5.39-2.47,7.8c-0.89,1.78-1.68,3.55-2.38,5.33
			c-0.7,1.78-1.68,3.55-2.95,5.33c-0.76,0.76-1.46,1.52-2.09,2.28c-0.64,0.76-1.4,1.39-2.28,1.9c-1.02,1.01-2.28,1.52-3.81,1.52
			c-0.13,0.25-0.38,0.41-0.76,0.48c-0.38,0.06-0.64,0.1-0.76,0.1c-0.76,0-1.27-0.19-1.52-0.57c-2.16-0.64-4-1.65-5.52-3.04
			c-0.76-1.01-1.4-2.22-1.9-3.61c0-0.63-0.07-1.33-0.19-2.09c-0.13-0.76-0.26-1.58-0.38-2.47c0-0.38,0-0.79,0-1.24
			c0-0.44,0.13-0.86,0.38-1.24c0.25-2.92,0.86-5.9,1.81-8.94s2.12-6.09,3.52-9.13c1.39-3.17,2.92-6.21,4.57-9.13
			c1.65-2.92,3.3-5.9,4.95-8.94l7.99-10.84c0.63-0.89,1.14-1.71,1.52-2.47c0.38-0.76,0.57-1.65,0.57-2.66
			c0.13-1.52,0.25-2.98,0.38-4.38c0.12-1.39,0.31-2.85,0.57-4.38c0.25-1.01,0.38-2.12,0.38-3.33c0-1.2,0-2.44,0-3.71v-5.14
			c-0.13-0.89-0.19-1.81-0.19-2.76s0-1.81,0-2.57c-0.13-1.27-0.38-2.6-0.76-4c-0.38-1.39-0.7-2.79-0.95-4.19
			c-0.26-1.14-0.54-2.31-0.86-3.52c-0.32-1.2-0.73-2.44-1.24-3.71c-0.64-0.89-0.95-1.58-0.95-2.09c-0.64-1.27-1.62-2.19-2.95-2.76
			c-1.33-0.57-2.7-0.86-4.09-0.86c-0.76,0-1.43,0.03-2,0.1c-0.57,0.07-1.17,0.35-1.81,0.86c-0.13,0-0.38,0.07-0.76,0.19
			c-0.38,0.13-0.7,0.32-0.95,0.57c-1.02,0.89-1.97,1.62-2.85,2.19c-0.89,0.57-1.65,1.3-2.28,2.19c-2.41,2.92-4.57,5.87-6.47,8.85
			c-1.9,2.98-3.55,6.12-4.95,9.42c-1.02,2.54-1.84,4.98-2.47,7.32c-0.64,2.35-1.14,4.66-1.52,6.94c-0.13,1.4-0.26,2.82-0.38,4.28
			c-0.13,1.46-0.19,2.89-0.19,4.28v1.33v3.04c0.13,2.28,0.35,4.54,0.67,6.75c0.31,2.22,0.79,4.47,1.43,6.75
			c0,0.38,0.1,0.79,0.29,1.24c0.19,0.45,0.41,0.86,0.67,1.24c0.76,1.02,1.27,1.84,1.52,2.47c0.76,0.26,1.14,0.64,1.14,1.14v0.19
			c0,0.13-0.19,0.19-0.57,0.19h-0.38c-0.13,0-0.32-0.13-0.57-0.38c-1.27-0.5-2.22-1.08-2.85-1.71c-0.64-0.63-1.27-1.46-1.9-2.47
			l-2.09-4.76c-0.64-1.39-1.08-2.88-1.33-4.47c-0.25-1.58-0.57-3.14-0.95-4.66c-0.25-1.14-0.41-2.28-0.48-3.42
			c-0.06-1.14-0.16-2.41-0.29-3.8c0-1.14,0-2.31,0-3.52c0-1.2,0.13-2.44,0.38-3.71c0-0.5,0.03-1.08,0.1-1.71
			c0.07-0.63,0.22-1.2,0.48-1.71c0.26-2.92,0.7-5.9,1.33-8.94c0.63-3.04,1.65-6.02,3.04-8.94c0.89-1.77,1.74-3.62,2.57-5.52
			c0.82-1.9,1.87-3.61,3.14-5.14c0.25-0.25,0.51-0.57,0.76-0.95c0.25-0.38,0.51-0.63,0.76-0.76c0.63-1.65,1.62-3.2,2.95-4.66
			c1.33-1.46,2.82-2.88,4.47-4.28c0.63-0.25,1.14-0.57,1.52-0.95c0.38-0.38,0.82-0.76,1.33-1.14c1.01-0.38,1.96-0.73,2.85-1.05
			c0.89-0.31,1.77-0.48,2.66-0.48c0.63,0,1.39,0.1,2.28,0.29c0.89,0.19,1.65,0.54,2.28,1.05c5.33,1.52,9.13,4.31,11.42,8.37
			c1.27,1.52,2.28,3.11,3.04,4.76c0.76,1.65,1.65,3.49,2.66,5.52c0.51,1.4,0.89,2.82,1.14,4.28c0.25,1.46,0.51,2.95,0.76,4.47
			c0.25,1.02,0.44,1.93,0.57,2.76c0.13,0.83,0.31,1.74,0.57,2.76c0,1.4,0.03,2.73,0.1,4c0.06,1.27,0.22,2.54,0.48,3.8v0.76
			l0.57,0.38l1.33-1.14c0.63-0.5,1.3-0.98,2-1.43c0.7-0.44,1.36-0.79,2-1.05c1.01-0.51,1.9-0.79,2.66-0.86
			c0.76-0.06,1.46-0.1,2.09-0.1h1.71c1.27,0.26,2.41,0.7,3.42,1.33c1.01,0.64,1.84,1.52,2.47,2.66c0.63,0.64,1.14,1.36,1.52,2.19
			c0.38,0.83,0.76,1.81,1.14,2.95c0.13,2.41,0.63,5.2,1.52,8.37c0,1.4,0,2.73,0,4C-760.46-716.08-760.4-714.88-760.27-713.74z
			 M-811.07-772.72v-0.19h-0.19c-1.14,0.38-2.16,0.92-3.04,1.62c-0.89,0.7-1.78,1.55-2.66,2.57v0.57c1.27-0.63,2.31-1.39,3.14-2.28
			C-813.01-771.32-812.09-772.08-811.07-772.72z M-814.69-666.93c0.25,0.76,0.44,1.55,0.57,2.38c0.13,0.83,0.32,1.81,0.57,2.95
			c0.51,0.64,0.95,0.95,1.33,0.95c0.63,0,1.14-0.19,1.52-0.57c0.76-0.51,1.2-1.08,1.33-1.71c0.63-0.89,1.24-1.71,1.81-2.47
			c0.57-0.76,1.05-1.58,1.43-2.47c0.38-1.27,0.86-2.57,1.43-3.9s1.05-2.69,1.43-4.09l3.04-10.84c0.63-2.92,1.24-5.74,1.81-8.47
			c0.57-2.73,1.17-5.36,1.81-7.9c0.25-1.14,0.44-2.12,0.57-2.95c0.13-0.82,0.31-1.74,0.57-2.76h-0.57
			c-0.26,0.13-0.51,0.29-0.76,0.48c-0.26,0.19-0.51,0.41-0.76,0.67c-0.76,2.03-1.97,3.87-3.62,5.52c-1.52,2.66-2.92,5.39-4.19,8.18
			c-1.27,2.79-2.6,5.46-4,7.99c-1.02,2.16-1.87,4.28-2.57,6.37c-0.7,2.09-1.3,4.28-1.81,6.56c-0.26,1.02-0.41,2.03-0.48,3.04
			C-814.28-668.96-814.43-667.95-814.69-666.93z M-809.74-771.01c-0.64,0.26-1.27,0.6-1.9,1.05c-0.64,0.45-1.27,0.86-1.9,1.24v0.57
			h0.57c0.38-0.38,0.82-0.73,1.33-1.05c0.51-0.32,0.95-0.73,1.33-1.24C-809.93-770.43-809.74-770.62-809.74-771.01z M-805.93-662.18
			v0.57h0.57c0-0.25,0.03-0.48,0.1-0.67c0.06-0.19,0.1-0.41,0.1-0.67C-805.3-662.56-805.55-662.3-805.93-662.18z M-804.79-664.08
			c-0.26,0.13-0.38,0.51-0.38,1.14h0.38c1.9-2.41,3.23-4.88,4-7.42v-0.57c-0.51,0.51-0.76,0.89-0.76,1.14
			c-0.64,0.64-1.05,1.24-1.24,1.81c-0.19,0.57-0.35,1.11-0.48,1.62l-0.95,0.95c-0.13,0.38-0.26,0.64-0.38,0.76
			C-804.73-664.52-804.79-664.33-804.79-664.08z M-804.03-667.31l-0.38,0.38c0,0.13,0.03,0.22,0.1,0.29c0.06,0.07,0.1,0.16,0.1,0.29
			c-0.38,0.26-0.57,0.45-0.57,0.57h0.57v-0.57v-0.38c0-0.13,0.03-0.22,0.1-0.29C-804.06-667.09-804.03-667.19-804.03-667.31z
			 M-804.03-667.31h0.19c0.25,0,0.38-0.19,0.38-0.57h-0.57V-667.31z M-803.84-661.23l-0.19,0.19l0.19,0.19V-661.23z M-803.27-662.18
			c0.89-0.25,1.46-0.67,1.71-1.24c0.25-0.57,0.51-1.17,0.76-1.81c-0.64,0.38-1.11,0.83-1.43,1.33
			C-802.54-663.38-802.89-662.81-803.27-662.18z M-800.04-666.36c-0.38,0.26-0.57,0.45-0.57,0.57
			C-800.23-665.79-800.04-665.98-800.04-666.36z M-799.85-673.02h-0.38v0.38L-799.85-673.02z M-799.85-673.02v-0.19
			c0-0.25,0.06-0.38,0.19-0.38c0.12,0,0.19-0.06,0.19-0.19v-0.57l-0.57,0.57C-800.04-673.66-799.97-673.4-799.85-673.02z
			 M-781.58-732.76l0.38-0.19C-781.33-732.83-781.46-732.76-781.58-732.76z M-716.32-681.01l-0.19-0.19l-0.19,0.19h-0.19v0.38v0.38
			c-0.26,1.27-0.6,2.51-1.05,3.71c-0.45,1.21-0.79,2.38-1.05,3.52c-1.27,4.19-2.41,8.31-3.42,12.37c-1.02,4.06-2.22,8.31-3.61,12.75
			c-0.89,3.3-1.81,6.63-2.76,9.99c-0.95,3.36-1.94,6.69-2.95,9.99c-0.26,0.63-0.41,1.2-0.48,1.71c-0.07,0.51-0.1,1.01-0.1,1.52
			c0.38-0.13,0.57-0.38,0.57-0.76c0.76-2.03,1.36-3.97,1.81-5.8c0.44-1.84,1.05-3.78,1.81-5.8c0.89-2.66,1.65-5.23,2.28-7.71
			c0.63-2.47,1.46-5.04,2.47-7.71c1.01-4.44,2.09-8.91,3.23-13.41c1.14-4.5,2.35-8.97,3.61-13.41c0-0.13,0.03-0.31,0.1-0.57
			c0.06-0.25,0.1-0.51,0.1-0.76V-681.01z M-730.21-625.46c0,0.5,0.19,0.76,0.57,0.76l0.19-0.19c0-0.38,0.1-0.73,0.29-1.05
			c0.19-0.32,0.29-0.73,0.29-1.24c0.63-2.16,1.3-4.28,2-6.37c0.7-2.09,1.49-4.16,2.38-6.18c2.54-6.98,4.69-14.14,6.47-21.5
			l0.19-0.19c0.25-0.25,0.38-0.51,0.38-0.76h-0.38c-0.13,0-0.19-0.06-0.19-0.19v0.19c-0.38,0.38-0.57,0.89-0.57,1.52
			c-1.4,3.55-2.6,7.04-3.61,10.46c-1.02,3.42-2.03,6.97-3.04,10.66c-1.02,2.54-1.84,4.98-2.47,7.32
			C-728.37-629.87-729.2-627.62-730.21-625.46z M-729.26-641.25h0.57v-0.19l-0.38,0.19H-729.26z M-728.31-643.53l-0.19,0.19
			l0.19,0.38V-643.53z M-728.31-643.72c0.38,0,0.57-0.32,0.57-0.95c0-0.25-0.03-0.41-0.1-0.48c-0.07-0.07-0.1-0.16-0.1-0.29
			c-0.13,0.25-0.16,0.51-0.1,0.76C-727.96-644.42-728.06-644.1-728.31-643.72z M-727.55-646.96v0.57c0.12-0.26,0.16-0.45,0.09-0.57
			c-0.07-0.13,0.03-0.32,0.29-0.57C-727.42-647.27-727.55-647.08-727.55-646.96z M-727.17-648.29v0.76
			c0.38-0.38,0.57-0.95,0.57-1.71C-726.98-648.86-727.17-648.54-727.17-648.29z M-720.32-674.73c-0.13,0.26-0.22,0.45-0.29,0.57
			c-0.07,0.13-0.1,0.32-0.1,0.57c0,0.13,0.03,0.26,0.1,0.38c0.06,0.13,0.1,0.32,0.1,0.57c-0.26,0.26-0.45,0.54-0.57,0.86
			c-0.13,0.32-0.32,0.6-0.57,0.86c-0.64,3.17-1.4,6.34-2.28,9.51c-0.89,3.17-1.78,6.4-2.66,9.7v2.28l0.57-0.57
			c0.89-3.68,1.74-7.23,2.57-10.65c0.82-3.42,1.81-6.97,2.95-10.65v-1.33C-720.38-673.27-720.32-673.97-720.32-674.73z
			 M-720.32-674.73c0.38-0.25,0.57-0.63,0.57-1.14C-720.13-675.5-720.32-675.12-720.32-674.73z M-711-763.78
			c-0.64,0-0.95,0.19-0.95,0.57C-711.69-763.2-711.38-763.39-711-763.78z M-709.66-764.73h-0.76v0.57
			C-709.92-764.16-709.66-764.35-709.66-764.73z M-708.71-764.92c-0.64,0-0.95,0.07-0.95,0.19
			C-709.03-764.73-708.71-764.79-708.71-764.92z M-707.57-765.49h0.38l0.76-0.38c0.51,0,0.95-0.19,1.33-0.57
			c-0.89,0-1.33,0.07-1.33,0.19c-0.76,0-1.21,0.13-1.33,0.38c-0.26,0-0.57,0.32-0.95,0.95
			C-707.95-764.92-707.57-765.11-707.57-765.49z M-706.81-763.78c0-0.25,0.13-0.38,0.38-0.38h-0.38V-763.78z M-706.24-764.16
			c0.13,0,0.38-0.19,0.76-0.57C-705.99-764.73-706.24-764.54-706.24-764.16z M-704.53-764.73v-0.19h-0.38l-0.57,0.19H-704.53z"/>
		<path class="st3" d="M-627.85-695.47c0.12-0.12,0.31-0.19,0.57-0.19c0.25,0,0.48,0.13,0.67,0.38c0.19,0.26,0.41,0.45,0.67,0.57
			c0.13,0,0.19,0.19,0.19,0.57c-0.26,0.64-0.45,1.21-0.57,1.71c-0.13,0.51-0.32,1.02-0.57,1.52c-1.9,3.17-3.78,6.25-5.61,9.23
			c-1.84,2.98-3.84,5.93-5.99,8.85c-0.76,1.14-1.62,2.32-2.57,3.52c-0.95,1.21-1.87,2.51-2.76,3.9l-5.14,4.57
			c-1.14,0.64-2.16,1.14-3.04,1.52c-0.89,0.38-1.84,0.57-2.85,0.57c-1.27,0-2.66-0.38-4.19-1.14c-1.4-0.63-2.73-1.49-4-2.57
			c-1.27-1.08-2.35-2.31-3.23-3.71c-1.02-1.77-1.65-3.8-1.9-6.09c0-0.51-0.03-1.01-0.1-1.52c-0.07-0.5-0.09-1.01-0.09-1.52
			c-0.13-0.38-0.19-0.89-0.19-1.52c0.63-6.59,1.77-12.87,3.42-18.83c0.25-0.63,0.51-1.27,0.76-1.9c0.25-0.63,0.38-1.27,0.38-1.9
			v-0.38c-0.64,0.26-0.98,0.6-1.05,1.05c-0.06,0.45-0.22,0.98-0.48,1.62l-7.23,12.75c-1.02,1.9-2.06,3.74-3.14,5.52
			c-1.08,1.78-2.25,3.55-3.52,5.33c-0.64,1.02-1.36,1.94-2.19,2.76c-0.83,0.83-1.68,1.75-2.57,2.76c-0.51,0.64-1.14,1.17-1.9,1.62
			c-0.76,0.45-1.46,0.79-2.09,1.05c-0.26,0.13-0.64,0.19-1.14,0.19c-0.38,0-1.08-0.13-2.09-0.38c-1.02-0.38-1.94-0.98-2.76-1.81
			c-0.83-0.82-1.75-1.68-2.76-2.57c-1.39-1.01-2.09-2.41-2.09-4.19c0-0.25,0.03-0.41,0.1-0.48c0.07-0.06,0.1-0.22,0.1-0.48
			c0-0.38-0.03-0.79-0.1-1.24c-0.06-0.44-0.1-0.86-0.1-1.24c0-1.9,0.16-3.71,0.48-5.42c0.32-1.71,0.79-3.39,1.43-5.04
			c0.38-1.52,0.86-3.04,1.43-4.57c0.57-1.52,1.17-2.98,1.81-4.38c1.77-3.42,3.93-6.78,6.47-10.08c0.51-0.89,0.82-1.33,0.95-1.33
			c0.63-1.01,1.33-1.74,2.09-2.19c0.76-0.44,1.52-0.98,2.28-1.62c0.51-0.38,1.01-0.57,1.52-0.57c0.25,0,0.51-0.03,0.76-0.09
			c0.25-0.06,0.51-0.09,0.76-0.09c1.39,0,2.92,0.32,4.57,0.95c1.65,0.64,3.11,1.59,4.38,2.85c0.38,0.38,0.67,0.83,0.86,1.33
			c0.19,0.51,0.41,1.02,0.67,1.52c0,0.13,0.03,0.26,0.1,0.38c0.06,0.13,0.1,0.32,0.1,0.57c0,0.51-0.19,0.95-0.57,1.33
			c-0.26,0.26-0.45,0.38-0.57,0.38c-0.13,0-0.45-0.13-0.95-0.38l-3.04-2.28c-0.26-0.25-0.51-0.38-0.76-0.38
			c-0.26,0-0.45,0.07-0.57,0.19l-2.28,2.09c-0.89,1.02-1.68,2.03-2.38,3.04c-0.7,1.02-1.43,2.03-2.19,3.04
			c-1.4,2.54-2.57,5.07-3.52,7.61c-0.95,2.54-1.87,5.14-2.76,7.8c-0.51,1.02-0.86,2.03-1.05,3.04c-0.19,1.02-0.41,2.03-0.67,3.04
			c-0.13,0.26-0.19,0.6-0.19,1.05c0,0.45,0,0.79,0,1.05c0,0.26,0.13,0.51,0.38,0.76h0.19c0.25,0,0.44-0.06,0.57-0.19
			c1.65-1.52,3.2-3.17,4.66-4.95c1.46-1.78,2.82-3.74,4.09-5.9c2.03-2.92,4.03-5.8,5.99-8.66c1.96-2.85,3.9-5.74,5.8-8.66
			c1.14-1.9,2.44-3.87,3.9-5.9c1.46-2.03,2.88-4,4.28-5.9l3.61-5.14c0.51-0.76,0.89-1.14,1.14-1.14c0.13,0,0.57,0.13,1.33,0.38
			c0.38,0.26,0.82,0.45,1.33,0.57c0.51,0.13,0.89,0.32,1.14,0.57c0.89,0.89,1.33,1.71,1.33,2.47c0,0.26-0.03,0.45-0.1,0.57
			c-0.07,0.13-0.1,0.32-0.1,0.57l-2.09,6.47c-1.02,3.42-2.03,6.88-3.04,10.37c-1.02,3.49-1.97,7.01-2.85,10.56
			c-0.26,1.52-0.54,3.04-0.86,4.57c-0.32,1.52-0.6,3.17-0.86,4.95c-0.13,1.02-0.22,2.03-0.29,3.04c-0.07,1.02-0.1,2.03-0.1,3.04
			c0,0.76,0.03,1.49,0.1,2.19c0.06,0.7,0.1,1.43,0.1,2.19c0,0.76,0.09,1.4,0.29,1.9c0.19,0.51,0.41,1.08,0.67,1.71
			c0.51,0.89,1.33,1.33,2.47,1.33h0.57c0.25-0.13,0.57-0.19,0.95-0.19c0.38,0,0.7-0.13,0.95-0.38c0.63-0.63,1.3-1.24,2-1.81
			c0.7-0.57,1.36-1.24,2-2c1.77-1.9,3.55-3.87,5.33-5.9c1.77-2.03,3.36-4.25,4.76-6.66c1.39-1.9,2.73-3.8,4-5.71
			c1.27-1.9,2.6-3.87,4-5.9c0.38-0.51,0.67-1.05,0.86-1.62c0.19-0.57,0.41-1.17,0.67-1.81l1.33-1.14c0.12-0.13,0.31-0.19,0.57-0.19
			c0.25,0,0.44,0.07,0.57,0.19c0.25,0.13,0.35,0.22,0.29,0.29C-628.01-695.69-627.98-695.6-627.85-695.47z M-684.55-703.46
			c-1.14,0.38-1.71,1.08-1.71,2.09l-0.76,0.57c-1.52,2.28-2.85,4.79-4,7.52c-1.14,2.73-2.09,5.49-2.85,8.28
			c-0.26,0.76-0.38,1.33-0.38,1.71c0,0.38,0.06,0.7,0.19,0.95c-0.51,0.13-0.76,0.51-0.76,1.14c0,0.13,0.03,0.22,0.1,0.29
			c0.06,0.06,0.1,0.16,0.1,0.29c0,0.13-0.03,0.19-0.1,0.19c-0.07,0-0.1,0.07-0.1,0.19c-0.13,0-0.13,0.07,0,0.19
			c0-0.13,0.03-0.22,0.1-0.29c0.06-0.06,0.1-0.16,0.1-0.29c0.38-0.25,0.57-0.89,0.57-1.9c0.25-0.13,0.57-0.7,0.95-1.71
			c0.76-2.54,1.62-5.04,2.57-7.51c0.95-2.47,2.12-4.85,3.52-7.13c0.25-0.25,0.41-0.63,0.48-1.14c0.06-0.51,0.22-0.95,0.48-1.33
			C-685.57-701.5-685.06-702.19-684.55-703.46z M-694.16-687.67c0.06,0,0.1-0.06,0.1-0.19l-0.19,0.38
			C-694.25-687.61-694.22-687.67-694.16-687.67z M-693.3-690.72c0-0.13,0.03-0.22,0.09-0.29c0.06-0.06,0.1-0.16,0.1-0.29
			c-0.26,0-0.38,0.13-0.38,0.38L-693.3-690.72z M-688.93-689.76c-0.38,0.38-0.51,0.57-0.38,0.57L-688.93-689.76z M-688.36-690.72
			c0.25-0.13,0.38-0.5,0.38-1.14C-688.23-691.35-688.36-690.97-688.36-690.72z M-687.97-691.86c0.25-0.13,0.38-0.32,0.38-0.57V-693
			C-687.85-692.74-687.97-692.36-687.97-691.86z M-687.59-693c0.63-0.25,1.01-0.76,1.14-1.52
			C-687.21-694.39-687.59-693.89-687.59-693z M-686.45-694.52c0.25-0.13,0.38-0.51,0.38-1.14
			C-686.33-695.53-686.45-695.15-686.45-694.52z M-686.07-695.66c0.76-0.51,1.14-1.39,1.14-2.66c-0.76,0.38-1.14,1.08-1.14,2.09
			V-695.66z M-683.98-700.23c-0.64,0.38-0.95,1.02-0.95,1.9c0.63-0.25,0.95-0.63,0.95-1.14v-0.57c0.76-0.13,1.14-0.63,1.14-1.52
			C-683.35-701.43-683.73-700.99-683.98-700.23z M-684.55-703.46c0.51-0.51,0.76-1.08,0.76-1.71c-0.51,0.26-0.76,0.7-0.76,1.33
			V-703.46z M-682.46-702.32c0.76-0.25,1.14-0.7,1.14-1.33C-682.08-703.4-682.46-702.96-682.46-702.32z M-636.41-681.58
			c-0.26,0.25-0.38,0.51-0.38,0.76L-636.41-681.58z M-632.8-686.72c-0.26,0.13-0.38,0.22-0.38,0.29c0,0.07-0.07,0.16-0.19,0.29
			l0.38-0.38L-632.8-686.72z M-630.71-690.72c0.38-0.13,0.57-0.25,0.57-0.38c-0.13,0-0.26,0.07-0.38,0.19L-630.71-690.72z
			 M-629.57-691.86c0,0.26-0.13,0.38-0.38,0.38c0.12,0,0.25-0.06,0.38-0.19V-691.86z M-628.61-694.9v0.38c0-0.13,0.03-0.19,0.1-0.19
			c0.06,0,0.1-0.06,0.1-0.19H-628.61z"/>
		<path class="st3" d="M-593.23-709.93c0,0.26-0.07,0.45-0.19,0.57c-0.51,0.26-0.95,0.38-1.33,0.38c-1.02,0.26-2.03,0.6-3.04,1.05
			c-1.02,0.45-2.03,1.11-3.04,2c-2.16,1.65-4.38,3.81-6.66,6.47c-2.16,2.92-4.28,5.84-6.37,8.75c-2.09,2.92-4.16,6.03-6.18,9.32
			l-4.57,8.75c-1.02,1.65-1.71,3.74-2.09,6.28c-0.26,1.27-0.6,2.47-1.05,3.62c-0.45,1.14-0.79,2.22-1.05,3.23
			c-0.13,0.63-0.57,1.33-1.33,2.09c-0.26,0.25-0.51,0.38-0.76,0.38c-0.51,0-0.83-0.19-0.95-0.57c0-0.38-0.06-0.7-0.19-0.95
			c-0.13-0.26-0.38-0.38-0.76-0.38c-0.89-0.13-1.33-0.51-1.33-1.14v-0.57c0-0.25,0.03-0.44,0.1-0.57c0.06-0.13,0.09-0.32,0.09-0.57
			v-0.38h-0.38c-0.13,0.26-0.26,0.45-0.38,0.57c-0.13,0.13-0.26,0.32-0.38,0.57v-0.57c0-0.51-0.26-0.76-0.76-0.76
			c-0.64-0.13-0.95-0.44-0.95-0.95c0-0.13,0.12-0.7,0.38-1.71c0.13-1.01,0.25-2.12,0.38-3.33c0.13-1.2,0.32-2.38,0.57-3.52
			c0.38-2.16,0.79-4.19,1.24-6.09c0.44-1.9,0.79-3.8,1.05-5.71c0.38-1.78,0.79-3.49,1.24-5.14c0.44-1.65,0.79-3.23,1.05-4.76
			c0-1.27,0.25-2.35,0.76-3.23c0.38-1.9,0.82-3.62,1.33-5.14c0.76-2.41,1.43-4.76,2-7.04s0.98-4.69,1.24-7.23
			c0.25-0.25,0.51-0.51,0.76-0.76c0.25-0.25,0.57-0.5,0.95-0.76c0.25-0.13,0.35-0.22,0.29-0.29c-0.07-0.06-0.03-0.1,0.1-0.1h0.38
			l2.47,0.76c0.38,0.38,0.57,0.83,0.57,1.33h0.38c0.51,0,0.95,0.19,1.33,0.57c0.12,0.38,0.25,0.76,0.38,1.14
			c0.13,0.38,0.31,0.64,0.57,0.76c0.38,0.26,0.57,0.64,0.57,1.14c0,0.64-0.03,1.11-0.1,1.43c-0.07,0.32-0.1,0.6-0.1,0.86
			c-0.26,0.89-0.6,2.03-1.05,3.42c-0.45,1.4-0.92,2.89-1.43,4.47c-0.51,1.59-1.02,3.14-1.52,4.66c-0.51,1.52-0.89,2.79-1.14,3.81
			c0,0.76-0.07,1.27-0.19,1.52c0,0.13,0.03,0.19,0.1,0.19c0.06,0,0.1,0.07,0.1,0.19h0.57l1.14-0.95l9.13-13.13
			c2.66-2.66,5.45-4.88,8.37-6.66c1.52-0.63,2.79-0.95,3.81-0.95c0.63,0,1.58,0.13,2.85,0.38c1.39,0.13,2.41,1.14,3.04,3.04V-709.93
			z M-611.3-696.99c0.12-0.13,0.19-0.57,0.19-1.33c-0.64,0.64-1.21,1.27-1.71,1.9c-0.51,0.64-1.02,1.46-1.52,2.47
			c-0.13,0.13-0.19,0.32-0.19,0.57c-0.51,0.25-0.95,0.64-1.33,1.14c-0.38,0.51-0.7,1.08-0.95,1.71c-0.26,0.38-0.57,0.79-0.95,1.24
			c-0.38,0.45-0.7,0.98-0.95,1.62c-0.89,0.76-1.33,1.59-1.33,2.47c-0.76,1.02-1.3,2-1.62,2.95c-0.32,0.95-0.73,1.93-1.24,2.95v0.57
			h0.57c0.89-1.65,1.65-3.68,2.28-6.09c0.25-0.25,0.54-0.57,0.86-0.95c0.31-0.38,0.6-0.82,0.86-1.33c0.38-0.51,0.73-0.98,1.05-1.43
			c0.31-0.44,0.6-1.05,0.86-1.81c0.38-0.38,0.76-0.79,1.14-1.24c0.38-0.44,0.63-0.98,0.76-1.62c0-0.13,0.13-0.31,0.38-0.57
			c0.63-0.51,1.17-1.05,1.62-1.62C-612.1-695.95-611.68-696.49-611.3-696.99z M-622.15-686.53c0,0.26,0.12,0.45,0.38,0.57l0.38-0.19
			l0.38-0.19c0.76-1.39,1.62-2.79,2.57-4.19c0.95-1.39,1.93-2.79,2.95-4.19l0.57-1.52c0.76-0.89,1.52-1.77,2.28-2.66
			c0.76-0.89,1.46-1.84,2.09-2.85l0.57-0.95c-1.02,0.64-1.9,1.49-2.66,2.57c-0.76,1.08-1.52,2.13-2.28,3.14
			c-0.13,0.13-0.19,0.32-0.19,0.57c-1.02,1.02-1.9,2.09-2.66,3.23c-0.76,1.14-1.52,2.28-2.28,3.42
			C-620.69-689-621.39-687.93-622.15-686.53z M-610.54-698.9c0.13,0,0.25-0.06,0.38-0.19L-610.54-698.9z M-609.02-704.22
			c-0.26,0-0.38,0.13-0.38,0.38C-609.15-703.84-609.02-703.97-609.02-704.22z M-609.4-699.85c0.25-0.25,0.38-0.44,0.38-0.57
			C-609.27-700.16-609.4-699.97-609.4-699.85z M-608.64-701.37c-0.13,0.13-0.19,0.26-0.19,0.38c0-0.13,0.06-0.19,0.19-0.19V-701.37z
			 M-607.69-702.32c0.25-0.25,0.38-0.44,0.38-0.57C-607.56-702.64-607.69-702.45-607.69-702.32z"/>
		<path class="st3" d="M-583.91-705.75c0,0.89-0.45,1.4-1.33,1.52v-0.95c-0.51,0.26-0.76,0.76-0.76,1.52
			c0.38-0.38,0.63-0.57,0.76-0.57c-0.13,0.25-0.19,0.51-0.19,0.76c0,0.38,0.06,0.64,0.19,0.76c-1.14,2.16-2.19,4.25-3.14,6.28
			c-0.95,2.03-1.75,4.19-2.38,6.47c-0.26,0.64-0.45,1.3-0.57,2c-0.13,0.7-0.26,1.49-0.38,2.38c0.25-0.13,0.41-0.35,0.48-0.67
			c0.06-0.31,0.22-0.6,0.48-0.86c1.27-4.06,2.6-7.8,4-11.23c0.63-1.01,1.3-2.16,2-3.42c0.7-1.27,1.17-2.41,1.43-3.42
			c0.76-0.5,1.14-0.95,1.14-1.33c0.12-0.51,0.25-0.76,0.38-0.76c0.63,0,0.98,0.16,1.05,0.48c0.06,0.32,0.16,0.6,0.29,0.86v0.38
			l0.38-0.19c0.13,0,0.19-0.06,0.19-0.19c0.63,0,0.95,0.13,0.95,0.38c0,0.51-0.07,0.89-0.19,1.14c-0.13,0.25-0.32,0.57-0.57,0.95
			c-0.76,2.66-1.71,5.33-2.85,7.99c-0.64,2.41-1.33,4.76-2.09,7.04c-0.76,2.28-1.46,4.63-2.09,7.04c-0.38,1.65-0.73,3.33-1.05,5.04
			c-0.32,1.71-0.48,3.46-0.48,5.23v2.85c0.13,0,0.22,0.03,0.29,0.09c0.06,0.07,0.16,0.1,0.29,0.1c0.89-0.25,1.46-0.57,1.71-0.95
			c1.27-1.14,2.5-2.28,3.71-3.42c1.2-1.14,2.44-2.41,3.71-3.81c1.39-1.52,2.76-3.01,4.09-4.47c1.33-1.46,2.69-2.76,4.09-3.9
			c1.01-1.39,2.09-2.69,3.23-3.9c1.14-1.2,2.28-2.44,3.42-3.71c1.52-1.52,2.95-3.07,4.28-4.66c1.33-1.58,2.63-3.14,3.9-4.66
			l0.95-1.33c0.25,0.26,0.38,0.57,0.38,0.95c0,0.38,0.06,0.7,0.19,0.95v0.38c0,0.26-0.03,0.48-0.1,0.67
			c-0.07,0.19-0.1,0.41-0.1,0.67c-0.13,1.02-0.48,2.03-1.05,3.04c-0.57,1.02-1.24,2.03-2,3.04c-1.02,0.51-1.59,0.95-1.71,1.33
			l-0.19,0.19c-1.27,1.14-2.32,2.25-3.14,3.33c-0.83,1.08-1.75,2.25-2.76,3.52c-1.78,1.9-3.49,3.8-5.14,5.71
			c-1.65,1.9-3.23,3.74-4.76,5.52c-0.64,1.02-1.27,1.94-1.9,2.76c-0.64,0.83-1.27,1.62-1.9,2.38c-0.38,0.64-0.79,1.17-1.24,1.62
			c-0.45,0.45-0.92,0.98-1.43,1.62l-2.85,2.66c-0.76,0.38-1.65,0.57-2.66,0.57c-0.89,0-1.59-0.06-2.09-0.19
			c-0.26-0.25-0.6-0.44-1.05-0.57c-0.45-0.13-0.79-0.38-1.05-0.76c-1.27-0.51-2.16-0.95-2.66-1.33c-0.38-0.51-0.76-1.01-1.14-1.52
			c-0.38-0.5-0.7-1.08-0.95-1.71c-0.89-2.16-1.33-4.19-1.33-6.09c0-2.16,0.12-4.28,0.38-6.37c0.25-2.09,0.7-4.21,1.33-6.37
			c0.25-1.52,0.54-2.98,0.86-4.38c0.31-1.39,0.79-2.79,1.43-4.19l3.61-7.23c0.51-1.01,1.11-1.93,1.81-2.76
			c0.7-0.82,1.36-1.74,2-2.76c0.13-0.25,0.35-0.41,0.67-0.48c0.32-0.06,0.54-0.09,0.67-0.09c0.13,0.64,0.25,0.95,0.38,0.95
			c0,0.13-0.03,0.22-0.1,0.29c-0.06,0.07-0.09,0.16-0.09,0.29c0,0.13,0.03,0.19,0.09,0.19c0.06,0,0.1,0.07,0.1,0.19v0.38h0.38v0.38
			C-583.72-706-583.78-705.87-583.91-705.75z M-593.04-686.53c0-0.13,0.13-0.25,0.38-0.38c-0.13,0-0.26,0.07-0.38,0.19V-686.53z
			 M-592.28-687.48c0-0.13-0.13-0.44-0.38-0.95c-0.13,0.26-0.19,0.51-0.19,0.76c0,0.26,0.06,0.45,0.19,0.57
			C-592.41-687.1-592.28-687.23-592.28-687.48z M-592.66-688.43c0.13-0.13,0.19-0.38,0.19-0.76
			C-592.6-689.07-592.66-688.81-592.66-688.43z M-592.09-689.19c0.13-0.13,0.19-0.32,0.19-0.57c0-0.25,0-0.5,0-0.76
			C-592.03-690.4-592.09-689.96-592.09-689.19z M-591.71-685.58c-0.13,0.13-0.19,0.32-0.19,0.57v0.76c0.12-0.13,0.19-0.32,0.19-0.57
			V-685.58z M-591.33-691.1c0-0.12-0.03-0.19-0.1-0.19c-0.07,0-0.1-0.06-0.1-0.19c-0.13,0.13-0.19,0.26-0.19,0.38v0.57
			C-591.45-690.78-591.33-690.97-591.33-691.1z M-591.52-691.48c0.38-0.63,0.76-1.24,1.14-1.81c0.38-0.57,0.57-1.36,0.57-2.38
			C-590.82-694.52-591.39-693.12-591.52-691.48z M-589.81-695.66c0.25-0.25,0.38-0.51,0.38-0.76
			C-589.68-696.42-589.81-696.17-589.81-695.66z M-589.23-696.8c0-0.13-0.03-0.22-0.1-0.29c-0.07-0.06-0.1-0.16-0.1-0.29v0.76
			L-589.23-696.8z M-589.23-697.38c0.63-0.5,1.08-1.08,1.33-1.71c0.25-0.63,0.51-1.46,0.76-2.47c-0.64,0.64-1.11,1.24-1.43,1.81
			C-588.89-699.18-589.11-698.39-589.23-697.38z M-587.14-701.56c0.13-0.13,0.29-0.25,0.48-0.38c0.19-0.12,0.29-0.31,0.29-0.57
			c-0.26,0.13-0.45,0.22-0.57,0.29C-587.08-702.16-587.14-701.94-587.14-701.56z M-586.38-702.51c0-0.13-0.03-0.25-0.1-0.38
			c-0.07-0.13-0.1-0.25-0.1-0.38l0.57-0.38C-586-703.02-586.13-702.64-586.38-702.51z M-583.91-705.75c0-0.25-0.07-0.51-0.19-0.76
			c-0.76,0.13-1.14,0.57-1.14,1.33c0.25-0.25,0.51-0.38,0.76-0.38C-584.22-705.56-584.04-705.62-583.91-705.75z M-582.58-707.84
			l-0.38,0.38l0.19,0.38c-0.38,0-0.7,0.13-0.95,0.38c0.12-0.13,0.19-0.22,0.19-0.29c0-0.06,0.13-0.16,0.38-0.29
			c0-0.13,0.06-0.22,0.19-0.29c0.13-0.06,0.19-0.16,0.19-0.29l0.19-0.19V-707.84z M-581.43-667.69c0-0.13,0.03-0.19,0.1-0.19
			c0.06,0,0.1-0.06,0.1-0.19l-0.38,0.38c-0.13,0-0.19,0.07-0.19,0.19v0.38c0-0.13,0.06-0.19,0.19-0.19
			C-581.5-667.31-581.43-667.44-581.43-667.69z M-581.24-668.08c0.89-0.38,1.39-0.89,1.52-1.52c-0.26,0.13-0.48,0.32-0.67,0.57
			C-580.58-668.77-580.86-668.46-581.24-668.08z M-571.92-723.44c-0.26,0.13-0.38,0.32-0.38,0.57c0,0.26-0.07,0.45-0.19,0.57
			c-0.76,0.38-1.33,0.95-1.71,1.71c-0.38,0.38-0.57,0.83-0.57,1.33c0,0.38,0.06,0.7,0.19,0.95c-0.26,0.51-0.51,1.14-0.76,1.9
			c-0.26,0-0.45,0.03-0.57,0.09c-0.13,0.07-0.26,0.1-0.38,0.1c-0.13,0-0.19-0.1-0.19-0.29c0-0.19-0.13-0.29-0.38-0.29v-0.57
			c-0.26-0.25-0.54-0.44-0.86-0.57c-0.32-0.13-0.54-0.44-0.67-0.95c0-0.38-0.16-0.6-0.48-0.67c-0.32-0.06-0.6-0.22-0.86-0.48
			c-0.38-0.13-0.57-0.44-0.57-0.95c0.13-1.01,0.35-1.96,0.67-2.85c0.31-0.89,0.92-1.65,1.81-2.28c0.12-0.25,0.51-0.38,1.14-0.38
			c0.38,0,0.63,0.07,0.76,0.19c0.25,0.13,0.6,0.26,1.05,0.38c0.44,0.13,0.79,0.32,1.05,0.57c0.38,0.26,0.73,0.57,1.05,0.95
			C-572.46-724.01-572.18-723.69-571.92-723.44z M-578.01-671.88c-0.26,0.13-0.48,0.26-0.67,0.38c-0.19,0.13-0.35,0.51-0.48,1.14
			c0.76-0.5,1.14-0.89,1.14-1.14V-671.88z M-578.01-674.16c-0.13,0-0.19,0.06-0.19,0.19v0.38c0,0.13,0.13-0.06,0.38-0.57v-0.19
			C-577.82-674.23-577.88-674.16-578.01-674.16z M-577.82-671.88c0.12-0.12,0.19-0.31,0.19-0.57c0,0.13-0.13,0.32-0.38,0.57H-577.82
			z M-577.63-672.45c0.51-0.13,0.89-0.51,1.14-1.14C-577.12-673.34-577.5-672.96-577.63-672.45z M-577.44-724.2h0.38
			c-0.13,0-0.19-0.13-0.19-0.38v-0.19c-0.13,0-0.19,0.13-0.19,0.38V-724.2z M-576.68-675.88c-0.26,0.13-0.51,0.51-0.76,1.14
			c0.63-0.25,0.95-0.5,0.95-0.76c0-0.13-0.03-0.19-0.1-0.19C-576.65-675.69-576.68-675.75-576.68-675.88z M-576.87-723.44
			c0.89-0.13,1.33-0.57,1.33-1.33v-0.19l-0.19,0.19h-0.57v-0.38c-0.38,0-0.6,0.03-0.67,0.09c-0.07,0.07-0.16,0.16-0.29,0.29h0.57
			c-0.26,0.13-0.38,0.38-0.38,0.76C-576.93-723.88-576.87-723.69-576.87-723.44z M-576.68-676.07c0.12-0.13,0.31-0.19,0.57-0.19
			l0.38-0.38h-0.19L-576.68-676.07z M-575.92-674.16c0.38-0.38,0.63-0.89,0.76-1.52L-575.92-674.16z M-574.97-676.07l0.19-0.19
			h-0.19V-676.07z M-574.58-678.35c0,0.13-0.03,0.19-0.1,0.19c-0.07,0-0.1,0.07-0.1,0.19l0.38-0.38v-0.19L-574.58-678.35z
			 M-574.77-676.26c0.76-0.25,1.2-0.63,1.33-1.14C-574.2-676.89-574.65-676.51-574.77-676.26z M-573.63-679.49
			c-0.13,0-0.19,0.07-0.19,0.19l0.19,0.19V-679.49z M-573.63-679.49l0.38-0.19h0.19c0-0.25,0.13-0.51,0.38-0.76
			c-0.13,0-0.19,0.03-0.19,0.1c0,0.07-0.07,0.09-0.19,0.09l-0.57,0.57V-679.49z M-573.25-677.4l0.38-0.19l-0.19-0.19l-0.38,0.38
			H-573.25z M-572.87-677.59c0.51-0.13,0.89-0.63,1.14-1.52C-572.49-678.6-572.87-678.09-572.87-677.59z M-571.16-681.77
			c-0.76,0.26-1.27,0.7-1.52,1.33C-572.18-680.57-571.67-681.01-571.16-681.77z M-570.97-680.25c-0.13,0.26-0.19,0.45-0.19,0.57
			c0,0.13-0.07,0.19-0.19,0.19c-0.26,0-0.38,0.13-0.38,0.38c0.13,0,0.16-0.03,0.1-0.09c-0.07-0.06,0.03-0.1,0.29-0.1
			c0-0.25,0.12-0.38,0.38-0.38V-680.25z M-570.59-681.01l0.38-0.38L-570.59-681.01z M-568.12-683.68h-0.19
			c0,0.25-0.07,0.45-0.19,0.57c0.13-0.13,0.25-0.19,0.38-0.19V-683.68z M-566.78-686.72c0-0.38,0.19-0.57,0.57-0.57v-0.19
			l-0.57,0.57V-686.72z M-565.45-688.05c0.51-0.38,0.95-0.89,1.33-1.52c-0.76,0.26-1.14,0.57-1.14,0.95L-565.45-688.05z
			 M-564.5-687.29c-0.13,0-0.19,0.03-0.19,0.09c0,0.07-0.06,0.1-0.19,0.1l-0.38,0.57c0.12,0,0.25-0.06,0.38-0.19L-564.5-687.29z
			 M-564.5-687.67c0.25-0.25,0.44-0.38,0.57-0.38L-564.5-687.67z M-563.17-690.53l-0.19,0.19L-563.17-690.53z M-562.79-689.38
			l-0.57,0.38L-562.79-689.38z M-562.41-691.29c0-0.13,0.03-0.22,0.1-0.29c0.06-0.06,0.1-0.22,0.1-0.48l-0.57,0.57v0.57
			C-562.54-691.03-562.41-691.16-562.41-691.29z M-562.79-689.38c0.76-0.13,1.2-0.57,1.33-1.33
			C-561.71-690.59-562.16-690.14-562.79-689.38z M-561.08-693c0.76-0.13,1.39-0.63,1.9-1.52
			C-559.81-694.27-560.44-693.76-561.08-693z M-558.6-695.47c0.63-0.25,1.01-0.76,1.14-1.52c-0.64,0.38-0.95,0.76-0.95,1.14
			C-558.54-695.72-558.6-695.6-558.6-695.47z M-557.46-694.9c-0.64,0.26-1.02,0.64-1.14,1.14c0.76-0.25,1.14-0.57,1.14-0.95V-694.9z
			 M-556.89-697.38c0.63-0.38,1.01-0.95,1.14-1.71C-556.39-698.71-556.77-698.14-556.89-697.38z M-555.94-696.8
			c-0.13,0.13-0.26,0.19-0.38,0.19v0.19L-555.94-696.8z M-555.18-697.76c-0.13,0.13-0.26,0.19-0.38,0.19
			c-0.13,0-0.19,0.07-0.19,0.19c0.13,0,0.19-0.03,0.19-0.09c0-0.06,0.12-0.1,0.38-0.1V-697.76z M-555.37-699.47
			c0.63-0.25,0.95-0.76,0.95-1.52c-0.51,0.13-0.83,0.38-0.95,0.76V-699.47z"/>
		<path class="st3" d="M-515.61-694.9c0.25,1.27,0.38,2.22,0.38,2.85c0,2.16-0.47,4.12-1.43,5.9c-0.95,1.78-1.97,3.36-3.04,4.76
			c-1.08,1.4-2.09,2.57-3.04,3.52c-0.95,0.95-1.43,1.56-1.43,1.81c0,0.13,0.13,0.19,0.38,0.19h0.19c-1.4,1.78-2.92,3.65-4.57,5.61
			c-1.65,1.97-3.17,3.65-4.57,5.04c-1.78,1.78-3.68,3.33-5.71,4.66c-2.03,1.33-4.25,2.31-6.66,2.95c-0.89,0.25-1.71,0.44-2.47,0.57
			c-0.76,0.13-1.59,0.19-2.47,0.19c-2.66,0-4.95-0.7-6.85-2.09c-1.4-1.01-2.7-2.03-3.9-3.04c-1.21-1.01-2.19-2.22-2.95-3.61
			c-0.64-1.27-1.08-2.66-1.33-4.19c-0.12-0.5-0.19-1.01-0.19-1.52c0-0.51,0-1.08,0-1.71c0-0.63,0-1.17,0-1.62
			c0-0.44,0.07-0.98,0.19-1.62v-4.57c0.25-1.14,0.51-2.25,0.76-3.33c0.25-1.08,0.51-2.12,0.76-3.14v-1.14
			c0-0.13,0.03-0.22,0.09-0.29c0.06-0.06,0.1-0.16,0.1-0.29c0-0.12-0.03-0.25-0.1-0.38c-0.07-0.13-0.09-0.25-0.09-0.38
			c0-0.13-0.03-0.19-0.1-0.19c-0.07,0-0.1-0.06-0.1-0.19l0.57-0.76c0.38-0.25,0.82-0.76,1.33-1.52c0.63-1.14,1.2-2.31,1.71-3.52
			c0.51-1.2,1.08-2.38,1.71-3.52c1.77-3.04,3.74-5.71,5.9-7.99c1.52-1.9,3.3-3.49,5.33-4.76c1.01-0.89,2.16-1.39,3.42-1.52
			c0.51-0.13,0.98-0.19,1.43-0.19c0.44,0,0.86,0,1.24,0c2.28,0,4.38,0.51,6.28,1.52c2.41,1.4,3.61,3.36,3.61,5.9v0.57
			c-0.13,1.9-0.7,3.81-1.71,5.71c-0.76,1.52-1.62,2.98-2.57,4.38c-0.95,1.4-2.13,2.6-3.52,3.61c-3.42,2.66-6.85,4.44-10.27,5.33
			l-2.09,0.57c-0.89,0.13-1.52,0.7-1.9,1.71l-1.9,14.65v0.76c0,0.64,0.06,1.3,0.19,2c0.12,0.7,0.31,1.36,0.57,2
			c0.12,1.14,0.89,1.71,2.28,1.71h1.52c1.77-0.38,3.52-0.89,5.23-1.52c1.71-0.63,3.33-1.46,4.85-2.47c1.52-1.01,2.98-2.12,4.38-3.33
			c1.39-1.2,2.79-2.5,4.19-3.9c0.76-0.76,1.84-1.68,3.23-2.76c1.39-1.08,2.54-2.12,3.42-3.14c1.14-1.39,2.22-2.76,3.23-4.09
			s2.03-2.69,3.04-4.09c0.63-1.01,1.24-2.03,1.81-3.04C-516.65-692.87-516.12-693.89-515.61-694.9z M-557.65-694.33l0.38-0.38
			c-0.13,0-0.19,0.03-0.19,0.09c0,0.07-0.07,0.1-0.19,0.1V-694.33z M-557.27-694.9c0.76-0.51,1.14-1.33,1.14-2.47
			C-556.77-696.74-557.15-695.92-557.27-694.9z M-554.23-696.23c1.01-1.9,2.12-3.77,3.33-5.61c1.2-1.84,2.57-3.64,4.09-5.42v-0.76
			l-0.57,0.38c-0.26,0.25-0.57,0.54-0.95,0.86c-0.38,0.32-0.7,0.67-0.95,1.05c-1.14,1.4-2.19,2.85-3.14,4.38
			c-0.95,1.52-1.87,3.11-2.76,4.76c-0.51,1.02-0.95,2.28-1.33,3.81l0.95-1.33c0.25-0.25,0.48-0.6,0.67-1.05
			C-554.7-695.63-554.48-695.98-554.23-696.23z M-555.37-698.33c-0.26,0.13-0.51,0.45-0.76,0.95
			C-555.63-697.5-555.37-697.82-555.37-698.33z M-553.66-701.37c-0.89,0.64-1.46,1.65-1.71,3.04c0.89-0.89,1.52-1.9,1.9-3.04
			c0.25-0.25,0.38-0.57,0.38-0.95C-553.47-702.07-553.66-701.75-553.66-701.37z M-551.95-703.84c-0.64,0.38-1.02,0.89-1.14,1.52
			C-552.33-702.45-551.95-702.96-551.95-703.84z M-551.18-704.8c-0.38,0.13-0.57,0.45-0.57,0.95L-551.18-704.8z M-550.61-705.37
			c0.25-0.25,0.38-0.57,0.38-0.95L-550.61-705.37z M-550.23-698.71c0.13-0.12,0.19-0.31,0.19-0.57c0,0.13-0.03,0.19-0.1,0.19
			c-0.07,0-0.1,0.07-0.1,0.19V-698.71z M-549.85-699.28c0.38-0.13,0.57-0.44,0.57-0.95C-549.54-699.97-549.73-699.66-549.85-699.28z
			 M-539.77-707.08c-0.64,0.38-1.21,0.83-1.71,1.33c-0.51,0.51-1.08,1.02-1.71,1.52c-1.27,1.52-2.35,3.08-3.23,4.66
			c-0.89,1.59-1.78,3.27-2.66,5.04c-0.13,0.13-0.19,0.32-0.19,0.57v0.19c0,0.26,0.19,0.38,0.57,0.38c0.51-0.25,0.95-0.48,1.33-0.67
			c0.38-0.19,0.76-0.41,1.14-0.67c1.39-1.14,2.69-2.35,3.9-3.62c1.2-1.27,2.19-2.73,2.95-4.38c0.89-1.52,1.39-2.92,1.52-4.19v-0.19
			c0-0.38-0.26-0.57-0.76-0.57h-0.38L-539.77-707.08z M-543.96-707.08c-0.26,0-0.45,0.07-0.57,0.19c-1.02,1.02-1.94,2.03-2.76,3.04
			c-0.83,1.02-1.49,2.22-2,3.62c0.38-0.13,0.63-0.38,0.76-0.76c0.76-1.01,1.55-1.97,2.38-2.85c0.82-0.89,1.55-1.84,2.19-2.85
			V-707.08z M-537.87-701.37c0,0.13-0.13,0.32-0.38,0.57c-0.25,0.51-0.38,0.83-0.38,0.95h0.38c-0.25,0.26-0.41,0.57-0.47,0.95
			c-0.07,0.38-0.16,0.7-0.29,0.95c-0.13,0.26-0.29,0.41-0.48,0.48c-0.19,0.07-0.35,0.22-0.47,0.48v0.19h0.19
			c0.25-0.13,0.41-0.25,0.48-0.38c0.06-0.13,0.22-0.32,0.47-0.57c0.51-0.38,0.92-0.82,1.24-1.33c0.32-0.51,0.6-1.01,0.86-1.52
			c0.25-0.25,0.38-0.54,0.38-0.86c0-0.31,0.06-0.6,0.19-0.86c-0.38,0-0.6,0.16-0.67,0.48c-0.06,0.32-0.22,0.54-0.47,0.67l-0.38,0.38
			c-0.13,0-0.19-0.06-0.19-0.19V-701.37z M-538.44-695.66l0.38-0.19C-538.19-695.85-538.31-695.79-538.44-695.66z M-535.97-698.71
			c-0.89,0.38-1.46,1.21-1.71,2.47C-536.79-696.74-536.22-697.57-535.97-698.71z M-535.39-699.47c-0.26,0.13-0.38,0.22-0.38,0.29
			c0,0.07-0.07,0.16-0.19,0.29c0.13,0,0.19-0.03,0.19-0.1c0-0.06,0.06-0.09,0.19-0.09C-535.58-699.21-535.52-699.34-535.39-699.47z
			 M-530.64-672.64c0.13-0.13,0.38-0.29,0.76-0.48c0.38-0.19,0.63-0.41,0.76-0.67l-1.71,1.14v0.19L-530.64-672.64z M-528.16-672.26
			c0-0.13-0.06-0.19-0.19-0.19l-0.57,0.57C-528.67-672.13-528.42-672.26-528.16-672.26z M-527.78-675.3
			c-0.26,0.25-0.38,0.57-0.38,0.95L-527.78-675.3z M-527.59-673.02c0.38-0.12,0.57-0.44,0.57-0.95
			C-527.4-673.72-527.59-673.4-527.59-673.02z M-527.02-673.97c0.38-0.13,0.63-0.38,0.76-0.76c-0.13,0.13-0.25,0.22-0.38,0.29
			C-526.77-674.38-526.9-674.23-527.02-673.97z M-526.83-676.07c0.51-0.13,0.95-0.7,1.33-1.71c-0.38,0.26-0.67,0.48-0.86,0.67
			C-526.55-676.92-526.71-676.57-526.83-676.07z M-526.26-674.73c0.51-0.25,0.95-0.76,1.33-1.52
			C-525.69-675.75-526.14-675.24-526.26-674.73z M-525.5-677.78c0.63-0.13,1.14-0.7,1.52-1.71
			C-524.61-679.24-525.12-678.66-525.5-677.78z M-524.17-677.4c-0.26,0.25-0.45,0.57-0.57,0.95L-524.17-677.4z M-523.98-679.49
			c0.76-0.25,1.14-0.7,1.14-1.33C-523.47-680.57-523.85-680.12-523.98-679.49z M-522.84-681.01c0.63-0.25,1.11-0.63,1.43-1.14
			c0.32-0.5,0.6-1.08,0.86-1.71c-0.51,0.38-0.92,0.79-1.24,1.24C-522.11-682.18-522.46-681.65-522.84-681.01z M-521.5-680.63
			c-0.38,0.38-0.57,0.7-0.57,0.95L-521.5-680.63z M-521.32-680.82c0.38-0.38,0.57-0.69,0.57-0.95L-521.32-680.82z M-520.55-683.87
			c0.13,0,0.31-0.32,0.57-0.95h-0.38l-0.19,0.19V-683.87z M-519.98-684.82c0.51-0.13,0.76-0.44,0.76-0.95h-0.57L-519.98-684.82z
			 M-517.7-688.43c-0.89,0.89-1.4,1.65-1.52,2.28v0.38c0.38-0.38,0.73-0.76,1.04-1.14C-517.86-687.29-517.7-687.8-517.7-688.43z
			 M-517.7-688.43c0.51-0.13,0.76-0.32,0.76-0.57l-0.38-0.38v-0.19h-0.19l0.19,0.19C-517.32-689-517.45-688.69-517.7-688.43z"/>
		<path class="st3" d="M-487.26-692.62l-6.28,0.57l-4.19,0.57c-1.02,0.26-2.06,0.45-3.14,0.57c-1.08,0.13-2.13,0.32-3.14,0.57
			c-1.02,0.25-2,0.41-2.95,0.48c-0.95,0.07-1.93,0.16-2.95,0.29h-0.95c-0.51,0-1.27-0.13-2.28-0.38c-0.26,0-0.38-0.19-0.38-0.57
			c0-0.25,0.03-0.38,0.09-0.38c0.06,0,0.1-0.06,0.1-0.19l-0.38-0.38c-0.26,0-0.45-0.06-0.57-0.19c-0.13,0-0.19-0.06-0.19-0.19
			c0-0.13,0.06-0.25,0.19-0.38c0-0.12,0.12-0.31,0.38-0.57V-693c-0.38-0.25-0.67-0.5-0.86-0.76c-0.19-0.25-0.41-0.51-0.67-0.76
			c-0.13,0-0.19-0.13-0.19-0.38c0-0.13,0.13-0.32,0.38-0.57c0.63-0.5,1.46-0.95,2.47-1.33l3.42-0.76c0.38-0.12,0.89-0.19,1.52-0.19
			c0.76,0,1.49,0,2.19,0c0.7,0,1.43-0.06,2.19-0.19c0.38-0.13,1.08-0.19,2.09-0.19c0.63,0,1.3-0.03,2-0.1c0.7-0.06,1.36-0.09,2-0.09
			c0.63,0,1.3-0.03,2-0.09c0.7-0.06,1.36-0.1,2-0.1c0.63,0,1.3,0.03,2,0.1c0.7,0.07,1.43,0.09,2.19,0.09c1.14,0,1.97,0.16,2.47,0.48
			c0.51,0.32,1.14,0.98,1.9,2l0.57,0.76c0,0.26,0.03,0.54,0.09,0.86c0.06,0.32,0.1,0.6,0.1,0.86v0.19c0,0.38-0.19,0.64-0.57,0.76
			h-2.66V-692.62z"/>
		<path class="st3" d="M-400.5-713.74v3.23c0,0.89,0,1.75,0,2.57c0,0.83-0.13,1.62-0.38,2.38c0,0.38,0.1,0.7,0.29,0.95
			c0.19,0.26,0.29,0.57,0.29,0.95h0.38v-0.38c1.14-2.92,2.5-5.77,4.09-8.56c1.58-2.79,3.2-5.45,4.85-7.99
			c2.03-3.42,4.06-6.82,6.09-10.18c2.03-3.36,4.31-6.63,6.85-9.8c1.78-2.54,3.62-4.98,5.52-7.33c1.9-2.34,4-4.66,6.28-6.94
			c1.9-2.54,4.63-4.95,8.18-7.23c1.01-0.89,2.03-1.65,3.04-2.28c1.01-0.63,2.03-1.27,3.04-1.9c2.28-1.39,4.82-2.47,7.61-3.23h1.33
			c1.01,0,1.77,0.13,2.28,0.38c0.5,0.26,1.08,0.57,1.71,0.95c3.3,2.41,5.2,5.2,5.71,8.37c0.25,0.89,0.41,1.71,0.48,2.47
			c0.06,0.76,0.09,1.59,0.09,2.47v2.09v1.71c0,2.79-0.19,5.71-0.57,8.75c-0.26,2.03-0.64,3.97-1.14,5.8
			c-0.51,1.84-0.95,3.78-1.33,5.8c-0.38,1.65-0.73,3.27-1.05,4.85c-0.32,1.59-0.6,3.08-0.86,4.47c-0.64,1.78-1.17,3.49-1.62,5.14
			c-0.45,1.65-0.98,3.3-1.62,4.95c-0.64,2.16-1.27,4.25-1.9,6.28c-0.64,2.03-1.21,4.12-1.71,6.28c-2.54,6.98-4.69,14.43-6.47,22.36
			c-1.78,7.93-3.93,15.51-6.47,22.74l-1.33,4.19c-0.38,0.89-0.92,2.41-1.62,4.57c-0.7,2.16-1.43,4.47-2.19,6.95
			c-0.76,2.47-1.49,4.85-2.19,7.13c-0.7,2.28-1.24,4-1.62,5.14c-0.26,0.5-0.57,1.05-0.95,1.62c-0.38,0.57-0.57,1.17-0.57,1.81
			c0,0.25-0.19,0.44-0.57,0.57c-0.38,0.13-0.7,0.19-0.95,0.19h-0.19c-0.64-0.13-1.17-0.19-1.62-0.19c-0.45,0-0.79-0.19-1.05-0.57
			c-0.13,0-0.35-0.07-0.67-0.19c-0.32-0.13-0.54-0.19-0.67-0.19c-1.02-0.51-1.59-1.08-1.71-1.71c0.25-0.64,0.41-1.37,0.48-2.19
			c0.06-0.83,0.22-1.68,0.48-2.57c0.5-4.31,1.39-8.63,2.66-12.94c0.13-1.78,0.41-3.46,0.86-5.04c0.44-1.59,0.86-3.27,1.24-5.04
			c0.38-2.28,0.79-4.5,1.24-6.66c0.44-2.16,1.05-4.38,1.81-6.66c0.25-2.16,0.7-4.28,1.33-6.37c0.63-2.09,1.27-4.28,1.9-6.56
			c0.63-2.03,1.27-4.12,1.9-6.28c0.63-2.16,1.2-4.31,1.71-6.47c0.76-3.17,1.68-6.31,2.76-9.42c1.08-3.11,2.12-6.18,3.14-9.23
			c0.63-2.03,1.33-4.12,2.09-6.28c0.76-2.16,1.52-4.25,2.28-6.28l3.23-8.94c0.63-1.77,1.27-3.49,1.9-5.14
			c0.63-1.65,1.14-3.36,1.52-5.14c0.63-1.52,1.2-3.2,1.71-5.04c0.51-1.84,0.95-3.64,1.33-5.42c0.25-0.63,0.5-1.58,0.76-2.85
			c0.25-1.27,0.38-2.47,0.38-3.61v-0.76c0-0.5,0-1.01,0-1.52c0-0.51-0.07-0.82-0.19-0.95c-0.26-0.38-0.64-0.6-1.14-0.67
			c-0.51-0.06-1.02-0.1-1.52-0.1c-1.02,0-2.13,0.19-3.33,0.57c-1.21,0.38-2.13,0.7-2.76,0.95c-1.4,0.64-2.63,1.43-3.71,2.38
			c-1.08,0.95-2.13,1.87-3.14,2.76c-5.83,5.2-11.13,10.69-15.89,16.46c-4.76,5.77-9.04,11.89-12.84,18.36
			c-2.41,4.19-4.73,8.44-6.94,12.75c-2.22,4.31-4.41,8.69-6.56,13.13c-1.02,2.03-2.03,4.09-3.04,6.18
			c-1.02,2.09-1.97,4.16-2.85,6.18c-0.89,2.03-1.52,4.19-1.9,6.47c-0.38,2.28-0.7,4.44-0.95,6.47c-0.26,1.02-0.45,1.75-0.57,2.19
			c-0.13,0.45-0.45,0.67-0.95,0.67c-0.89,0-1.78-0.7-2.66-2.09c-2.28-2.03-3.61-4.31-4-6.85c0-1.27,0.06-2.5,0.19-3.71
			c0.13-1.2,0.5-2.44,1.14-3.71c1.39-6.47,2.47-12.87,3.23-19.22c0.76-6.34,1.14-12.87,1.14-19.6v-4.38v-1.52
			c0-0.89-0.16-1.68-0.48-2.38c-0.32-0.7-0.67-1.24-1.05-1.62c-1.14-0.76-2.47-1.14-4-1.14c-1.65,0-3.11,0.38-4.38,1.14
			c-2.92,2.28-4.63,5.07-5.14,8.37c-0.51,3.3-0.89,6.41-1.14,9.32c-0.26,1.65-0.51,3.3-0.76,4.95c-0.25,1.65-0.64,3.3-1.14,4.95
			c-0.64,4.06-1.46,8.06-2.47,11.99c-1.02,3.93-2.22,7.8-3.62,11.6c-0.64,2.79-1.46,5.39-2.47,7.8c-0.89,1.78-1.68,3.55-2.38,5.33
			c-0.7,1.78-1.68,3.55-2.95,5.33c-0.76,0.76-1.46,1.52-2.09,2.28c-0.64,0.76-1.4,1.39-2.28,1.9c-1.02,1.01-2.28,1.52-3.8,1.52
			c-0.13,0.25-0.38,0.41-0.76,0.48c-0.38,0.06-0.64,0.1-0.76,0.1c-0.76,0-1.27-0.19-1.52-0.57c-2.16-0.64-4-1.65-5.52-3.04
			c-0.76-1.01-1.4-2.22-1.9-3.61c0-0.63-0.07-1.33-0.19-2.09c-0.13-0.76-0.26-1.58-0.38-2.47c0-0.38,0-0.79,0-1.24
			c0-0.44,0.13-0.86,0.38-1.24c0.25-2.92,0.86-5.9,1.81-8.94c0.95-3.04,2.12-6.09,3.52-9.13c1.39-3.17,2.92-6.21,4.57-9.13
			c1.65-2.92,3.3-5.9,4.95-8.94l7.99-10.84c0.63-0.89,1.14-1.71,1.52-2.47c0.38-0.76,0.57-1.65,0.57-2.66
			c0.13-1.52,0.25-2.98,0.38-4.38c0.13-1.39,0.32-2.85,0.57-4.38c0.25-1.01,0.38-2.12,0.38-3.33c0-1.2,0-2.44,0-3.71v-5.14
			c-0.13-0.89-0.19-1.81-0.19-2.76s0-1.81,0-2.57c-0.13-1.27-0.38-2.6-0.76-4c-0.38-1.39-0.7-2.79-0.95-4.19
			c-0.26-1.14-0.54-2.31-0.86-3.52c-0.32-1.2-0.73-2.44-1.24-3.71c-0.64-0.89-0.95-1.58-0.95-2.09c-0.64-1.27-1.62-2.19-2.95-2.76
			c-1.33-0.57-2.7-0.86-4.09-0.86c-0.76,0-1.43,0.03-2,0.1c-0.57,0.07-1.17,0.35-1.81,0.86c-0.13,0-0.38,0.07-0.76,0.19
			c-0.38,0.13-0.7,0.32-0.95,0.57c-1.02,0.89-1.97,1.62-2.85,2.19c-0.89,0.57-1.65,1.3-2.28,2.19c-2.41,2.92-4.57,5.87-6.47,8.85
			c-1.9,2.98-3.55,6.12-4.95,9.42c-1.02,2.54-1.84,4.98-2.47,7.32c-0.64,2.35-1.14,4.66-1.52,6.94c-0.13,1.4-0.26,2.82-0.38,4.28
			c-0.13,1.46-0.19,2.89-0.19,4.28v1.33v3.04c0.13,2.28,0.35,4.54,0.67,6.75c0.32,2.22,0.79,4.47,1.43,6.75
			c0,0.38,0.1,0.79,0.29,1.24c0.19,0.45,0.41,0.86,0.67,1.24c0.76,1.02,1.27,1.84,1.52,2.47c0.76,0.26,1.14,0.64,1.14,1.14v0.19
			c0,0.13-0.19,0.19-0.57,0.19h-0.38c-0.13,0-0.32-0.13-0.57-0.38c-1.27-0.5-2.22-1.08-2.85-1.71c-0.64-0.63-1.27-1.46-1.9-2.47
			l-2.09-4.76c-0.64-1.39-1.08-2.88-1.33-4.47c-0.25-1.58-0.57-3.14-0.95-4.66c-0.25-1.14-0.41-2.28-0.48-3.42
			c-0.06-1.14-0.16-2.41-0.29-3.8c0-1.14,0-2.31,0-3.52c0-1.2,0.13-2.44,0.38-3.71c0-0.5,0.03-1.08,0.09-1.71
			c0.07-0.63,0.22-1.2,0.48-1.71c0.25-2.92,0.7-5.9,1.33-8.94c0.63-3.04,1.65-6.02,3.04-8.94c0.89-1.77,1.74-3.62,2.57-5.52
			c0.82-1.9,1.87-3.61,3.14-5.14c0.25-0.25,0.51-0.57,0.76-0.95c0.25-0.38,0.5-0.63,0.76-0.76c0.63-1.65,1.62-3.2,2.95-4.66
			c1.33-1.46,2.82-2.88,4.47-4.28c0.63-0.25,1.14-0.57,1.52-0.95c0.38-0.38,0.82-0.76,1.33-1.14c1.01-0.38,1.96-0.73,2.85-1.05
			c0.89-0.31,1.77-0.48,2.66-0.48c0.63,0,1.39,0.1,2.28,0.29c0.89,0.19,1.65,0.54,2.28,1.05c5.33,1.52,9.13,4.31,11.42,8.37
			c1.27,1.52,2.28,3.11,3.04,4.76c0.76,1.65,1.65,3.49,2.66,5.52c0.51,1.4,0.89,2.82,1.14,4.28c0.25,1.46,0.51,2.95,0.76,4.47
			c0.25,1.02,0.44,1.93,0.57,2.76c0.13,0.83,0.32,1.74,0.57,2.76c0,1.4,0.03,2.73,0.1,4c0.06,1.27,0.22,2.54,0.48,3.8v0.76
			l0.57,0.38l1.33-1.14c0.63-0.5,1.3-0.98,2-1.43c0.7-0.44,1.36-0.79,2-1.05c1.01-0.51,1.9-0.79,2.66-0.86
			c0.76-0.06,1.46-0.1,2.09-0.1h1.71c1.27,0.26,2.41,0.7,3.42,1.33c1.01,0.64,1.84,1.52,2.47,2.66c0.63,0.64,1.14,1.36,1.52,2.19
			c0.38,0.83,0.76,1.81,1.14,2.95c0.12,2.41,0.63,5.2,1.52,8.37c0,1.4,0,2.73,0,4C-400.7-716.08-400.63-714.88-400.5-713.74z
			 M-451.3-772.72v-0.19h-0.19c-1.14,0.38-2.16,0.92-3.04,1.62c-0.89,0.7-1.78,1.55-2.66,2.57v0.57c1.27-0.63,2.31-1.39,3.14-2.28
			C-453.24-771.32-452.32-772.08-451.3-772.72z M-454.92-666.93c0.25,0.76,0.44,1.55,0.57,2.38c0.13,0.83,0.31,1.81,0.57,2.95
			c0.51,0.64,0.95,0.95,1.33,0.95c0.63,0,1.14-0.19,1.52-0.57c0.76-0.51,1.2-1.08,1.33-1.71c0.63-0.89,1.24-1.71,1.81-2.47
			c0.57-0.76,1.05-1.58,1.43-2.47c0.38-1.27,0.86-2.57,1.43-3.9c0.57-1.33,1.05-2.69,1.43-4.09l3.04-10.84
			c0.63-2.92,1.24-5.74,1.81-8.47c0.57-2.73,1.17-5.36,1.81-7.9c0.25-1.14,0.44-2.12,0.57-2.95c0.13-0.82,0.32-1.74,0.57-2.76h-0.57
			c-0.26,0.13-0.51,0.29-0.76,0.48c-0.26,0.19-0.51,0.41-0.76,0.67c-0.76,2.03-1.97,3.87-3.61,5.52c-1.52,2.66-2.92,5.39-4.19,8.18
			c-1.27,2.79-2.6,5.46-4,7.99c-1.02,2.16-1.87,4.28-2.57,6.37c-0.7,2.09-1.3,4.28-1.81,6.56c-0.25,1.02-0.41,2.03-0.48,3.04
			C-454.51-668.96-454.67-667.95-454.92-666.93z M-449.97-771.01c-0.64,0.26-1.27,0.6-1.9,1.05c-0.64,0.45-1.27,0.86-1.9,1.24v0.57
			h0.57c0.38-0.38,0.82-0.73,1.33-1.05c0.51-0.32,0.95-0.73,1.33-1.24C-450.16-770.43-449.97-770.62-449.97-771.01z M-446.17-662.18
			v0.57h0.57c0-0.25,0.03-0.48,0.09-0.67c0.06-0.19,0.09-0.41,0.09-0.67C-445.53-662.56-445.79-662.3-446.17-662.18z
			 M-445.03-664.08c-0.26,0.13-0.38,0.51-0.38,1.14h0.38c1.9-2.41,3.23-4.88,4-7.42v-0.57c-0.51,0.51-0.76,0.89-0.76,1.14
			c-0.64,0.64-1.05,1.24-1.24,1.81c-0.19,0.57-0.35,1.11-0.48,1.62l-0.95,0.95c-0.13,0.38-0.26,0.64-0.38,0.76
			C-444.96-664.52-445.03-664.33-445.03-664.08z M-444.26-667.31l-0.38,0.38c0,0.13,0.03,0.22,0.09,0.29
			c0.06,0.07,0.1,0.16,0.1,0.29c-0.38,0.26-0.57,0.45-0.57,0.57h0.57v-0.57v-0.38c0-0.13,0.03-0.22,0.09-0.29
			C-444.3-667.09-444.26-667.19-444.26-667.31z M-444.26-667.31h0.19c0.25,0,0.38-0.19,0.38-0.57h-0.57V-667.31z M-444.07-661.23
			l-0.19,0.19l0.19,0.19V-661.23z M-443.5-662.18c0.89-0.25,1.46-0.67,1.71-1.24c0.25-0.57,0.51-1.17,0.76-1.81
			c-0.64,0.38-1.11,0.83-1.43,1.33C-442.78-663.38-443.12-662.81-443.5-662.18z M-440.27-666.36c-0.38,0.26-0.57,0.45-0.57,0.57
			C-440.46-665.79-440.27-665.98-440.27-666.36z M-440.08-673.02h-0.38v0.38L-440.08-673.02z M-440.08-673.02v-0.19
			c0-0.25,0.06-0.38,0.19-0.38c0.13,0,0.19-0.06,0.19-0.19v-0.57l-0.57,0.57C-440.27-673.66-440.21-673.4-440.08-673.02z
			 M-421.81-732.76l0.38-0.19C-421.56-732.83-421.69-732.76-421.81-732.76z M-356.56-681.01l-0.19-0.19l-0.19,0.19h-0.19v0.38v0.38
			c-0.26,1.27-0.6,2.51-1.05,3.71c-0.45,1.21-0.79,2.38-1.05,3.52c-1.27,4.19-2.41,8.31-3.42,12.37c-1.02,4.06-2.22,8.31-3.62,12.75
			c-0.89,3.3-1.81,6.63-2.76,9.99c-0.95,3.36-1.93,6.69-2.95,9.99c-0.26,0.63-0.41,1.2-0.48,1.71c-0.07,0.51-0.1,1.01-0.1,1.52
			c0.38-0.13,0.57-0.38,0.57-0.76c0.76-2.03,1.36-3.97,1.81-5.8c0.44-1.84,1.05-3.78,1.81-5.8c0.89-2.66,1.65-5.23,2.28-7.71
			c0.63-2.47,1.46-5.04,2.47-7.71c1.01-4.44,2.09-8.91,3.23-13.41c1.14-4.5,2.35-8.97,3.62-13.41c0-0.13,0.03-0.31,0.09-0.57
			c0.06-0.25,0.09-0.51,0.09-0.76V-681.01z M-370.44-625.46c0,0.5,0.19,0.76,0.57,0.76l0.19-0.19c0-0.38,0.09-0.73,0.29-1.05
			c0.19-0.32,0.29-0.73,0.29-1.24c0.63-2.16,1.3-4.28,2-6.37c0.7-2.09,1.49-4.16,2.38-6.18c2.54-6.98,4.69-14.14,6.47-21.5
			l0.19-0.19c0.25-0.25,0.38-0.51,0.38-0.76h-0.38c-0.13,0-0.19-0.06-0.19-0.19v0.19c-0.38,0.38-0.57,0.89-0.57,1.52
			c-1.4,3.55-2.6,7.04-3.62,10.46c-1.02,3.42-2.03,6.97-3.04,10.66c-1.02,2.54-1.84,4.98-2.47,7.32
			C-368.61-629.87-369.43-627.62-370.44-625.46z M-369.49-641.25h0.57v-0.19l-0.38,0.19H-369.49z M-368.54-643.53l-0.19,0.19
			l0.19,0.38V-643.53z M-368.54-643.72c0.38,0,0.57-0.32,0.57-0.95c0-0.25-0.03-0.41-0.09-0.48c-0.07-0.07-0.1-0.16-0.1-0.29
			c-0.13,0.25-0.16,0.51-0.09,0.76C-368.19-644.42-368.29-644.1-368.54-643.72z M-367.78-646.96v0.57c0.13-0.26,0.16-0.45,0.09-0.57
			c-0.07-0.13,0.03-0.32,0.29-0.57C-367.66-647.27-367.78-647.08-367.78-646.96z M-367.4-648.29v0.76c0.38-0.38,0.57-0.95,0.57-1.71
			C-367.21-648.86-367.4-648.54-367.4-648.29z M-360.55-674.73c-0.13,0.26-0.22,0.45-0.29,0.57c-0.07,0.13-0.1,0.32-0.1,0.57
			c0,0.13,0.03,0.26,0.1,0.38c0.06,0.13,0.09,0.32,0.09,0.57c-0.26,0.26-0.45,0.54-0.57,0.86c-0.13,0.32-0.32,0.6-0.57,0.86
			c-0.64,3.17-1.4,6.34-2.28,9.51c-0.89,3.17-1.78,6.4-2.66,9.7v2.28l0.57-0.57c0.89-3.68,1.74-7.23,2.57-10.65
			c0.82-3.42,1.81-6.97,2.95-10.65v-1.33C-360.62-673.27-360.55-673.97-360.55-674.73z M-360.55-674.73
			c0.38-0.25,0.57-0.63,0.57-1.14C-360.36-675.5-360.55-675.12-360.55-674.73z M-351.23-763.78c-0.64,0-0.95,0.19-0.95,0.57
			C-351.93-763.2-351.61-763.39-351.23-763.78z M-349.9-764.73h-0.76v0.57C-350.15-764.16-349.9-764.35-349.9-764.73z
			 M-348.95-764.92c-0.64,0-0.95,0.07-0.95,0.19C-349.26-764.73-348.95-764.79-348.95-764.92z M-347.8-765.49h0.38l0.76-0.38
			c0.51,0,0.95-0.19,1.33-0.57c-0.89,0-1.33,0.07-1.33,0.19c-0.76,0-1.21,0.13-1.33,0.38c-0.25,0-0.57,0.32-0.95,0.95
			C-348.18-764.92-347.8-765.11-347.8-765.49z M-347.04-763.78c0-0.25,0.12-0.38,0.38-0.38h-0.38V-763.78z M-346.47-764.16
			c0.13,0,0.38-0.19,0.76-0.57C-346.22-764.73-346.47-764.54-346.47-764.16z M-344.76-764.73v-0.19h-0.38l-0.57,0.19H-344.76z"/>
		<path class="st3" d="M-268.08-695.47c0.13-0.12,0.32-0.19,0.57-0.19c0.25,0,0.48,0.13,0.67,0.38c0.19,0.26,0.41,0.45,0.67,0.57
			c0.13,0,0.19,0.19,0.19,0.57c-0.26,0.64-0.45,1.21-0.57,1.71c-0.13,0.51-0.32,1.02-0.57,1.52c-1.9,3.17-3.78,6.25-5.61,9.23
			c-1.84,2.98-3.84,5.93-5.99,8.85c-0.76,1.14-1.62,2.32-2.57,3.52c-0.95,1.21-1.87,2.51-2.76,3.9l-5.14,4.57
			c-1.14,0.64-2.16,1.14-3.04,1.52c-0.89,0.38-1.84,0.57-2.85,0.57c-1.27,0-2.66-0.38-4.19-1.14c-1.4-0.63-2.73-1.49-4-2.57
			c-1.27-1.08-2.35-2.31-3.23-3.71c-1.02-1.77-1.65-3.8-1.9-6.09c0-0.51-0.03-1.01-0.09-1.52c-0.07-0.5-0.1-1.01-0.1-1.52
			c-0.13-0.38-0.19-0.89-0.19-1.52c0.63-6.59,1.78-12.87,3.42-18.83c0.25-0.63,0.51-1.27,0.76-1.9c0.25-0.63,0.38-1.27,0.38-1.9
			v-0.38c-0.64,0.26-0.98,0.6-1.05,1.05c-0.07,0.45-0.22,0.98-0.48,1.62l-7.23,12.75c-1.02,1.9-2.06,3.74-3.14,5.52
			c-1.08,1.78-2.25,3.55-3.52,5.33c-0.64,1.02-1.36,1.94-2.19,2.76c-0.83,0.83-1.68,1.75-2.57,2.76c-0.51,0.64-1.14,1.17-1.9,1.62
			c-0.76,0.45-1.46,0.79-2.09,1.05c-0.26,0.13-0.64,0.19-1.14,0.19c-0.38,0-1.08-0.13-2.09-0.38c-1.02-0.38-1.94-0.98-2.76-1.81
			c-0.83-0.82-1.75-1.68-2.76-2.57c-1.39-1.01-2.09-2.41-2.09-4.19c0-0.25,0.03-0.41,0.09-0.48c0.07-0.06,0.09-0.22,0.09-0.48
			c0-0.38-0.03-0.79-0.09-1.24c-0.06-0.44-0.09-0.86-0.09-1.24c0-1.9,0.16-3.71,0.48-5.42c0.32-1.71,0.79-3.39,1.43-5.04
			c0.38-1.52,0.86-3.04,1.43-4.57c0.57-1.52,1.17-2.98,1.81-4.38c1.77-3.42,3.93-6.78,6.47-10.08c0.5-0.89,0.82-1.33,0.95-1.33
			c0.63-1.01,1.33-1.74,2.09-2.19c0.76-0.44,1.52-0.98,2.28-1.62c0.5-0.38,1.01-0.57,1.52-0.57c0.25,0,0.5-0.03,0.76-0.09
			c0.25-0.06,0.5-0.09,0.76-0.09c1.39,0,2.92,0.32,4.57,0.95c1.65,0.64,3.11,1.59,4.38,2.85c0.38,0.38,0.67,0.83,0.86,1.33
			c0.19,0.51,0.41,1.02,0.67,1.52c0,0.13,0.03,0.26,0.1,0.38c0.06,0.13,0.09,0.32,0.09,0.57c0,0.51-0.19,0.95-0.57,1.33
			c-0.26,0.26-0.45,0.38-0.57,0.38c-0.13,0-0.45-0.13-0.95-0.38l-3.04-2.28c-0.26-0.25-0.51-0.38-0.76-0.38
			c-0.26,0-0.45,0.07-0.57,0.19l-2.28,2.09c-0.89,1.02-1.68,2.03-2.38,3.04c-0.7,1.02-1.43,2.03-2.19,3.04
			c-1.4,2.54-2.57,5.07-3.52,7.61c-0.95,2.54-1.87,5.14-2.76,7.8c-0.51,1.02-0.86,2.03-1.05,3.04c-0.19,1.02-0.41,2.03-0.67,3.04
			c-0.13,0.26-0.19,0.6-0.19,1.05c0,0.45,0,0.79,0,1.05c0,0.26,0.13,0.51,0.38,0.76h0.19c0.25,0,0.44-0.06,0.57-0.19
			c1.65-1.52,3.2-3.17,4.66-4.95c1.46-1.78,2.82-3.74,4.09-5.9c2.03-2.92,4.03-5.8,5.99-8.66c1.96-2.85,3.9-5.74,5.8-8.66
			c1.14-1.9,2.44-3.87,3.9-5.9c1.46-2.03,2.88-4,4.28-5.9l3.61-5.14c0.51-0.76,0.89-1.14,1.14-1.14c0.13,0,0.57,0.13,1.33,0.38
			c0.38,0.26,0.82,0.45,1.33,0.57c0.5,0.13,0.89,0.32,1.14,0.57c0.89,0.89,1.33,1.71,1.33,2.47c0,0.26-0.03,0.45-0.09,0.57
			c-0.07,0.13-0.09,0.32-0.09,0.57l-2.09,6.47c-1.02,3.42-2.03,6.88-3.04,10.37c-1.02,3.49-1.97,7.01-2.85,10.56
			c-0.26,1.52-0.54,3.04-0.86,4.57c-0.32,1.52-0.6,3.17-0.86,4.95c-0.13,1.02-0.22,2.03-0.29,3.04c-0.07,1.02-0.09,2.03-0.09,3.04
			c0,0.76,0.03,1.49,0.09,2.19c0.06,0.7,0.1,1.43,0.1,2.19c0,0.76,0.09,1.4,0.29,1.9c0.19,0.51,0.41,1.08,0.67,1.71
			c0.5,0.89,1.33,1.33,2.47,1.33h0.57c0.25-0.13,0.57-0.19,0.95-0.19c0.38,0,0.7-0.13,0.95-0.38c0.63-0.63,1.3-1.24,2-1.81
			c0.7-0.57,1.36-1.24,2-2c1.77-1.9,3.55-3.87,5.33-5.9c1.77-2.03,3.36-4.25,4.76-6.66c1.39-1.9,2.73-3.8,4-5.71
			c1.27-1.9,2.6-3.87,4-5.9c0.38-0.51,0.67-1.05,0.86-1.62c0.19-0.57,0.41-1.17,0.67-1.81l1.33-1.14c0.13-0.13,0.32-0.19,0.57-0.19
			c0.25,0,0.44,0.07,0.57,0.19c0.25,0.13,0.35,0.22,0.29,0.29C-268.25-695.69-268.21-695.6-268.08-695.47z M-324.78-703.46
			c-1.14,0.38-1.71,1.08-1.71,2.09l-0.76,0.57c-1.52,2.28-2.85,4.79-4,7.52c-1.14,2.73-2.09,5.49-2.85,8.28
			c-0.26,0.76-0.38,1.33-0.38,1.71c0,0.38,0.06,0.7,0.19,0.95c-0.51,0.13-0.76,0.51-0.76,1.14c0,0.13,0.03,0.22,0.09,0.29
			c0.06,0.06,0.1,0.16,0.1,0.29c0,0.13-0.03,0.19-0.1,0.19c-0.07,0-0.09,0.07-0.09,0.19c-0.13,0-0.13,0.07,0,0.19
			c0-0.13,0.03-0.22,0.09-0.29c0.06-0.06,0.1-0.16,0.1-0.29c0.38-0.25,0.57-0.89,0.57-1.9c0.25-0.13,0.57-0.7,0.95-1.71
			c0.76-2.54,1.62-5.04,2.57-7.51c0.95-2.47,2.12-4.85,3.52-7.13c0.25-0.25,0.41-0.63,0.48-1.14c0.06-0.51,0.22-0.95,0.48-1.33
			C-325.8-701.5-325.29-702.19-324.78-703.46z M-334.39-687.67c0.06,0,0.09-0.06,0.09-0.19l-0.19,0.38
			C-334.49-687.61-334.45-687.67-334.39-687.67z M-333.53-690.72c0-0.13,0.03-0.22,0.1-0.29c0.06-0.06,0.09-0.16,0.09-0.29
			c-0.26,0-0.38,0.13-0.38,0.38L-333.53-690.72z M-329.16-689.76c-0.38,0.38-0.51,0.57-0.38,0.57L-329.16-689.76z M-328.59-690.72
			c0.25-0.13,0.38-0.5,0.38-1.14C-328.46-691.35-328.59-690.97-328.59-690.72z M-328.21-691.86c0.25-0.13,0.38-0.32,0.38-0.57V-693
			C-328.08-692.74-328.21-692.36-328.21-691.86z M-327.83-693c0.63-0.25,1.01-0.76,1.14-1.52
			C-327.45-694.39-327.83-693.89-327.83-693z M-326.68-694.52c0.25-0.13,0.38-0.51,0.38-1.14
			C-326.56-695.53-326.68-695.15-326.68-694.52z M-326.3-695.66c0.76-0.51,1.14-1.39,1.14-2.66c-0.76,0.38-1.14,1.08-1.14,2.09
			V-695.66z M-324.21-700.23c-0.64,0.38-0.95,1.02-0.95,1.9c0.63-0.25,0.95-0.63,0.95-1.14v-0.57c0.76-0.13,1.14-0.63,1.14-1.52
			C-323.58-701.43-323.96-700.99-324.21-700.23z M-324.78-703.46c0.51-0.51,0.76-1.08,0.76-1.71c-0.51,0.26-0.76,0.7-0.76,1.33
			V-703.46z M-322.69-702.32c0.76-0.25,1.14-0.7,1.14-1.33C-322.31-703.4-322.69-702.96-322.69-702.32z M-276.65-681.58
			c-0.26,0.25-0.38,0.51-0.38,0.76L-276.65-681.58z M-273.03-686.72c-0.25,0.13-0.38,0.22-0.38,0.29c0,0.07-0.07,0.16-0.19,0.29
			l0.38-0.38L-273.03-686.72z M-270.94-690.72c0.38-0.13,0.57-0.25,0.57-0.38c-0.13,0-0.26,0.07-0.38,0.19L-270.94-690.72z
			 M-269.8-691.86c0,0.26-0.13,0.38-0.38,0.38c0.13,0,0.25-0.06,0.38-0.19V-691.86z M-268.85-694.9v0.38c0-0.13,0.03-0.19,0.09-0.19
			c0.06,0,0.09-0.06,0.09-0.19H-268.85z"/>
		<path class="st3" d="M-228.51-694.9c0.25,1.27,0.38,2.22,0.38,2.85c0,2.16-0.48,4.12-1.43,5.9c-0.95,1.78-1.97,3.36-3.04,4.76
			c-1.08,1.4-2.09,2.57-3.04,3.52c-0.95,0.95-1.43,1.56-1.43,1.81c0,0.13,0.13,0.19,0.38,0.19h0.19c-1.4,1.78-2.92,3.65-4.57,5.61
			c-1.65,1.97-3.17,3.65-4.57,5.04c-1.78,1.78-3.68,3.33-5.71,4.66c-2.03,1.33-4.25,2.31-6.66,2.95c-0.89,0.25-1.71,0.44-2.47,0.57
			c-0.76,0.13-1.59,0.19-2.47,0.19c-2.66,0-4.95-0.7-6.85-2.09c-1.4-1.01-2.7-2.03-3.9-3.04c-1.21-1.01-2.19-2.22-2.95-3.61
			c-0.64-1.27-1.08-2.66-1.33-4.19c-0.13-0.5-0.19-1.01-0.19-1.52c0-0.51,0-1.08,0-1.71c0-0.63,0-1.17,0-1.62
			c0-0.44,0.07-0.98,0.19-1.62v-4.57c0.25-1.14,0.51-2.25,0.76-3.33c0.25-1.08,0.51-2.12,0.76-3.14v-1.14
			c0-0.13,0.03-0.22,0.09-0.29c0.06-0.06,0.1-0.16,0.1-0.29c0-0.12-0.03-0.25-0.1-0.38c-0.07-0.13-0.09-0.25-0.09-0.38
			c0-0.13-0.03-0.19-0.1-0.19c-0.07,0-0.09-0.06-0.09-0.19l0.57-0.76c0.38-0.25,0.82-0.76,1.33-1.52c0.63-1.14,1.2-2.31,1.71-3.52
			c0.5-1.2,1.08-2.38,1.71-3.52c1.77-3.04,3.74-5.71,5.9-7.99c1.52-1.9,3.3-3.49,5.33-4.76c1.01-0.89,2.16-1.39,3.42-1.52
			c0.5-0.13,0.98-0.19,1.43-0.19c0.44,0,0.86,0,1.24,0c2.28,0,4.38,0.51,6.28,1.52c2.41,1.4,3.62,3.36,3.62,5.9v0.57
			c-0.13,1.9-0.7,3.81-1.71,5.71c-0.76,1.52-1.62,2.98-2.57,4.38c-0.95,1.4-2.13,2.6-3.52,3.61c-3.42,2.66-6.85,4.44-10.27,5.33
			l-2.09,0.57c-0.89,0.13-1.52,0.7-1.9,1.71l-1.9,14.65v0.76c0,0.64,0.06,1.3,0.19,2c0.13,0.7,0.32,1.36,0.57,2
			c0.13,1.14,0.89,1.71,2.28,1.71h1.52c1.77-0.38,3.52-0.89,5.23-1.52c1.71-0.63,3.33-1.46,4.85-2.47c1.52-1.01,2.98-2.12,4.38-3.33
			c1.39-1.2,2.79-2.5,4.19-3.9c0.76-0.76,1.84-1.68,3.23-2.76c1.39-1.08,2.54-2.12,3.42-3.14c1.14-1.39,2.22-2.76,3.23-4.09
			c1.01-1.33,2.03-2.69,3.04-4.09c0.63-1.01,1.24-2.03,1.81-3.04C-229.56-692.87-229.02-693.89-228.51-694.9z M-270.56-694.33
			l0.38-0.38c-0.13,0-0.19,0.03-0.19,0.09c0,0.07-0.07,0.1-0.19,0.1V-694.33z M-270.18-694.9c0.76-0.51,1.14-1.33,1.14-2.47
			C-269.67-696.74-270.05-695.92-270.18-694.9z M-267.13-696.23c1.01-1.9,2.12-3.77,3.33-5.61c1.2-1.84,2.57-3.64,4.09-5.42v-0.76
			l-0.57,0.38c-0.26,0.25-0.57,0.54-0.95,0.86c-0.38,0.32-0.7,0.67-0.95,1.05c-1.14,1.4-2.19,2.85-3.14,4.38
			c-0.95,1.52-1.87,3.11-2.76,4.76c-0.51,1.02-0.95,2.28-1.33,3.81l0.95-1.33c0.25-0.25,0.48-0.6,0.67-1.05
			C-267.61-695.63-267.39-695.98-267.13-696.23z M-268.28-698.33c-0.26,0.13-0.51,0.45-0.76,0.95
			C-268.53-697.5-268.28-697.82-268.28-698.33z M-266.56-701.37c-0.89,0.64-1.46,1.65-1.71,3.04c0.89-0.89,1.52-1.9,1.9-3.04
			c0.25-0.25,0.38-0.57,0.38-0.95C-266.37-702.07-266.56-701.75-266.56-701.37z M-264.85-703.84c-0.64,0.38-1.02,0.89-1.14,1.52
			C-265.23-702.45-264.85-702.96-264.85-703.84z M-264.09-704.8c-0.38,0.13-0.57,0.45-0.57,0.95L-264.09-704.8z M-263.52-705.37
			c0.25-0.25,0.38-0.57,0.38-0.95L-263.52-705.37z M-263.14-698.71c0.13-0.12,0.19-0.31,0.19-0.57c0,0.13-0.03,0.19-0.09,0.19
			c-0.07,0-0.1,0.07-0.1,0.19V-698.71z M-262.76-699.28c0.38-0.13,0.57-0.44,0.57-0.95C-262.44-699.97-262.63-699.66-262.76-699.28z
			 M-252.67-707.08c-0.64,0.38-1.21,0.83-1.71,1.33c-0.51,0.51-1.08,1.02-1.71,1.52c-1.27,1.52-2.35,3.08-3.23,4.66
			c-0.89,1.59-1.78,3.27-2.66,5.04c-0.13,0.13-0.19,0.32-0.19,0.57v0.19c0,0.26,0.19,0.38,0.57,0.38c0.51-0.25,0.95-0.48,1.33-0.67
			c0.38-0.19,0.76-0.41,1.14-0.67c1.39-1.14,2.69-2.35,3.9-3.62c1.2-1.27,2.19-2.73,2.95-4.38c0.89-1.52,1.39-2.92,1.52-4.19v-0.19
			c0-0.38-0.26-0.57-0.76-0.57h-0.38L-252.67-707.08z M-256.86-707.08c-0.26,0-0.45,0.07-0.57,0.19c-1.02,1.02-1.94,2.03-2.76,3.04
			c-0.83,1.02-1.49,2.22-2,3.62c0.38-0.13,0.63-0.38,0.76-0.76c0.76-1.01,1.55-1.97,2.38-2.85c0.82-0.89,1.55-1.84,2.19-2.85
			V-707.08z M-250.77-701.37c0,0.13-0.13,0.32-0.38,0.57c-0.25,0.51-0.38,0.83-0.38,0.95h0.38c-0.25,0.26-0.41,0.57-0.48,0.95
			c-0.07,0.38-0.16,0.7-0.29,0.95c-0.13,0.26-0.29,0.41-0.48,0.48c-0.19,0.07-0.35,0.22-0.48,0.48v0.19h0.19
			c0.25-0.13,0.41-0.25,0.48-0.38c0.06-0.13,0.22-0.32,0.48-0.57c0.5-0.38,0.92-0.82,1.24-1.33c0.32-0.51,0.6-1.01,0.86-1.52
			c0.25-0.25,0.38-0.54,0.38-0.86c0-0.31,0.06-0.6,0.19-0.86c-0.38,0-0.6,0.16-0.67,0.48c-0.07,0.32-0.22,0.54-0.48,0.67l-0.38,0.38
			c-0.13,0-0.19-0.06-0.19-0.19V-701.37z M-251.34-695.66l0.38-0.19C-251.09-695.85-251.22-695.79-251.34-695.66z M-248.87-698.71
			c-0.89,0.38-1.46,1.21-1.71,2.47C-249.7-696.74-249.12-697.57-248.87-698.71z M-248.3-699.47c-0.26,0.13-0.38,0.22-0.38,0.29
			c0,0.07-0.07,0.16-0.19,0.29c0.13,0,0.19-0.03,0.19-0.1c0-0.06,0.06-0.09,0.19-0.09C-248.49-699.21-248.43-699.34-248.3-699.47z
			 M-243.54-672.64c0.13-0.13,0.38-0.29,0.76-0.48c0.38-0.19,0.63-0.41,0.76-0.67l-1.71,1.14v0.19L-243.54-672.64z M-241.07-672.26
			c0-0.13-0.07-0.19-0.19-0.19l-0.57,0.57C-241.58-672.13-241.33-672.26-241.07-672.26z M-240.69-675.3
			c-0.26,0.25-0.38,0.57-0.38,0.95L-240.69-675.3z M-240.5-673.02c0.38-0.12,0.57-0.44,0.57-0.95
			C-240.31-673.72-240.5-673.4-240.5-673.02z M-239.93-673.97c0.38-0.13,0.63-0.38,0.76-0.76c-0.13,0.13-0.25,0.22-0.38,0.29
			C-239.67-674.38-239.8-674.23-239.93-673.97z M-239.74-676.07c0.5-0.13,0.95-0.7,1.33-1.71c-0.38,0.26-0.67,0.48-0.86,0.67
			S-239.61-676.57-239.74-676.07z M-239.17-674.73c0.51-0.25,0.95-0.76,1.33-1.52C-238.6-675.75-239.04-675.24-239.17-674.73z
			 M-238.41-677.78c0.63-0.13,1.14-0.7,1.52-1.71C-237.52-679.24-238.03-678.66-238.41-677.78z M-237.07-677.4
			c-0.25,0.25-0.45,0.57-0.57,0.95L-237.07-677.4z M-236.88-679.49c0.76-0.25,1.14-0.7,1.14-1.33
			C-236.38-680.57-236.76-680.12-236.88-679.49z M-235.74-681.01c0.63-0.25,1.11-0.63,1.43-1.14c0.32-0.5,0.6-1.08,0.86-1.71
			c-0.51,0.38-0.92,0.79-1.24,1.24C-235.01-682.18-235.36-681.65-235.74-681.01z M-234.41-680.63c-0.38,0.38-0.57,0.7-0.57,0.95
			L-234.41-680.63z M-234.22-680.82c0.38-0.38,0.57-0.69,0.57-0.95L-234.22-680.82z M-233.46-683.87c0.13,0,0.32-0.32,0.57-0.95
			h-0.38l-0.19,0.19V-683.87z M-232.89-684.82c0.5-0.13,0.76-0.44,0.76-0.95h-0.57L-232.89-684.82z M-230.61-688.43
			c-0.89,0.89-1.4,1.65-1.52,2.28v0.38c0.38-0.38,0.73-0.76,1.05-1.14C-230.77-687.29-230.61-687.8-230.61-688.43z M-230.61-688.43
			c0.51-0.13,0.76-0.32,0.76-0.57l-0.38-0.38v-0.19h-0.19l0.19,0.19C-230.22-689-230.35-688.69-230.61-688.43z"/>
	</g>
	<g class="st2">
		<g>
			<path class="st0" d="M-538.86-817.5c4.8-8.33,8.65-20.67,2.09-28.13c-2.41-2.74-6.43-3.83-9.78-4.88
				c-2.53-0.8-4.97-1.66-7.18-2.89l1.69,4.08c2.66,1.1,5.48,1.98,8.36,3.02c10.41,3.79,7.67,16.17,3.27,25.04L-538.86-817.5z"/>
		</g>
		<g>
			<path class="st3" d="M-532.35-817.58v-5.77c-0.52,0.09-1,0.41-1.23,1.02c-1.01,2.74-2.42,5.24-4.15,7.52l1.35,3.26
				C-534.83-813.42-533.48-815.43-532.35-817.58z"/>
		</g>
		<g>
			<path class="st3" d="M-532.35-861.75c-4.27,2.23-8.56,4.43-12.9,6.51c-1.54,0.74-0.59,2.74,0.78,2.88
				c4.86,0.52,9.12,2.57,12.12,6.46v-4.45c-2.16-1.93-4.64-3.29-7.41-4.14c2.48-1.23,4.95-2.5,7.41-3.78V-861.75z"/>
		</g>
		<g>
			<path class="st0" d="M-525.84-817.5c-4.8-8.33-8.65-20.67-2.09-28.13c2.41-2.74,6.43-3.83,9.78-4.88
				c2.52-0.8,4.97-1.66,7.18-2.89l-1.69,4.08c-2.66,1.1-5.48,1.98-8.36,3.02c-10.41,3.79-7.67,16.17-3.27,25.04L-525.84-817.5z"/>
		</g>
		<g>
			<path class="st3" d="M-532.35-817.58v-5.77c0.52,0.09,1.01,0.41,1.23,1.02c1.01,2.74,2.43,5.24,4.15,7.52l-1.35,3.26
				C-529.87-813.42-531.22-815.43-532.35-817.58z"/>
		</g>
		<g>
			<path class="st3" d="M-532.35-861.75c4.27,2.23,8.56,4.43,12.9,6.51c1.54,0.74,0.59,2.74-0.78,2.88
				c-4.86,0.52-9.12,2.57-12.13,6.46v-4.45c2.17-1.93,4.64-3.29,7.41-4.14c-2.48-1.23-4.95-2.5-7.41-3.78V-861.75z"/>
		</g>
		<g>
			<path class="st0" d="M-548.06-808.3c-2.49-9.29-8.5-20.73-18.41-21.37c-3.65-0.23-7.26,1.84-10.37,3.46
				c-2.35,1.22-4.69,2.34-7.12,3.04l4.08,1.69c2.66-1.1,5.28-2.48,8.05-3.77c10.04-4.68,16.86,6.02,20.02,15.4L-548.06-808.3z"/>
		</g>
		<g>
			<path class="st3" d="M-543.51-812.95l-4.08-4.08c-0.31,0.43-0.43,1-0.15,1.6c1.22,2.65,1.99,5.42,2.38,8.26l3.26,1.35
				C-542.32-808.26-542.79-810.63-543.51-812.95z"/>
		</g>
		<g>
			<path class="st3" d="M-574.75-844.19c-1.44,4.6-2.92,9.19-4.52,13.73c-0.57,1.61,1.52,2.35,2.59,1.49
				c3.81-3.07,8.27-4.63,13.14-4.01l-3.15-3.15c-2.89,0.17-5.61,0.96-8.17,2.31c0.88-2.63,1.73-5.27,2.56-7.91L-574.75-844.19z"/>
		</g>
		<g>
			<path class="st0" d="M-538.86-817.5c-9.29-2.49-20.73-8.5-21.37-18.41c-0.23-3.65,1.84-7.26,3.46-10.37
				c1.22-2.35,2.34-4.69,3.04-7.12l1.69,4.08c-1.1,2.66-2.48,5.27-3.77,8.05c-4.68,10.04,6.02,16.86,15.4,20.02L-538.86-817.5z"/>
		</g>
		<g>
			<path class="st3" d="M-543.51-812.95l-4.08-4.08c0.43-0.31,1-0.43,1.6-0.15c2.65,1.23,5.42,1.99,8.26,2.38l1.35,3.26
				C-538.82-811.76-541.2-812.23-543.51-812.95z"/>
		</g>
		<g>
			<path class="st3" d="M-574.75-844.19c4.6-1.44,9.19-2.92,13.73-4.52c1.61-0.57,2.35,1.52,1.49,2.59c-3.06,3.8-4.63,8.27-4,13.14
				l-3.15-3.15c0.17-2.89,0.96-5.61,2.31-8.17c-2.63,0.88-5.27,1.73-7.91,2.56L-574.75-844.19z"/>
		</g>
		<g>
			<path class="st0" d="M-548.06-795.28c-8.33-4.8-20.67-8.65-28.13-2.09c-2.75,2.41-3.83,6.43-4.88,9.78
				c-0.79,2.52-1.66,4.97-2.89,7.18l4.08-1.69c1.1-2.66,1.98-5.48,3.03-8.36c3.79-10.41,16.17-7.67,25.04-3.27L-548.06-795.28z"/>
		</g>
		<g>
			<path class="st3" d="M-548.14-801.79l-5.77,0c0.09,0.52,0.4,1.01,1.02,1.24c2.74,1.01,5.23,2.43,7.52,4.15l3.26-1.35
				C-543.98-799.31-545.98-800.66-548.14-801.79z"/>
		</g>
		<g>
			<path class="st3" d="M-592.31-801.79c2.23,4.27,4.43,8.56,6.51,12.91c0.74,1.54,2.74,0.58,2.88-0.78
				c0.52-4.86,2.58-9.12,6.46-12.12h-4.45c-1.93,2.17-3.29,4.64-4.14,7.41c-1.23-2.48-2.5-4.95-3.78-7.41H-592.31z"/>
		</g>
		<g>
			<path class="st0" d="M-548.06-808.3c-8.33,4.8-20.67,8.65-28.13,2.09c-2.74-2.41-3.83-6.43-4.88-9.78
				c-0.79-2.53-1.66-4.97-2.89-7.18l4.08,1.69c1.1,2.66,1.98,5.48,3.03,8.36c3.79,10.41,16.17,7.67,25.04,3.27L-548.06-808.3z"/>
		</g>
		<g>
			<path class="st3" d="M-548.14-801.79l-5.77,0c0.09-0.52,0.4-1.01,1.02-1.23c2.74-1.01,5.23-2.43,7.52-4.15l3.26,1.35
				C-543.98-804.27-545.98-802.92-548.14-801.79z"/>
		</g>
		<g>
			<path class="st3" d="M-592.31-801.79c2.23-4.27,4.43-8.56,6.51-12.91c0.74-1.54,2.74-0.58,2.88,0.78
				c0.52,4.86,2.58,9.12,6.46,12.12h-4.45c-1.92-2.16-3.29-4.64-4.14-7.41c-1.23,2.48-2.5,4.95-3.78,7.41H-592.31z"/>
		</g>
		<g>
			<path class="st0" d="M-538.86-786.09c-9.29,2.5-20.73,8.5-21.37,18.41c-0.23,3.65,1.84,7.26,3.47,10.37
				c1.22,2.35,2.34,4.69,3.04,7.12l1.69-4.08c-1.1-2.66-2.48-5.28-3.77-8.05c-4.68-10.04,6.01-16.86,15.4-20.02L-538.86-786.09z"/>
		</g>
		<g>
			<path class="st3" d="M-543.51-790.63l-4.08,4.08c0.43,0.31,1,0.43,1.6,0.15c2.65-1.22,5.42-1.99,8.26-2.38l1.35-3.26
				C-538.82-791.82-541.19-791.35-543.51-790.63z"/>
		</g>
		<g>
			<path class="st3" d="M-574.75-759.39c4.6,1.44,9.19,2.92,13.73,4.52c1.61,0.57,2.35-1.52,1.49-2.59c-3.06-3.81-4.63-8.27-4-13.14
				l-3.15,3.15c0.17,2.89,0.96,5.61,2.31,8.17c-2.63-0.88-5.27-1.73-7.91-2.56L-574.75-759.39z"/>
		</g>
		<g>
			<path class="st0" d="M-548.06-795.28c-2.49,9.29-8.5,20.73-18.41,21.37c-3.65,0.23-7.26-1.84-10.37-3.46
				c-2.35-1.22-4.69-2.34-7.12-3.04l4.08-1.69c2.66,1.1,5.28,2.48,8.05,3.77c10.04,4.68,16.86-6.02,20.02-15.4L-548.06-795.28z"/>
		</g>
		<g>
			<path class="st3" d="M-543.51-790.63l-4.08,4.08c-0.31-0.43-0.43-1-0.15-1.6c1.22-2.65,1.99-5.42,2.38-8.26l3.26-1.35
				C-542.32-795.32-542.79-792.95-543.51-790.63z"/>
		</g>
		<g>
			<path class="st3" d="M-574.75-759.39c-1.44-4.6-2.92-9.19-4.52-13.73c-0.57-1.61,1.52-2.35,2.59-1.49
				c3.81,3.07,8.27,4.63,13.14,4.01l-3.15,3.15c-2.89-0.17-5.61-0.96-8.17-2.31c0.88,2.63,1.73,5.27,2.56,7.91L-574.75-759.39z"/>
		</g>
		<g>
			<path class="st0" d="M-525.84-786.09c-4.8,8.33-8.65,20.67-2.09,28.13c2.41,2.74,6.43,3.83,9.78,4.88
				c2.52,0.79,4.97,1.66,7.18,2.89l-1.69-4.08c-2.66-1.1-5.48-1.98-8.36-3.02c-10.41-3.79-7.67-16.17-3.27-25.04L-525.84-786.09z"/>
		</g>
		<g>
			<path class="st3" d="M-532.35-786v5.77c0.52-0.09,1.01-0.4,1.23-1.02c1.01-2.74,2.43-5.23,4.15-7.52l-1.35-3.26
				C-529.87-790.16-531.22-788.15-532.35-786z"/>
		</g>
		<g>
			<path class="st3" d="M-532.35-741.83c4.27-2.23,8.56-4.43,12.9-6.51c1.54-0.74,0.59-2.74-0.78-2.88
				c-4.86-0.52-9.12-2.57-12.12-6.46v4.45c2.16,1.93,4.64,3.29,7.41,4.14c-2.48,1.24-4.95,2.5-7.41,3.78L-532.35-741.83z"/>
		</g>
		<g>
			<path class="st0" d="M-538.86-786.09c4.81,8.33,8.65,20.67,2.09,28.13c-2.42,2.74-6.43,3.83-9.78,4.88
				c-2.53,0.79-4.97,1.66-7.18,2.89l1.69-4.08c2.66-1.1,5.48-1.98,8.36-3.02c10.41-3.79,7.67-16.17,3.27-25.04L-538.86-786.09z"/>
		</g>
		<g>
			<path class="st3" d="M-532.35-786v5.77c-0.52-0.09-1-0.4-1.23-1.02c-1.01-2.74-2.43-5.23-4.15-7.52l1.35-3.26
				C-534.83-790.16-533.48-788.15-532.35-786z"/>
		</g>
		<g>
			<path class="st3" d="M-532.35-741.83c-4.27-2.23-8.56-4.43-12.9-6.51c-1.54-0.74-0.59-2.74,0.78-2.88
				c4.86-0.52,9.12-2.57,12.13-6.46v4.45c-2.17,1.93-4.64,3.29-7.41,4.14c2.48,1.23,4.95,2.5,7.41,3.78L-532.35-741.83z"/>
		</g>
		<g>
			<path class="st0" d="M-516.64-795.28c2.5,9.29,8.5,20.73,18.41,21.37c3.65,0.23,7.26-1.84,10.37-3.46
				c2.35-1.22,4.69-2.34,7.12-3.04l-4.08-1.69c-2.66,1.1-5.28,2.48-8.05,3.77c-10.04,4.68-16.86-6.01-20.02-15.4L-516.64-795.28z"/>
		</g>
		<g>
			<path class="st3" d="M-521.19-790.63l4.08,4.08c0.31-0.43,0.43-1,0.15-1.6c-1.22-2.66-1.99-5.42-2.38-8.26l-3.26-1.35
				C-522.38-795.32-521.91-792.95-521.19-790.63z"/>
		</g>
		<g>
			<path class="st3" d="M-489.95-759.39c1.44-4.6,2.92-9.19,4.52-13.73c0.57-1.61-1.52-2.35-2.59-1.49c-3.81,3.07-8.27,4.63-13.14,4
				l3.15,3.15c2.89-0.17,5.61-0.96,8.17-2.31c-0.88,2.63-1.73,5.27-2.56,7.91L-489.95-759.39z"/>
		</g>
		<g>
			<path class="st0" d="M-525.84-786.09c9.29,2.49,20.73,8.5,21.37,18.41c0.23,3.65-1.84,7.26-3.46,10.37
				c-1.22,2.35-2.34,4.69-3.04,7.12l-1.69-4.08c1.1-2.66,2.48-5.27,3.77-8.05c4.68-10.04-6.01-16.86-15.4-20.02L-525.84-786.09z"/>
		</g>
		<g>
			<path class="st3" d="M-521.19-790.63l4.08,4.08c-0.43,0.31-1,0.43-1.6,0.15c-2.65-1.22-5.42-1.99-8.26-2.38l-1.35-3.26
				C-525.88-791.82-523.51-791.35-521.19-790.63z"/>
		</g>
		<g>
			<path class="st3" d="M-489.95-759.39c-4.6,1.44-9.18,2.92-13.73,4.52c-1.61,0.57-2.35-1.52-1.49-2.59
				c3.07-3.81,4.63-8.27,4-13.14l3.15,3.15c-0.17,2.89-0.96,5.61-2.31,8.17c2.63-0.88,5.27-1.73,7.91-2.56L-489.95-759.39z"/>
		</g>
		<g>
			<path class="st0" d="M-516.64-808.3c8.33,4.8,20.67,8.65,28.13,2.09c2.74-2.41,3.83-6.44,4.88-9.78c0.8-2.52,1.66-4.97,2.89-7.18
				l-4.08,1.69c-1.1,2.66-1.98,5.48-3.03,8.36c-3.79,10.41-16.17,7.67-25.04,3.27L-516.64-808.3z"/>
		</g>
		<g>
			<path class="st3" d="M-516.56-801.79l5.77,0c-0.09-0.52-0.4-1.01-1.03-1.24c-2.74-1.01-5.23-2.43-7.52-4.15l-3.26,1.35
				C-520.72-804.27-518.71-802.92-516.56-801.79z"/>
		</g>
		<g>
			<path class="st3" d="M-472.39-801.79c-2.23-4.27-4.43-8.56-6.51-12.91c-0.74-1.54-2.74-0.58-2.89,0.78
				c-0.52,4.86-2.57,9.12-6.46,12.12h4.45c1.93-2.16,3.29-4.64,4.14-7.41c1.24,2.48,2.5,4.95,3.78,7.41L-472.39-801.79z"/>
		</g>
		<g>
			<path class="st0" d="M-516.64-795.28c8.33-4.8,20.67-8.65,28.13-2.09c2.75,2.42,3.83,6.43,4.88,9.78
				c0.8,2.53,1.66,4.97,2.89,7.18l-4.08-1.69c-1.1-2.66-1.98-5.48-3.02-8.36c-3.79-10.41-16.17-7.67-25.04-3.27L-516.64-795.28z"/>
		</g>
		<g>
			<path class="st3" d="M-516.56-801.79l5.77,0c-0.09,0.52-0.4,1.01-1.03,1.23c-2.74,1.01-5.23,2.43-7.52,4.15l-3.26-1.35
				C-520.72-799.31-518.71-800.66-516.56-801.79z"/>
		</g>
		<g>
			<path class="st3" d="M-472.39-801.79c-2.23,4.27-4.43,8.56-6.51,12.9c-0.74,1.54-2.74,0.59-2.88-0.78
				c-0.52-4.86-2.57-9.12-6.46-12.12h4.45c1.93,2.16,3.29,4.64,4.14,7.41c1.23-2.48,2.5-4.95,3.78-7.41L-472.39-801.79z"/>
		</g>
		<g>
			<path class="st0" d="M-525.84-817.49c9.29-2.5,20.73-8.5,21.37-18.41c0.23-3.65-1.84-7.26-3.46-10.37
				c-1.22-2.35-2.34-4.69-3.04-7.12l-1.69,4.08c1.1,2.66,2.48,5.28,3.77,8.05c4.68,10.04-6.01,16.86-15.4,20.02L-525.84-817.49z"/>
		</g>
		<g>
			<path class="st3" d="M-521.19-812.95l4.08-4.08c-0.43-0.31-1-0.43-1.6-0.15c-2.65,1.22-5.42,1.99-8.26,2.38l-1.35,3.26
				C-525.88-811.76-523.51-812.23-521.19-812.95z"/>
		</g>
		<g>
			<path class="st3" d="M-489.95-844.19c-4.6-1.44-9.18-2.92-13.73-4.52c-1.61-0.57-2.35,1.52-1.49,2.59c3.07,3.8,4.63,8.27,4,13.14
				l3.15-3.15c-0.17-2.89-0.96-5.61-2.31-8.17c2.63,0.88,5.27,1.73,7.91,2.56L-489.95-844.19z"/>
		</g>
		<g>
			<path class="st0" d="M-516.64-808.3c2.49-9.29,8.5-20.73,18.41-21.37c3.65-0.23,7.26,1.84,10.37,3.46
				c2.35,1.22,4.69,2.34,7.12,3.04l-4.08,1.69c-2.66-1.1-5.28-2.48-8.05-3.77c-10.04-4.68-16.86,6.02-20.02,15.4L-516.64-808.3z"/>
		</g>
		<g>
			<path class="st3" d="M-521.19-812.95l4.08-4.08c0.31,0.43,0.43,1,0.15,1.6c-1.22,2.65-1.99,5.42-2.38,8.26l-3.26,1.35
				C-522.38-808.26-521.91-810.64-521.19-812.95z"/>
		</g>
		<g>
			<path class="st3" d="M-489.95-844.19c1.44,4.6,2.92,9.19,4.52,13.73c0.57,1.61-1.52,2.35-2.59,1.49c-3.81-3.07-8.27-4.63-13.14-4
				l3.15-3.15c2.89,0.17,5.61,0.96,8.17,2.31c-0.88-2.63-1.73-5.27-2.56-7.91L-489.95-844.19z"/>
		</g>
	</g>
	<path class="st4" d="M632.46-1308.58c-147.72,0-297.24-31.6-297.24-92.01c0-41.17,65.13-63.91,119.81-75.74
		c8.23-1.92,16.12,3.41,17.86,11.52c1.77,8.11-3.38,16.12-11.52,17.86c-70.49,15.27-96.09,36.08-96.09,46.36
		c0,21.03,94.33,61.96,267.19,61.96c175.43,0,267.19-40.35,267.19-61.96s-91.77-61.93-267.19-61.93h-22.13
		c-8.32,0-15.03-6.7-15.03-15.03c0-8.32,6.7-15.03,15.03-15.03h22.13c147.72,0,297.24,31.57,297.24,91.98
		S780.18-1308.58,632.46-1308.58z"/>
	<path class="st4" d="M632.46-983.94c-106.82,0-214.96-27.03-214.96-78.72c0-8.32,6.7-15.03,15.03-15.03
		c8.32,0,15.03,6.7,15.03,15.03c0,16.52,65.28,48.67,184.9,48.67c120.2,0,185.79-32.15,185.79-48.67c0-8.32,6.7-15.03,15.03-15.03
		c8.32,0,15.03,6.7,15.03,15.03C848.3-1008.57,736.42-983.94,632.46-983.94z"/>
	<path class="st4" d="M432.53-1047.64c-8.32,0-15.03-6.71-15.03-15.03c0-67.78,9.17-145.62,18.07-220.93
		c2.32-19.51,4.63-39.07,6.8-58.52c0.91-8.26,8.53-14.02,16.61-13.26c8.23,0.91,14.2,8.35,13.26,16.61
		c-2.16,19.51-4.48,39.1-6.8,58.7c-8.78,74.43-17.89,151.38-17.89,217.39C447.56-1054.34,440.85-1047.64,432.53-1047.64z"/>
	<path class="st4" d="M833.27-1047.64c-8.32,0-15.03-6.71-15.03-15.03c0-66.01-9.11-142.97-17.89-217.39
		c-2.32-19.6-4.63-39.19-6.8-58.7c-0.94-8.26,5.03-15.7,13.26-16.61c8.2-0.91,15.7,5,16.61,13.26c2.16,19.44,4.48,39.01,6.8,58.52
		c8.9,75.31,18.07,153.15,18.07,220.93C848.3-1054.34,841.6-1047.64,833.27-1047.64z"/>
	<path class="st4" d="M2054.42,185.16c-4.51,0-8.81-2.01-11.7-5.55l-26.82-33.13l-40.96-9.48c-4.82-1.13-8.78-4.51-10.61-9.11
		c-1.8-4.6-1.25-9.78,1.46-13.9l23.62-35.35l-3.93-42.49c-0.46-4.94,1.55-9.78,5.36-12.95c3.87-3.17,9.02-4.24,13.78-2.87
		l40.84,11.76l38.43-16.46c4.51-1.89,9.69-1.49,13.84,1.07c4.18,2.59,6.83,7.04,7.1,11.95l2.35,42.58l27.55,31.48
		c3.26,3.72,4.48,8.78,3.29,13.53c-1.19,4.78-4.66,8.69-9.27,10.42l-39.41,14.99l-22.07,36.27c-2.56,4.21-6.98,6.89-11.86,7.19
		C2055.09,185.16,2054.75,185.16,2054.42,185.16z M2002.91,112.59l24.81,5.73c3.26,0.76,6.19,2.59,8.32,5.18l16.64,20.57
		l13.62-22.43c1.74-2.87,4.39-5.06,7.53-6.25l24.02-9.14l-16.7-19.11c-2.23-2.53-3.54-5.73-3.72-9.08l-1.46-26.3l-23.62,10.12
		c-3.2,1.34-6.77,1.55-10.09,0.61l-24.81-7.16l2.38,25.84c0.34,3.41-0.55,6.86-2.44,9.72L2002.91,112.59z"/>
	<path class="st4" d="M632.46-1252.87c-65.92,0-129.77-6.52-184.66-18.93c-8.08-1.83-13.17-9.87-11.34-17.98
		c1.8-8.11,9.75-13.29,17.98-11.34c52.73,11.89,114.29,18.2,178.02,18.2c38.34,0,73.69-2.04,105.12-6.07
		c8.44-1.25,15.79,4.72,16.82,12.98c1.07,8.26-4.75,15.79-12.98,16.82C708.71-1254.97,672.08-1252.87,632.46-1252.87z"/>
	<g class="st2">
		<path class="st3" d="M802.31-1557.19c-8.32,0-15.03-6.71-15.03-15.03s6.7-16.37,15.03-16.37c8.32,0,15.03,5.39,15.03,13.71v2.65
			C817.34-1563.89,810.63-1557.19,802.31-1557.19z"/>
		<path class="st3" d="M802.31-1499.68c-8.32,0-15.03-6.7-15.03-15.03v-3.54c0-8.32,6.7-15.03,15.03-15.03
			c8.32,0,15.03,6.7,15.03,15.03v3.54C817.34-1506.38,810.63-1499.68,802.31-1499.68z"/>
		<path class="st3" d="M775.76-1529.76h-3.54c-8.32,0-15.03-6.7-15.03-15.03c0-8.32,6.7-15.03,15.03-15.03h3.54
			c8.32,0,15.03,6.7,15.03,15.03C790.79-1536.46,784.08-1529.76,775.76-1529.76z"/>
		<path class="st3" d="M832.39-1529.76c-8.32,0-16.37-6.7-16.37-15.03c0-8.32,5.39-15.03,13.71-15.03h2.65
			c8.32,0,15.03,6.7,15.03,15.03C847.42-1536.46,840.71-1529.76,832.39-1529.76z"/>
	</g>
	<g class="st2">
		<path class="st3" d="M1671.11-76.86c-8.32,0-15.03-6.71-15.03-15.03s6.7-16.37,15.03-16.37c8.32,0,15.03,5.39,15.03,13.71v2.65
			C1686.14-83.56,1679.43-76.86,1671.11-76.86z"/>
		<path class="st3" d="M1671.11-19.35c-8.32,0-15.03-6.7-15.03-15.03v-3.54c0-8.32,6.7-15.03,15.03-15.03
			c8.32,0,15.03,6.7,15.03,15.03v3.54C1686.14-26.05,1679.43-19.35,1671.11-19.35z"/>
		<path class="st3" d="M1644.56-49.43h-3.54c-8.32,0-15.03-6.7-15.03-15.03c0-8.32,6.7-15.03,15.03-15.03h3.54
			c8.32,0,15.03,6.7,15.03,15.03C1659.59-56.13,1652.88-49.43,1644.56-49.43z"/>
		<path class="st3" d="M1701.19-49.43c-8.32,0-16.37-6.7-16.37-15.03c0-8.32,5.39-15.03,13.71-15.03h2.65
			c8.32,0,15.03,6.7,15.03,15.03C1716.22-56.13,1709.51-49.43,1701.19-49.43z"/>
	</g>
	<g class="st2">
		<path class="st3" d="M1626-487.26c-8.32,0-15.03-6.71-15.03-15.03c0-8.32,6.7-16.37,15.03-16.37c8.32,0,15.03,5.39,15.03,13.71
			v2.65C1641.03-493.96,1634.32-487.26,1626-487.26z"/>
		<path class="st3" d="M1626-429.75c-8.32,0-15.03-6.7-15.03-15.03v-3.54c0-8.32,6.7-15.03,15.03-15.03
			c8.32,0,15.03,6.7,15.03,15.03v3.54C1641.03-436.45,1634.32-429.75,1626-429.75z"/>
		<path class="st3" d="M1599.46-459.83h-3.54c-8.32,0-15.03-6.7-15.03-15.03c0-8.32,6.7-15.03,15.03-15.03h3.54
			c8.32,0,15.03,6.7,15.03,15.03C1614.48-466.53,1607.78-459.83,1599.46-459.83z"/>
		<path class="st3" d="M1656.08-459.83c-8.32,0-16.37-6.7-16.37-15.03c0-8.32,5.39-15.03,13.71-15.03h2.65
			c8.32,0,15.03,6.7,15.03,15.03C1671.11-466.53,1664.4-459.83,1656.08-459.83z"/>
	</g>
	<path class="st4" d="M415.71-1730.57c-8.32,0-15.03-6.7-15.03-15.03s6.7-16.37,15.03-16.37c8.32,0,15.03,5.39,15.03,13.71v2.65
		C430.73-1737.28,424.03-1730.57,415.71-1730.57z"/>
	<path class="st4" d="M415.71-1673.09c-8.32,0-15.03-6.71-15.03-15.03v-3.54c0-8.32,6.7-15.03,15.03-15.03
		c8.32,0,15.03,6.71,15.03,15.03v3.54C430.73-1679.8,424.03-1673.09,415.71-1673.09z"/>
	<path class="st4" d="M388.31-1703.14c-8.32,0-16.37-6.7-16.37-15.03c0-8.32,5.39-15.03,13.71-15.03h2.65
		c8.32,0,15.03,6.7,15.03,15.03C403.33-1709.85,396.63-1703.14,388.31-1703.14z"/>
	<path class="st4" d="M444.9-1703.14c-8.32,0-16.37-6.7-16.37-15.03c0-8.32,5.39-15.03,13.71-15.03h2.65
		c8.32,0,15.03,6.7,15.03,15.03C459.93-1709.85,453.22-1703.14,444.9-1703.14z"/>
	<g class="st2">
		<g>
			<g>
				<path class="st5" d="M244.06,132.38h-88.12c-0.79,0-1.42-0.64-1.42-1.42V65.57c0-0.79,0.64-1.42,1.42-1.42h88.12
					c0.79,0,1.42,0.64,1.42,1.42v65.38C245.48,131.74,244.85,132.38,244.06,132.38z M157.36,129.54h85.28V67h-85.28V129.54z"/>
			</g>
		</g>
		<g>
			<g>
				<path class="st5" d="M235.53,123.85h-71.07c-0.79,0-1.42-0.64-1.42-1.42V74.1c0-0.79,0.64-1.42,1.42-1.42h71.07
					c0.79,0,1.42,0.64,1.42,1.42v48.33C236.96,123.21,236.32,123.85,235.53,123.85z M165.89,121.01h68.23V75.52h-68.23V121.01z"/>
			</g>
		</g>
		<g>
			<g>
				<path class="st5" d="M164.47,75.52c-0.36,0-0.73-0.14-1-0.42l-8.53-8.53c-0.56-0.56-0.56-1.45,0-2.01s1.45-0.56,2.01,0
					l8.53,8.53c0.56,0.56,0.56,1.45,0,2.01C165.19,75.38,164.83,75.52,164.47,75.52z"/>
			</g>
		</g>
		<g>
			<g>
				<path class="st5" d="M235.53,75.52c-0.36,0-0.73-0.14-1-0.42c-0.56-0.56-0.56-1.45,0-2.01l8.53-8.53c0.56-0.56,1.45-0.56,2.01,0
					s0.56,1.45,0,2.01l-8.53,8.53C236.26,75.38,235.9,75.52,235.53,75.52z"/>
			</g>
		</g>
		<g>
			<g>
				<path class="st5" d="M155.94,132.38c-0.36,0-0.73-0.14-1-0.42c-0.56-0.56-0.56-1.45,0-2.01l8.53-8.53
					c0.56-0.56,1.45-0.56,2.01,0s0.56,1.45,0,2.01l-8.53,8.53C156.66,132.24,156.3,132.38,155.94,132.38z"/>
			</g>
		</g>
		<g>
			<g>
				<path class="st5" d="M244.06,132.38c-0.36,0-0.73-0.14-1-0.42l-8.53-8.53c-0.56-0.56-0.56-1.45,0-2.01s1.45-0.56,2.01,0
					l8.53,8.53c0.56,0.56,0.56,1.45,0,2.01C244.79,132.24,244.43,132.38,244.06,132.38z"/>
			</g>
		</g>
		<g>
			<g>
				<path class="st5" d="M200,61.31c-2.35,0-4.26-1.91-4.26-4.26s1.91-4.26,4.26-4.26s4.26,1.91,4.26,4.26S202.35,61.31,200,61.31z
					 M200,55.62c-0.78,0-1.42,0.64-1.42,1.42c0,0.78,0.64,1.42,1.42,1.42s1.42-0.64,1.42-1.42C201.42,56.26,200.78,55.62,200,55.62z
					"/>
			</g>
		</g>
		<g>
			<g>
				<path class="st5" d="M209.95,67h-19.9c-0.55,0-1.05-0.32-1.29-0.82c-0.23-0.5-0.16-1.09,0.19-1.51l7.11-8.53
					c0.5-0.6,1.4-0.68,2-0.18c0.6,0.5,0.68,1.4,0.18,2l-5.16,6.2h13.83l-5.16-6.2c-0.5-0.6-0.42-1.5,0.18-2
					c0.61-0.5,1.5-0.42,2,0.18l7.11,8.53c0.36,0.42,0.43,1.01,0.2,1.51C211,66.68,210.5,67,209.95,67z"/>
			</g>
		</g>
		<g>
			<g>
				<path class="st5" d="M175.84,123.85c-0.79,0-1.42-0.64-1.42-1.42v-11.37c0-5.49,4.46-9.95,9.95-9.95c5.49,0,9.95,4.46,9.95,9.95
					v0.97c0,0.79-0.64,1.42-1.42,1.42c-0.79,0-1.42-0.64-1.42-1.42v-0.97c0-3.92-3.19-7.11-7.11-7.11c-3.92,0-7.11,3.19-7.11,7.11
					v11.37C177.26,123.21,176.62,123.85,175.84,123.85z"/>
			</g>
		</g>
		<g>
			<g>
				<path class="st5" d="M184.36,98.27c-3.92,0-7.11-3.19-7.11-7.11s3.19-7.11,7.11-7.11c3.92,0,7.11,3.19,7.11,7.11
					S188.28,98.27,184.36,98.27z M184.36,86.89c-2.35,0-4.26,1.91-4.26,4.26s1.91,4.26,4.26,4.26s4.26-1.91,4.26-4.26
					S186.72,86.89,184.36,86.89z"/>
			</g>
		</g>
		<g>
			<g>
				<path class="st5" d="M224.16,123.85c-0.79,0-1.42-0.64-1.42-1.42v-11.37c0-3.92-3.19-7.11-7.11-7.11s-7.11,3.19-7.11,7.11v0.97
					c0,0.79-0.64,1.42-1.42,1.42c-0.79,0-1.42-0.64-1.42-1.42v-0.97c0-5.49,4.46-9.95,9.95-9.95c5.49,0,9.95,4.46,9.95,9.95v11.37
					C225.58,123.21,224.95,123.85,224.16,123.85z"/>
			</g>
		</g>
		<g>
			<g>
				<path class="st5" d="M215.64,98.27c-3.92,0-7.11-3.19-7.11-7.11s3.19-7.11,7.11-7.11s7.11,3.19,7.11,7.11
					S219.55,98.27,215.64,98.27z M215.64,86.89c-2.35,0-4.26,1.91-4.26,4.26s1.91,4.26,4.26,4.26s4.26-1.91,4.26-4.26
					S217.99,86.89,215.64,86.89z"/>
			</g>
		</g>
		<g>
			<g>
				<path class="st5" d="M208.53,123.85h-17.06c-0.79,0-1.42-0.64-1.42-1.42v-5.69c0-5.49,4.46-9.95,9.95-9.95s9.95,4.46,9.95,9.95
					v5.69C209.95,123.21,209.31,123.85,208.53,123.85z M192.89,121.01h14.21v-4.26c0-3.92-3.19-7.11-7.11-7.11
					c-3.92,0-7.11,3.19-7.11,7.11V121.01z"/>
			</g>
		</g>
		<g>
			<g>
				<path class="st5" d="M200,103.95c-3.92,0-7.11-3.19-7.11-7.11c0-3.92,3.19-7.11,7.11-7.11c3.92,0,7.11,3.19,7.11,7.11
					C207.11,100.76,203.92,103.95,200,103.95z M200,92.58c-2.35,0-4.26,1.91-4.26,4.26c0,2.35,1.91,4.26,4.26,4.26
					s4.26-1.91,4.26-4.26C204.26,94.49,202.35,92.58,200,92.58z"/>
			</g>
		</g>
	</g>
	<g class="st2">
		<path class="st3" d="M162.96,204.08h-1.21v-17.3h9.48v1.11h-8.27v7.34h7.81v1.13h-7.81V204.08z"/>
		<path class="st3" d="M182.24,197.97h-7.03l-2.41,6.11h-1.34l6.96-17.37h0.77l6.82,17.37h-1.36L182.24,197.97z M175.65,196.88h6.19
			l-2.35-6.24c-0.2-0.49-0.43-1.17-0.71-2.04c-0.21,0.76-0.45,1.44-0.7,2.06L175.65,196.88z"/>
		<path class="st3" d="M196.07,204.08l-6.45-15.97h-0.09c0.06,0.98,0.09,1.98,0.09,3.01v12.97h-1.16v-17.3h1.87l6.13,15.22h0.07
			l6.13-15.22h1.82v17.3h-1.22v-13.11c0-0.92,0.05-1.86,0.14-2.84h-0.09l-6.47,15.95H196.07z"/>
		<path class="st3" d="M209.37,204.08v-17.3h1.21v17.3H209.37z"/>
		<path class="st3" d="M215.47,204.08v-17.3h1.21v16.16h8.25v1.14H215.47z"/>
		<path class="st3" d="M231.88,196.25l5.06-9.47h1.3l-5.76,10.61v6.69h-1.24v-6.59l-5.79-10.71h1.38L231.88,196.25z"/>
	</g>
</g>
<g id="Layer_3">
	<g>
		<g>
			<g>
				<g>
					<g>
						<g>
							<g>
								<path class="st5" d="M181.32,72.13l-2.26-2.47c-2.28-2.95-3.2-8.86,1.69-15.83c0.41-0.58,1.05-0.95,1.76-1.01
									c0.71-0.06,1.4,0.2,1.9,0.7c0.99,1.01,2.81,3.39,3.85,8.03c0.91,4.08-0.41,6.59-1.68,7.98l-2.14,2.54l-1.6-1.34
									L181.32,72.13z M181.63,67.6l1.18,1.29l1.28-1.52c1.12-1.23,1.42-2.92,0.94-5.08c-0.62-2.78-1.51-4.52-2.24-5.54
									C179.48,62.05,180.44,66,181.63,67.6z"/>
							</g>
						</g>
					</g>
				</g>
			</g>
			<g>
				<g>
					<g>
						<path class="st5" d="M234.09,121.16h-3.3V87.79c0-2.21-1.8-4-4-4h-53.56c-2.21,0-4,1.8-4,4v33.38h-3.3V87.79
							c0-4.03,3.28-7.31,7.31-7.31h53.56c4.03,0,7.31,3.28,7.31,7.31V121.16z"/>
					</g>
				</g>
			</g>
			<g>
				<g>
					<g>
						<path class="st5" d="M196.11,99.29c-1.06,0-2.21-0.26-3.45-0.88c-2.85-1.44-4.46-3.18-5.63-4.46
							c-0.45-0.49-1.05-1.14-1.35-1.28c-0.31,0.23-0.88,0.9-1.3,1.4c-1.68,2-4.22,5.01-8.47,4.5c-6.09-0.74-9.62-6.52-9.76-6.76
							l2.83-1.7c0.03,0.05,2.87,4.65,7.33,5.19c2.31,0.28,3.75-1.21,5.55-3.35c1.13-1.34,2.19-2.61,3.73-2.61
							c1.69,0,2.76,1.15,3.88,2.38c1.06,1.15,2.37,2.58,4.69,3.74c2.79,1.41,4.62-0.18,7.3-2.97c1.68-1.74,3.26-3.39,5.34-3.13
							c2.18,0.27,3.77,2,5.17,3.53c1.11,1.21,2.24,2.46,3.19,2.4c1.13-0.06,2.6-1.46,3.9-2.69c1.55-1.47,3.14-2.99,5.03-3.25
							c3.58-0.48,8.32,5.46,9.68,7.3l-2.65,1.97c-2.4-3.22-5.59-6.14-6.58-6c-0.83,0.12-2.09,1.32-3.2,2.37
							c-1.71,1.63-3.64,3.47-6,3.59c-2.5,0.13-4.25-1.78-5.8-3.47c-1.07-1.16-2.17-2.36-3.14-2.48c-0.44-0.04-1.86,1.43-2.55,2.15
							C202.02,96.66,199.5,99.29,196.11,99.29z"/>
					</g>
				</g>
			</g>
			<g>
				<g>
					<g>
						<rect x="169.11" y="107.86" class="st5" width="61.79" height="3.1"/>
					</g>
				</g>
			</g>
		</g>
		<g>
			<g>
				<path class="st5" d="M233.38,132.34h-66.76c-3.7,0-6.71-3.01-6.71-6.71c0-3.7,3.01-6.71,6.71-6.71h66.76
					c3.7,0,6.71,3.01,6.71,6.71C240.09,129.33,237.08,132.34,233.38,132.34z M166.62,122.23c-1.88,0-3.41,1.53-3.41,3.41
					s1.53,3.41,3.41,3.41h66.76c1.88,0,3.41-1.53,3.41-3.41s-1.53-3.41-3.41-3.41H166.62z"/>
			</g>
		</g>
		<g>
			<g>
				<rect x="181.23" y="69.62" class="st5" width="3.3" height="12.13"/>
			</g>
		</g>
		<g>
			<g>
				<g>
					<g>
						<path class="st5" d="M198.43,72.13l-2.26-2.47c-2.28-2.95-3.2-8.86,1.69-15.83c0.41-0.58,1.05-0.95,1.77-1.01
							c0.71-0.06,1.4,0.2,1.9,0.7c0.99,1.01,2.81,3.39,3.84,8.03c0.91,4.08-0.41,6.59-1.68,7.98l-2.14,2.54l-1.6-1.34L198.43,72.13z
							 M198.75,67.6l1.18,1.29l1.28-1.52c1.12-1.23,1.42-2.92,0.94-5.08c-0.62-2.78-1.51-4.52-2.24-5.55
							C196.59,62.05,197.56,66,198.75,67.6z"/>
					</g>
				</g>
			</g>
		</g>
		<g>
			<g>
				<rect x="198.35" y="69.62" class="st5" width="3.3" height="12.13"/>
			</g>
		</g>
		<g>
			<g>
				<g>
					<g>
						<path class="st5" d="M215.55,72.13l-2.26-2.47c-2.28-2.95-3.2-8.86,1.69-15.83c0.41-0.58,1.05-0.95,1.77-1.01
							c0.71-0.06,1.4,0.2,1.9,0.7c0.99,1.01,2.81,3.39,3.85,8.03c0.91,4.08-0.41,6.59-1.68,7.98l-2.13,2.54l-1.6-1.34L215.55,72.13z
							 M215.86,67.6l1.18,1.29l1.28-1.52c1.12-1.23,1.42-2.92,0.94-5.08c-0.62-2.78-1.51-4.52-2.24-5.55
							C213.71,62.05,214.67,66,215.86,67.6z"/>
					</g>
				</g>
			</g>
		</g>
		<g>
			<g>
				<rect x="215.46" y="69.62" class="st5" width="3.3" height="12.13"/>
			</g>
		</g>
	</g>
	<g>
		<path class="st3" d="M169.23,204.05h-9.46v-17.3h9.46v1.11h-8.25v6.54h7.79v1.11h-7.79v7.42h8.25V204.05z"/>
		<path class="st3" d="M183.37,186.75h1.31l-6.47,17.3h-1.06l-6.45-17.3h1.29l4.35,11.77c0.66,1.78,1.11,3.11,1.34,4
			c0.16-0.59,0.47-1.51,0.94-2.76L183.37,186.75z"/>
		<path class="st3" d="M196.59,204.05h-9.46v-17.3h9.46v1.11h-8.25v6.54h7.79v1.11h-7.79v7.42h8.25V204.05z"/>
		<path class="st3" d="M213.08,204.05h-1.22l-10.25-15.36h-0.09c0.09,1.83,0.14,3.21,0.14,4.14v11.22h-1.16v-17.3h1.21l10.24,15.34
			h0.07c-0.07-1.42-0.11-2.77-0.11-4.05v-11.29h1.17V204.05z"/>
		<path class="st3" d="M222.49,204.05h-1.22v-16.16h-5.62v-1.14h12.46v1.14h-5.62V204.05z"/>
		<path class="st3" d="M240.23,199.59c0,1.44-0.53,2.59-1.59,3.43s-2.47,1.27-4.23,1.27c-2.11,0-3.74-0.23-4.86-0.7v-1.21
			c1.25,0.53,2.84,0.79,4.77,0.79c1.42,0,2.55-0.33,3.38-0.98c0.83-0.65,1.25-1.5,1.25-2.56c0-0.65-0.14-1.2-0.41-1.63
			c-0.28-0.43-0.73-0.82-1.35-1.18c-0.62-0.36-1.54-0.74-2.75-1.15c-1.77-0.61-2.99-1.26-3.66-1.97c-0.67-0.71-1.01-1.65-1.01-2.82
			c0-1.29,0.51-2.35,1.52-3.17c1.01-0.82,2.32-1.22,3.91-1.22c1.63,0,3.15,0.31,4.58,0.92l-0.44,1.04c-1.44-0.6-2.81-0.9-4.12-0.9
			c-1.28,0-2.3,0.3-3.05,0.89s-1.14,1.4-1.14,2.41c0,0.64,0.12,1.16,0.35,1.57s0.61,0.78,1.14,1.11c0.53,0.33,1.44,0.72,2.72,1.18
			c1.35,0.46,2.36,0.92,3.04,1.35c0.68,0.44,1.17,0.93,1.48,1.49C240.07,198.13,240.23,198.8,240.23,199.59z"/>
	</g>
</g>
<g id="Layer_4" class="st1">
	<g class="st2">
		<g>
			<g>
				<g>
					<path class="st3" d="M279.78,258.35l-78.5-30.7c-0.82-0.32-1.75-0.32-2.56,0l-78.5,30.7c-1.52,0.59-2.5,2.13-2.5,3.91
						c0,1.79,0.98,3.32,2.5,3.92l27.58,10.79v36.45c0,0.98,0.39,1.85,1,2.39c1.2,1.14,13.35,12.51,31.6,18.38
						c6.03,1.94,13.12,3.37,20.94,3.37c14.84,0,32.27-5.16,49.91-21.81c0.6-0.56,0.94-1.42,0.94-2.34v-36.45l15.13-5.91v38.06
						c-1.93,1.08-3.27,3.38-3.27,6.05c0,0.22,0.01,0.43,0.03,0.65c-1.23,1.69-2.99,4.83-3.16,9.21c-0.22,5.62,2.19,11.36,7.17,17.08
						c0.47,0.54,1.08,0.81,1.7,0.81c0.04,0,0.06,0,0.1-0.01c0.04,0.01,0.06,0.01,0.1,0.01c0.61,0,1.22-0.27,1.7-0.81
						c4.98-5.72,7.38-11.46,7.17-17.08c-0.18-4.58-2.1-7.82-3.34-9.44c0.01-0.14,0.01-0.28,0.01-0.42c0-2.67-1.34-4.97-3.27-6.05
						v-39.99l7.53-2.94c1.51-0.59,2.49-2.13,2.49-3.92C282.27,260.47,281.3,258.94,279.78,258.35z M247.27,311.96
						c-20.03,18.44-42.04,24.02-65.42,16.55c-15.08-4.81-26-13.81-29.12-16.58v-4.25c5.14,4.11,14.91,10.91,27.67,15.01
						c6.03,1.93,13.12,3.37,20.94,3.37c13.72,0,29.66-4.41,45.93-18.24V311.96z M247.27,300.46
						c-20.03,18.44-42.03,24.02-65.42,16.55c-15.08-4.81-26-13.81-29.12-16.57v-21.56l45.99,17.99c0.41,0.16,0.84,0.25,1.28,0.25
						c0.44,0,0.87-0.08,1.28-0.25l45.98-17.99V300.46z M272.72,320.9c0.58,1.08,1.14,2.59,1.2,4.47c0.1,3.24-1.26,6.74-4.04,10.45
						c-2.79-3.71-4.14-7.21-4.04-10.45c0.06-1.83,0.58-3.31,1.15-4.38c0.82,0.54,1.78,0.86,2.79,0.86
						C270.86,321.85,271.86,321.5,272.72,320.9z M200,291.13l-73.83-28.87L200,233.39l73.82,28.87L200,291.13z"/>
				</g>
			</g>
		</g>
	</g>
	<g class="st2">
		<path class="st3" d="M163.8,199.6c0,1.44-0.53,2.59-1.59,3.43s-2.47,1.27-4.23,1.27c-2.11,0-3.74-0.23-4.86-0.7v-1.21
			c1.25,0.53,2.84,0.79,4.77,0.79c1.42,0,2.55-0.33,3.38-0.98c0.83-0.65,1.25-1.5,1.25-2.56c0-0.65-0.14-1.2-0.41-1.63
			c-0.28-0.43-0.73-0.82-1.35-1.18c-0.62-0.36-1.54-0.74-2.75-1.15c-1.77-0.61-2.99-1.26-3.66-1.97c-0.67-0.71-1.01-1.65-1.01-2.82
			c0-1.29,0.51-2.35,1.52-3.17c1.01-0.82,2.32-1.22,3.91-1.22c1.63,0,3.15,0.31,4.58,0.92l-0.44,1.04c-1.44-0.6-2.81-0.9-4.12-0.9
			c-1.28,0-2.3,0.3-3.05,0.89s-1.14,1.4-1.14,2.41c0,0.64,0.12,1.16,0.35,1.57s0.61,0.78,1.14,1.11c0.53,0.33,1.44,0.72,2.72,1.18
			c1.35,0.46,2.36,0.92,3.04,1.35c0.68,0.44,1.17,0.93,1.48,1.49C163.65,198.14,163.8,198.81,163.8,199.6z"/>
		<path class="st3" d="M176.91,204.06h-9.46v-17.3h9.46v1.11h-8.25v6.54h7.79v1.11h-7.79v7.42h8.25V204.06z"/>
		<path class="st3" d="M193.41,204.06h-1.22l-10.25-15.36h-0.09c0.09,1.83,0.14,3.21,0.14,4.14v11.22h-1.16v-17.3h1.21l10.24,15.34
			h0.07c-0.07-1.42-0.11-2.77-0.11-4.05v-11.29h1.17V204.06z"/>
		<path class="st3" d="M198.31,204.06v-17.3h1.21v17.3H198.31z"/>
		<path class="st3" d="M218.96,195.39c0,2.75-0.69,4.92-2.06,6.51c-1.37,1.6-3.27,2.4-5.68,2.4c-2.41,0-4.3-0.8-5.67-2.4
			c-1.37-1.6-2.06-3.78-2.06-6.54c0-2.75,0.69-4.92,2.08-6.5c1.38-1.58,3.28-2.37,5.67-2.37c2.41,0,4.3,0.79,5.67,2.38
			C218.27,190.46,218.96,192.63,218.96,195.39z M204.8,195.39c0,2.48,0.55,4.39,1.66,5.75c1.1,1.35,2.69,2.03,4.76,2.03
			c2.08,0,3.67-0.67,4.77-2.01c1.1-1.34,1.65-3.26,1.65-5.76c0-2.49-0.55-4.4-1.65-5.73c-1.1-1.33-2.68-1.99-4.75-1.99
			c-2.06,0-3.65,0.67-4.76,2.01C205.36,191.01,204.8,192.92,204.8,195.39z"/>
		<path class="st3" d="M224.14,196.52v7.54h-1.21v-17.3h4.12c2.15,0,3.73,0.4,4.76,1.19c1.03,0.79,1.54,1.99,1.54,3.58
			c0,1.16-0.31,2.14-0.92,2.93s-1.54,1.37-2.79,1.72l4.7,7.88h-1.44l-4.46-7.54H224.14z M224.14,195.48h3.3
			c1.46,0,2.59-0.33,3.4-0.98c0.8-0.65,1.21-1.61,1.21-2.88c0-1.32-0.39-2.28-1.18-2.88c-0.79-0.6-2.07-0.9-3.86-0.9h-2.86V195.48z"
			/>
		<path class="st3" d="M246.88,199.6c0,1.44-0.53,2.59-1.59,3.43s-2.47,1.27-4.23,1.27c-2.11,0-3.74-0.23-4.86-0.7v-1.21
			c1.25,0.53,2.84,0.79,4.77,0.79c1.42,0,2.55-0.33,3.38-0.98c0.83-0.65,1.25-1.5,1.25-2.56c0-0.65-0.14-1.2-0.41-1.63
			c-0.28-0.43-0.73-0.82-1.35-1.18c-0.62-0.36-1.54-0.74-2.75-1.15c-1.77-0.61-2.99-1.26-3.66-1.97c-0.67-0.71-1.01-1.65-1.01-2.82
			c0-1.29,0.51-2.35,1.52-3.17c1.01-0.82,2.32-1.22,3.91-1.22c1.63,0,3.15,0.31,4.58,0.92l-0.44,1.04c-1.44-0.6-2.81-0.9-4.12-0.9
			c-1.28,0-2.3,0.3-3.05,0.89s-1.14,1.4-1.14,2.41c0,0.64,0.12,1.16,0.35,1.57s0.61,0.78,1.14,1.11c0.53,0.33,1.44,0.72,2.72,1.18
			c1.35,0.46,2.36,0.92,3.04,1.35c0.68,0.44,1.17,0.93,1.48,1.49C246.73,198.14,246.88,198.81,246.88,199.6z"/>
	</g>
</g>
<g id="Layer_2" class="st1">
	<g class="st2">
		<path class="st5" d="M242.14,68.17c-3.78,0-6.86,3.08-6.86,6.86c0,1.44,0.45,2.82,1.29,4c-8.67,12.89-16.01,20-20.15,19.5
			c-3.73-0.43-9.24-13.06-14.06-32.19c2.53-1.06,4.22-3.58,4.22-6.32c0-3.78-3.08-6.86-6.86-6.86c-3.78,0-6.86,3.08-6.86,6.86
			c0,2.76,1.62,5.2,4.14,6.3c-5.03,18.79-10.64,31.19-14.3,31.61c-4,0.46-11.15-6.26-19.61-18.45c1.06-1.25,1.64-2.81,1.64-4.44
			c0-3.78-3.08-6.86-6.86-6.86c-3.78,0-6.86,3.08-6.86,6.86c0,3.63,2.91,6.67,6.52,6.85l14.75,47.68c0.44,1.46,1.77,2.44,3.3,2.44
			h49.76c1.54,0,2.91-1.04,3.32-2.52L242,81.89c0.04,0,0.09,0,0.13,0c3.78,0,6.86-3.08,6.86-6.86
			C249,71.25,245.92,68.17,242.14,68.17z M227.22,122.99l-1.59,5.65c-0.04,0.14-0.17,0.23-0.31,0.23h-49.76
			c-0.14,0-0.26-0.09-0.3-0.23l-1.76-5.66H227.22z M199.66,68.46c3.83,14.93,9.72,32.41,16.39,33.18c0.24,0.03,0.49,0.04,0.73,0.04
			c5.48,0,12.94-6.92,22.16-20.58c0,0,0.01,0.01,0.01,0.01l-10.87,38.74h-55.57L160.68,81.5c9.04,12.99,16.33,19.57,21.66,19.57
			c0.24,0,0.48-0.01,0.71-0.04C189.61,100.29,195.67,83.12,199.66,68.46z M195.98,60.02c0-2.06,1.67-3.73,3.73-3.73
			c2.06,0,3.73,1.67,3.73,3.73c0,2.06-1.67,3.73-3.73,3.73C197.66,63.74,195.98,62.07,195.98,60.02z M245.86,75.03
			c0,2.06-1.67,3.73-3.73,3.73s-3.73-1.67-3.73-3.73c0-2.06,1.67-3.73,3.73-3.73S245.86,72.98,245.86,75.03z M161.59,75.03
			c0,2.06-1.67,3.73-3.73,3.73c-2.06,0-3.73-1.67-3.73-3.73c0-2.06,1.67-3.73,3.73-3.73C159.92,71.31,161.59,72.98,161.59,75.03z"/>
	</g>
	<g class="st2">
		<path class="st3" d="M160.22,204.04H159v-16.16h-5.62v-1.14h12.46v1.14h-5.62V204.04z"/>
		<path class="st3" d="M180.94,204.04h-1.22v-8.51h-10.11v8.51h-1.21v-17.3h1.21v7.68h10.11v-7.68h1.22V204.04z"/>
		<path class="st3" d="M195.29,204.04h-9.46v-17.3h9.46v1.11h-8.25v6.54h7.79v1.11h-7.79v7.42h8.25V204.04z"/>
		<path class="st3" d="M206.82,204.04l-6.45-15.97h-0.09c0.06,0.98,0.09,1.98,0.09,3.01v12.97h-1.16v-17.3h1.87l6.13,15.22h0.07
			l6.13-15.22h1.82v17.3h-1.22v-13.11c0-0.92,0.05-1.86,0.14-2.84h-0.09l-6.47,15.95H206.82z"/>
		<path class="st3" d="M229.57,204.04h-9.46v-17.3h9.46v1.11h-8.25v6.54h7.79v1.11h-7.79v7.42h8.25V204.04z"/>
		<path class="st3" d="M246.62,195.23c0,2.9-0.76,5.1-2.28,6.58s-3.76,2.23-6.71,2.23h-4.14v-17.3h4.67c2.76,0,4.86,0.72,6.3,2.17
			C245.9,190.35,246.62,192.46,246.62,195.23z M245.31,195.28c0-2.48-0.63-4.34-1.89-5.59s-3.11-1.88-5.54-1.88h-3.18v15.17h2.86
			C242.73,202.98,245.31,200.41,245.31,195.28z"/>
	</g>
</g>
</svg>
