<?xml version="1.0" encoding="utf-8"?>
<!-- Generator: Adobe Illustrator 23.0.3, SVG Export Plug-In . SVG Version: 6.00 Build 0)  -->
<svg version="1.1" xmlns="http://www.w3.org/2000/svg" xmlns:xlink="http://www.w3.org/1999/xlink" x="0px" y="0px"
	 viewBox="0 0 168.94 170.65" style="enable-background:new 0 0 168.94 170.65;" xml:space="preserve">
<style type="text/css">
	.st0{display:none;}
	.st1{display:inline;}
	.st2{fill:#15A1AA;}
	.st3{fill:#1F2242;}
	.st4{display:inline;fill:#1F2242;}
</style>
<g id="Layer_1" class="st0">
	<g class="st1">
		<path class="st2" d="M-762.18-887.51c1.88,0,3.49,0.66,4.83,1.98c1.35,1.32,2.04,2.92,2.07,4.79c0.02,1.92-0.66,3.57-2.06,4.95
			c-1.39,1.37-3.06,2.06-5.01,2.06h-7.6v11.62c0,0.17-0.08,0.25-0.25,0.25h-1.2c-0.17,0-0.25-0.08-0.25-0.25v-25.16
			c0-0.17,0.08-0.25,0.25-0.25H-762.18z M-762.18-875.41c1.43,0,2.66-0.51,3.68-1.54c1.01-1.01,1.52-2.23,1.52-3.67
			c0-1.44-0.51-2.67-1.52-3.68c-1.02-1.03-2.25-1.54-3.68-1.54h-7.76v10.42H-762.18z"/>
		<path class="st2" d="M-749.72-861.89c-0.17,0-0.25-0.08-0.25-0.25v-25.08c0-0.17,0.08-0.25,0.25-0.25h1.2
			c0.15,0,0.23,0.08,0.23,0.25v25.08c0,0.17-0.08,0.25-0.23,0.25H-749.72z M-732-873.83h-17.97v-1.7H-732V-873.83z M-733.43-861.86
			c-0.17,0-0.25-0.08-0.25-0.25v-25.08c0-0.17,0.08-0.25,0.25-0.25h1.2c0.15,0,0.23,0.08,0.23,0.25v25.08
			c0,0.17-0.08,0.25-0.23,0.25H-733.43z"/>
		<path class="st2" d="M-718.99-862.86c-1.53-0.66-2.88-1.57-4.08-2.75c-1.18-1.19-2.1-2.55-2.75-4.08c-0.67-1.58-1-3.25-1-4.99
			c0-1.74,0.33-3.4,1-4.99c0.66-1.53,1.57-2.88,2.75-4.08c1.19-1.18,2.55-2.09,4.08-2.74c1.59-0.68,3.25-1.02,4.99-1.02
			s3.4,0.34,4.99,1.02c1.53,0.64,2.88,1.56,4.08,2.74c1.18,1.19,2.09,2.55,2.74,4.08c0.68,1.58,1.02,3.25,1.02,4.99
			c0,1.74-0.34,3.4-1.02,4.99c-0.64,1.53-1.56,2.88-2.74,4.08c-1.19,1.18-2.55,2.1-4.08,2.75c-1.59,0.67-3.25,1-4.99,1
			S-717.4-862.19-718.99-862.86z M-718.33-884.92c-1.33,0.56-2.52,1.35-3.54,2.38c-1.02,1.03-1.82,2.21-2.38,3.54
			c-0.58,1.38-0.88,2.83-0.88,4.33c0,1.5,0.29,2.94,0.88,4.33c0.56,1.33,1.35,2.51,2.38,3.54s2.21,1.82,3.54,2.38
			c1.38,0.58,2.82,0.88,4.33,0.88s2.94-0.29,4.33-0.88c1.33-0.56,2.51-1.35,3.54-2.38c1.02-1.03,1.82-2.21,2.38-3.54
			c0.58-1.38,0.88-2.83,0.88-4.33c0-1.5-0.29-2.94-0.88-4.33c-0.56-1.33-1.35-2.51-2.38-3.54c-1.03-1.02-2.21-1.82-3.54-2.38
			c-1.38-0.58-2.82-0.88-4.33-0.88S-716.95-885.5-718.33-884.92z"/>
		<path class="st2" d="M-685.07-887.48c0.17,0,0.25,0.08,0.25,0.25v1.2c0,0.17-0.08,0.25-0.25,0.25h-7.21v23.67
			c0,0.17-0.08,0.25-0.25,0.25h-1.2c-0.15,0-0.23-0.08-0.23-0.25v-23.67h-7.21c-0.17,0-0.25-0.08-0.25-0.25v-1.2
			c0-0.17,0.08-0.25,0.25-0.25H-685.07z"/>
		<path class="st2" d="M-678.03-862.86c-1.53-0.66-2.88-1.57-4.08-2.75c-1.18-1.19-2.1-2.55-2.75-4.08c-0.67-1.58-1-3.25-1-4.99
			c0-1.74,0.33-3.4,1-4.99c0.66-1.53,1.57-2.88,2.75-4.08c1.19-1.18,2.55-2.09,4.08-2.74c1.59-0.68,3.25-1.02,4.99-1.02
			s3.4,0.34,4.99,1.02c1.53,0.64,2.88,1.56,4.08,2.74c1.18,1.19,2.09,2.55,2.74,4.08c0.68,1.58,1.02,3.25,1.02,4.99
			c0,1.74-0.34,3.4-1.02,4.99c-0.64,1.53-1.56,2.88-2.74,4.08c-1.19,1.18-2.55,2.1-4.08,2.75c-1.59,0.67-3.25,1-4.99,1
			S-676.44-862.19-678.03-862.86z M-677.37-884.92c-1.33,0.56-2.52,1.35-3.54,2.38c-1.02,1.03-1.82,2.21-2.38,3.54
			c-0.58,1.38-0.88,2.83-0.88,4.33c0,1.5,0.29,2.94,0.88,4.33c0.56,1.33,1.35,2.51,2.38,3.54s2.21,1.82,3.54,2.38
			c1.38,0.58,2.82,0.88,4.33,0.88s2.94-0.29,4.33-0.88c1.33-0.56,2.51-1.35,3.54-2.38c1.02-1.03,1.82-2.21,2.38-3.54
			c0.58-1.38,0.88-2.83,0.88-4.33c0-1.5-0.29-2.94-0.88-4.33c-0.56-1.33-1.35-2.51-2.38-3.54c-1.03-1.02-2.21-1.82-3.54-2.38
			c-1.38-0.58-2.82-0.88-4.33-0.88S-675.99-885.5-677.37-884.92z"/>
		<path class="st2" d="M-647.4-862.79c-1.68-0.68-3.15-1.67-4.42-2.97c-1.26-1.31-2.21-2.82-2.84-4.52
			c-0.64-1.78-0.88-3.62-0.72-5.52c0.27-3.12,1.55-5.79,3.83-8.01c2.28-2.22,4.98-3.42,8.12-3.61c1.85-0.12,3.62,0.14,5.31,0.79
			c1.69,0.63,3.19,1.59,4.51,2.88c0.12,0.12,0.12,0.24,0,0.36l-0.86,0.84c-0.12,0.11-0.24,0.11-0.36,0
			c-2.13-2.12-4.71-3.19-7.72-3.2c-2.9-0.02-5.42,0.95-7.58,2.93c-2.16,1.99-3.35,4.43-3.58,7.31c-0.12,1.6,0.09,3.13,0.63,4.61
			c0.51,1.43,1.29,2.7,2.32,3.81c1.04,1.12,2.25,1.98,3.63,2.59c1.43,0.64,2.93,0.97,4.51,0.97c2.98,0,5.54-1.03,7.69-3.09v-5.9
			h-5.36c-0.17,0-0.25-0.08-0.25-0.25v-1.2c0-0.17,0.08-0.25,0.25-0.25h6.79c0.17,0,0.25,0.08,0.25,0.25v7.94
			c0,0.07-0.02,0.13-0.07,0.18l-0.04,0.04c-1.16,1.17-2.46,2.1-3.92,2.79c-1.5,0.69-3.06,1.08-4.67,1.16
			C-643.85-861.78-645.66-862.08-647.4-862.79z"/>
		<path class="st2" d="M-627.17-873.69v-13.52c0-0.17,0.08-0.25,0.25-0.25h9.19c1.87,0,3.48,0.66,4.83,1.97
			c1.33,1.32,2.02,2.92,2.06,4.79c0.02,1.92-0.66,3.57-2.06,4.95c-1.39,1.37-3.06,2.06-4.99,2.06H-627.17z M-626.92-861.86
			c-0.17,0-0.25-0.08-0.25-0.25v-15.29h1.68v15.29c0,0.17-0.08,0.25-0.23,0.25H-626.92z M-625.49-875.39h7.76
			c1.43,0,2.65-0.51,3.67-1.52c1.01-1.01,1.52-2.23,1.52-3.67s-0.51-2.66-1.52-3.68c-1.01-1.01-2.24-1.52-3.67-1.52h-7.76V-875.39z
			 M-613.01-861.86c-0.1,0-0.17-0.04-0.21-0.13l-6.53-11.92l1.48-0.8l6.83,12.5c0.05,0.07,0.05,0.15,0,0.23
			c-0.05,0.08-0.12,0.13-0.21,0.13H-613.01z"/>
		<path class="st2" d="M-596.54-887.49c0.11,0,0.18,0.05,0.23,0.14l10.44,25.16c0.04,0.08,0.03,0.16-0.02,0.23s-0.12,0.11-0.21,0.11
			h-1.29c-0.11,0-0.18-0.05-0.23-0.16l-4.34-10.48h-10.69l-4.36,10.48c-0.05,0.11-0.13,0.16-0.23,0.16h-1.29
			c-0.08,0-0.15-0.04-0.21-0.11c-0.05-0.07-0.05-0.15-0.02-0.23l10.44-25.16c0.05-0.09,0.13-0.14,0.23-0.14H-596.54z
			 M-592.66-874.17l-4.65-11.19l-4.65,11.19H-592.66z"/>
		<path class="st2" d="M-573.19-887.51c1.88,0,3.49,0.66,4.83,1.98c1.35,1.32,2.04,2.92,2.07,4.79c0.02,1.92-0.66,3.57-2.06,4.95
			c-1.39,1.37-3.06,2.06-5.01,2.06h-7.6v11.62c0,0.17-0.08,0.25-0.25,0.25h-1.2c-0.17,0-0.25-0.08-0.25-0.25v-25.16
			c0-0.17,0.08-0.25,0.25-0.25H-573.19z M-573.19-875.41c1.43,0,2.66-0.51,3.68-1.54c1.01-1.01,1.52-2.23,1.52-3.67
			c0-1.44-0.51-2.67-1.52-3.68c-1.03-1.03-2.25-1.54-3.68-1.54h-7.76v10.42H-573.19z"/>
		<path class="st2" d="M-560.73-861.89c-0.17,0-0.25-0.08-0.25-0.25v-25.08c0-0.17,0.08-0.25,0.25-0.25h1.2
			c0.15,0,0.23,0.08,0.23,0.25v25.08c0,0.17-0.08,0.25-0.23,0.25H-560.73z M-543.01-873.83h-17.97v-1.7h17.97V-873.83z
			 M-544.44-861.86c-0.17,0-0.25-0.08-0.25-0.25v-25.08c0-0.17,0.08-0.25,0.25-0.25h1.2c0.16,0,0.23,0.08,0.23,0.25v25.08
			c0,0.17-0.08,0.25-0.23,0.25H-544.44z"/>
		<path class="st2" d="M-524.22-887.51c0.09,0,0.17,0.04,0.21,0.13c0.05,0.08,0.05,0.17,0,0.25l-7.29,11.58l-0.16,0.27v13.18
			c0,0.17-0.08,0.25-0.25,0.25h-1.2c-0.15,0-0.23-0.08-0.23-0.25v-13.21l-7.44-11.82c-0.05-0.08-0.05-0.17,0-0.25
			c0.05-0.08,0.12-0.13,0.21-0.13h1.41c0.1,0,0.17,0.04,0.21,0.11l6.44,10.26l6.45-10.26c0.05-0.07,0.12-0.11,0.21-0.11H-524.22z"/>
	</g>
	<g class="st1">
		<path class="st3" d="M-877.12-963.19v3.23c0,0.89,0,1.75,0,2.57c0,0.83-0.13,1.62-0.38,2.38c0,0.38,0.09,0.7,0.29,0.95
			c0.19,0.26,0.29,0.57,0.29,0.95h0.38v-0.38c1.14-2.92,2.5-5.77,4.09-8.56c1.58-2.79,3.2-5.45,4.85-7.99
			c2.03-3.42,4.06-6.82,6.09-10.18c2.03-3.36,4.31-6.63,6.85-9.8c1.77-2.54,3.62-4.98,5.52-7.33c1.9-2.34,4-4.66,6.28-6.94
			c1.9-2.54,4.63-4.95,8.18-7.23c1.01-0.89,2.03-1.65,3.04-2.28c1.01-0.63,2.03-1.27,3.04-1.9c2.28-1.39,4.82-2.47,7.61-3.23h1.33
			c1.01,0,1.77,0.13,2.28,0.38c0.51,0.26,1.08,0.57,1.71,0.95c3.3,2.41,5.2,5.2,5.71,8.37c0.25,0.89,0.41,1.71,0.48,2.47
			c0.06,0.76,0.1,1.59,0.1,2.47v2.09v1.71c0,2.79-0.19,5.71-0.57,8.75c-0.26,2.03-0.64,3.97-1.14,5.8c-0.51,1.84-0.95,3.78-1.33,5.8
			c-0.38,1.65-0.73,3.27-1.05,4.85c-0.32,1.59-0.6,3.08-0.86,4.47c-0.64,1.78-1.17,3.49-1.62,5.14c-0.45,1.65-0.98,3.3-1.62,4.95
			c-0.64,2.16-1.27,4.25-1.9,6.28c-0.64,2.03-1.21,4.12-1.71,6.28c-2.54,6.98-4.69,14.43-6.47,22.36
			c-1.78,7.93-3.93,15.51-6.47,22.74l-1.33,4.19c-0.38,0.89-0.92,2.41-1.62,4.57c-0.7,2.16-1.43,4.47-2.19,6.95
			c-0.76,2.47-1.49,4.85-2.19,7.13c-0.7,2.28-1.24,4-1.62,5.14c-0.26,0.5-0.57,1.05-0.95,1.62c-0.38,0.57-0.57,1.17-0.57,1.81
			c0,0.25-0.19,0.44-0.57,0.57c-0.38,0.13-0.7,0.19-0.95,0.19h-0.19c-0.64-0.13-1.17-0.19-1.62-0.19c-0.45,0-0.79-0.19-1.05-0.57
			c-0.13,0-0.35-0.07-0.67-0.19c-0.32-0.13-0.54-0.19-0.67-0.19c-1.02-0.51-1.59-1.08-1.71-1.71c0.25-0.64,0.41-1.37,0.48-2.19
			c0.06-0.83,0.22-1.68,0.48-2.57c0.51-4.31,1.39-8.63,2.66-12.94c0.13-1.78,0.41-3.46,0.86-5.04c0.44-1.59,0.86-3.27,1.24-5.04
			c0.38-2.28,0.79-4.5,1.24-6.66c0.44-2.16,1.05-4.38,1.81-6.66c0.25-2.16,0.7-4.28,1.33-6.37c0.63-2.09,1.27-4.28,1.9-6.56
			c0.63-2.03,1.27-4.12,1.9-6.28c0.63-2.16,1.2-4.31,1.71-6.47c0.76-3.17,1.68-6.31,2.76-9.42c1.08-3.11,2.12-6.18,3.14-9.23
			c0.63-2.03,1.33-4.12,2.09-6.28c0.76-2.16,1.52-4.25,2.28-6.28l3.23-8.94c0.63-1.77,1.27-3.49,1.9-5.14
			c0.63-1.65,1.14-3.36,1.52-5.14c0.63-1.52,1.2-3.2,1.71-5.04c0.51-1.84,0.95-3.64,1.33-5.42c0.25-0.63,0.51-1.58,0.76-2.85
			c0.25-1.27,0.38-2.47,0.38-3.61v-0.76c0-0.5,0-1.01,0-1.52c0-0.51-0.07-0.82-0.19-0.95c-0.26-0.38-0.64-0.6-1.14-0.67
			c-0.51-0.06-1.02-0.1-1.52-0.1c-1.02,0-2.13,0.19-3.33,0.57c-1.21,0.38-2.13,0.7-2.76,0.95c-1.4,0.64-2.63,1.43-3.71,2.38
			c-1.08,0.95-2.13,1.87-3.14,2.76c-5.84,5.2-11.13,10.69-15.89,16.46c-4.76,5.77-9.04,11.89-12.84,18.36
			c-2.41,4.19-4.73,8.44-6.94,12.75c-2.22,4.31-4.41,8.69-6.56,13.13c-1.02,2.03-2.03,4.09-3.04,6.18
			c-1.02,2.09-1.97,4.16-2.85,6.18c-0.89,2.03-1.52,4.19-1.9,6.47c-0.38,2.28-0.7,4.44-0.95,6.47c-0.26,1.02-0.45,1.75-0.57,2.19
			c-0.13,0.45-0.45,0.67-0.95,0.67c-0.89,0-1.78-0.7-2.66-2.09c-2.28-2.03-3.62-4.31-4-6.85c0-1.27,0.06-2.5,0.19-3.71
			c0.13-1.2,0.51-2.44,1.14-3.71c1.39-6.47,2.47-12.87,3.23-19.22c0.76-6.34,1.14-12.87,1.14-19.6v-4.38v-1.52
			c0-0.89-0.16-1.68-0.48-2.38c-0.32-0.7-0.67-1.24-1.05-1.62c-1.14-0.76-2.47-1.14-4-1.14c-1.65,0-3.11,0.38-4.38,1.14
			c-2.92,2.28-4.63,5.07-5.14,8.37c-0.51,3.3-0.89,6.41-1.14,9.32c-0.26,1.65-0.51,3.3-0.76,4.95c-0.26,1.65-0.64,3.3-1.14,4.95
			c-0.64,4.06-1.46,8.06-2.47,11.99c-1.02,3.93-2.22,7.8-3.62,11.6c-0.64,2.79-1.46,5.39-2.47,7.8c-0.89,1.78-1.68,3.55-2.38,5.33
			c-0.7,1.78-1.68,3.55-2.95,5.33c-0.76,0.76-1.46,1.52-2.09,2.28c-0.64,0.76-1.4,1.39-2.28,1.9c-1.02,1.01-2.28,1.52-3.81,1.52
			c-0.13,0.25-0.38,0.41-0.76,0.48c-0.38,0.06-0.64,0.1-0.76,0.1c-0.76,0-1.27-0.19-1.52-0.57c-2.16-0.64-4-1.65-5.52-3.04
			c-0.76-1.01-1.4-2.22-1.9-3.61c0-0.63-0.07-1.33-0.19-2.09c-0.13-0.76-0.26-1.58-0.38-2.47c0-0.38,0-0.79,0-1.24
			c0-0.44,0.13-0.86,0.38-1.24c0.25-2.92,0.86-5.9,1.81-8.94s2.12-6.09,3.52-9.13c1.39-3.17,2.92-6.21,4.57-9.13
			c1.65-2.92,3.3-5.9,4.95-8.94l7.99-10.84c0.63-0.89,1.14-1.71,1.52-2.47c0.38-0.76,0.57-1.65,0.57-2.66
			c0.13-1.52,0.25-2.98,0.38-4.38c0.12-1.39,0.31-2.85,0.57-4.38c0.25-1.01,0.38-2.12,0.38-3.33c0-1.2,0-2.44,0-3.71v-5.14
			c-0.13-0.89-0.19-1.81-0.19-2.76s0-1.81,0-2.57c-0.13-1.27-0.38-2.6-0.76-4c-0.38-1.39-0.7-2.79-0.95-4.19
			c-0.26-1.14-0.54-2.31-0.86-3.52c-0.32-1.2-0.73-2.44-1.24-3.71c-0.64-0.89-0.95-1.58-0.95-2.09c-0.64-1.27-1.62-2.19-2.95-2.76
			c-1.33-0.57-2.7-0.86-4.09-0.86c-0.76,0-1.43,0.03-2,0.1c-0.57,0.07-1.17,0.35-1.81,0.86c-0.13,0-0.38,0.07-0.76,0.19
			c-0.38,0.13-0.7,0.32-0.95,0.57c-1.02,0.89-1.97,1.62-2.85,2.19c-0.89,0.57-1.65,1.3-2.28,2.19c-2.41,2.92-4.57,5.87-6.47,8.85
			c-1.9,2.98-3.55,6.12-4.95,9.42c-1.02,2.54-1.84,4.98-2.47,7.32c-0.64,2.35-1.14,4.66-1.52,6.94c-0.13,1.4-0.26,2.82-0.38,4.28
			c-0.13,1.46-0.19,2.89-0.19,4.28v1.33v3.04c0.13,2.28,0.35,4.54,0.67,6.75c0.31,2.22,0.79,4.47,1.43,6.75
			c0,0.38,0.1,0.79,0.29,1.24c0.19,0.45,0.41,0.86,0.67,1.24c0.76,1.02,1.27,1.84,1.52,2.47c0.76,0.26,1.14,0.64,1.14,1.14v0.19
			c0,0.13-0.19,0.19-0.57,0.19h-0.38c-0.13,0-0.32-0.13-0.57-0.38c-1.27-0.5-2.22-1.08-2.85-1.71c-0.64-0.63-1.27-1.46-1.9-2.47
			l-2.09-4.76c-0.64-1.39-1.08-2.88-1.33-4.47c-0.25-1.58-0.57-3.14-0.95-4.66c-0.25-1.14-0.41-2.28-0.48-3.42
			c-0.06-1.14-0.16-2.41-0.29-3.8c0-1.14,0-2.31,0-3.52c0-1.2,0.13-2.44,0.38-3.71c0-0.5,0.03-1.08,0.1-1.71
			c0.07-0.63,0.22-1.2,0.48-1.71c0.26-2.92,0.7-5.9,1.33-8.94c0.63-3.04,1.65-6.02,3.04-8.94c0.89-1.77,1.74-3.62,2.57-5.52
			c0.82-1.9,1.87-3.61,3.14-5.14c0.25-0.25,0.51-0.57,0.76-0.95c0.25-0.38,0.51-0.63,0.76-0.76c0.63-1.65,1.62-3.2,2.95-4.66
			c1.33-1.46,2.82-2.88,4.47-4.28c0.63-0.25,1.14-0.57,1.52-0.95c0.38-0.38,0.82-0.76,1.33-1.14c1.01-0.38,1.96-0.73,2.85-1.05
			c0.89-0.31,1.77-0.48,2.66-0.48c0.63,0,1.39,0.1,2.28,0.29c0.89,0.19,1.65,0.54,2.28,1.05c5.33,1.52,9.13,4.31,11.42,8.37
			c1.27,1.52,2.28,3.11,3.04,4.76c0.76,1.65,1.65,3.49,2.66,5.52c0.51,1.4,0.89,2.82,1.14,4.28c0.25,1.46,0.51,2.95,0.76,4.47
			c0.25,1.02,0.44,1.93,0.57,2.76c0.13,0.83,0.31,1.74,0.57,2.76c0,1.4,0.03,2.73,0.1,4c0.06,1.27,0.22,2.54,0.48,3.8v0.76
			l0.57,0.38l1.33-1.14c0.63-0.5,1.3-0.98,2-1.43c0.7-0.44,1.36-0.79,2-1.05c1.01-0.51,1.9-0.79,2.66-0.86
			c0.76-0.06,1.46-0.1,2.09-0.1h1.71c1.27,0.26,2.41,0.7,3.42,1.33c1.01,0.64,1.84,1.52,2.47,2.66c0.63,0.64,1.14,1.36,1.52,2.19
			c0.38,0.83,0.76,1.81,1.14,2.95c0.13,2.41,0.63,5.2,1.52,8.37c0,1.4,0,2.73,0,4C-877.31-965.53-877.25-964.33-877.12-963.19z
			 M-927.92-1022.17v-0.19h-0.19c-1.14,0.38-2.16,0.92-3.04,1.62c-0.89,0.7-1.78,1.55-2.66,2.57v0.57c1.27-0.63,2.31-1.39,3.14-2.28
			C-929.86-1020.77-928.94-1021.53-927.92-1022.17z M-931.54-916.38c0.25,0.76,0.44,1.55,0.57,2.38c0.13,0.83,0.32,1.81,0.57,2.95
			c0.51,0.64,0.95,0.95,1.33,0.95c0.63,0,1.14-0.19,1.52-0.57c0.76-0.51,1.2-1.08,1.33-1.71c0.63-0.89,1.24-1.71,1.81-2.47
			c0.57-0.76,1.05-1.58,1.43-2.47c0.38-1.27,0.86-2.57,1.43-3.9s1.05-2.69,1.43-4.09l3.04-10.84c0.63-2.92,1.24-5.74,1.81-8.47
			c0.57-2.73,1.17-5.36,1.81-7.9c0.25-1.14,0.44-2.12,0.57-2.95c0.13-0.82,0.31-1.74,0.57-2.76h-0.57
			c-0.26,0.13-0.51,0.29-0.76,0.48c-0.26,0.19-0.51,0.41-0.76,0.67c-0.76,2.03-1.97,3.87-3.62,5.52c-1.52,2.66-2.92,5.39-4.19,8.18
			c-1.27,2.79-2.6,5.46-4,7.99c-1.02,2.16-1.87,4.28-2.57,6.37c-0.7,2.09-1.3,4.28-1.81,6.56c-0.26,1.02-0.41,2.03-0.48,3.04
			C-931.13-918.41-931.28-917.4-931.54-916.38z M-926.59-1020.45c-0.64,0.26-1.27,0.6-1.9,1.05c-0.64,0.45-1.27,0.86-1.9,1.24v0.57
			h0.57c0.38-0.38,0.82-0.73,1.33-1.05c0.51-0.32,0.95-0.73,1.33-1.24C-926.78-1019.88-926.59-1020.07-926.59-1020.45z
			 M-922.79-911.63v0.57h0.57c0-0.25,0.03-0.48,0.1-0.67c0.06-0.19,0.1-0.41,0.1-0.67C-922.15-912.01-922.4-911.75-922.79-911.63z
			 M-921.64-913.53c-0.26,0.13-0.38,0.51-0.38,1.14h0.38c1.9-2.41,3.23-4.88,4-7.42v-0.57c-0.51,0.51-0.76,0.89-0.76,1.14
			c-0.64,0.64-1.05,1.24-1.24,1.81c-0.19,0.57-0.35,1.11-0.48,1.62l-0.95,0.95c-0.13,0.38-0.26,0.64-0.38,0.76
			C-921.58-913.97-921.64-913.78-921.64-913.53z M-920.88-916.76l-0.38,0.38c0,0.13,0.03,0.22,0.1,0.29c0.06,0.07,0.1,0.16,0.1,0.29
			c-0.38,0.26-0.57,0.45-0.57,0.57h0.57v-0.57v-0.38c0-0.13,0.03-0.22,0.1-0.29C-920.92-916.54-920.88-916.64-920.88-916.76z
			 M-920.88-916.76h0.19c0.25,0,0.38-0.19,0.38-0.57h-0.57V-916.76z M-920.69-910.67l-0.19,0.19l0.19,0.19V-910.67z M-920.12-911.63
			c0.89-0.25,1.46-0.67,1.71-1.24c0.25-0.57,0.51-1.17,0.76-1.81c-0.64,0.38-1.11,0.83-1.43,1.33
			C-919.39-912.83-919.74-912.26-920.12-911.63z M-916.89-915.81c-0.38,0.26-0.57,0.45-0.57,0.57
			C-917.08-915.24-916.89-915.43-916.89-915.81z M-916.7-922.47h-0.38v0.38L-916.7-922.47z M-916.7-922.47v-0.19
			c0-0.25,0.06-0.38,0.19-0.38c0.12,0,0.19-0.06,0.19-0.19v-0.57l-0.57,0.57C-916.89-923.1-916.82-922.85-916.7-922.47z
			 M-898.43-982.21l0.38-0.19C-898.18-982.27-898.31-982.21-898.43-982.21z M-833.17-930.46l-0.19-0.19l-0.19,0.19h-0.19v0.38v0.38
			c-0.26,1.27-0.6,2.51-1.05,3.71c-0.45,1.21-0.79,2.38-1.05,3.52c-1.27,4.19-2.41,8.31-3.42,12.37c-1.02,4.06-2.22,8.31-3.61,12.75
			c-0.89,3.3-1.81,6.63-2.76,9.99c-0.95,3.36-1.94,6.69-2.95,9.99c-0.26,0.63-0.41,1.2-0.48,1.71c-0.07,0.51-0.1,1.01-0.1,1.52
			c0.38-0.13,0.57-0.38,0.57-0.76c0.76-2.03,1.36-3.97,1.81-5.8c0.44-1.84,1.05-3.78,1.81-5.8c0.89-2.66,1.65-5.23,2.28-7.71
			c0.63-2.47,1.46-5.04,2.47-7.71c1.01-4.44,2.09-8.91,3.23-13.41c1.14-4.5,2.35-8.97,3.61-13.41c0-0.13,0.03-0.31,0.1-0.57
			c0.06-0.25,0.1-0.51,0.1-0.76V-930.46z M-847.06-874.91c0,0.5,0.19,0.76,0.57,0.76l0.19-0.19c0-0.38,0.1-0.73,0.29-1.05
			c0.19-0.32,0.29-0.73,0.29-1.24c0.63-2.16,1.3-4.28,2-6.37c0.7-2.09,1.49-4.16,2.38-6.18c2.54-6.98,4.69-14.14,6.47-21.5
			l0.19-0.19c0.25-0.25,0.38-0.51,0.38-0.76h-0.38c-0.13,0-0.19-0.06-0.19-0.19v0.19c-0.38,0.38-0.57,0.89-0.57,1.52
			c-1.4,3.55-2.6,7.04-3.61,10.46c-1.02,3.42-2.03,6.97-3.04,10.66c-1.02,2.54-1.84,4.98-2.47,7.32
			C-845.23-879.32-846.05-877.06-847.06-874.91z M-846.11-890.7h0.57v-0.19l-0.38,0.19H-846.11z M-845.16-892.98l-0.19,0.19
			l0.19,0.38V-892.98z M-845.16-893.17c0.38,0,0.57-0.32,0.57-0.95c0-0.25-0.03-0.41-0.1-0.48c-0.07-0.07-0.1-0.16-0.1-0.29
			c-0.13,0.25-0.16,0.51-0.1,0.76C-844.81-893.87-844.91-893.55-845.16-893.17z M-844.4-896.41v0.57c0.12-0.26,0.16-0.45,0.09-0.57
			c-0.07-0.13,0.03-0.32,0.29-0.57C-844.27-896.72-844.4-896.53-844.4-896.41z M-844.02-897.74v0.76c0.38-0.38,0.57-0.95,0.57-1.71
			C-843.83-898.31-844.02-897.99-844.02-897.74z M-837.17-924.18c-0.13,0.26-0.22,0.45-0.29,0.57c-0.07,0.13-0.1,0.32-0.1,0.57
			c0,0.13,0.03,0.26,0.1,0.38c0.06,0.13,0.1,0.32,0.1,0.57c-0.26,0.26-0.45,0.54-0.57,0.86c-0.13,0.32-0.32,0.6-0.57,0.86
			c-0.64,3.17-1.4,6.34-2.28,9.51c-0.89,3.17-1.78,6.4-2.66,9.7v2.28l0.57-0.57c0.89-3.68,1.74-7.23,2.57-10.65
			c0.82-3.42,1.81-6.97,2.95-10.65v-1.33C-837.23-922.72-837.17-923.42-837.17-924.18z M-837.17-924.18
			c0.38-0.25,0.57-0.63,0.57-1.14C-836.98-924.94-837.17-924.56-837.17-924.18z M-827.85-1013.22c-0.64,0-0.95,0.19-0.95,0.57
			C-828.55-1012.65-828.23-1012.84-827.85-1013.22z M-826.51-1014.18h-0.76v0.57C-826.77-1013.6-826.51-1013.79-826.51-1014.18z
			 M-825.56-1014.37c-0.64,0-0.95,0.07-0.95,0.19C-825.88-1014.18-825.56-1014.24-825.56-1014.37z M-824.42-1014.94h0.38l0.76-0.38
			c0.51,0,0.95-0.19,1.33-0.57c-0.89,0-1.33,0.07-1.33,0.19c-0.76,0-1.21,0.13-1.33,0.38c-0.26,0-0.57,0.32-0.95,0.95
			C-824.8-1014.37-824.42-1014.56-824.42-1014.94z M-823.66-1013.22c0-0.25,0.13-0.38,0.38-0.38h-0.38V-1013.22z M-823.09-1013.6
			c0.13,0,0.38-0.19,0.76-0.57C-822.84-1014.18-823.09-1013.99-823.09-1013.6z M-821.38-1014.18v-0.19h-0.38l-0.57,0.19H-821.38z"/>
		<path class="st3" d="M-744.7-944.92c0.12-0.12,0.31-0.19,0.57-0.19c0.25,0,0.48,0.13,0.67,0.38c0.19,0.26,0.41,0.45,0.67,0.57
			c0.13,0,0.19,0.19,0.19,0.57c-0.26,0.64-0.45,1.21-0.57,1.71c-0.13,0.51-0.32,1.02-0.57,1.52c-1.9,3.17-3.78,6.25-5.61,9.23
			c-1.84,2.98-3.84,5.93-5.99,8.85c-0.76,1.14-1.62,2.32-2.57,3.52c-0.95,1.21-1.87,2.51-2.76,3.9l-5.14,4.57
			c-1.14,0.64-2.16,1.14-3.04,1.52c-0.89,0.38-1.84,0.57-2.85,0.57c-1.27,0-2.66-0.38-4.19-1.14c-1.4-0.63-2.73-1.49-4-2.57
			c-1.27-1.08-2.35-2.31-3.23-3.71c-1.02-1.77-1.65-3.8-1.9-6.09c0-0.51-0.03-1.01-0.1-1.52c-0.07-0.5-0.09-1.01-0.09-1.52
			c-0.13-0.38-0.19-0.89-0.19-1.52c0.63-6.59,1.77-12.87,3.42-18.83c0.25-0.63,0.51-1.27,0.76-1.9c0.25-0.63,0.38-1.27,0.38-1.9
			v-0.38c-0.64,0.26-0.98,0.6-1.05,1.05c-0.06,0.45-0.22,0.98-0.48,1.62l-7.23,12.75c-1.02,1.9-2.06,3.74-3.14,5.52
			c-1.08,1.78-2.25,3.55-3.52,5.33c-0.64,1.02-1.36,1.94-2.19,2.76c-0.83,0.83-1.68,1.75-2.57,2.76c-0.51,0.64-1.14,1.17-1.9,1.62
			c-0.76,0.45-1.46,0.79-2.09,1.05c-0.26,0.13-0.64,0.19-1.14,0.19c-0.38,0-1.08-0.13-2.09-0.38c-1.02-0.38-1.94-0.98-2.76-1.81
			c-0.83-0.82-1.75-1.68-2.76-2.57c-1.39-1.01-2.09-2.41-2.09-4.19c0-0.25,0.03-0.41,0.1-0.48c0.07-0.06,0.1-0.22,0.1-0.48
			c0-0.38-0.03-0.79-0.1-1.24c-0.06-0.44-0.1-0.86-0.1-1.24c0-1.9,0.16-3.71,0.48-5.42c0.32-1.71,0.79-3.39,1.43-5.04
			c0.38-1.52,0.86-3.04,1.43-4.57c0.57-1.52,1.17-2.98,1.81-4.38c1.77-3.42,3.93-6.78,6.47-10.08c0.51-0.89,0.82-1.33,0.95-1.33
			c0.63-1.01,1.33-1.74,2.09-2.19c0.76-0.44,1.52-0.98,2.28-1.62c0.51-0.38,1.01-0.57,1.52-0.57c0.25,0,0.51-0.03,0.76-0.09
			c0.25-0.06,0.51-0.09,0.76-0.09c1.39,0,2.92,0.32,4.57,0.95c1.65,0.64,3.11,1.59,4.38,2.85c0.38,0.38,0.67,0.83,0.86,1.33
			c0.19,0.51,0.41,1.02,0.67,1.52c0,0.13,0.03,0.26,0.1,0.38c0.06,0.13,0.1,0.32,0.1,0.57c0,0.51-0.19,0.95-0.57,1.33
			c-0.26,0.26-0.45,0.38-0.57,0.38c-0.13,0-0.45-0.13-0.95-0.38l-3.04-2.28c-0.26-0.25-0.51-0.38-0.76-0.38
			c-0.26,0-0.45,0.07-0.57,0.19l-2.28,2.09c-0.89,1.02-1.68,2.03-2.38,3.04c-0.7,1.02-1.43,2.03-2.19,3.04
			c-1.4,2.54-2.57,5.07-3.52,7.61c-0.95,2.54-1.87,5.14-2.76,7.8c-0.51,1.02-0.86,2.03-1.05,3.04c-0.19,1.02-0.41,2.03-0.67,3.04
			c-0.13,0.26-0.19,0.6-0.19,1.05c0,0.45,0,0.79,0,1.05c0,0.26,0.13,0.51,0.38,0.76h0.19c0.25,0,0.44-0.06,0.57-0.19
			c1.65-1.52,3.2-3.17,4.66-4.95c1.46-1.78,2.82-3.74,4.09-5.9c2.03-2.92,4.03-5.8,5.99-8.66c1.96-2.85,3.9-5.74,5.8-8.66
			c1.14-1.9,2.44-3.87,3.9-5.9c1.46-2.03,2.88-4,4.28-5.9l3.61-5.14c0.51-0.76,0.89-1.14,1.14-1.14c0.13,0,0.57,0.13,1.33,0.38
			c0.38,0.26,0.82,0.45,1.33,0.57c0.51,0.13,0.89,0.32,1.14,0.57c0.89,0.89,1.33,1.71,1.33,2.47c0,0.26-0.03,0.45-0.1,0.57
			c-0.07,0.13-0.1,0.32-0.1,0.57l-2.09,6.47c-1.02,3.42-2.03,6.88-3.04,10.37c-1.02,3.49-1.97,7.01-2.85,10.56
			c-0.26,1.52-0.54,3.04-0.86,4.57c-0.32,1.52-0.6,3.17-0.86,4.95c-0.13,1.02-0.22,2.03-0.29,3.04c-0.07,1.02-0.1,2.03-0.1,3.04
			c0,0.76,0.03,1.49,0.1,2.19c0.06,0.7,0.1,1.43,0.1,2.19c0,0.76,0.09,1.4,0.29,1.9c0.19,0.51,0.41,1.08,0.67,1.71
			c0.51,0.89,1.33,1.33,2.47,1.33h0.57c0.25-0.13,0.57-0.19,0.95-0.19c0.38,0,0.7-0.13,0.95-0.38c0.63-0.63,1.3-1.24,2-1.81
			c0.7-0.57,1.36-1.24,2-2c1.77-1.9,3.55-3.87,5.33-5.9c1.77-2.03,3.36-4.25,4.76-6.66c1.39-1.9,2.73-3.8,4-5.71
			c1.27-1.9,2.6-3.87,4-5.9c0.38-0.51,0.67-1.05,0.86-1.62c0.19-0.57,0.41-1.17,0.67-1.81l1.33-1.14c0.12-0.13,0.31-0.19,0.57-0.19
			c0.25,0,0.44,0.07,0.57,0.19c0.25,0.13,0.35,0.22,0.29,0.29C-744.86-945.14-744.83-945.05-744.7-944.92z M-801.4-952.91
			c-1.14,0.38-1.71,1.08-1.71,2.09l-0.76,0.57c-1.52,2.28-2.85,4.79-4,7.52c-1.14,2.73-2.09,5.49-2.85,8.28
			c-0.26,0.76-0.38,1.33-0.38,1.71c0,0.38,0.06,0.7,0.19,0.95c-0.51,0.13-0.76,0.51-0.76,1.14c0,0.13,0.03,0.22,0.1,0.29
			c0.06,0.06,0.1,0.16,0.1,0.29c0,0.13-0.03,0.19-0.1,0.19c-0.07,0-0.1,0.07-0.1,0.19c-0.13,0-0.13,0.07,0,0.19
			c0-0.13,0.03-0.22,0.1-0.29c0.06-0.06,0.1-0.16,0.1-0.29c0.38-0.25,0.57-0.89,0.57-1.9c0.25-0.13,0.57-0.7,0.95-1.71
			c0.76-2.54,1.62-5.04,2.57-7.51c0.95-2.47,2.12-4.85,3.52-7.13c0.25-0.25,0.41-0.63,0.48-1.14c0.06-0.51,0.22-0.95,0.48-1.33
			C-802.42-950.94-801.91-951.64-801.4-952.91z M-811.01-937.12c0.06,0,0.1-0.06,0.1-0.19l-0.19,0.38
			C-811.1-937.06-811.07-937.12-811.01-937.12z M-810.15-940.16c0-0.13,0.03-0.22,0.09-0.29c0.06-0.06,0.1-0.16,0.1-0.29
			c-0.26,0-0.38,0.13-0.38,0.38L-810.15-940.16z M-805.78-939.21c-0.38,0.38-0.51,0.57-0.38,0.57L-805.78-939.21z M-805.21-940.16
			c0.25-0.13,0.38-0.5,0.38-1.14C-805.08-940.8-805.21-940.42-805.21-940.16z M-804.83-941.31c0.25-0.13,0.38-0.32,0.38-0.57v-0.57
			C-804.7-942.19-804.83-941.81-804.83-941.31z M-804.45-942.45c0.63-0.25,1.01-0.76,1.14-1.52
			C-804.06-943.84-804.45-943.33-804.45-942.45z M-803.3-943.97c0.25-0.13,0.38-0.51,0.38-1.14
			C-803.18-944.98-803.3-944.6-803.3-943.97z M-802.92-945.11c0.76-0.51,1.14-1.39,1.14-2.66c-0.76,0.38-1.14,1.08-1.14,2.09
			V-945.11z M-800.83-949.68c-0.64,0.38-0.95,1.02-0.95,1.9c0.63-0.25,0.95-0.63,0.95-1.14v-0.57c0.76-0.13,1.14-0.63,1.14-1.52
			C-800.2-950.88-800.58-950.44-800.83-949.68z M-801.4-952.91c0.51-0.51,0.76-1.08,0.76-1.71c-0.51,0.26-0.76,0.7-0.76,1.33
			V-952.91z M-799.31-951.77c0.76-0.25,1.14-0.7,1.14-1.33C-798.93-952.85-799.31-952.4-799.31-951.77z M-753.27-931.03
			c-0.26,0.25-0.38,0.51-0.38,0.76L-753.27-931.03z M-749.65-936.17c-0.26,0.13-0.38,0.22-0.38,0.29c0,0.07-0.07,0.16-0.19,0.29
			l0.38-0.38L-749.65-936.17z M-747.56-940.16c0.38-0.13,0.57-0.25,0.57-0.38c-0.13,0-0.26,0.07-0.38,0.19L-747.56-940.16z
			 M-746.42-941.31c0,0.26-0.13,0.38-0.38,0.38c0.12,0,0.25-0.06,0.38-0.19V-941.31z M-745.47-944.35v0.38
			c0-0.13,0.03-0.19,0.1-0.19c0.06,0,0.1-0.06,0.1-0.19H-745.47z"/>
		<path class="st3" d="M-710.08-959.38c0,0.26-0.07,0.45-0.19,0.57c-0.51,0.26-0.95,0.38-1.33,0.38c-1.02,0.26-2.03,0.6-3.04,1.05
			c-1.02,0.45-2.03,1.11-3.04,2c-2.16,1.65-4.38,3.81-6.66,6.47c-2.16,2.92-4.28,5.84-6.37,8.75c-2.09,2.92-4.16,6.03-6.18,9.32
			l-4.57,8.75c-1.02,1.65-1.71,3.74-2.09,6.28c-0.26,1.27-0.6,2.47-1.05,3.62c-0.45,1.14-0.79,2.22-1.05,3.23
			c-0.13,0.63-0.57,1.33-1.33,2.09c-0.26,0.25-0.51,0.38-0.76,0.38c-0.51,0-0.83-0.19-0.95-0.57c0-0.38-0.06-0.7-0.19-0.95
			c-0.13-0.26-0.38-0.38-0.76-0.38c-0.89-0.13-1.33-0.51-1.33-1.14v-0.57c0-0.25,0.03-0.44,0.1-0.57c0.06-0.13,0.09-0.32,0.09-0.57
			v-0.38h-0.38c-0.13,0.26-0.26,0.45-0.38,0.57c-0.13,0.13-0.26,0.32-0.38,0.57v-0.57c0-0.51-0.26-0.76-0.76-0.76
			c-0.64-0.13-0.95-0.44-0.95-0.95c0-0.13,0.12-0.7,0.38-1.71c0.13-1.01,0.25-2.12,0.38-3.33c0.13-1.2,0.32-2.38,0.57-3.52
			c0.38-2.16,0.79-4.19,1.24-6.09c0.44-1.9,0.79-3.8,1.05-5.71c0.38-1.78,0.79-3.49,1.24-5.14c0.44-1.65,0.79-3.23,1.05-4.76
			c0-1.27,0.25-2.35,0.76-3.23c0.38-1.9,0.82-3.62,1.33-5.14c0.76-2.41,1.43-4.76,2-7.04s0.98-4.69,1.24-7.23
			c0.25-0.25,0.51-0.51,0.76-0.76c0.25-0.25,0.57-0.5,0.95-0.76c0.25-0.13,0.35-0.22,0.29-0.29c-0.07-0.06-0.03-0.1,0.1-0.1h0.38
			l2.47,0.76c0.38,0.38,0.57,0.83,0.57,1.33h0.38c0.51,0,0.95,0.19,1.33,0.57c0.12,0.38,0.25,0.76,0.38,1.14
			c0.13,0.38,0.31,0.64,0.57,0.76c0.38,0.26,0.57,0.64,0.57,1.14c0,0.64-0.03,1.11-0.1,1.43c-0.07,0.32-0.1,0.6-0.1,0.86
			c-0.26,0.89-0.6,2.03-1.05,3.42c-0.45,1.4-0.92,2.89-1.43,4.47c-0.51,1.59-1.02,3.14-1.52,4.66c-0.51,1.52-0.89,2.79-1.14,3.81
			c0,0.76-0.07,1.27-0.19,1.52c0,0.13,0.03,0.19,0.1,0.19c0.06,0,0.1,0.07,0.1,0.19h0.57l1.14-0.95l9.13-13.13
			c2.66-2.66,5.45-4.88,8.37-6.66c1.52-0.63,2.79-0.95,3.81-0.95c0.63,0,1.58,0.13,2.85,0.38c1.39,0.13,2.41,1.14,3.04,3.04V-959.38
			z M-728.15-946.44c0.12-0.13,0.19-0.57,0.19-1.33c-0.64,0.64-1.21,1.27-1.71,1.9c-0.51,0.64-1.02,1.46-1.52,2.47
			c-0.13,0.13-0.19,0.32-0.19,0.57c-0.51,0.25-0.95,0.64-1.33,1.14c-0.38,0.51-0.7,1.08-0.95,1.71c-0.26,0.38-0.57,0.79-0.95,1.24
			c-0.38,0.45-0.7,0.98-0.95,1.62c-0.89,0.76-1.33,1.59-1.33,2.47c-0.76,1.02-1.3,2-1.62,2.95c-0.32,0.95-0.73,1.93-1.24,2.95v0.57
			h0.57c0.89-1.65,1.65-3.68,2.28-6.09c0.25-0.25,0.54-0.57,0.86-0.95c0.31-0.38,0.6-0.82,0.86-1.33c0.38-0.51,0.73-0.98,1.05-1.43
			c0.31-0.44,0.6-1.05,0.86-1.81c0.38-0.38,0.76-0.79,1.14-1.24c0.38-0.44,0.63-0.98,0.76-1.62c0-0.13,0.13-0.31,0.38-0.57
			c0.63-0.51,1.17-1.05,1.62-1.62C-728.95-945.4-728.53-945.94-728.15-946.44z M-739-935.98c0,0.26,0.12,0.45,0.38,0.57l0.38-0.19
			l0.38-0.19c0.76-1.39,1.62-2.79,2.57-4.19c0.95-1.39,1.93-2.79,2.95-4.19l0.57-1.52c0.76-0.89,1.52-1.77,2.28-2.66
			c0.76-0.89,1.46-1.84,2.09-2.85l0.57-0.95c-1.02,0.64-1.9,1.49-2.66,2.57c-0.76,1.08-1.52,2.13-2.28,3.14
			c-0.13,0.13-0.19,0.32-0.19,0.57c-1.02,1.02-1.9,2.09-2.66,3.23c-0.76,1.14-1.52,2.28-2.28,3.42
			C-737.54-938.45-738.24-937.37-739-935.98z M-727.39-948.35c0.13,0,0.25-0.06,0.38-0.19L-727.39-948.35z M-725.87-953.67
			c-0.26,0-0.38,0.13-0.38,0.38C-726-953.29-725.87-953.42-725.87-953.67z M-726.25-949.3c0.25-0.25,0.38-0.44,0.38-0.57
			C-726.12-949.61-726.25-949.42-726.25-949.3z M-725.49-950.82c-0.13,0.13-0.19,0.26-0.19,0.38c0-0.13,0.06-0.19,0.19-0.19V-950.82
			z M-724.54-951.77c0.25-0.25,0.38-0.44,0.38-0.57C-724.41-952.09-724.54-951.9-724.54-951.77z"/>
		<path class="st3" d="M-700.76-955.2c0,0.89-0.45,1.4-1.33,1.52v-0.95c-0.51,0.26-0.76,0.76-0.76,1.52
			c0.38-0.38,0.63-0.57,0.76-0.57c-0.13,0.25-0.19,0.51-0.19,0.76c0,0.38,0.06,0.64,0.19,0.76c-1.14,2.16-2.19,4.25-3.14,6.28
			c-0.95,2.03-1.75,4.19-2.38,6.47c-0.26,0.64-0.45,1.3-0.57,2c-0.13,0.7-0.26,1.49-0.38,2.38c0.25-0.13,0.41-0.35,0.48-0.67
			c0.06-0.31,0.22-0.6,0.48-0.86c1.27-4.06,2.6-7.8,4-11.23c0.63-1.01,1.3-2.16,2-3.42c0.7-1.27,1.17-2.41,1.43-3.42
			c0.76-0.5,1.14-0.95,1.14-1.33c0.12-0.51,0.25-0.76,0.38-0.76c0.63,0,0.98,0.16,1.05,0.48c0.06,0.32,0.16,0.6,0.29,0.86v0.38
			l0.38-0.19c0.13,0,0.19-0.06,0.19-0.19c0.63,0,0.95,0.13,0.95,0.38c0,0.51-0.07,0.89-0.19,1.14c-0.13,0.25-0.32,0.57-0.57,0.95
			c-0.76,2.66-1.71,5.33-2.85,7.99c-0.64,2.41-1.33,4.76-2.09,7.04c-0.76,2.28-1.46,4.63-2.09,7.04c-0.38,1.65-0.73,3.33-1.05,5.04
			c-0.32,1.71-0.48,3.46-0.48,5.23v2.85c0.13,0,0.22,0.03,0.29,0.09c0.06,0.07,0.16,0.1,0.29,0.1c0.89-0.25,1.46-0.57,1.71-0.95
			c1.27-1.14,2.5-2.28,3.71-3.42c1.2-1.14,2.44-2.41,3.71-3.81c1.39-1.52,2.76-3.01,4.09-4.47c1.33-1.46,2.69-2.76,4.09-3.9
			c1.01-1.39,2.09-2.69,3.23-3.9c1.14-1.2,2.28-2.44,3.42-3.71c1.52-1.52,2.95-3.07,4.28-4.66c1.33-1.58,2.63-3.14,3.9-4.66
			l0.95-1.33c0.25,0.26,0.38,0.57,0.38,0.95c0,0.38,0.06,0.7,0.19,0.95v0.38c0,0.26-0.03,0.48-0.1,0.67
			c-0.07,0.19-0.1,0.41-0.1,0.67c-0.13,1.02-0.48,2.03-1.05,3.04c-0.57,1.02-1.24,2.03-2,3.04c-1.02,0.51-1.59,0.95-1.71,1.33
			l-0.19,0.19c-1.27,1.14-2.32,2.25-3.14,3.33c-0.83,1.08-1.75,2.25-2.76,3.52c-1.78,1.9-3.49,3.8-5.14,5.71
			c-1.65,1.9-3.23,3.74-4.76,5.52c-0.64,1.02-1.27,1.94-1.9,2.76c-0.64,0.83-1.27,1.62-1.9,2.38c-0.38,0.64-0.79,1.17-1.24,1.62
			c-0.45,0.45-0.92,0.98-1.43,1.62l-2.85,2.66c-0.76,0.38-1.65,0.57-2.66,0.57c-0.89,0-1.59-0.06-2.09-0.19
			c-0.26-0.25-0.6-0.44-1.05-0.57c-0.45-0.13-0.79-0.38-1.05-0.76c-1.27-0.51-2.16-0.95-2.66-1.33c-0.38-0.51-0.76-1.01-1.14-1.52
			c-0.38-0.5-0.7-1.08-0.95-1.71c-0.89-2.16-1.33-4.19-1.33-6.09c0-2.16,0.12-4.28,0.38-6.37c0.25-2.09,0.7-4.21,1.33-6.37
			c0.25-1.52,0.54-2.98,0.86-4.38c0.31-1.39,0.79-2.79,1.43-4.19l3.61-7.23c0.51-1.01,1.11-1.93,1.81-2.76
			c0.7-0.82,1.36-1.74,2-2.76c0.13-0.25,0.35-0.41,0.67-0.48c0.32-0.06,0.54-0.09,0.67-0.09c0.13,0.64,0.25,0.95,0.38,0.95
			c0,0.13-0.03,0.22-0.1,0.29c-0.06,0.07-0.09,0.16-0.09,0.29c0,0.13,0.03,0.19,0.09,0.19c0.06,0,0.1,0.07,0.1,0.19v0.38h0.38v0.38
			C-700.57-955.45-700.63-955.32-700.76-955.2z M-709.89-935.98c0-0.13,0.13-0.25,0.38-0.38c-0.13,0-0.26,0.07-0.38,0.19V-935.98z
			 M-709.13-936.93c0-0.13-0.13-0.44-0.38-0.95c-0.13,0.26-0.19,0.51-0.19,0.76c0,0.26,0.06,0.45,0.19,0.57
			C-709.26-936.55-709.13-936.67-709.13-936.93z M-709.51-937.88c0.13-0.13,0.19-0.38,0.19-0.76
			C-709.45-938.51-709.51-938.26-709.51-937.88z M-708.94-938.64c0.13-0.13,0.19-0.32,0.19-0.57c0-0.25,0-0.5,0-0.76
			C-708.88-939.85-708.94-939.4-708.94-938.64z M-708.56-935.03c-0.13,0.13-0.19,0.32-0.19,0.57v0.76c0.12-0.13,0.19-0.32,0.19-0.57
			V-935.03z M-708.18-940.55c0-0.12-0.03-0.19-0.1-0.19c-0.07,0-0.1-0.06-0.1-0.19c-0.13,0.13-0.19,0.26-0.19,0.38v0.57
			C-708.31-940.23-708.18-940.42-708.18-940.55z M-708.37-940.93c0.38-0.63,0.76-1.24,1.14-1.81c0.38-0.57,0.57-1.36,0.57-2.38
			C-707.67-943.97-708.24-942.57-708.37-940.93z M-706.66-945.11c0.25-0.25,0.38-0.51,0.38-0.76
			C-706.53-945.87-706.66-945.62-706.66-945.11z M-706.08-946.25c0-0.13-0.03-0.22-0.1-0.29c-0.07-0.06-0.1-0.16-0.1-0.29v0.76
			L-706.08-946.25z M-706.08-946.82c0.63-0.5,1.08-1.08,1.33-1.71c0.25-0.63,0.51-1.46,0.76-2.47c-0.64,0.64-1.11,1.24-1.43,1.81
			C-705.74-948.63-705.96-947.84-706.08-946.82z M-703.99-951.01c0.13-0.13,0.29-0.25,0.48-0.38c0.19-0.12,0.29-0.31,0.29-0.57
			c-0.26,0.13-0.45,0.22-0.57,0.29C-703.93-951.61-703.99-951.39-703.99-951.01z M-703.23-951.96c0-0.13-0.03-0.25-0.1-0.38
			c-0.07-0.13-0.1-0.25-0.1-0.38l0.57-0.38C-702.85-952.47-702.98-952.09-703.23-951.96z M-700.76-955.2c0-0.25-0.07-0.51-0.19-0.76
			c-0.76,0.13-1.14,0.57-1.14,1.33c0.25-0.25,0.51-0.38,0.76-0.38C-701.08-955-700.89-955.07-700.76-955.2z M-699.43-957.29
			l-0.38,0.38l0.19,0.38c-0.38,0-0.7,0.13-0.95,0.38c0.12-0.13,0.19-0.22,0.19-0.29c0-0.06,0.13-0.16,0.38-0.29
			c0-0.13,0.06-0.22,0.19-0.29c0.13-0.06,0.19-0.16,0.19-0.29l0.19-0.19V-957.29z M-698.28-917.14c0-0.13,0.03-0.19,0.1-0.19
			c0.06,0,0.1-0.06,0.1-0.19l-0.38,0.38c-0.13,0-0.19,0.07-0.19,0.19v0.38c0-0.13,0.06-0.19,0.19-0.19
			C-698.35-916.76-698.28-916.89-698.28-917.14z M-698.09-917.52c0.89-0.38,1.39-0.89,1.52-1.52c-0.26,0.13-0.48,0.32-0.67,0.57
			C-697.43-918.22-697.71-917.91-698.09-917.52z M-688.77-972.89c-0.26,0.13-0.38,0.32-0.38,0.57c0,0.26-0.07,0.45-0.19,0.57
			c-0.76,0.38-1.33,0.95-1.71,1.71c-0.38,0.38-0.57,0.83-0.57,1.33c0,0.38,0.06,0.7,0.19,0.95c-0.26,0.51-0.51,1.14-0.76,1.9
			c-0.26,0-0.45,0.03-0.57,0.09c-0.13,0.07-0.26,0.1-0.38,0.1c-0.13,0-0.19-0.1-0.19-0.29c0-0.19-0.13-0.29-0.38-0.29v-0.57
			c-0.26-0.25-0.54-0.44-0.86-0.57c-0.32-0.13-0.54-0.44-0.67-0.95c0-0.38-0.16-0.6-0.48-0.67c-0.32-0.06-0.6-0.22-0.86-0.48
			c-0.38-0.13-0.57-0.44-0.57-0.95c0.13-1.01,0.35-1.96,0.67-2.85c0.31-0.89,0.92-1.65,1.81-2.28c0.12-0.25,0.51-0.38,1.14-0.38
			c0.38,0,0.63,0.07,0.76,0.19c0.25,0.13,0.6,0.26,1.05,0.38c0.44,0.13,0.79,0.32,1.05,0.57c0.38,0.26,0.73,0.57,1.05,0.95
			C-689.31-973.46-689.03-973.14-688.77-972.89z M-694.86-921.33c-0.26,0.13-0.48,0.26-0.67,0.38c-0.19,0.13-0.35,0.51-0.48,1.14
			c0.76-0.5,1.14-0.89,1.14-1.14V-921.33z M-694.86-923.61c-0.13,0-0.19,0.06-0.19,0.19v0.38c0,0.13,0.13-0.06,0.38-0.57v-0.19
			C-694.67-923.67-694.73-923.61-694.86-923.61z M-694.67-921.33c0.12-0.12,0.19-0.31,0.19-0.57c0,0.13-0.13,0.32-0.38,0.57H-694.67
			z M-694.48-921.9c0.51-0.13,0.89-0.51,1.14-1.14C-693.97-922.79-694.35-922.41-694.48-921.9z M-694.29-973.65h0.38
			c-0.13,0-0.19-0.13-0.19-0.38v-0.19c-0.13,0-0.19,0.13-0.19,0.38V-973.65z M-693.53-925.33c-0.26,0.13-0.51,0.51-0.76,1.14
			c0.63-0.25,0.95-0.5,0.95-0.76c0-0.13-0.03-0.19-0.1-0.19C-693.5-925.13-693.53-925.2-693.53-925.33z M-693.72-972.89
			c0.89-0.13,1.33-0.57,1.33-1.33v-0.19l-0.19,0.19h-0.57v-0.38c-0.38,0-0.6,0.03-0.67,0.09c-0.07,0.07-0.16,0.16-0.29,0.29h0.57
			c-0.26,0.13-0.38,0.38-0.38,0.76C-693.78-973.33-693.72-973.14-693.72-972.89z M-693.53-925.52c0.12-0.13,0.31-0.19,0.57-0.19
			l0.38-0.38h-0.19L-693.53-925.52z M-692.77-923.61c0.38-0.38,0.63-0.89,0.76-1.52L-692.77-923.61z M-691.82-925.52l0.19-0.19
			h-0.19V-925.52z M-691.43-927.8c0,0.13-0.03,0.19-0.1,0.19c-0.07,0-0.1,0.07-0.1,0.19l0.38-0.38v-0.19L-691.43-927.8z
			 M-691.63-925.71c0.76-0.25,1.2-0.63,1.33-1.14C-691.05-926.34-691.5-925.96-691.63-925.71z M-690.48-928.94
			c-0.13,0-0.19,0.07-0.19,0.19l0.19,0.19V-928.94z M-690.48-928.94l0.38-0.19h0.19c0-0.25,0.13-0.51,0.38-0.76
			c-0.13,0-0.19,0.03-0.19,0.1c0,0.07-0.07,0.09-0.19,0.09l-0.57,0.57V-928.94z M-690.1-926.85l0.38-0.19l-0.19-0.19l-0.38,0.38
			H-690.1z M-689.72-927.04c0.51-0.13,0.89-0.63,1.14-1.52C-689.34-928.05-689.72-927.54-689.72-927.04z M-688.01-931.22
			c-0.76,0.26-1.27,0.7-1.52,1.33C-689.03-930.02-688.52-930.46-688.01-931.22z M-687.82-929.7c-0.13,0.26-0.19,0.45-0.19,0.57
			c0,0.13-0.07,0.19-0.19,0.19c-0.26,0-0.38,0.13-0.38,0.38c0.13,0,0.16-0.03,0.1-0.09c-0.07-0.06,0.03-0.1,0.29-0.1
			c0-0.25,0.12-0.38,0.38-0.38V-929.7z M-687.44-930.46l0.38-0.38L-687.44-930.46z M-684.97-933.12h-0.19
			c0,0.25-0.07,0.45-0.19,0.57c0.13-0.13,0.25-0.19,0.38-0.19V-933.12z M-683.63-936.17c0-0.38,0.19-0.57,0.57-0.57v-0.19
			l-0.57,0.57V-936.17z M-682.3-937.5c0.51-0.38,0.95-0.89,1.33-1.52c-0.76,0.26-1.14,0.57-1.14,0.95L-682.3-937.5z M-681.35-936.74
			c-0.13,0-0.19,0.03-0.19,0.09c0,0.07-0.06,0.1-0.19,0.1l-0.38,0.57c0.12,0,0.25-0.06,0.38-0.19L-681.35-936.74z M-681.35-937.12
			c0.25-0.25,0.44-0.38,0.57-0.38L-681.35-937.12z M-680.02-939.97l-0.19,0.19L-680.02-939.97z M-679.64-938.83l-0.57,0.38
			L-679.64-938.83z M-679.26-940.74c0-0.13,0.03-0.22,0.1-0.29c0.06-0.06,0.1-0.22,0.1-0.48l-0.57,0.57v0.57
			C-679.39-940.48-679.26-940.61-679.26-940.74z M-679.64-938.83c0.76-0.13,1.2-0.57,1.33-1.33
			C-678.56-940.04-679.01-939.59-679.64-938.83z M-677.93-942.45c0.76-0.13,1.39-0.63,1.9-1.52
			C-676.66-943.71-677.29-943.21-677.93-942.45z M-675.45-944.92c0.63-0.25,1.01-0.76,1.14-1.52c-0.64,0.38-0.95,0.76-0.95,1.14
			C-675.39-945.17-675.45-945.05-675.45-944.92z M-674.31-944.35c-0.64,0.26-1.02,0.64-1.14,1.14c0.76-0.25,1.14-0.57,1.14-0.95
			V-944.35z M-673.74-946.82c0.63-0.38,1.01-0.95,1.14-1.71C-673.24-948.16-673.62-947.58-673.74-946.82z M-672.79-946.25
			c-0.13,0.13-0.26,0.19-0.38,0.19v0.19L-672.79-946.25z M-672.03-947.2c-0.13,0.13-0.26,0.19-0.38,0.19
			c-0.13,0-0.19,0.07-0.19,0.19c0.13,0,0.19-0.03,0.19-0.09c0-0.06,0.12-0.1,0.38-0.1V-947.2z M-672.22-948.92
			c0.63-0.25,0.95-0.76,0.95-1.52c-0.51,0.13-0.83,0.38-0.95,0.76V-948.92z"/>
		<path class="st3" d="M-632.46-944.35c0.25,1.27,0.38,2.22,0.38,2.85c0,2.16-0.47,4.12-1.43,5.9c-0.95,1.78-1.97,3.36-3.04,4.76
			c-1.08,1.4-2.09,2.57-3.04,3.52c-0.95,0.95-1.43,1.56-1.43,1.81c0,0.13,0.13,0.19,0.38,0.19h0.19c-1.4,1.78-2.92,3.65-4.57,5.61
			c-1.65,1.97-3.17,3.65-4.57,5.04c-1.78,1.78-3.68,3.33-5.71,4.66c-2.03,1.33-4.25,2.31-6.66,2.95c-0.89,0.25-1.71,0.44-2.47,0.57
			c-0.76,0.13-1.59,0.19-2.47,0.19c-2.66,0-4.95-0.7-6.85-2.09c-1.4-1.01-2.7-2.03-3.9-3.04c-1.21-1.01-2.19-2.22-2.95-3.61
			c-0.64-1.27-1.08-2.66-1.33-4.19c-0.12-0.5-0.19-1.01-0.19-1.52c0-0.51,0-1.08,0-1.71c0-0.63,0-1.17,0-1.62
			c0-0.44,0.07-0.98,0.19-1.62v-4.57c0.25-1.14,0.51-2.25,0.76-3.33c0.25-1.08,0.51-2.12,0.76-3.14v-1.14
			c0-0.13,0.03-0.22,0.09-0.29c0.06-0.06,0.1-0.16,0.1-0.29c0-0.12-0.03-0.25-0.1-0.38c-0.07-0.13-0.09-0.25-0.09-0.38
			c0-0.13-0.03-0.19-0.1-0.19c-0.07,0-0.1-0.06-0.1-0.19l0.57-0.76c0.38-0.25,0.82-0.76,1.33-1.52c0.63-1.14,1.2-2.31,1.71-3.52
			c0.51-1.2,1.08-2.38,1.71-3.52c1.77-3.04,3.74-5.71,5.9-7.99c1.52-1.9,3.3-3.49,5.33-4.76c1.01-0.89,2.16-1.39,3.42-1.52
			c0.51-0.13,0.98-0.19,1.43-0.19c0.44,0,0.86,0,1.24,0c2.28,0,4.38,0.51,6.28,1.52c2.41,1.4,3.61,3.36,3.61,5.9v0.57
			c-0.13,1.9-0.7,3.81-1.71,5.71c-0.76,1.52-1.62,2.98-2.57,4.38c-0.95,1.4-2.13,2.6-3.52,3.61c-3.42,2.66-6.85,4.44-10.27,5.33
			l-2.09,0.57c-0.89,0.13-1.52,0.7-1.9,1.71l-1.9,14.65v0.76c0,0.64,0.06,1.3,0.19,2c0.12,0.7,0.31,1.36,0.57,2
			c0.12,1.14,0.89,1.71,2.28,1.71h1.52c1.77-0.38,3.52-0.89,5.23-1.52c1.71-0.63,3.33-1.46,4.85-2.47c1.52-1.01,2.98-2.12,4.38-3.33
			c1.39-1.2,2.79-2.5,4.19-3.9c0.76-0.76,1.84-1.68,3.23-2.76c1.39-1.08,2.54-2.12,3.42-3.14c1.14-1.39,2.22-2.76,3.23-4.09
			s2.03-2.69,3.04-4.09c0.63-1.01,1.24-2.03,1.81-3.04C-633.5-942.32-632.97-943.33-632.46-944.35z M-674.5-943.78l0.38-0.38
			c-0.13,0-0.19,0.03-0.19,0.09c0,0.07-0.07,0.1-0.19,0.1V-943.78z M-674.12-944.35c0.76-0.51,1.14-1.33,1.14-2.47
			C-673.62-946.19-674-945.36-674.12-944.35z M-671.08-945.68c1.01-1.9,2.12-3.77,3.33-5.61c1.2-1.84,2.57-3.64,4.09-5.42v-0.76
			l-0.57,0.38c-0.26,0.25-0.57,0.54-0.95,0.86c-0.38,0.32-0.7,0.67-0.95,1.05c-1.14,1.4-2.19,2.85-3.14,4.38
			c-0.95,1.52-1.87,3.11-2.76,4.76c-0.51,1.02-0.95,2.28-1.33,3.81l0.95-1.33c0.25-0.25,0.48-0.6,0.67-1.05
			C-671.56-945.08-671.34-945.43-671.08-945.68z M-672.22-947.78c-0.26,0.13-0.51,0.45-0.76,0.95
			C-672.48-946.95-672.22-947.27-672.22-947.78z M-670.51-950.82c-0.89,0.64-1.46,1.65-1.71,3.04c0.89-0.89,1.52-1.9,1.9-3.04
			c0.25-0.25,0.38-0.57,0.38-0.95C-670.32-951.51-670.51-951.2-670.51-950.82z M-668.8-953.29c-0.64,0.38-1.02,0.89-1.14,1.52
			C-669.18-951.9-668.8-952.4-668.8-953.29z M-668.04-954.24c-0.38,0.13-0.57,0.45-0.57,0.95L-668.04-954.24z M-667.46-954.81
			c0.25-0.25,0.38-0.57,0.38-0.95L-667.46-954.81z M-667.08-948.16c0.13-0.12,0.19-0.31,0.19-0.57c0,0.13-0.03,0.19-0.1,0.19
			c-0.07,0-0.1,0.07-0.1,0.19V-948.16z M-666.7-948.73c0.38-0.13,0.57-0.44,0.57-0.95C-666.39-949.42-666.58-949.11-666.7-948.73z
			 M-656.62-956.53c-0.64,0.38-1.21,0.83-1.71,1.33c-0.51,0.51-1.08,1.02-1.71,1.52c-1.27,1.52-2.35,3.08-3.23,4.66
			c-0.89,1.59-1.78,3.27-2.66,5.04c-0.13,0.13-0.19,0.32-0.19,0.57v0.19c0,0.26,0.19,0.38,0.57,0.38c0.51-0.25,0.95-0.48,1.33-0.67
			c0.38-0.19,0.76-0.41,1.14-0.67c1.39-1.14,2.69-2.35,3.9-3.62c1.2-1.27,2.19-2.73,2.95-4.38c0.89-1.52,1.39-2.92,1.52-4.19v-0.19
			c0-0.38-0.26-0.57-0.76-0.57h-0.38L-656.62-956.53z M-660.81-956.53c-0.26,0-0.45,0.07-0.57,0.19c-1.02,1.02-1.94,2.03-2.76,3.04
			c-0.83,1.02-1.49,2.22-2,3.62c0.38-0.13,0.63-0.38,0.76-0.76c0.76-1.01,1.55-1.97,2.38-2.85c0.82-0.89,1.55-1.84,2.19-2.85
			V-956.53z M-654.72-950.82c0,0.13-0.13,0.32-0.38,0.57c-0.25,0.51-0.38,0.83-0.38,0.95h0.38c-0.25,0.26-0.41,0.57-0.47,0.95
			c-0.07,0.38-0.16,0.7-0.29,0.95c-0.13,0.26-0.29,0.41-0.48,0.48c-0.19,0.07-0.35,0.22-0.47,0.48v0.19h0.19
			c0.25-0.13,0.41-0.25,0.48-0.38c0.06-0.13,0.22-0.32,0.47-0.57c0.51-0.38,0.92-0.82,1.24-1.33c0.32-0.51,0.6-1.01,0.86-1.52
			c0.25-0.25,0.38-0.54,0.38-0.86c0-0.31,0.06-0.6,0.19-0.86c-0.38,0-0.6,0.16-0.67,0.48c-0.06,0.32-0.22,0.54-0.47,0.67l-0.38,0.38
			c-0.13,0-0.19-0.06-0.19-0.19V-950.82z M-655.29-945.11l0.38-0.19C-655.04-945.3-655.16-945.24-655.29-945.11z M-652.82-948.16
			c-0.89,0.38-1.46,1.21-1.71,2.47C-653.64-946.19-653.07-947.01-652.82-948.16z M-652.24-948.92c-0.26,0.13-0.38,0.22-0.38,0.29
			c0,0.07-0.07,0.16-0.19,0.29c0.13,0,0.19-0.03,0.19-0.1c0-0.06,0.06-0.09,0.19-0.09C-652.43-948.66-652.37-948.79-652.24-948.92z
			 M-647.49-922.09c0.13-0.13,0.38-0.29,0.76-0.48c0.38-0.19,0.63-0.41,0.76-0.67l-1.71,1.14v0.19L-647.49-922.09z M-645.02-921.71
			c0-0.13-0.06-0.19-0.19-0.19l-0.57,0.57C-645.52-921.58-645.27-921.71-645.02-921.71z M-644.63-924.75
			c-0.26,0.25-0.38,0.57-0.38,0.95L-644.63-924.75z M-644.44-922.47c0.38-0.12,0.57-0.44,0.57-0.95
			C-644.25-923.17-644.44-922.85-644.44-922.47z M-643.87-923.42c0.38-0.13,0.63-0.38,0.76-0.76c-0.13,0.13-0.25,0.22-0.38,0.29
			C-643.62-923.83-643.75-923.67-643.87-923.42z M-643.68-925.52c0.51-0.13,0.95-0.7,1.33-1.71c-0.38,0.26-0.67,0.48-0.86,0.67
			C-643.4-926.37-643.56-926.02-643.68-925.52z M-643.11-924.18c0.51-0.25,0.95-0.76,1.33-1.52
			C-642.54-925.2-642.99-924.69-643.11-924.18z M-642.35-927.23c0.63-0.13,1.14-0.7,1.52-1.71
			C-641.46-928.68-641.97-928.11-642.35-927.23z M-641.02-926.85c-0.26,0.25-0.45,0.57-0.57,0.95L-641.02-926.85z M-640.83-928.94
			c0.76-0.25,1.14-0.7,1.14-1.33C-640.32-930.02-640.7-929.57-640.83-928.94z M-639.69-930.46c0.63-0.25,1.11-0.63,1.43-1.14
			c0.32-0.5,0.6-1.08,0.86-1.71c-0.51,0.38-0.92,0.79-1.24,1.24C-638.96-931.63-639.31-931.09-639.69-930.46z M-638.36-930.08
			c-0.38,0.38-0.57,0.7-0.57,0.95L-638.36-930.08z M-638.17-930.27c0.38-0.38,0.57-0.69,0.57-0.95L-638.17-930.27z M-637.4-933.32
			c0.13,0,0.31-0.32,0.57-0.95h-0.38l-0.19,0.19V-933.32z M-636.83-934.27c0.51-0.13,0.76-0.44,0.76-0.95h-0.57L-636.83-934.27z
			 M-634.55-937.88c-0.89,0.89-1.4,1.65-1.52,2.28v0.38c0.38-0.38,0.73-0.76,1.04-1.14C-634.71-936.74-634.55-937.25-634.55-937.88z
			 M-634.55-937.88c0.51-0.13,0.76-0.32,0.76-0.57l-0.38-0.38v-0.19h-0.19l0.19,0.19C-634.17-938.45-634.3-938.13-634.55-937.88z"/>
		<path class="st3" d="M-604.11-942.07l-6.28,0.57l-4.19,0.57c-1.02,0.26-2.06,0.45-3.14,0.57c-1.08,0.13-2.13,0.32-3.14,0.57
			c-1.02,0.25-2,0.41-2.95,0.48c-0.95,0.07-1.93,0.16-2.95,0.29h-0.95c-0.51,0-1.27-0.13-2.28-0.38c-0.26,0-0.38-0.19-0.38-0.57
			c0-0.25,0.03-0.38,0.09-0.38c0.06,0,0.1-0.06,0.1-0.19l-0.38-0.38c-0.26,0-0.45-0.06-0.57-0.19c-0.13,0-0.19-0.06-0.19-0.19
			c0-0.13,0.06-0.25,0.19-0.38c0-0.12,0.12-0.31,0.38-0.57v-0.19c-0.38-0.25-0.67-0.5-0.86-0.76c-0.19-0.25-0.41-0.51-0.67-0.76
			c-0.13,0-0.19-0.13-0.19-0.38c0-0.13,0.13-0.32,0.38-0.57c0.63-0.5,1.46-0.95,2.47-1.33l3.42-0.76c0.38-0.12,0.89-0.19,1.52-0.19
			c0.76,0,1.49,0,2.19,0c0.7,0,1.43-0.06,2.19-0.19c0.38-0.13,1.08-0.19,2.09-0.19c0.63,0,1.3-0.03,2-0.1c0.7-0.06,1.36-0.09,2-0.09
			c0.63,0,1.3-0.03,2-0.09c0.7-0.06,1.36-0.1,2-0.1c0.63,0,1.3,0.03,2,0.1c0.7,0.07,1.43,0.09,2.19,0.09c1.14,0,1.97,0.16,2.47,0.48
			c0.51,0.32,1.14,0.98,1.9,2l0.57,0.76c0,0.26,0.03,0.54,0.09,0.86c0.06,0.32,0.1,0.6,0.1,0.86v0.19c0,0.38-0.19,0.64-0.57,0.76
			h-2.66V-942.07z"/>
		<path class="st3" d="M-517.36-963.19v3.23c0,0.89,0,1.75,0,2.57c0,0.83-0.13,1.62-0.38,2.38c0,0.38,0.1,0.7,0.29,0.95
			c0.19,0.26,0.29,0.57,0.29,0.95h0.38v-0.38c1.14-2.92,2.5-5.77,4.09-8.56c1.58-2.79,3.2-5.45,4.85-7.99
			c2.03-3.42,4.06-6.82,6.09-10.18c2.03-3.36,4.31-6.63,6.85-9.8c1.78-2.54,3.62-4.98,5.52-7.33c1.9-2.34,4-4.66,6.28-6.94
			c1.9-2.54,4.63-4.95,8.18-7.23c1.01-0.89,2.03-1.65,3.04-2.28c1.01-0.63,2.03-1.27,3.04-1.9c2.28-1.39,4.82-2.47,7.61-3.23h1.33
			c1.01,0,1.77,0.13,2.28,0.38c0.5,0.26,1.08,0.57,1.71,0.95c3.3,2.41,5.2,5.2,5.71,8.37c0.25,0.89,0.41,1.71,0.48,2.47
			c0.06,0.76,0.09,1.59,0.09,2.47v2.09v1.71c0,2.79-0.19,5.71-0.57,8.75c-0.26,2.03-0.64,3.97-1.14,5.8
			c-0.51,1.84-0.95,3.78-1.33,5.8c-0.38,1.65-0.73,3.27-1.05,4.85c-0.32,1.59-0.6,3.08-0.86,4.47c-0.64,1.78-1.17,3.49-1.62,5.14
			c-0.45,1.65-0.98,3.3-1.62,4.95c-0.64,2.16-1.27,4.25-1.9,6.28c-0.64,2.03-1.21,4.12-1.71,6.28c-2.54,6.98-4.69,14.43-6.47,22.36
			c-1.78,7.93-3.93,15.51-6.47,22.74l-1.33,4.19c-0.38,0.89-0.92,2.41-1.62,4.57c-0.7,2.16-1.43,4.47-2.19,6.95
			c-0.76,2.47-1.49,4.85-2.19,7.13c-0.7,2.28-1.24,4-1.62,5.14c-0.26,0.5-0.57,1.05-0.95,1.62c-0.38,0.57-0.57,1.17-0.57,1.81
			c0,0.25-0.19,0.44-0.57,0.57c-0.38,0.13-0.7,0.19-0.95,0.19h-0.19c-0.64-0.13-1.17-0.19-1.62-0.19c-0.45,0-0.79-0.19-1.05-0.57
			c-0.13,0-0.35-0.07-0.67-0.19c-0.32-0.13-0.54-0.19-0.67-0.19c-1.02-0.51-1.59-1.08-1.71-1.71c0.25-0.64,0.41-1.37,0.48-2.19
			c0.06-0.83,0.22-1.68,0.48-2.57c0.5-4.31,1.39-8.63,2.66-12.94c0.13-1.78,0.41-3.46,0.86-5.04c0.44-1.59,0.86-3.27,1.24-5.04
			c0.38-2.28,0.79-4.5,1.24-6.66c0.44-2.16,1.05-4.38,1.81-6.66c0.25-2.16,0.7-4.28,1.33-6.37c0.63-2.09,1.27-4.28,1.9-6.56
			c0.63-2.03,1.27-4.12,1.9-6.28c0.63-2.16,1.2-4.31,1.71-6.47c0.76-3.17,1.68-6.31,2.76-9.42c1.08-3.11,2.12-6.18,3.14-9.23
			c0.63-2.03,1.33-4.12,2.09-6.28c0.76-2.16,1.52-4.25,2.28-6.28l3.23-8.94c0.63-1.77,1.27-3.49,1.9-5.14
			c0.63-1.65,1.14-3.36,1.52-5.14c0.63-1.52,1.2-3.2,1.71-5.04c0.51-1.84,0.95-3.64,1.33-5.42c0.25-0.63,0.5-1.58,0.76-2.85
			c0.25-1.27,0.38-2.47,0.38-3.61v-0.76c0-0.5,0-1.01,0-1.52c0-0.51-0.07-0.82-0.19-0.95c-0.26-0.38-0.64-0.6-1.14-0.67
			c-0.51-0.06-1.02-0.1-1.52-0.1c-1.02,0-2.13,0.19-3.33,0.57c-1.21,0.38-2.13,0.7-2.76,0.95c-1.4,0.64-2.63,1.43-3.71,2.38
			c-1.08,0.95-2.13,1.87-3.14,2.76c-5.83,5.2-11.13,10.69-15.89,16.46c-4.76,5.77-9.04,11.89-12.84,18.36
			c-2.41,4.19-4.73,8.44-6.94,12.75c-2.22,4.31-4.41,8.69-6.56,13.13c-1.02,2.03-2.03,4.09-3.04,6.18
			c-1.02,2.09-1.97,4.16-2.85,6.18c-0.89,2.03-1.52,4.19-1.9,6.47c-0.38,2.28-0.7,4.44-0.95,6.47c-0.26,1.02-0.45,1.75-0.57,2.19
			c-0.13,0.45-0.45,0.67-0.95,0.67c-0.89,0-1.78-0.7-2.66-2.09c-2.28-2.03-3.61-4.31-4-6.85c0-1.27,0.06-2.5,0.19-3.71
			c0.13-1.2,0.5-2.44,1.14-3.71c1.39-6.47,2.47-12.87,3.23-19.22c0.76-6.34,1.14-12.87,1.14-19.6v-4.38v-1.52
			c0-0.89-0.16-1.68-0.48-2.38c-0.32-0.7-0.67-1.24-1.05-1.62c-1.14-0.76-2.47-1.14-4-1.14c-1.65,0-3.11,0.38-4.38,1.14
			c-2.92,2.28-4.63,5.07-5.14,8.37c-0.51,3.3-0.89,6.41-1.14,9.32c-0.26,1.65-0.51,3.3-0.76,4.95c-0.25,1.65-0.64,3.3-1.14,4.95
			c-0.64,4.06-1.46,8.06-2.47,11.99c-1.02,3.93-2.22,7.8-3.62,11.6c-0.64,2.79-1.46,5.39-2.47,7.8c-0.89,1.78-1.68,3.55-2.38,5.33
			c-0.7,1.78-1.68,3.55-2.95,5.33c-0.76,0.76-1.46,1.52-2.09,2.28c-0.64,0.76-1.4,1.39-2.28,1.9c-1.02,1.01-2.28,1.52-3.8,1.52
			c-0.13,0.25-0.38,0.41-0.76,0.48c-0.38,0.06-0.64,0.1-0.76,0.1c-0.76,0-1.27-0.19-1.52-0.57c-2.16-0.64-4-1.65-5.52-3.04
			c-0.76-1.01-1.4-2.22-1.9-3.61c0-0.63-0.07-1.33-0.19-2.09c-0.13-0.76-0.26-1.58-0.38-2.47c0-0.38,0-0.79,0-1.24
			c0-0.44,0.13-0.86,0.38-1.24c0.25-2.92,0.86-5.9,1.81-8.94c0.95-3.04,2.12-6.09,3.52-9.13c1.39-3.17,2.92-6.21,4.57-9.13
			c1.65-2.92,3.3-5.9,4.95-8.94l7.99-10.84c0.63-0.89,1.14-1.71,1.52-2.47c0.38-0.76,0.57-1.65,0.57-2.66
			c0.13-1.52,0.25-2.98,0.38-4.38c0.13-1.39,0.32-2.85,0.57-4.38c0.25-1.01,0.38-2.12,0.38-3.33c0-1.2,0-2.44,0-3.71v-5.14
			c-0.13-0.89-0.19-1.81-0.19-2.76s0-1.81,0-2.57c-0.13-1.27-0.38-2.6-0.76-4c-0.38-1.39-0.7-2.79-0.95-4.19
			c-0.26-1.14-0.54-2.31-0.86-3.52c-0.32-1.2-0.73-2.44-1.24-3.71c-0.64-0.89-0.95-1.58-0.95-2.09c-0.64-1.27-1.62-2.19-2.95-2.76
			c-1.33-0.57-2.7-0.86-4.09-0.86c-0.76,0-1.43,0.03-2,0.1c-0.57,0.07-1.17,0.35-1.81,0.86c-0.13,0-0.38,0.07-0.76,0.19
			c-0.38,0.13-0.7,0.32-0.95,0.57c-1.02,0.89-1.97,1.62-2.85,2.19c-0.89,0.57-1.65,1.3-2.28,2.19c-2.41,2.92-4.57,5.87-6.47,8.85
			c-1.9,2.98-3.55,6.12-4.95,9.42c-1.02,2.54-1.84,4.98-2.47,7.32c-0.64,2.35-1.14,4.66-1.52,6.94c-0.13,1.4-0.26,2.82-0.38,4.28
			c-0.13,1.46-0.19,2.89-0.19,4.28v1.33v3.04c0.13,2.28,0.35,4.54,0.67,6.75c0.32,2.22,0.79,4.47,1.43,6.75
			c0,0.38,0.1,0.79,0.29,1.24c0.19,0.45,0.41,0.86,0.67,1.24c0.76,1.02,1.27,1.84,1.52,2.47c0.76,0.26,1.14,0.64,1.14,1.14v0.19
			c0,0.13-0.19,0.19-0.57,0.19h-0.38c-0.13,0-0.32-0.13-0.57-0.38c-1.27-0.5-2.22-1.08-2.85-1.71c-0.64-0.63-1.27-1.46-1.9-2.47
			l-2.09-4.76c-0.64-1.39-1.08-2.88-1.33-4.47c-0.25-1.58-0.57-3.14-0.95-4.66c-0.25-1.14-0.41-2.28-0.48-3.42
			c-0.06-1.14-0.16-2.41-0.29-3.8c0-1.14,0-2.31,0-3.52c0-1.2,0.13-2.44,0.38-3.71c0-0.5,0.03-1.08,0.09-1.71
			c0.07-0.63,0.22-1.2,0.48-1.71c0.25-2.92,0.7-5.9,1.33-8.94c0.63-3.04,1.65-6.02,3.04-8.94c0.89-1.77,1.74-3.62,2.57-5.52
			c0.82-1.9,1.87-3.61,3.14-5.14c0.25-0.25,0.51-0.57,0.76-0.95c0.25-0.38,0.5-0.63,0.76-0.76c0.63-1.65,1.62-3.2,2.95-4.66
			c1.33-1.46,2.82-2.88,4.47-4.28c0.63-0.25,1.14-0.57,1.52-0.95c0.38-0.38,0.82-0.76,1.33-1.14c1.01-0.38,1.96-0.73,2.85-1.05
			c0.89-0.31,1.77-0.48,2.66-0.48c0.63,0,1.39,0.1,2.28,0.29c0.89,0.19,1.65,0.54,2.28,1.05c5.33,1.52,9.13,4.31,11.42,8.37
			c1.27,1.52,2.28,3.11,3.04,4.76c0.76,1.65,1.65,3.49,2.66,5.52c0.51,1.4,0.89,2.82,1.14,4.28c0.25,1.46,0.51,2.95,0.76,4.47
			c0.25,1.02,0.44,1.93,0.57,2.76c0.13,0.83,0.32,1.74,0.57,2.76c0,1.4,0.03,2.73,0.1,4c0.06,1.27,0.22,2.54,0.48,3.8v0.76
			l0.57,0.38l1.33-1.14c0.63-0.5,1.3-0.98,2-1.43c0.7-0.44,1.36-0.79,2-1.05c1.01-0.51,1.9-0.79,2.66-0.86
			c0.76-0.06,1.46-0.1,2.09-0.1h1.71c1.27,0.26,2.41,0.7,3.42,1.33c1.01,0.64,1.84,1.52,2.47,2.66c0.63,0.64,1.14,1.36,1.52,2.19
			c0.38,0.83,0.76,1.81,1.14,2.95c0.12,2.41,0.63,5.2,1.52,8.37c0,1.4,0,2.73,0,4C-517.55-965.53-517.48-964.33-517.36-963.19z
			 M-568.15-1022.17v-0.19h-0.19c-1.14,0.38-2.16,0.92-3.04,1.62c-0.89,0.7-1.78,1.55-2.66,2.57v0.57c1.27-0.63,2.31-1.39,3.14-2.28
			C-570.09-1020.77-569.17-1021.53-568.15-1022.17z M-571.77-916.38c0.25,0.76,0.44,1.55,0.57,2.38c0.13,0.83,0.31,1.81,0.57,2.95
			c0.51,0.64,0.95,0.95,1.33,0.95c0.63,0,1.14-0.19,1.52-0.57c0.76-0.51,1.2-1.08,1.33-1.71c0.63-0.89,1.24-1.71,1.81-2.47
			c0.57-0.76,1.05-1.58,1.43-2.47c0.38-1.27,0.86-2.57,1.43-3.9c0.57-1.33,1.05-2.69,1.43-4.09l3.04-10.84
			c0.63-2.92,1.24-5.74,1.81-8.47c0.57-2.73,1.17-5.36,1.81-7.9c0.25-1.14,0.44-2.12,0.57-2.95c0.13-0.82,0.32-1.74,0.57-2.76h-0.57
			c-0.26,0.13-0.51,0.29-0.76,0.48c-0.26,0.19-0.51,0.41-0.76,0.67c-0.76,2.03-1.97,3.87-3.61,5.52c-1.52,2.66-2.92,5.39-4.19,8.18
			c-1.27,2.79-2.6,5.46-4,7.99c-1.02,2.16-1.87,4.28-2.57,6.37c-0.7,2.09-1.3,4.28-1.81,6.56c-0.25,1.02-0.41,2.03-0.48,3.04
			C-571.36-918.41-571.52-917.4-571.77-916.38z M-566.82-1020.45c-0.64,0.26-1.27,0.6-1.9,1.05c-0.64,0.45-1.27,0.86-1.9,1.24v0.57
			h0.57c0.38-0.38,0.82-0.73,1.33-1.05c0.51-0.32,0.95-0.73,1.33-1.24C-567.01-1019.88-566.82-1020.07-566.82-1020.45z
			 M-563.02-911.63v0.57h0.57c0-0.25,0.03-0.48,0.09-0.67c0.06-0.19,0.09-0.41,0.09-0.67
			C-562.38-912.01-562.64-911.75-563.02-911.63z M-561.88-913.53c-0.26,0.13-0.38,0.51-0.38,1.14h0.38c1.9-2.41,3.23-4.88,4-7.42
			v-0.57c-0.51,0.51-0.76,0.89-0.76,1.14c-0.64,0.64-1.05,1.24-1.24,1.81c-0.19,0.57-0.35,1.11-0.48,1.62l-0.95,0.95
			c-0.13,0.38-0.26,0.64-0.38,0.76C-561.81-913.97-561.88-913.78-561.88-913.53z M-561.11-916.76l-0.38,0.38
			c0,0.13,0.03,0.22,0.09,0.29c0.06,0.07,0.1,0.16,0.1,0.29c-0.38,0.26-0.57,0.45-0.57,0.57h0.57v-0.57v-0.38
			c0-0.13,0.03-0.22,0.09-0.29C-561.15-916.54-561.11-916.64-561.11-916.76z M-561.11-916.76h0.19c0.25,0,0.38-0.19,0.38-0.57h-0.57
			V-916.76z M-560.92-910.67l-0.19,0.19l0.19,0.19V-910.67z M-560.35-911.63c0.89-0.25,1.46-0.67,1.71-1.24
			c0.25-0.57,0.51-1.17,0.76-1.81c-0.64,0.38-1.11,0.83-1.43,1.33C-559.63-912.83-559.97-912.26-560.35-911.63z M-557.12-915.81
			c-0.38,0.26-0.57,0.45-0.57,0.57C-557.31-915.24-557.12-915.43-557.12-915.81z M-556.93-922.47h-0.38v0.38L-556.93-922.47z
			 M-556.93-922.47v-0.19c0-0.25,0.06-0.38,0.19-0.38c0.13,0,0.19-0.06,0.19-0.19v-0.57l-0.57,0.57
			C-557.12-923.1-557.06-922.85-556.93-922.47z M-538.66-982.21l0.38-0.19C-538.41-982.27-538.54-982.21-538.66-982.21z
			 M-473.41-930.46l-0.19-0.19l-0.19,0.19h-0.19v0.38v0.38c-0.26,1.27-0.6,2.51-1.05,3.71c-0.45,1.21-0.79,2.38-1.05,3.52
			c-1.27,4.19-2.41,8.31-3.42,12.37c-1.02,4.06-2.22,8.31-3.62,12.75c-0.89,3.3-1.81,6.63-2.76,9.99c-0.95,3.36-1.93,6.69-2.95,9.99
			c-0.26,0.63-0.41,1.2-0.48,1.71c-0.07,0.51-0.1,1.01-0.1,1.52c0.38-0.13,0.57-0.38,0.57-0.76c0.76-2.03,1.36-3.97,1.81-5.8
			c0.44-1.84,1.05-3.78,1.81-5.8c0.89-2.66,1.65-5.23,2.28-7.71c0.63-2.47,1.46-5.04,2.47-7.71c1.01-4.44,2.09-8.91,3.23-13.41
			c1.14-4.5,2.35-8.97,3.62-13.41c0-0.13,0.03-0.31,0.09-0.57c0.06-0.25,0.09-0.51,0.09-0.76V-930.46z M-487.29-874.91
			c0,0.5,0.19,0.76,0.57,0.76l0.19-0.19c0-0.38,0.09-0.73,0.29-1.05c0.19-0.32,0.29-0.73,0.29-1.24c0.63-2.16,1.3-4.28,2-6.37
			c0.7-2.09,1.49-4.16,2.38-6.18c2.54-6.98,4.69-14.14,6.47-21.5l0.19-0.19c0.25-0.25,0.38-0.51,0.38-0.76h-0.38
			c-0.13,0-0.19-0.06-0.19-0.19v0.19c-0.38,0.38-0.57,0.89-0.57,1.52c-1.4,3.55-2.6,7.04-3.62,10.46
			c-1.02,3.42-2.03,6.97-3.04,10.66c-1.02,2.54-1.84,4.98-2.47,7.32C-485.46-879.32-486.28-877.06-487.29-874.91z M-486.34-890.7
			h0.57v-0.19l-0.38,0.19H-486.34z M-485.39-892.98l-0.19,0.19l0.19,0.38V-892.98z M-485.39-893.17c0.38,0,0.57-0.32,0.57-0.95
			c0-0.25-0.03-0.41-0.09-0.48c-0.07-0.07-0.1-0.16-0.1-0.29c-0.13,0.25-0.16,0.51-0.09,0.76
			C-485.04-893.87-485.14-893.55-485.39-893.17z M-484.63-896.41v0.57c0.13-0.26,0.16-0.45,0.09-0.57
			c-0.07-0.13,0.03-0.32,0.29-0.57C-484.51-896.72-484.63-896.53-484.63-896.41z M-484.25-897.74v0.76
			c0.38-0.38,0.57-0.95,0.57-1.71C-484.06-898.31-484.25-897.99-484.25-897.74z M-477.4-924.18c-0.13,0.26-0.22,0.45-0.29,0.57
			c-0.07,0.13-0.1,0.32-0.1,0.57c0,0.13,0.03,0.26,0.1,0.38c0.06,0.13,0.09,0.32,0.09,0.57c-0.26,0.26-0.45,0.54-0.57,0.86
			c-0.13,0.32-0.32,0.6-0.57,0.86c-0.64,3.17-1.4,6.34-2.28,9.51c-0.89,3.17-1.78,6.4-2.66,9.7v2.28l0.57-0.57
			c0.89-3.68,1.74-7.23,2.57-10.65c0.82-3.42,1.81-6.97,2.95-10.65v-1.33C-477.47-922.72-477.4-923.42-477.4-924.18z M-477.4-924.18
			c0.38-0.25,0.57-0.63,0.57-1.14C-477.21-924.94-477.4-924.56-477.4-924.18z M-468.08-1013.22c-0.64,0-0.95,0.19-0.95,0.57
			C-468.78-1012.65-468.46-1012.84-468.08-1013.22z M-466.75-1014.18h-0.76v0.57C-467-1013.6-466.75-1013.79-466.75-1014.18z
			 M-465.8-1014.37c-0.64,0-0.95,0.07-0.95,0.19C-466.11-1014.18-465.8-1014.24-465.8-1014.37z M-464.65-1014.94h0.38l0.76-0.38
			c0.51,0,0.95-0.19,1.33-0.57c-0.89,0-1.33,0.07-1.33,0.19c-0.76,0-1.21,0.13-1.33,0.38c-0.25,0-0.57,0.32-0.95,0.95
			C-465.03-1014.37-464.65-1014.56-464.65-1014.94z M-463.89-1013.22c0-0.25,0.12-0.38,0.38-0.38h-0.38V-1013.22z M-463.32-1013.6
			c0.13,0,0.38-0.19,0.76-0.57C-463.07-1014.18-463.32-1013.99-463.32-1013.6z M-461.61-1014.18v-0.19h-0.38l-0.57,0.19H-461.61z"/>
		<path class="st3" d="M-384.94-944.92c0.13-0.12,0.32-0.19,0.57-0.19c0.25,0,0.48,0.13,0.67,0.38c0.19,0.26,0.41,0.45,0.67,0.57
			c0.13,0,0.19,0.19,0.19,0.57c-0.26,0.64-0.45,1.21-0.57,1.71c-0.13,0.51-0.32,1.02-0.57,1.52c-1.9,3.17-3.78,6.25-5.61,9.23
			c-1.84,2.98-3.84,5.93-5.99,8.85c-0.76,1.14-1.62,2.32-2.57,3.52c-0.95,1.21-1.87,2.51-2.76,3.9l-5.14,4.57
			c-1.14,0.64-2.16,1.14-3.04,1.52c-0.89,0.38-1.84,0.57-2.85,0.57c-1.27,0-2.66-0.38-4.19-1.14c-1.4-0.63-2.73-1.49-4-2.57
			c-1.27-1.08-2.35-2.31-3.23-3.71c-1.02-1.77-1.65-3.8-1.9-6.09c0-0.51-0.03-1.01-0.09-1.52c-0.07-0.5-0.1-1.01-0.1-1.52
			c-0.13-0.38-0.19-0.89-0.19-1.52c0.63-6.59,1.78-12.87,3.42-18.83c0.25-0.63,0.51-1.27,0.76-1.9c0.25-0.63,0.38-1.27,0.38-1.9
			v-0.38c-0.64,0.26-0.98,0.6-1.05,1.05c-0.07,0.45-0.22,0.98-0.48,1.62l-7.23,12.75c-1.02,1.9-2.06,3.74-3.14,5.52
			c-1.08,1.78-2.25,3.55-3.52,5.33c-0.64,1.02-1.36,1.94-2.19,2.76c-0.83,0.83-1.68,1.75-2.57,2.76c-0.51,0.64-1.14,1.17-1.9,1.62
			c-0.76,0.45-1.46,0.79-2.09,1.05c-0.26,0.13-0.64,0.19-1.14,0.19c-0.38,0-1.08-0.13-2.09-0.38c-1.02-0.38-1.94-0.98-2.76-1.81
			c-0.83-0.82-1.75-1.68-2.76-2.57c-1.39-1.01-2.09-2.41-2.09-4.19c0-0.25,0.03-0.41,0.09-0.48c0.07-0.06,0.09-0.22,0.09-0.48
			c0-0.38-0.03-0.79-0.09-1.24c-0.06-0.44-0.09-0.86-0.09-1.24c0-1.9,0.16-3.71,0.48-5.42c0.32-1.71,0.79-3.39,1.43-5.04
			c0.38-1.52,0.86-3.04,1.43-4.57c0.57-1.52,1.17-2.98,1.81-4.38c1.77-3.42,3.93-6.78,6.47-10.08c0.5-0.89,0.82-1.33,0.95-1.33
			c0.63-1.01,1.33-1.74,2.09-2.19c0.76-0.44,1.52-0.98,2.28-1.62c0.5-0.38,1.01-0.57,1.52-0.57c0.25,0,0.5-0.03,0.76-0.09
			c0.25-0.06,0.5-0.09,0.76-0.09c1.39,0,2.92,0.32,4.57,0.95c1.65,0.64,3.11,1.59,4.38,2.85c0.38,0.38,0.67,0.83,0.86,1.33
			c0.19,0.51,0.41,1.02,0.67,1.52c0,0.13,0.03,0.26,0.1,0.38c0.06,0.13,0.09,0.32,0.09,0.57c0,0.51-0.19,0.95-0.57,1.33
			c-0.26,0.26-0.45,0.38-0.57,0.38c-0.13,0-0.45-0.13-0.95-0.38l-3.04-2.28c-0.26-0.25-0.51-0.38-0.76-0.38
			c-0.26,0-0.45,0.07-0.57,0.19l-2.28,2.09c-0.89,1.02-1.68,2.03-2.38,3.04c-0.7,1.02-1.43,2.03-2.19,3.04
			c-1.4,2.54-2.57,5.07-3.52,7.61c-0.95,2.54-1.87,5.14-2.76,7.8c-0.51,1.02-0.86,2.03-1.05,3.04c-0.19,1.02-0.41,2.03-0.67,3.04
			c-0.13,0.26-0.19,0.6-0.19,1.05c0,0.45,0,0.79,0,1.05c0,0.26,0.13,0.51,0.38,0.76h0.19c0.25,0,0.44-0.06,0.57-0.19
			c1.65-1.52,3.2-3.17,4.66-4.95c1.46-1.78,2.82-3.74,4.09-5.9c2.03-2.92,4.03-5.8,5.99-8.66c1.96-2.85,3.9-5.74,5.8-8.66
			c1.14-1.9,2.44-3.87,3.9-5.9c1.46-2.03,2.88-4,4.28-5.9l3.61-5.14c0.51-0.76,0.89-1.14,1.14-1.14c0.13,0,0.57,0.13,1.33,0.38
			c0.38,0.26,0.82,0.45,1.33,0.57c0.5,0.13,0.89,0.32,1.14,0.57c0.89,0.89,1.33,1.71,1.33,2.47c0,0.26-0.03,0.45-0.09,0.57
			c-0.07,0.13-0.09,0.32-0.09,0.57l-2.09,6.47c-1.02,3.42-2.03,6.88-3.04,10.37c-1.02,3.49-1.97,7.01-2.85,10.56
			c-0.26,1.52-0.54,3.04-0.86,4.57c-0.32,1.52-0.6,3.17-0.86,4.95c-0.13,1.02-0.22,2.03-0.29,3.04c-0.07,1.02-0.09,2.03-0.09,3.04
			c0,0.76,0.03,1.49,0.09,2.19c0.06,0.7,0.1,1.43,0.1,2.19c0,0.76,0.09,1.4,0.29,1.9c0.19,0.51,0.41,1.08,0.67,1.71
			c0.5,0.89,1.33,1.33,2.47,1.33h0.57c0.25-0.13,0.57-0.19,0.95-0.19c0.38,0,0.7-0.13,0.95-0.38c0.63-0.63,1.3-1.24,2-1.81
			c0.7-0.57,1.36-1.24,2-2c1.77-1.9,3.55-3.87,5.33-5.9c1.77-2.03,3.36-4.25,4.76-6.66c1.39-1.9,2.73-3.8,4-5.71
			c1.27-1.9,2.6-3.87,4-5.9c0.38-0.51,0.67-1.05,0.86-1.62c0.19-0.57,0.41-1.17,0.67-1.81l1.33-1.14c0.13-0.13,0.32-0.19,0.57-0.19
			c0.25,0,0.44,0.07,0.57,0.19c0.25,0.13,0.35,0.22,0.29,0.29C-385.1-945.14-385.06-945.05-384.94-944.92z M-441.63-952.91
			c-1.14,0.38-1.71,1.08-1.71,2.09l-0.76,0.57c-1.52,2.28-2.85,4.79-4,7.52c-1.14,2.73-2.09,5.49-2.85,8.28
			c-0.26,0.76-0.38,1.33-0.38,1.71c0,0.38,0.06,0.7,0.19,0.95c-0.51,0.13-0.76,0.51-0.76,1.14c0,0.13,0.03,0.22,0.09,0.29
			c0.06,0.06,0.1,0.16,0.1,0.29c0,0.13-0.03,0.19-0.1,0.19c-0.07,0-0.09,0.07-0.09,0.19c-0.13,0-0.13,0.07,0,0.19
			c0-0.13,0.03-0.22,0.09-0.29c0.06-0.06,0.1-0.16,0.1-0.29c0.38-0.25,0.57-0.89,0.57-1.9c0.25-0.13,0.57-0.7,0.95-1.71
			c0.76-2.54,1.62-5.04,2.57-7.51c0.95-2.47,2.12-4.85,3.52-7.13c0.25-0.25,0.41-0.63,0.48-1.14c0.06-0.51,0.22-0.95,0.48-1.33
			C-442.65-950.94-442.14-951.64-441.63-952.91z M-451.24-937.12c0.06,0,0.09-0.06,0.09-0.19l-0.19,0.38
			C-451.34-937.06-451.31-937.12-451.24-937.12z M-450.38-940.16c0-0.13,0.03-0.22,0.1-0.29c0.06-0.06,0.09-0.16,0.09-0.29
			c-0.26,0-0.38,0.13-0.38,0.38L-450.38-940.16z M-446.01-939.21c-0.38,0.38-0.51,0.57-0.38,0.57L-446.01-939.21z M-445.44-940.16
			c0.25-0.13,0.38-0.5,0.38-1.14C-445.31-940.8-445.44-940.42-445.44-940.16z M-445.06-941.31c0.25-0.13,0.38-0.32,0.38-0.57v-0.57
			C-444.93-942.19-445.06-941.81-445.06-941.31z M-444.68-942.45c0.63-0.25,1.01-0.76,1.14-1.52
			C-444.3-943.84-444.68-943.33-444.68-942.45z M-443.53-943.97c0.25-0.13,0.38-0.51,0.38-1.14
			C-443.41-944.98-443.53-944.6-443.53-943.97z M-443.15-945.11c0.76-0.51,1.14-1.39,1.14-2.66c-0.76,0.38-1.14,1.08-1.14,2.09
			V-945.11z M-441.06-949.68c-0.64,0.38-0.95,1.02-0.95,1.9c0.63-0.25,0.95-0.63,0.95-1.14v-0.57c0.76-0.13,1.14-0.63,1.14-1.52
			C-440.43-950.88-440.81-950.44-441.06-949.68z M-441.63-952.91c0.51-0.51,0.76-1.08,0.76-1.71c-0.51,0.26-0.76,0.7-0.76,1.33
			V-952.91z M-439.54-951.77c0.76-0.25,1.14-0.7,1.14-1.33C-439.16-952.85-439.54-952.4-439.54-951.77z M-393.5-931.03
			c-0.26,0.25-0.38,0.51-0.38,0.76L-393.5-931.03z M-389.88-936.17c-0.25,0.13-0.38,0.22-0.38,0.29c0,0.07-0.07,0.16-0.19,0.29
			l0.38-0.38L-389.88-936.17z M-387.79-940.16c0.38-0.13,0.57-0.25,0.57-0.38c-0.13,0-0.26,0.07-0.38,0.19L-387.79-940.16z
			 M-386.65-941.31c0,0.26-0.13,0.38-0.38,0.38c0.13,0,0.25-0.06,0.38-0.19V-941.31z M-385.7-944.35v0.38
			c0-0.13,0.03-0.19,0.09-0.19c0.06,0,0.09-0.06,0.09-0.19H-385.7z"/>
		<path class="st3" d="M-345.36-944.35c0.25,1.27,0.38,2.22,0.38,2.85c0,2.16-0.48,4.12-1.43,5.9c-0.95,1.78-1.97,3.36-3.04,4.76
			c-1.08,1.4-2.09,2.57-3.04,3.52c-0.95,0.95-1.43,1.56-1.43,1.81c0,0.13,0.13,0.19,0.38,0.19h0.19c-1.4,1.78-2.92,3.65-4.57,5.61
			c-1.65,1.97-3.17,3.65-4.57,5.04c-1.78,1.78-3.68,3.33-5.71,4.66c-2.03,1.33-4.25,2.31-6.66,2.95c-0.89,0.25-1.71,0.44-2.47,0.57
			c-0.76,0.13-1.59,0.19-2.47,0.19c-2.66,0-4.95-0.7-6.85-2.09c-1.4-1.01-2.7-2.03-3.9-3.04c-1.21-1.01-2.19-2.22-2.95-3.61
			c-0.64-1.27-1.08-2.66-1.33-4.19c-0.13-0.5-0.19-1.01-0.19-1.52c0-0.51,0-1.08,0-1.71c0-0.63,0-1.17,0-1.62
			c0-0.44,0.07-0.98,0.19-1.62v-4.57c0.25-1.14,0.51-2.25,0.76-3.33c0.25-1.08,0.51-2.12,0.76-3.14v-1.14
			c0-0.13,0.03-0.22,0.09-0.29c0.06-0.06,0.1-0.16,0.1-0.29c0-0.12-0.03-0.25-0.1-0.38c-0.07-0.13-0.09-0.25-0.09-0.38
			c0-0.13-0.03-0.19-0.1-0.19c-0.07,0-0.09-0.06-0.09-0.19l0.57-0.76c0.38-0.25,0.82-0.76,1.33-1.52c0.63-1.14,1.2-2.31,1.71-3.52
			c0.5-1.2,1.08-2.38,1.71-3.52c1.77-3.04,3.74-5.71,5.9-7.99c1.52-1.9,3.3-3.49,5.33-4.76c1.01-0.89,2.16-1.39,3.42-1.52
			c0.5-0.13,0.98-0.19,1.43-0.19c0.44,0,0.86,0,1.24,0c2.28,0,4.38,0.51,6.28,1.52c2.41,1.4,3.62,3.36,3.62,5.9v0.57
			c-0.13,1.9-0.7,3.81-1.71,5.71c-0.76,1.52-1.62,2.98-2.57,4.38c-0.95,1.4-2.13,2.6-3.52,3.61c-3.42,2.66-6.85,4.44-10.27,5.33
			l-2.09,0.57c-0.89,0.13-1.52,0.7-1.9,1.71l-1.9,14.65v0.76c0,0.64,0.06,1.3,0.19,2c0.13,0.7,0.32,1.36,0.57,2
			c0.13,1.14,0.89,1.71,2.28,1.71h1.52c1.77-0.38,3.52-0.89,5.23-1.52c1.71-0.63,3.33-1.46,4.85-2.47c1.52-1.01,2.98-2.12,4.38-3.33
			c1.39-1.2,2.79-2.5,4.19-3.9c0.76-0.76,1.84-1.68,3.23-2.76c1.39-1.08,2.54-2.12,3.42-3.14c1.14-1.39,2.22-2.76,3.23-4.09
			c1.01-1.33,2.03-2.69,3.04-4.09c0.63-1.01,1.24-2.03,1.81-3.04C-346.41-942.32-345.87-943.33-345.36-944.35z M-387.41-943.78
			l0.38-0.38c-0.13,0-0.19,0.03-0.19,0.09c0,0.07-0.07,0.1-0.19,0.1V-943.78z M-387.03-944.35c0.76-0.51,1.14-1.33,1.14-2.47
			C-386.52-946.19-386.9-945.36-387.03-944.35z M-383.99-945.68c1.01-1.9,2.12-3.77,3.33-5.61c1.2-1.84,2.57-3.64,4.09-5.42v-0.76
			l-0.57,0.38c-0.26,0.25-0.57,0.54-0.95,0.86c-0.38,0.32-0.7,0.67-0.95,1.05c-1.14,1.4-2.19,2.85-3.14,4.38
			c-0.95,1.52-1.87,3.11-2.76,4.76c-0.51,1.02-0.95,2.28-1.33,3.81l0.95-1.33c0.25-0.25,0.48-0.6,0.67-1.05
			C-384.46-945.08-384.24-945.43-383.99-945.68z M-385.13-947.78c-0.26,0.13-0.51,0.45-0.76,0.95
			C-385.38-946.95-385.13-947.27-385.13-947.78z M-383.41-950.82c-0.89,0.64-1.46,1.65-1.71,3.04c0.89-0.89,1.52-1.9,1.9-3.04
			c0.25-0.25,0.38-0.57,0.38-0.95C-383.22-951.51-383.41-951.2-383.41-950.82z M-381.7-953.29c-0.64,0.38-1.02,0.89-1.14,1.52
			C-382.08-951.9-381.7-952.4-381.7-953.29z M-380.94-954.24c-0.38,0.13-0.57,0.45-0.57,0.95L-380.94-954.24z M-380.37-954.81
			c0.25-0.25,0.38-0.57,0.38-0.95L-380.37-954.81z M-379.99-948.16c0.13-0.12,0.19-0.31,0.19-0.57c0,0.13-0.03,0.19-0.09,0.19
			c-0.07,0-0.1,0.07-0.1,0.19V-948.16z M-379.61-948.73c0.38-0.13,0.57-0.44,0.57-0.95C-379.29-949.42-379.48-949.11-379.61-948.73z
			 M-369.53-956.53c-0.64,0.38-1.21,0.83-1.71,1.33c-0.51,0.51-1.08,1.02-1.71,1.52c-1.27,1.52-2.35,3.08-3.23,4.66
			c-0.89,1.59-1.78,3.27-2.66,5.04c-0.13,0.13-0.19,0.32-0.19,0.57v0.19c0,0.26,0.19,0.38,0.57,0.38c0.51-0.25,0.95-0.48,1.33-0.67
			c0.38-0.19,0.76-0.41,1.14-0.67c1.39-1.14,2.69-2.35,3.9-3.62c1.2-1.27,2.19-2.73,2.95-4.38c0.89-1.52,1.39-2.92,1.52-4.19v-0.19
			c0-0.38-0.26-0.57-0.76-0.57h-0.38L-369.53-956.53z M-373.71-956.53c-0.26,0-0.45,0.07-0.57,0.19c-1.02,1.02-1.94,2.03-2.76,3.04
			c-0.83,1.02-1.49,2.22-2,3.62c0.38-0.13,0.63-0.38,0.76-0.76c0.76-1.01,1.55-1.97,2.38-2.85c0.82-0.89,1.55-1.84,2.19-2.85
			V-956.53z M-367.62-950.82c0,0.13-0.13,0.32-0.38,0.57c-0.25,0.51-0.38,0.83-0.38,0.95h0.38c-0.25,0.26-0.41,0.57-0.48,0.95
			c-0.07,0.38-0.16,0.7-0.29,0.95c-0.13,0.26-0.29,0.41-0.48,0.48c-0.19,0.07-0.35,0.22-0.48,0.48v0.19h0.19
			c0.25-0.13,0.41-0.25,0.48-0.38c0.06-0.13,0.22-0.32,0.48-0.57c0.5-0.38,0.92-0.82,1.24-1.33c0.32-0.51,0.6-1.01,0.86-1.52
			c0.25-0.25,0.38-0.54,0.38-0.86c0-0.31,0.06-0.6,0.19-0.86c-0.38,0-0.6,0.16-0.67,0.48c-0.07,0.32-0.22,0.54-0.48,0.67l-0.38,0.38
			c-0.13,0-0.19-0.06-0.19-0.19V-950.82z M-368.19-945.11l0.38-0.19C-367.94-945.3-368.07-945.24-368.19-945.11z M-365.72-948.16
			c-0.89,0.38-1.46,1.21-1.71,2.47C-366.55-946.19-365.98-947.01-365.72-948.16z M-365.15-948.92c-0.26,0.13-0.38,0.22-0.38,0.29
			c0,0.07-0.07,0.16-0.19,0.29c0.13,0,0.19-0.03,0.19-0.1c0-0.06,0.06-0.09,0.19-0.09C-365.34-948.66-365.28-948.79-365.15-948.92z
			 M-360.39-922.09c0.13-0.13,0.38-0.29,0.76-0.48c0.38-0.19,0.63-0.41,0.76-0.67l-1.71,1.14v0.19L-360.39-922.09z M-357.92-921.71
			c0-0.13-0.07-0.19-0.19-0.19l-0.57,0.57C-358.43-921.58-358.18-921.71-357.92-921.71z M-357.54-924.75
			c-0.26,0.25-0.38,0.57-0.38,0.95L-357.54-924.75z M-357.35-922.47c0.38-0.12,0.57-0.44,0.57-0.95
			C-357.16-923.17-357.35-922.85-357.35-922.47z M-356.78-923.42c0.38-0.13,0.63-0.38,0.76-0.76c-0.13,0.13-0.25,0.22-0.38,0.29
			C-356.53-923.83-356.65-923.67-356.78-923.42z M-356.59-925.52c0.5-0.13,0.95-0.7,1.33-1.71c-0.38,0.26-0.67,0.48-0.86,0.67
			S-356.46-926.02-356.59-925.52z M-356.02-924.18c0.51-0.25,0.95-0.76,1.33-1.52C-355.45-925.2-355.89-924.69-356.02-924.18z
			 M-355.26-927.23c0.63-0.13,1.14-0.7,1.52-1.71C-354.37-928.68-354.88-928.11-355.26-927.23z M-353.92-926.85
			c-0.25,0.25-0.45,0.57-0.57,0.95L-353.92-926.85z M-353.73-928.94c0.76-0.25,1.14-0.7,1.14-1.33
			C-353.23-930.02-353.61-929.57-353.73-928.94z M-352.59-930.46c0.63-0.25,1.11-0.63,1.43-1.14c0.32-0.5,0.6-1.08,0.86-1.71
			c-0.51,0.38-0.92,0.79-1.24,1.24C-351.86-931.63-352.21-931.09-352.59-930.46z M-351.26-930.08c-0.38,0.38-0.57,0.7-0.57,0.95
			L-351.26-930.08z M-351.07-930.27c0.38-0.38,0.57-0.69,0.57-0.95L-351.07-930.27z M-350.31-933.32c0.13,0,0.32-0.32,0.57-0.95
			h-0.38l-0.19,0.19V-933.32z M-349.74-934.27c0.5-0.13,0.76-0.44,0.76-0.95h-0.57L-349.74-934.27z M-347.46-937.88
			c-0.89,0.89-1.4,1.65-1.52,2.28v0.38c0.38-0.38,0.73-0.76,1.05-1.14C-347.62-936.74-347.46-937.25-347.46-937.88z M-347.46-937.88
			c0.51-0.13,0.76-0.32,0.76-0.57l-0.38-0.38v-0.19h-0.19l0.19,0.19C-347.07-938.45-347.2-938.13-347.46-937.88z"/>
	</g>
	<g class="st1">
		<g>
			<path class="st2" d="M-655.71-1066.95c4.8-8.33,8.65-20.67,2.09-28.13c-2.41-2.74-6.43-3.83-9.78-4.88
				c-2.53-0.8-4.97-1.66-7.18-2.89l1.69,4.08c2.66,1.1,5.48,1.98,8.36,3.02c10.41,3.79,7.67,16.17,3.27,25.04L-655.71-1066.95z"/>
		</g>
		<g>
			<path class="st3" d="M-649.2-1067.03v-5.77c-0.52,0.09-1,0.41-1.23,1.02c-1.01,2.74-2.42,5.24-4.15,7.52l1.35,3.26
				C-651.68-1062.86-650.33-1064.87-649.2-1067.03z"/>
		</g>
		<g>
			<path class="st3" d="M-649.2-1111.2c-4.27,2.23-8.56,4.43-12.9,6.51c-1.54,0.74-0.59,2.74,0.78,2.88
				c4.86,0.52,9.12,2.57,12.12,6.46v-4.45c-2.16-1.93-4.64-3.29-7.41-4.14c2.48-1.23,4.95-2.5,7.41-3.78V-1111.2z"/>
		</g>
		<g>
			<path class="st2" d="M-642.7-1066.95c-4.8-8.33-8.65-20.67-2.09-28.13c2.41-2.74,6.43-3.83,9.78-4.88
				c2.52-0.8,4.97-1.66,7.18-2.89l-1.69,4.08c-2.66,1.1-5.48,1.98-8.36,3.02c-10.41,3.79-7.67,16.17-3.27,25.04L-642.7-1066.95z"/>
		</g>
		<g>
			<path class="st3" d="M-649.2-1067.03v-5.77c0.52,0.09,1.01,0.41,1.23,1.02c1.01,2.74,2.43,5.24,4.15,7.52l-1.35,3.26
				C-646.72-1062.86-648.07-1064.87-649.2-1067.03z"/>
		</g>
		<g>
			<path class="st3" d="M-649.2-1111.2c4.27,2.23,8.56,4.43,12.9,6.51c1.54,0.74,0.59,2.74-0.78,2.88
				c-4.86,0.52-9.12,2.57-12.13,6.46v-4.45c2.17-1.93,4.64-3.29,7.41-4.14c-2.48-1.23-4.95-2.5-7.41-3.78V-1111.2z"/>
		</g>
		<g>
			<path class="st2" d="M-664.91-1057.74c-2.49-9.29-8.5-20.73-18.41-21.37c-3.65-0.23-7.26,1.84-10.37,3.46
				c-2.35,1.22-4.69,2.34-7.12,3.04l4.08,1.69c2.66-1.1,5.28-2.48,8.05-3.77c10.04-4.68,16.86,6.02,20.02,15.4L-664.91-1057.74z"/>
		</g>
		<g>
			<path class="st3" d="M-660.36-1062.4l-4.08-4.08c-0.31,0.43-0.43,1-0.15,1.6c1.22,2.65,1.99,5.42,2.38,8.26l3.26,1.35
				C-659.17-1057.71-659.64-1060.08-660.36-1062.4z"/>
		</g>
		<g>
			<path class="st3" d="M-691.6-1093.64c-1.44,4.6-2.92,9.19-4.52,13.73c-0.57,1.61,1.52,2.35,2.59,1.49
				c3.81-3.07,8.27-4.63,13.14-4.01l-3.15-3.15c-2.89,0.17-5.61,0.96-8.17,2.31c0.88-2.63,1.73-5.27,2.56-7.91L-691.6-1093.64z"/>
		</g>
		<g>
			<path class="st2" d="M-655.71-1066.95c-9.29-2.49-20.73-8.5-21.37-18.41c-0.23-3.65,1.84-7.26,3.46-10.37
				c1.22-2.35,2.34-4.69,3.04-7.12l1.69,4.08c-1.1,2.66-2.48,5.27-3.77,8.05c-4.68,10.04,6.02,16.86,15.4,20.02L-655.71-1066.95z"/>
		</g>
		<g>
			<path class="st3" d="M-660.36-1062.4l-4.08-4.08c0.43-0.31,1-0.43,1.6-0.15c2.65,1.23,5.42,1.99,8.26,2.38l1.35,3.26
				C-655.67-1061.21-658.05-1061.68-660.36-1062.4z"/>
		</g>
		<g>
			<path class="st3" d="M-691.6-1093.64c4.6-1.44,9.19-2.92,13.73-4.52c1.61-0.57,2.35,1.52,1.49,2.59c-3.06,3.8-4.63,8.27-4,13.14
				l-3.15-3.15c0.17-2.89,0.96-5.61,2.31-8.17c-2.63,0.88-5.27,1.73-7.91,2.56L-691.6-1093.64z"/>
		</g>
		<g>
			<path class="st2" d="M-664.91-1044.73c-8.33-4.8-20.67-8.65-28.13-2.09c-2.75,2.41-3.83,6.43-4.88,9.78
				c-0.79,2.52-1.66,4.97-2.89,7.18l4.08-1.69c1.1-2.66,1.98-5.48,3.03-8.36c3.79-10.41,16.17-7.67,25.04-3.27L-664.91-1044.73z"/>
		</g>
		<g>
			<path class="st3" d="M-664.99-1051.24l-5.77,0c0.09,0.52,0.4,1.01,1.02,1.24c2.74,1.01,5.23,2.43,7.52,4.15l3.26-1.35
				C-660.83-1048.76-662.84-1050.11-664.99-1051.24z"/>
		</g>
		<g>
			<path class="st3" d="M-709.16-1051.24c2.23,4.27,4.43,8.56,6.51,12.91c0.74,1.54,2.74,0.58,2.88-0.78
				c0.52-4.86,2.58-9.12,6.46-12.12h-4.45c-1.93,2.17-3.29,4.64-4.14,7.41c-1.23-2.48-2.5-4.95-3.78-7.41H-709.16z"/>
		</g>
		<g>
			<path class="st2" d="M-664.91-1057.74c-8.33,4.8-20.67,8.65-28.13,2.09c-2.74-2.41-3.83-6.43-4.88-9.78
				c-0.79-2.53-1.66-4.97-2.89-7.18l4.08,1.69c1.1,2.66,1.98,5.48,3.03,8.36c3.79,10.41,16.17,7.67,25.04,3.27L-664.91-1057.74z"/>
		</g>
		<g>
			<path class="st3" d="M-664.99-1051.24l-5.77,0c0.09-0.52,0.4-1.01,1.02-1.23c2.74-1.01,5.23-2.43,7.52-4.15l3.26,1.35
				C-660.83-1053.72-662.84-1052.37-664.99-1051.24z"/>
		</g>
		<g>
			<path class="st3" d="M-709.16-1051.24c2.23-4.27,4.43-8.56,6.51-12.91c0.74-1.54,2.74-0.58,2.88,0.78
				c0.52,4.86,2.58,9.12,6.46,12.12h-4.45c-1.92-2.16-3.29-4.64-4.14-7.41c-1.23,2.48-2.5,4.95-3.78,7.41H-709.16z"/>
		</g>
		<g>
			<path class="st2" d="M-655.71-1035.53c-9.29,2.5-20.73,8.5-21.37,18.41c-0.23,3.65,1.84,7.26,3.47,10.37
				c1.22,2.35,2.34,4.69,3.04,7.12l1.69-4.08c-1.1-2.66-2.48-5.28-3.77-8.05c-4.68-10.04,6.01-16.86,15.4-20.02L-655.71-1035.53z"/>
		</g>
		<g>
			<path class="st3" d="M-660.36-1040.08l-4.08,4.08c0.43,0.31,1,0.43,1.6,0.15c2.65-1.22,5.42-1.99,8.26-2.38l1.35-3.26
				C-655.67-1041.27-658.04-1040.8-660.36-1040.08z"/>
		</g>
		<g>
			<path class="st3" d="M-691.6-1008.84c4.6,1.44,9.19,2.92,13.73,4.52c1.61,0.57,2.35-1.52,1.49-2.59c-3.06-3.81-4.63-8.27-4-13.14
				l-3.15,3.15c0.17,2.89,0.96,5.61,2.31,8.17c-2.63-0.88-5.27-1.73-7.91-2.56L-691.6-1008.84z"/>
		</g>
		<g>
			<path class="st2" d="M-664.91-1044.73c-2.49,9.29-8.5,20.73-18.41,21.37c-3.65,0.23-7.26-1.84-10.37-3.46
				c-2.35-1.22-4.69-2.34-7.12-3.04l4.08-1.69c2.66,1.1,5.28,2.48,8.05,3.77c10.04,4.68,16.86-6.02,20.02-15.4L-664.91-1044.73z"/>
		</g>
		<g>
			<path class="st3" d="M-660.36-1040.08l-4.08,4.08c-0.31-0.43-0.43-1-0.15-1.6c1.22-2.65,1.99-5.42,2.38-8.26l3.26-1.35
				C-659.17-1044.77-659.64-1042.39-660.36-1040.08z"/>
		</g>
		<g>
			<path class="st3" d="M-691.6-1008.84c-1.44-4.6-2.92-9.19-4.52-13.73c-0.57-1.61,1.52-2.35,2.59-1.49
				c3.81,3.07,8.27,4.63,13.14,4.01l-3.15,3.15c-2.89-0.17-5.61-0.96-8.17-2.31c0.88,2.63,1.73,5.27,2.56,7.91L-691.6-1008.84z"/>
		</g>
		<g>
			<path class="st2" d="M-642.7-1035.53c-4.8,8.33-8.65,20.67-2.09,28.13c2.41,2.74,6.43,3.83,9.78,4.88
				c2.52,0.79,4.97,1.66,7.18,2.89l-1.69-4.08c-2.66-1.1-5.48-1.98-8.36-3.02c-10.41-3.79-7.67-16.17-3.27-25.04L-642.7-1035.53z"/>
		</g>
		<g>
			<path class="st3" d="M-649.2-1035.45v5.77c0.52-0.09,1.01-0.4,1.23-1.02c1.01-2.74,2.43-5.23,4.15-7.52l-1.35-3.26
				C-646.72-1039.61-648.07-1037.6-649.2-1035.45z"/>
		</g>
		<g>
			<path class="st3" d="M-649.2-991.28c4.27-2.23,8.56-4.43,12.9-6.51c1.54-0.74,0.59-2.74-0.78-2.88
				c-4.86-0.52-9.12-2.57-12.12-6.46v4.45c2.16,1.93,4.64,3.29,7.41,4.14c-2.48,1.24-4.95,2.5-7.41,3.78L-649.2-991.28z"/>
		</g>
		<g>
			<path class="st2" d="M-655.71-1035.53c4.81,8.33,8.65,20.67,2.09,28.13c-2.42,2.74-6.43,3.83-9.78,4.88
				c-2.53,0.79-4.97,1.66-7.18,2.89l1.69-4.08c2.66-1.1,5.48-1.98,8.36-3.02c10.41-3.79,7.67-16.17,3.27-25.04L-655.71-1035.53z"/>
		</g>
		<g>
			<path class="st3" d="M-649.2-1035.45v5.77c-0.52-0.09-1-0.4-1.23-1.02c-1.01-2.74-2.43-5.23-4.15-7.52l1.35-3.26
				C-651.68-1039.61-650.33-1037.6-649.2-1035.45z"/>
		</g>
		<g>
			<path class="st3" d="M-649.2-991.28c-4.27-2.23-8.56-4.43-12.9-6.51c-1.54-0.74-0.59-2.74,0.78-2.88
				c4.86-0.52,9.12-2.57,12.13-6.46v4.45c-2.17,1.93-4.64,3.29-7.41,4.14c2.48,1.23,4.95,2.5,7.41,3.78L-649.2-991.28z"/>
		</g>
		<g>
			<path class="st2" d="M-633.49-1044.73c2.5,9.29,8.5,20.73,18.41,21.37c3.65,0.23,7.26-1.84,10.37-3.46
				c2.35-1.22,4.69-2.34,7.12-3.04l-4.08-1.69c-2.66,1.1-5.28,2.48-8.05,3.77c-10.04,4.68-16.86-6.01-20.02-15.4L-633.49-1044.73z"
				/>
		</g>
		<g>
			<path class="st3" d="M-638.04-1040.08l4.08,4.08c0.31-0.43,0.43-1,0.15-1.6c-1.22-2.66-1.99-5.42-2.38-8.26l-3.26-1.35
				C-639.23-1044.77-638.76-1042.39-638.04-1040.08z"/>
		</g>
		<g>
			<path class="st3" d="M-606.8-1008.84c1.44-4.6,2.92-9.19,4.52-13.73c0.57-1.61-1.52-2.35-2.59-1.49c-3.81,3.07-8.27,4.63-13.14,4
				l3.15,3.15c2.89-0.17,5.61-0.96,8.17-2.31c-0.88,2.63-1.73,5.27-2.56,7.91L-606.8-1008.84z"/>
		</g>
		<g>
			<path class="st2" d="M-642.7-1035.53c9.29,2.49,20.73,8.5,21.37,18.41c0.23,3.65-1.84,7.26-3.46,10.37
				c-1.22,2.35-2.34,4.69-3.04,7.12l-1.69-4.08c1.1-2.66,2.48-5.27,3.77-8.05c4.68-10.04-6.01-16.86-15.4-20.02L-642.7-1035.53z"/>
		</g>
		<g>
			<path class="st3" d="M-638.04-1040.08l4.08,4.08c-0.43,0.31-1,0.43-1.6,0.15c-2.65-1.22-5.42-1.99-8.26-2.38l-1.35-3.26
				C-642.73-1041.27-640.36-1040.8-638.04-1040.08z"/>
		</g>
		<g>
			<path class="st3" d="M-606.8-1008.84c-4.6,1.44-9.18,2.92-13.73,4.52c-1.61,0.57-2.35-1.52-1.49-2.59
				c3.07-3.81,4.63-8.27,4-13.14l3.15,3.15c-0.17,2.89-0.96,5.61-2.31,8.17c2.63-0.88,5.27-1.73,7.91-2.56L-606.8-1008.84z"/>
		</g>
		<g>
			<path class="st2" d="M-633.49-1057.74c8.33,4.8,20.67,8.65,28.13,2.09c2.74-2.41,3.83-6.44,4.88-9.78
				c0.8-2.52,1.66-4.97,2.89-7.18l-4.08,1.69c-1.1,2.66-1.98,5.48-3.03,8.36c-3.79,10.41-16.17,7.67-25.04,3.27L-633.49-1057.74z"/>
		</g>
		<g>
			<path class="st3" d="M-633.41-1051.24l5.77,0c-0.09-0.52-0.4-1.01-1.03-1.24c-2.74-1.01-5.23-2.43-7.52-4.15l-3.26,1.35
				C-637.57-1053.72-635.56-1052.37-633.41-1051.24z"/>
		</g>
		<g>
			<path class="st3" d="M-589.24-1051.24c-2.23-4.27-4.43-8.56-6.51-12.91c-0.74-1.54-2.74-0.58-2.89,0.78
				c-0.52,4.86-2.57,9.12-6.46,12.12h4.45c1.93-2.16,3.29-4.64,4.14-7.41c1.24,2.48,2.5,4.95,3.78,7.41L-589.24-1051.24z"/>
		</g>
		<g>
			<path class="st2" d="M-633.49-1044.73c8.33-4.8,20.67-8.65,28.13-2.09c2.75,2.42,3.83,6.43,4.88,9.78
				c0.8,2.53,1.66,4.97,2.89,7.18l-4.08-1.69c-1.1-2.66-1.98-5.48-3.02-8.36c-3.79-10.41-16.17-7.67-25.04-3.27L-633.49-1044.73z"/>
		</g>
		<g>
			<path class="st3" d="M-633.41-1051.24l5.77,0c-0.09,0.52-0.4,1.01-1.03,1.23c-2.74,1.01-5.23,2.43-7.52,4.15l-3.26-1.35
				C-637.57-1048.76-635.56-1050.11-633.41-1051.24z"/>
		</g>
		<g>
			<path class="st3" d="M-589.24-1051.24c-2.23,4.27-4.43,8.56-6.51,12.9c-0.74,1.54-2.74,0.59-2.88-0.78
				c-0.52-4.86-2.57-9.12-6.46-12.12h4.45c1.93,2.16,3.29,4.64,4.14,7.41c1.23-2.48,2.5-4.95,3.78-7.41L-589.24-1051.24z"/>
		</g>
		<g>
			<path class="st2" d="M-642.7-1066.94c9.29-2.5,20.73-8.5,21.37-18.41c0.23-3.65-1.84-7.26-3.46-10.37
				c-1.22-2.35-2.34-4.69-3.04-7.12l-1.69,4.08c1.1,2.66,2.48,5.28,3.77,8.05c4.68,10.04-6.01,16.86-15.4,20.02L-642.7-1066.94z"/>
		</g>
		<g>
			<path class="st3" d="M-638.04-1062.4l4.08-4.08c-0.43-0.31-1-0.43-1.6-0.15c-2.65,1.22-5.42,1.99-8.26,2.38l-1.35,3.26
				C-642.73-1061.21-640.36-1061.68-638.04-1062.4z"/>
		</g>
		<g>
			<path class="st3" d="M-606.8-1093.64c-4.6-1.44-9.18-2.92-13.73-4.52c-1.61-0.57-2.35,1.52-1.49,2.59c3.07,3.8,4.63,8.27,4,13.14
				l3.15-3.15c-0.17-2.89-0.96-5.61-2.31-8.17c2.63,0.88,5.27,1.73,7.91,2.56L-606.8-1093.64z"/>
		</g>
		<g>
			<path class="st2" d="M-633.49-1057.74c2.49-9.29,8.5-20.73,18.41-21.37c3.65-0.23,7.26,1.84,10.37,3.46
				c2.35,1.22,4.69,2.34,7.12,3.04l-4.08,1.69c-2.66-1.1-5.28-2.48-8.05-3.77c-10.04-4.68-16.86,6.02-20.02,15.4L-633.49-1057.74z"
				/>
		</g>
		<g>
			<path class="st3" d="M-638.04-1062.4l4.08-4.08c0.31,0.43,0.43,1,0.15,1.6c-1.22,2.65-1.99,5.42-2.38,8.26l-3.26,1.35
				C-639.23-1057.71-638.76-1060.08-638.04-1062.4z"/>
		</g>
		<g>
			<path class="st3" d="M-606.8-1093.64c1.44,4.6,2.92,9.19,4.52,13.73c0.57,1.61-1.52,2.35-2.59,1.49c-3.81-3.07-8.27-4.63-13.14-4
				l3.15-3.15c2.89,0.17,5.61,0.96,8.17,2.31c-0.88-2.63-1.73-5.27-2.56-7.91L-606.8-1093.64z"/>
		</g>
	</g>
	<path class="st4" d="M515.61-1558.03c-147.72,0-297.24-31.6-297.24-92.01c0-41.17,65.13-63.91,119.81-75.74
		c8.23-1.92,16.12,3.41,17.86,11.52c1.77,8.11-3.38,16.12-11.52,17.86c-70.49,15.27-96.09,36.08-96.09,46.36
		c0,21.03,94.33,61.96,267.19,61.96c175.43,0,267.19-40.35,267.19-61.96s-91.77-61.93-267.19-61.93h-22.13
		c-8.32,0-15.03-6.7-15.03-15.03c0-8.32,6.7-15.03,15.03-15.03h22.13c147.72,0,297.24,31.57,297.24,91.98
		S663.33-1558.03,515.61-1558.03z"/>
	<path class="st4" d="M515.61-1233.39c-106.82,0-214.96-27.03-214.96-78.72c0-8.32,6.7-15.03,15.03-15.03
		c8.32,0,15.03,6.7,15.03,15.03c0,16.52,65.28,48.67,184.9,48.67c120.2,0,185.79-32.15,185.79-48.67c0-8.32,6.7-15.03,15.03-15.03
		c8.32,0,15.03,6.7,15.03,15.03C731.45-1258.01,619.57-1233.39,515.61-1233.39z"/>
	<path class="st4" d="M315.68-1297.09c-8.32,0-15.03-6.71-15.03-15.03c0-67.78,9.17-145.62,18.07-220.93
		c2.32-19.51,4.63-39.07,6.8-58.52c0.91-8.26,8.53-14.02,16.61-13.26c8.23,0.91,14.2,8.35,13.26,16.61
		c-2.16,19.51-4.48,39.1-6.8,58.7c-8.78,74.43-17.89,151.38-17.89,217.39C330.71-1303.79,324-1297.09,315.68-1297.09z"/>
	<path class="st4" d="M716.42-1297.09c-8.32,0-15.03-6.71-15.03-15.03c0-66.01-9.11-142.97-17.89-217.39
		c-2.32-19.6-4.63-39.19-6.8-58.7c-0.94-8.26,5.03-15.7,13.26-16.61c8.2-0.91,15.7,5,16.61,13.26c2.16,19.44,4.48,39.01,6.8,58.52
		c8.9,75.31,18.07,153.15,18.07,220.93C731.45-1303.79,724.74-1297.09,716.42-1297.09z"/>
	<path class="st4" d="M1937.57-64.29c-4.51,0-8.81-2.01-11.7-5.55l-26.82-33.13l-40.96-9.48c-4.82-1.13-8.78-4.51-10.61-9.11
		c-1.8-4.6-1.25-9.78,1.46-13.9l23.62-35.35l-3.93-42.49c-0.46-4.94,1.55-9.78,5.36-12.95c3.87-3.17,9.02-4.24,13.78-2.87
		l40.84,11.76l38.43-16.46c4.51-1.89,9.69-1.49,13.84,1.07c4.18,2.59,6.83,7.04,7.1,11.95l2.35,42.58l27.55,31.48
		c3.26,3.72,4.48,8.78,3.29,13.53c-1.19,4.78-4.66,8.69-9.27,10.42l-39.41,14.99l-22.07,36.27c-2.56,4.21-6.98,6.89-11.86,7.19
		C1938.24-64.29,1937.9-64.29,1937.57-64.29z M1886.06-136.86l24.81,5.73c3.26,0.76,6.19,2.59,8.32,5.18l16.64,20.57l13.62-22.43
		c1.74-2.87,4.39-5.06,7.53-6.25l24.02-9.14l-16.7-19.11c-2.22-2.53-3.54-5.73-3.72-9.08l-1.46-26.3l-23.62,10.12
		c-3.2,1.34-6.77,1.55-10.09,0.61l-24.81-7.16l2.38,25.84c0.34,3.41-0.55,6.86-2.44,9.72L1886.06-136.86z"/>
	<path class="st4" d="M515.61-1502.32c-65.92,0-129.77-6.52-184.66-18.93c-8.08-1.83-13.17-9.87-11.34-17.98
		c1.8-8.11,9.75-13.29,17.98-11.34c52.73,11.89,114.29,18.2,178.02,18.2c38.34,0,73.69-2.04,105.12-6.07
		c8.44-1.25,15.79,4.72,16.82,12.98c1.07,8.26-4.75,15.79-12.98,16.82C591.86-1504.42,555.23-1502.32,515.61-1502.32z"/>
	<g class="st1">
		<path class="st3" d="M685.46-1806.64c-8.32,0-15.03-6.71-15.03-15.03c0-8.32,6.7-16.37,15.03-16.37c8.32,0,15.03,5.39,15.03,13.71
			v2.65C700.49-1813.34,693.78-1806.64,685.46-1806.64z"/>
		<path class="st3" d="M685.46-1749.12c-8.32,0-15.03-6.7-15.03-15.03v-3.54c0-8.32,6.7-15.03,15.03-15.03
			c8.32,0,15.03,6.7,15.03,15.03v3.54C700.49-1755.83,693.78-1749.12,685.46-1749.12z"/>
		<path class="st3" d="M658.91-1779.21h-3.54c-8.32,0-15.03-6.7-15.03-15.03c0-8.32,6.7-15.03,15.03-15.03h3.54
			c8.32,0,15.03,6.7,15.03,15.03C673.94-1785.91,667.23-1779.21,658.91-1779.21z"/>
		<path class="st3" d="M715.54-1779.21c-8.32,0-16.37-6.7-16.37-15.03c0-8.32,5.39-15.03,13.71-15.03h2.65
			c8.32,0,15.03,6.7,15.03,15.03C730.57-1785.91,723.86-1779.21,715.54-1779.21z"/>
	</g>
	<g class="st1">
		<path class="st3" d="M1554.26-326.31c-8.32,0-15.03-6.71-15.03-15.03c0-8.32,6.7-16.37,15.03-16.37c8.32,0,15.03,5.39,15.03,13.71
			v2.65C1569.28-333.01,1562.58-326.31,1554.26-326.31z"/>
		<path class="st3" d="M1554.26-268.8c-8.32,0-15.03-6.7-15.03-15.03v-3.54c0-8.32,6.7-15.03,15.03-15.03
			c8.32,0,15.03,6.7,15.03,15.03v3.54C1569.28-275.5,1562.58-268.8,1554.26-268.8z"/>
		<path class="st3" d="M1527.71-298.88h-3.54c-8.32,0-15.03-6.7-15.03-15.03c0-8.32,6.7-15.03,15.03-15.03h3.54
			c8.32,0,15.03,6.7,15.03,15.03C1542.74-305.58,1536.03-298.88,1527.71-298.88z"/>
		<path class="st3" d="M1584.34-298.88c-8.32,0-16.37-6.7-16.37-15.03c0-8.32,5.39-15.03,13.71-15.03h2.65
			c8.32,0,15.03,6.7,15.03,15.03C1599.37-305.58,1592.66-298.88,1584.34-298.88z"/>
	</g>
	<g class="st1">
		<path class="st3" d="M1509.15-736.71c-8.32,0-15.03-6.71-15.03-15.03s6.7-16.37,15.03-16.37c8.32,0,15.03,5.39,15.03,13.71v2.65
			C1524.18-743.41,1517.47-736.71,1509.15-736.71z"/>
		<path class="st3" d="M1509.15-679.2c-8.32,0-15.03-6.7-15.03-15.03v-3.54c0-8.32,6.7-15.03,15.03-15.03
			c8.32,0,15.03,6.7,15.03,15.03v3.54C1524.18-685.9,1517.47-679.2,1509.15-679.2z"/>
		<path class="st3" d="M1482.61-709.28h-3.54c-8.32,0-15.03-6.7-15.03-15.03c0-8.32,6.7-15.03,15.03-15.03h3.54
			c8.32,0,15.03,6.7,15.03,15.03C1497.63-715.98,1490.93-709.28,1482.61-709.28z"/>
		<path class="st3" d="M1539.23-709.28c-8.32,0-16.37-6.7-16.37-15.03c0-8.32,5.39-15.03,13.71-15.03h2.65
			c8.32,0,15.03,6.7,15.03,15.03C1554.26-715.98,1547.55-709.28,1539.23-709.28z"/>
	</g>
	<path class="st4" d="M298.86-1980.02c-8.32,0-15.03-6.7-15.03-15.03s6.7-16.37,15.03-16.37c8.32,0,15.03,5.39,15.03,13.71v2.65
		C313.88-1986.72,307.18-1980.02,298.86-1980.02z"/>
	<path class="st4" d="M298.86-1922.54c-8.32,0-15.03-6.71-15.03-15.03v-3.54c0-8.32,6.7-15.03,15.03-15.03
		c8.32,0,15.03,6.71,15.03,15.03v3.54C313.88-1929.25,307.18-1922.54,298.86-1922.54z"/>
	<path class="st4" d="M271.46-1952.59c-8.32,0-16.37-6.7-16.37-15.03c0-8.32,5.39-15.03,13.71-15.03h2.65
		c8.32,0,15.03,6.7,15.03,15.03C286.48-1959.3,279.78-1952.59,271.46-1952.59z"/>
	<path class="st4" d="M328.05-1952.59c-8.32,0-16.37-6.7-16.37-15.03c0-8.32,5.39-15.03,13.71-15.03h2.65
		c8.32,0,15.03,6.7,15.03,15.03C343.08-1959.3,336.37-1952.59,328.05-1952.59z"/>
	<g class="st1">
		<g>
			<g>
				<path class="st3" d="M148.33,125.44H18.99c-1.15,0-2.09-0.93-2.09-2.09V27.39c0-1.15,0.93-2.09,2.09-2.09h129.34
					c1.15,0,2.09,0.93,2.09,2.09v95.97C150.42,124.51,149.48,125.44,148.33,125.44z M21.07,121.27h125.17V29.48H21.07V121.27z"/>
			</g>
		</g>
		<g>
			<g>
				<path class="st3" d="M135.81,112.93H31.5c-1.15,0-2.09-0.93-2.09-2.09V39.91c0-1.15,0.93-2.09,2.09-2.09h104.31
					c1.15,0,2.09,0.93,2.09,2.09v70.93C137.9,111.99,136.97,112.93,135.81,112.93z M33.59,108.75h100.14V42H33.59V108.75z"/>
			</g>
		</g>
		<g>
			<g>
				<path class="st3" d="M31.5,42c-0.53,0-1.07-0.2-1.48-0.61L17.51,28.87c-0.81-0.81-0.81-2.14,0-2.95s2.14-0.81,2.95,0
					l12.52,12.52c0.81,0.81,0.81,2.14,0,2.95C32.57,41.79,32.04,42,31.5,42z"/>
			</g>
		</g>
		<g>
			<g>
				<path class="st3" d="M135.81,42c-0.53,0-1.07-0.2-1.48-0.61c-0.81-0.81-0.81-2.14,0-2.95l12.52-12.52
					c0.81-0.81,2.14-0.81,2.95,0c0.81,0.81,0.81,2.14,0,2.95l-12.52,12.52C136.88,41.79,136.35,42,135.81,42z"/>
			</g>
		</g>
		<g>
			<g>
				<path class="st3" d="M18.99,125.44c-0.53,0-1.07-0.2-1.48-0.61c-0.81-0.81-0.81-2.14,0-2.95l12.52-12.52
					c0.81-0.81,2.14-0.81,2.95,0c0.81,0.81,0.81,2.14,0,2.95l-12.52,12.52C20.05,125.24,19.52,125.44,18.99,125.44z"/>
			</g>
		</g>
		<g>
			<g>
				<path class="st3" d="M148.33,125.44c-0.53,0-1.07-0.2-1.48-0.61l-12.52-12.52c-0.81-0.81-0.81-2.14,0-2.95s2.14-0.81,2.95,0
					l12.52,12.52c0.81,0.81,0.81,2.14,0,2.95C149.4,125.24,148.87,125.44,148.33,125.44z"/>
			</g>
		</g>
		<g>
			<g>
				<path class="st3" d="M83.66,21.13c-3.45,0-6.26-2.81-6.26-6.26s2.81-6.26,6.26-6.26s6.26,2.81,6.26,6.26
					S87.11,21.13,83.66,21.13z M83.66,12.79c-1.15,0-2.09,0.94-2.09,2.09s0.94,2.09,2.09,2.09c1.15,0,2.09-0.94,2.09-2.09
					S84.81,12.79,83.66,12.79z"/>
			</g>
		</g>
		<g>
			<g>
				<path class="st3" d="M98.26,29.48H69.06c-0.81,0-1.55-0.47-1.89-1.2c-0.34-0.73-0.23-1.6,0.29-2.22l10.43-12.52
					c0.74-0.88,2.05-1,2.94-0.27c0.88,0.74,1,2.05,0.27,2.94l-7.58,9.09h20.3l-7.58-9.09c-0.74-0.89-0.62-2.2,0.27-2.94
					c0.89-0.73,2.2-0.62,2.94,0.27l10.43,12.52c0.52,0.62,0.63,1.49,0.29,2.22C99.81,29.01,99.07,29.48,98.26,29.48z"/>
			</g>
		</g>
		<g>
			<g>
				<path class="st3" d="M48.19,112.93c-1.15,0-2.09-0.93-2.09-2.09V94.15c0-8.05,6.55-14.6,14.6-14.6s14.6,6.55,14.6,14.6v1.43
					c0,1.15-0.93,2.09-2.09,2.09c-1.15,0-2.09-0.93-2.09-2.09v-1.43c0-5.75-4.68-10.43-10.43-10.43S50.28,88.4,50.28,94.15v16.69
					C50.28,111.99,49.35,112.93,48.19,112.93z"/>
			</g>
		</g>
		<g>
			<g>
				<path class="st3" d="M60.71,75.37c-5.75,0-10.43-4.68-10.43-10.43s4.68-10.43,10.43-10.43s10.43,4.68,10.43,10.43
					S66.46,75.37,60.71,75.37z M60.71,58.68c-3.45,0-6.26,2.81-6.26,6.26s2.81,6.26,6.26,6.26c3.45,0,6.26-2.81,6.26-6.26
					S64.16,58.68,60.71,58.68z"/>
			</g>
		</g>
		<g>
			<g>
				<path class="st3" d="M119.12,112.93c-1.15,0-2.09-0.93-2.09-2.09V94.15c0-5.75-4.68-10.43-10.43-10.43S96.18,88.4,96.18,94.15
					v1.43c0,1.15-0.93,2.09-2.09,2.09c-1.15,0-2.09-0.93-2.09-2.09v-1.43c0-8.05,6.55-14.6,14.6-14.6s14.6,6.55,14.6,14.6v16.69
					C121.21,111.99,120.28,112.93,119.12,112.93z"/>
			</g>
		</g>
		<g>
			<g>
				<path class="st3" d="M106.61,75.37c-5.75,0-10.43-4.68-10.43-10.43s4.68-10.43,10.43-10.43s10.43,4.68,10.43,10.43
					S112.36,75.37,106.61,75.37z M106.61,58.68c-3.45,0-6.26,2.81-6.26,6.26s2.81,6.26,6.26,6.26s6.26-2.81,6.26-6.26
					S110.06,58.68,106.61,58.68z"/>
			</g>
		</g>
		<g>
			<g>
				<path class="st3" d="M96.18,112.93H71.14c-1.15,0-2.09-0.93-2.09-2.09v-8.34c0-8.05,6.55-14.6,14.6-14.6s14.6,6.55,14.6,14.6
					v8.34C98.26,111.99,97.33,112.93,96.18,112.93z M73.23,108.75h20.86v-6.26c0-5.75-4.68-10.43-10.43-10.43
					c-5.75,0-10.43,4.68-10.43,10.43V108.75z"/>
			</g>
		</g>
		<g>
			<g>
				<path class="st3" d="M83.66,83.72c-5.75,0-10.43-4.68-10.43-10.43c0-5.75,4.68-10.43,10.43-10.43c5.75,0,10.43,4.68,10.43,10.43
					C94.09,79.04,89.41,83.72,83.66,83.72z M83.66,67.03c-3.45,0-6.26,2.81-6.26,6.26s2.81,6.26,6.26,6.26s6.26-2.81,6.26-6.26
					S87.11,67.03,83.66,67.03z"/>
			</g>
		</g>
	</g>
	<g class="st1">
		<path class="st3" d="M48.26,156.37h-1.21v-17.3h9.48v1.11h-8.27v7.34h7.81v1.13h-7.81V156.37z"/>
		<path class="st3" d="M67.55,150.27h-7.03l-2.41,6.11h-1.34L63.73,139h0.77l6.82,17.37h-1.36L67.55,150.27z M60.96,149.18h6.19
			l-2.35-6.24c-0.2-0.49-0.43-1.17-0.71-2.04c-0.21,0.76-0.45,1.44-0.7,2.06L60.96,149.18z"/>
		<path class="st3" d="M81.37,156.37l-6.45-15.97h-0.09c0.06,0.98,0.09,1.98,0.09,3.01v12.97h-1.16v-17.3h1.87l6.13,15.22h0.07
			l6.13-15.22h1.82v17.3h-1.22v-13.11c0-0.92,0.05-1.86,0.14-2.84h-0.09l-6.47,15.95H81.37z"/>
		<path class="st3" d="M94.67,156.37v-17.3h1.21v17.3H94.67z"/>
		<path class="st3" d="M100.78,156.37v-17.3h1.21v16.16h8.25v1.14H100.78z"/>
		<path class="st3" d="M117.19,148.54l5.06-9.47h1.3l-5.76,10.61v6.69h-1.24v-6.59l-5.79-10.71h1.38L117.19,148.54z"/>
	</g>
</g>
<g id="Layer_3">
	<g>
		<g>
			<g>
				<g>
					<g>
						<g>
							<g>
								<path class="st3" d="M56.24,37.02l-3.32-3.62c-3.34-4.32-4.7-13,2.48-23.23c0.6-0.85,1.54-1.4,2.59-1.48
									c1.04-0.09,2.06,0.29,2.79,1.03c1.46,1.48,4.13,4.98,5.64,11.79c1.33,5.99-0.61,9.67-2.47,11.71l-3.13,3.73l-2.35-1.97
									L56.24,37.02z M56.7,30.36l1.73,1.89l1.88-2.23c1.64-1.8,2.09-4.29,1.38-7.46c-0.91-4.08-2.22-6.63-3.29-8.14
									C53.54,22.22,54.95,28.01,56.7,30.36z"/>
							</g>
						</g>
					</g>
				</g>
			</g>
			<g>
				<g>
					<g>
						<path class="st3" d="M133.69,108.98h-4.85V59.99c0-3.24-2.64-5.88-5.88-5.88H44.35c-3.24,0-5.88,2.64-5.88,5.88v48.99h-4.85
							V59.99c0-5.91,4.81-10.72,10.72-10.72h78.61c5.91,0,10.72,4.81,10.72,10.72V108.98z"/>
					</g>
				</g>
			</g>
			<g>
				<g>
					<g>
						<path class="st3" d="M77.96,76.88c-1.56,0-3.25-0.38-5.06-1.3c-4.18-2.11-6.54-4.67-8.26-6.54c-0.66-0.72-1.54-1.68-1.99-1.88
							c-0.46,0.34-1.29,1.32-1.91,2.06c-2.47,2.93-6.2,7.36-12.43,6.61c-8.94-1.08-14.11-9.57-14.33-9.93l4.15-2.49
							c0.04,0.07,4.21,6.82,10.76,7.61c3.39,0.41,5.51-1.78,8.14-4.91c1.66-1.97,3.22-3.83,5.47-3.83c2.48,0,4.04,1.69,5.7,3.49
							c1.55,1.69,3.48,3.78,6.88,5.5c4.1,2.07,6.79-0.27,10.72-4.36c2.46-2.56,4.79-4.97,7.83-4.6c3.2,0.4,5.53,2.94,7.58,5.18
							c1.62,1.77,3.29,3.62,4.68,3.53c1.67-0.09,3.82-2.14,5.72-3.95c2.27-2.16,4.61-4.39,7.38-4.78
							c5.25-0.71,12.21,8.02,14.21,10.72l-3.89,2.89c-3.52-4.73-8.2-9.01-9.66-8.81c-1.22,0.17-3.07,1.93-4.7,3.49
							c-2.51,2.39-5.35,5.09-8.8,5.28c-3.67,0.18-6.24-2.61-8.51-5.09c-1.56-1.71-3.18-3.47-4.61-3.65
							c-0.65-0.06-2.73,2.1-3.74,3.15C86.62,73.02,82.92,76.88,77.96,76.88z"/>
					</g>
				</g>
			</g>
			<g>
				<g>
					<g>
						<rect x="38.32" y="89.46" class="st3" width="90.69" height="4.55"/>
					</g>
				</g>
			</g>
		</g>
		<g>
			<g>
				<path class="st3" d="M132.65,125.39H34.66c-5.43,0-9.85-4.42-9.85-9.85c0-5.43,4.42-9.85,9.85-9.85h97.99
					c5.43,0,9.85,4.42,9.85,9.85C142.5,120.97,138.08,125.39,132.65,125.39z M34.66,110.54c-2.76,0-5,2.24-5,5s2.24,5,5,5h97.99
					c2.76,0,5-2.24,5-5s-2.24-5-5-5H34.66z"/>
			</g>
		</g>
		<g>
			<g>
				<rect x="56.11" y="33.33" class="st3" width="4.85" height="17.8"/>
			</g>
		</g>
		<g>
			<g>
				<g>
					<g>
						<path class="st3" d="M81.36,37.02l-3.32-3.62c-3.34-4.32-4.7-13,2.48-23.23c0.6-0.86,1.55-1.4,2.59-1.48
							c1.05-0.09,2.06,0.29,2.79,1.03c1.46,1.48,4.13,4.98,5.64,11.78c1.33,5.99-0.61,9.67-2.47,11.71l-3.13,3.73l-2.35-1.97
							L81.36,37.02z M81.82,30.36l1.74,1.89l1.88-2.23c1.64-1.8,2.09-4.29,1.38-7.46c-0.91-4.09-2.22-6.63-3.29-8.14
							C78.66,22.22,80.07,28.01,81.82,30.36z"/>
					</g>
				</g>
			</g>
		</g>
		<g>
			<g>
				<rect x="81.24" y="33.33" class="st3" width="4.85" height="17.8"/>
			</g>
		</g>
		<g>
			<g>
				<g>
					<g>
						<path class="st3" d="M106.48,37.02l-3.32-3.62c-3.34-4.32-4.7-13,2.48-23.23c0.6-0.86,1.55-1.4,2.59-1.48
							c1.05-0.09,2.06,0.29,2.79,1.03c1.46,1.48,4.13,4.98,5.64,11.79c1.33,5.99-0.61,9.67-2.47,11.71l-3.13,3.73l-2.35-1.97
							L106.48,37.02z M106.94,30.36l1.73,1.89l1.88-2.23c1.65-1.8,2.09-4.29,1.38-7.46c-0.91-4.09-2.22-6.63-3.29-8.14
							C103.78,22.22,105.19,28.01,106.94,30.36z"/>
					</g>
				</g>
			</g>
		</g>
		<g>
			<g>
				<rect x="106.36" y="33.33" class="st3" width="4.85" height="17.8"/>
			</g>
		</g>
	</g>
	<g>
		<path class="st3" d="M53.51,156.37h-9.46v-17.3h9.46v1.11h-8.25v6.54h7.79v1.11h-7.79v7.42h8.25V156.37z"/>
		<path class="st3" d="M67.65,139.07h1.31l-6.47,17.3h-1.06l-6.45-17.3h1.29l4.35,11.77c0.66,1.78,1.11,3.11,1.34,4
			c0.16-0.59,0.47-1.51,0.94-2.76L67.65,139.07z"/>
		<path class="st3" d="M80.87,156.37h-9.46v-17.3h9.46v1.11h-8.25v6.54h7.79v1.11h-7.79v7.42h8.25V156.37z"/>
		<path class="st3" d="M97.36,156.37h-1.22L85.9,141.01H85.8c0.09,1.83,0.14,3.21,0.14,4.14v11.22h-1.16v-17.3h1.21l10.24,15.34
			h0.07c-0.07-1.42-0.11-2.77-0.11-4.05v-11.29h1.17V156.37z"/>
		<path class="st3" d="M106.77,156.37h-1.22v-16.16h-5.62v-1.14h12.46v1.14h-5.62V156.37z"/>
		<path class="st3" d="M124.51,151.91c0,1.44-0.53,2.59-1.59,3.43s-2.47,1.27-4.23,1.27c-2.11,0-3.74-0.23-4.86-0.7v-1.21
			c1.25,0.53,2.84,0.79,4.77,0.79c1.42,0,2.55-0.33,3.38-0.98c0.83-0.65,1.25-1.5,1.25-2.56c0-0.65-0.14-1.2-0.41-1.63
			c-0.28-0.43-0.73-0.82-1.35-1.18c-0.62-0.36-1.54-0.74-2.75-1.15c-1.77-0.61-2.99-1.26-3.66-1.97c-0.67-0.71-1.01-1.65-1.01-2.82
			c0-1.29,0.51-2.35,1.52-3.17c1.01-0.82,2.32-1.22,3.91-1.22c1.63,0,3.15,0.31,4.58,0.92l-0.44,1.04c-1.44-0.6-2.81-0.9-4.12-0.9
			c-1.28,0-2.3,0.3-3.05,0.89s-1.14,1.4-1.14,2.41c0,0.64,0.12,1.16,0.35,1.57s0.61,0.78,1.14,1.11c0.53,0.33,1.44,0.72,2.72,1.18
			c1.35,0.46,2.36,0.92,3.04,1.35c0.68,0.44,1.17,0.93,1.48,1.49C124.35,150.45,124.51,151.12,124.51,151.91z"/>
	</g>
</g>
<g id="Layer_4" class="st0">
	<g class="st1">
		<g>
			<g>
				<g>
					<path class="st3" d="M163.44,40.22l-78.5-30.7c-0.82-0.32-1.75-0.32-2.56,0l-78.5,30.7c-1.52,0.59-2.5,2.13-2.5,3.91
						c0,1.79,0.98,3.32,2.5,3.92l27.58,10.79v36.45c0,0.98,0.39,1.85,1,2.39c1.2,1.14,13.35,12.51,31.6,18.38
						c6.03,1.94,13.12,3.37,20.94,3.37c14.84,0,32.27-5.16,49.91-21.81c0.6-0.56,0.94-1.42,0.94-2.34V58.83l15.13-5.91v38.06
						c-1.93,1.08-3.27,3.38-3.27,6.05c0,0.22,0.01,0.43,0.03,0.65c-1.23,1.69-2.99,4.83-3.16,9.21c-0.22,5.62,2.19,11.36,7.17,17.08
						c0.47,0.54,1.08,0.81,1.7,0.81c0.04,0,0.06,0,0.1-0.01c0.04,0.01,0.06,0.01,0.1,0.01c0.61,0,1.22-0.27,1.7-0.81
						c4.98-5.72,7.38-11.46,7.17-17.08c-0.18-4.58-2.1-7.82-3.34-9.44c0.01-0.14,0.01-0.28,0.01-0.42c0-2.67-1.34-4.97-3.27-6.05
						V50.99l7.53-2.94c1.51-0.59,2.49-2.13,2.49-3.92C165.93,42.35,164.95,40.81,163.44,40.22z M130.93,93.83
						c-20.03,18.44-42.04,24.02-65.42,16.55c-15.08-4.81-26-13.81-29.12-16.58v-4.25c5.14,4.11,14.91,10.91,27.67,15.01
						c6.03,1.93,13.12,3.37,20.94,3.37c13.72,0,29.66-4.41,45.93-18.24V93.83z M130.93,82.33c-20.03,18.44-42.03,24.02-65.42,16.55
						c-15.08-4.81-26-13.81-29.12-16.57V60.76l45.99,17.99c0.41,0.16,0.84,0.25,1.28,0.25c0.44,0,0.87-0.08,1.28-0.25l45.98-17.99
						V82.33z M156.38,102.78c0.58,1.08,1.14,2.59,1.2,4.47c0.1,3.24-1.26,6.74-4.04,10.45c-2.79-3.71-4.14-7.21-4.04-10.45
						c0.06-1.83,0.58-3.31,1.15-4.38c0.82,0.54,1.78,0.86,2.79,0.86C154.52,103.72,155.52,103.38,156.38,102.78z M83.66,73
						L9.83,44.13l73.83-28.87l73.82,28.87L83.66,73z"/>
				</g>
			</g>
		</g>
	</g>
	<g class="st1">
		<path class="st3" d="M47.6,151.91c0,1.44-0.53,2.59-1.59,3.43s-2.47,1.27-4.23,1.27c-2.11,0-3.74-0.23-4.86-0.7v-1.21
			c1.25,0.53,2.84,0.79,4.77,0.79c1.42,0,2.55-0.33,3.38-0.98c0.83-0.65,1.25-1.5,1.25-2.56c0-0.65-0.14-1.2-0.41-1.63
			c-0.28-0.43-0.73-0.82-1.35-1.18c-0.62-0.36-1.54-0.74-2.75-1.15c-1.77-0.61-2.99-1.26-3.66-1.97c-0.67-0.71-1.01-1.65-1.01-2.82
			c0-1.29,0.51-2.35,1.52-3.17c1.01-0.82,2.32-1.22,3.91-1.22c1.63,0,3.15,0.31,4.58,0.92l-0.44,1.04c-1.44-0.6-2.81-0.9-4.12-0.9
			c-1.28,0-2.3,0.3-3.05,0.89s-1.14,1.4-1.14,2.41c0,0.64,0.12,1.16,0.35,1.57s0.61,0.78,1.14,1.11c0.53,0.33,1.44,0.72,2.72,1.18
			c1.35,0.46,2.36,0.92,3.04,1.35c0.68,0.44,1.17,0.93,1.48,1.49C47.45,150.45,47.6,151.12,47.6,151.91z"/>
		<path class="st3" d="M60.71,156.37h-9.46v-17.3h9.46v1.11h-8.25v6.54h7.79v1.11h-7.79v7.42h8.25V156.37z"/>
		<path class="st3" d="M77.21,156.37h-1.22l-10.25-15.36h-0.09c0.09,1.83,0.14,3.21,0.14,4.14v11.22h-1.16v-17.3h1.21l10.24,15.34
			h0.07c-0.07-1.42-0.11-2.77-0.11-4.05v-11.29h1.17V156.37z"/>
		<path class="st3" d="M82.11,156.37v-17.3h1.21v17.3H82.11z"/>
		<path class="st3" d="M102.76,147.7c0,2.75-0.69,4.92-2.06,6.51c-1.37,1.6-3.27,2.4-5.68,2.4c-2.41,0-4.3-0.8-5.67-2.4
			c-1.37-1.6-2.06-3.78-2.06-6.54c0-2.75,0.69-4.92,2.08-6.5c1.38-1.58,3.28-2.37,5.67-2.37c2.41,0,4.3,0.79,5.67,2.38
			C102.07,142.77,102.76,144.95,102.76,147.7z M88.6,147.7c0,2.48,0.55,4.39,1.66,5.75c1.1,1.35,2.69,2.03,4.76,2.03
			c2.08,0,3.67-0.67,4.77-2.01c1.1-1.34,1.65-3.26,1.65-5.76c0-2.49-0.55-4.4-1.65-5.73c-1.1-1.33-2.68-1.99-4.75-1.99
			c-2.06,0-3.65,0.67-4.76,2.01C89.16,143.32,88.6,145.23,88.6,147.7z"/>
		<path class="st3" d="M107.94,148.83v7.54h-1.21v-17.3h4.12c2.15,0,3.73,0.4,4.76,1.19c1.03,0.79,1.54,1.99,1.54,3.58
			c0,1.16-0.31,2.14-0.92,2.93s-1.54,1.37-2.79,1.72l4.7,7.88h-1.44l-4.46-7.54H107.94z M107.94,147.79h3.3
			c1.46,0,2.59-0.33,3.4-0.98c0.8-0.65,1.21-1.61,1.21-2.88c0-1.32-0.39-2.28-1.18-2.88c-0.79-0.6-2.07-0.9-3.86-0.9h-2.86V147.79z"
			/>
		<path class="st3" d="M130.68,151.91c0,1.44-0.53,2.59-1.59,3.43s-2.47,1.27-4.23,1.27c-2.11,0-3.74-0.23-4.86-0.7v-1.21
			c1.25,0.53,2.84,0.79,4.77,0.79c1.42,0,2.55-0.33,3.38-0.98c0.83-0.65,1.25-1.5,1.25-2.56c0-0.65-0.14-1.2-0.41-1.63
			c-0.28-0.43-0.73-0.82-1.35-1.18c-0.62-0.36-1.54-0.74-2.75-1.15c-1.77-0.61-2.99-1.26-3.66-1.97c-0.67-0.71-1.01-1.65-1.01-2.82
			c0-1.29,0.51-2.35,1.52-3.17c1.01-0.82,2.32-1.22,3.91-1.22c1.63,0,3.15,0.31,4.58,0.92l-0.44,1.04c-1.44-0.6-2.81-0.9-4.12-0.9
			c-1.28,0-2.3,0.3-3.05,0.89s-1.14,1.4-1.14,2.41c0,0.64,0.12,1.16,0.35,1.57s0.61,0.78,1.14,1.11c0.53,0.33,1.44,0.72,2.72,1.18
			c1.35,0.46,2.36,0.92,3.04,1.35c0.68,0.44,1.17,0.93,1.48,1.49C130.53,150.45,130.68,151.12,130.68,151.91z"/>
	</g>
</g>
<g id="Layer_2" class="st0">
	<g class="st1">
		<path class="st3" d="M145.51,31.2c-5.55,0-10.07,4.52-10.07,10.07c0,2.12,0.66,4.14,1.9,5.87c-12.72,18.92-23.5,29.36-29.57,28.62
			c-5.47-0.63-13.56-19.16-20.64-47.24c3.72-1.56,6.19-5.25,6.19-9.28c0-5.55-4.52-10.07-10.07-10.07
			c-5.56,0-10.07,4.52-10.07,10.07c0,4.05,2.38,7.64,6.08,9.24c-7.38,27.59-15.61,45.79-20.98,46.4
			c-5.87,0.68-16.36-9.19-28.78-27.08c1.56-1.83,2.41-4.13,2.41-6.51c0-5.55-4.52-10.07-10.07-10.07c-5.56,0-10.07,4.52-10.07,10.07
			c0,5.33,4.27,9.78,9.56,10.05l21.65,69.99c0.65,2.14,2.6,3.59,4.85,3.59h73.03c2.26,0,4.27-1.52,4.88-3.7l19.6-69.85
			c0.06,0,0.13,0.01,0.19,0.01c5.55,0,10.07-4.52,10.07-10.07S151.06,31.2,145.51,31.2z M123.61,111.66l-2.33,8.29
			c-0.06,0.2-0.24,0.34-0.45,0.34H47.8c-0.21,0-0.38-0.13-0.44-0.33l-2.59-8.3H123.61z M83.16,31.63
			c5.63,21.91,14.27,47.57,24.06,48.7c0.35,0.04,0.71,0.06,1.08,0.06c8.05,0,18.99-10.16,32.53-30.21c0.01,0,0.01,0.01,0.02,0.01
			l-15.95,56.86H43.34L25.95,50.77C39.22,69.84,49.91,79.5,57.74,79.5c0.35,0,0.71-0.02,1.05-0.06
			C68.42,78.34,77.3,53.15,83.16,31.63z M77.77,19.23c0-3.02,2.46-5.47,5.47-5.47c3.02,0,5.47,2.46,5.47,5.47s-2.45,5.47-5.47,5.47
			C80.22,24.71,77.77,22.25,77.77,19.23z M150.98,41.28c0,3.02-2.46,5.47-5.47,5.47c-3.02,0-5.47-2.46-5.47-5.47
			c0-3.02,2.45-5.47,5.47-5.47C148.52,35.8,150.98,38.26,150.98,41.28z M27.29,41.28c0,3.02-2.45,5.47-5.47,5.47
			c-3.02,0-5.47-2.46-5.47-5.47c0-3.02,2.46-5.47,5.47-5.47C24.83,35.8,27.29,38.26,27.29,41.28z"/>
	</g>
	<g class="st1">
		<path class="st3" d="M42.56,156.37h-1.22v-16.16h-5.62v-1.14h12.46v1.14h-5.62V156.37z"/>
		<path class="st3" d="M63.28,156.37h-1.22v-8.51H51.96v8.51h-1.21v-17.3h1.21v7.68h10.11v-7.68h1.22V156.37z"/>
		<path class="st3" d="M77.64,156.37h-9.46v-17.3h9.46v1.11h-8.25v6.54h7.79v1.11h-7.79v7.42h8.25V156.37z"/>
		<path class="st3" d="M89.16,156.37l-6.45-15.97h-0.09c0.06,0.98,0.09,1.98,0.09,3.01v12.97h-1.16v-17.3h1.87l6.13,15.22h0.07
			l6.13-15.22h1.82v17.3h-1.22v-13.11c0-0.92,0.05-1.86,0.14-2.84H96.4l-6.47,15.95H89.16z"/>
		<path class="st3" d="M111.92,156.37h-9.46v-17.3h9.46v1.11h-8.25v6.54h7.79v1.11h-7.79v7.42h8.25V156.37z"/>
		<path class="st3" d="M128.97,147.56c0,2.9-0.76,5.1-2.28,6.58c-1.52,1.49-3.76,2.23-6.71,2.23h-4.14v-17.3h4.67
			c2.76,0,4.86,0.72,6.3,2.17C128.25,142.68,128.97,144.79,128.97,147.56z M127.65,147.6c0-2.48-0.63-4.34-1.89-5.59
			s-3.11-1.88-5.54-1.88h-3.18v15.17h2.86C125.07,155.31,127.65,152.74,127.65,147.6z"/>
	</g>
</g>
</svg>
