<?xml version="1.0" encoding="utf-8"?>
<!-- Generator: Adobe Illustrator 23.0.3, SVG Export Plug-In . SVG Version: 6.00 Build 0)  -->
<svg version="1.1" id="Layer_1" xmlns="http://www.w3.org/2000/svg" xmlns:xlink="http://www.w3.org/1999/xlink" x="0px" y="0px"
	 viewBox="0 0 720 379.33" style="enable-background:new 0 0 720 379.33;" xml:space="preserve">
<style type="text/css">
	.st0{fill:#14A0A9;}
	.st1{fill:#1E2242;}
</style>
<g>
	<path class="st0" d="M248.15,275.54c1.88,0,3.49,0.66,4.83,1.98c1.35,1.32,2.04,2.92,2.07,4.79c0.02,1.92-0.66,3.57-2.06,4.95
		c-1.39,1.37-3.06,2.06-5.01,2.06h-7.6v11.62c0,0.17-0.08,0.25-0.25,0.25h-1.2c-0.17,0-0.25-0.08-0.25-0.25v-25.16
		c0-0.17,0.08-0.25,0.25-0.25H248.15z M248.15,287.65c1.43,0,2.66-0.51,3.68-1.54c1.01-1.01,1.52-2.23,1.52-3.67
		c0-1.44-0.51-2.67-1.52-3.68c-1.02-1.03-2.25-1.54-3.68-1.54h-7.76v10.42H248.15z"/>
	<path class="st0" d="M260.62,301.16c-0.17,0-0.25-0.08-0.25-0.25v-25.08c0-0.17,0.08-0.25,0.25-0.25h1.2
		c0.15,0,0.23,0.08,0.23,0.25v25.08c0,0.17-0.08,0.25-0.23,0.25H260.62z M278.33,289.22h-17.97v-1.7h17.97V289.22z M276.9,301.2
		c-0.17,0-0.25-0.08-0.25-0.25v-25.08c0-0.17,0.08-0.25,0.25-0.25h1.2c0.15,0,0.23,0.08,0.23,0.25v25.08c0,0.17-0.08,0.25-0.23,0.25
		H276.9z"/>
	<path class="st0" d="M291.35,300.2c-1.53-0.66-2.88-1.57-4.08-2.75c-1.18-1.19-2.1-2.55-2.75-4.08c-0.67-1.58-1-3.25-1-4.99
		c0-1.74,0.33-3.4,1-4.99c0.66-1.53,1.57-2.88,2.75-4.08c1.19-1.18,2.55-2.09,4.08-2.74c1.59-0.68,3.25-1.02,4.99-1.02
		s3.4,0.34,4.99,1.02c1.53,0.64,2.88,1.56,4.08,2.74c1.18,1.19,2.09,2.55,2.74,4.08c0.68,1.58,1.02,3.25,1.02,4.99
		c0,1.74-0.34,3.4-1.02,4.99c-0.64,1.53-1.56,2.88-2.74,4.08c-1.19,1.18-2.55,2.1-4.08,2.75c-1.59,0.67-3.25,1-4.99,1
		S292.93,300.86,291.35,300.2z M292.01,278.14c-1.33,0.56-2.52,1.35-3.54,2.38c-1.02,1.03-1.82,2.21-2.38,3.54
		c-0.58,1.38-0.88,2.83-0.88,4.33c0,1.5,0.29,2.94,0.88,4.33c0.56,1.33,1.35,2.51,2.38,3.54s2.21,1.82,3.54,2.38
		c1.38,0.58,2.82,0.88,4.33,0.88s2.94-0.29,4.33-0.88c1.33-0.56,2.51-1.35,3.54-2.38c1.02-1.03,1.82-2.21,2.38-3.54
		c0.58-1.38,0.88-2.83,0.88-4.33c0-1.5-0.29-2.94-0.88-4.33c-0.56-1.33-1.35-2.51-2.38-3.54c-1.03-1.02-2.21-1.82-3.54-2.38
		c-1.38-0.58-2.82-0.88-4.33-0.88S293.39,277.55,292.01,278.14z"/>
	<path class="st0" d="M325.26,275.58c0.17,0,0.25,0.08,0.25,0.25v1.2c0,0.17-0.08,0.25-0.25,0.25h-7.21v23.67
		c0,0.17-0.08,0.25-0.25,0.25h-1.2c-0.15,0-0.23-0.08-0.23-0.25v-23.67h-7.21c-0.17,0-0.25-0.08-0.25-0.25v-1.2
		c0-0.17,0.08-0.25,0.25-0.25H325.26z"/>
	<path class="st0" d="M332.31,300.2c-1.53-0.66-2.88-1.57-4.08-2.75c-1.18-1.19-2.1-2.55-2.75-4.08c-0.67-1.58-1-3.25-1-4.99
		c0-1.74,0.33-3.4,1-4.99c0.66-1.53,1.57-2.88,2.75-4.08c1.19-1.18,2.55-2.09,4.08-2.74c1.59-0.68,3.25-1.02,4.99-1.02
		s3.4,0.34,4.99,1.02c1.53,0.64,2.88,1.56,4.08,2.74c1.18,1.19,2.09,2.55,2.74,4.08c0.68,1.58,1.02,3.25,1.02,4.99
		c0,1.74-0.34,3.4-1.02,4.99c-0.64,1.53-1.56,2.88-2.74,4.08c-1.19,1.18-2.55,2.1-4.08,2.75c-1.59,0.67-3.25,1-4.99,1
		S333.89,300.86,332.31,300.2z M332.97,278.14c-1.33,0.56-2.52,1.35-3.54,2.38c-1.02,1.03-1.82,2.21-2.38,3.54
		c-0.58,1.38-0.88,2.83-0.88,4.33c0,1.5,0.29,2.94,0.88,4.33c0.56,1.33,1.35,2.51,2.38,3.54s2.21,1.82,3.54,2.38
		c1.38,0.58,2.82,0.88,4.33,0.88s2.94-0.29,4.33-0.88c1.33-0.56,2.51-1.35,3.54-2.38c1.02-1.03,1.82-2.21,2.38-3.54
		c0.58-1.38,0.88-2.83,0.88-4.33c0-1.5-0.29-2.94-0.88-4.33c-0.56-1.33-1.35-2.51-2.38-3.54c-1.03-1.02-2.21-1.82-3.54-2.38
		c-1.38-0.58-2.82-0.88-4.33-0.88S334.35,277.55,332.97,278.14z"/>
	<path class="st0" d="M362.93,300.27c-1.68-0.68-3.15-1.67-4.42-2.97c-1.26-1.31-2.21-2.82-2.84-4.52
		c-0.64-1.78-0.88-3.62-0.72-5.52c0.27-3.12,1.55-5.79,3.83-8.01c2.28-2.22,4.98-3.42,8.12-3.61c1.85-0.12,3.62,0.14,5.31,0.79
		c1.69,0.63,3.19,1.59,4.51,2.88c0.12,0.12,0.12,0.24,0,0.36l-0.86,0.84c-0.12,0.11-0.24,0.11-0.36,0c-2.13-2.12-4.71-3.19-7.72-3.2
		c-2.9-0.02-5.42,0.95-7.58,2.93c-2.16,1.99-3.35,4.43-3.58,7.31c-0.12,1.6,0.09,3.13,0.63,4.61c0.51,1.43,1.29,2.7,2.32,3.81
		c1.04,1.12,2.25,1.98,3.63,2.59c1.43,0.64,2.93,0.97,4.51,0.97c2.98,0,5.54-1.03,7.69-3.09v-5.9h-5.36c-0.17,0-0.25-0.08-0.25-0.25
		v-1.2c0-0.17,0.08-0.25,0.25-0.25h6.79c0.17,0,0.25,0.08,0.25,0.25v7.94c0,0.07-0.02,0.13-0.07,0.18l-0.04,0.04
		c-1.16,1.17-2.46,2.1-3.92,2.79c-1.5,0.69-3.06,1.08-4.67,1.16C366.49,301.28,364.67,300.97,362.93,300.27z"/>
	<path class="st0" d="M383.17,289.36v-13.52c0-0.17,0.08-0.25,0.25-0.25h9.19c1.87,0,3.48,0.66,4.83,1.97
		c1.33,1.32,2.02,2.92,2.06,4.79c0.02,1.92-0.66,3.57-2.06,4.95c-1.39,1.37-3.06,2.06-4.99,2.06H383.17z M383.42,301.2
		c-0.17,0-0.25-0.08-0.25-0.25v-15.29h1.68v15.29c0,0.17-0.08,0.25-0.23,0.25H383.42z M384.85,287.66h7.76
		c1.43,0,2.65-0.51,3.67-1.52c1.01-1.01,1.52-2.23,1.52-3.67s-0.51-2.66-1.52-3.68c-1.01-1.01-2.24-1.52-3.67-1.52h-7.76V287.66z
		 M397.33,301.2c-0.1,0-0.17-0.04-0.21-0.13l-6.53-11.92l1.48-0.8l6.83,12.5c0.05,0.07,0.05,0.15,0,0.23
		c-0.05,0.08-0.12,0.13-0.21,0.13H397.33z"/>
	<path class="st0" d="M413.8,275.56c0.11,0,0.18,0.05,0.23,0.14l10.44,25.16c0.04,0.08,0.03,0.16-0.02,0.23s-0.12,0.11-0.21,0.11
		h-1.29c-0.11,0-0.18-0.05-0.23-0.16l-4.34-10.48h-10.69l-4.36,10.48c-0.05,0.11-0.13,0.16-0.23,0.16h-1.29
		c-0.08,0-0.15-0.04-0.21-0.11c-0.05-0.07-0.05-0.15-0.02-0.23l10.44-25.16c0.05-0.09,0.13-0.14,0.23-0.14H413.8z M417.68,288.88
		l-4.65-11.19l-4.65,11.19H417.68z"/>
	<path class="st0" d="M437.15,275.54c1.88,0,3.49,0.66,4.83,1.98c1.35,1.32,2.04,2.92,2.07,4.79c0.02,1.92-0.66,3.57-2.06,4.95
		c-1.39,1.37-3.06,2.06-5.01,2.06h-7.6v11.62c0,0.17-0.08,0.25-0.25,0.25h-1.2c-0.17,0-0.25-0.08-0.25-0.25v-25.16
		c0-0.17,0.08-0.25,0.25-0.25H437.15z M437.15,287.65c1.43,0,2.66-0.51,3.68-1.54c1.01-1.01,1.52-2.23,1.52-3.67
		c0-1.44-0.51-2.67-1.52-3.68c-1.03-1.03-2.25-1.54-3.68-1.54h-7.76v10.42H437.15z"/>
	<path class="st0" d="M449.61,301.16c-0.17,0-0.25-0.08-0.25-0.25v-25.08c0-0.17,0.08-0.25,0.25-0.25h1.2
		c0.15,0,0.23,0.08,0.23,0.25v25.08c0,0.17-0.08,0.25-0.23,0.25H449.61z M467.33,289.22h-17.97v-1.7h17.97V289.22z M465.9,301.2
		c-0.17,0-0.25-0.08-0.25-0.25v-25.08c0-0.17,0.08-0.25,0.25-0.25h1.2c0.16,0,0.23,0.08,0.23,0.25v25.08c0,0.17-0.08,0.25-0.23,0.25
		H465.9z"/>
	<path class="st0" d="M486.12,275.54c0.09,0,0.17,0.04,0.21,0.13c0.05,0.08,0.05,0.17,0,0.25l-7.29,11.58l-0.16,0.27v13.18
		c0,0.17-0.08,0.25-0.25,0.25h-1.2c-0.15,0-0.23-0.08-0.23-0.25v-13.21l-7.44-11.82c-0.05-0.08-0.05-0.17,0-0.25
		c0.05-0.08,0.12-0.13,0.21-0.13h1.41c0.1,0,0.17,0.04,0.21,0.11l6.44,10.26l6.45-10.26c0.05-0.07,0.12-0.11,0.21-0.11H486.12z"/>
</g>
<g>
	<path class="st1" d="M133.22,199.87v3.23c0,0.89,0,1.75,0,2.57c0,0.83-0.13,1.62-0.38,2.38c0,0.38,0.09,0.7,0.29,0.95
		c0.19,0.26,0.29,0.57,0.29,0.95h0.38v-0.38c1.14-2.92,2.5-5.77,4.09-8.56c1.58-2.79,3.2-5.45,4.85-7.99
		c2.03-3.42,4.06-6.82,6.09-10.18c2.03-3.36,4.31-6.63,6.85-9.8c1.77-2.54,3.62-4.98,5.52-7.33c1.9-2.34,4-4.66,6.28-6.94
		c1.9-2.54,4.63-4.95,8.18-7.23c1.01-0.89,2.03-1.65,3.04-2.28c1.01-0.63,2.03-1.27,3.04-1.9c2.28-1.39,4.82-2.47,7.61-3.23h1.33
		c1.01,0,1.77,0.13,2.28,0.38c0.51,0.26,1.08,0.57,1.71,0.95c3.3,2.41,5.2,5.2,5.71,8.37c0.25,0.89,0.41,1.71,0.48,2.47
		c0.06,0.76,0.1,1.59,0.1,2.47v2.09v1.71c0,2.79-0.19,5.71-0.57,8.75c-0.26,2.03-0.64,3.97-1.14,5.8c-0.51,1.84-0.95,3.78-1.33,5.8
		c-0.38,1.65-0.73,3.27-1.05,4.85c-0.32,1.59-0.6,3.08-0.86,4.47c-0.64,1.78-1.17,3.49-1.62,5.14c-0.45,1.65-0.98,3.3-1.62,4.95
		c-0.64,2.16-1.27,4.25-1.9,6.28c-0.64,2.03-1.21,4.12-1.71,6.28c-2.54,6.98-4.69,14.43-6.47,22.36
		c-1.78,7.93-3.93,15.51-6.47,22.74l-1.33,4.19c-0.38,0.89-0.92,2.41-1.62,4.57c-0.7,2.16-1.43,4.47-2.19,6.95
		c-0.76,2.47-1.49,4.85-2.19,7.13c-0.7,2.28-1.24,4-1.62,5.14c-0.26,0.5-0.57,1.05-0.95,1.62c-0.38,0.57-0.57,1.17-0.57,1.81
		c0,0.25-0.19,0.44-0.57,0.57c-0.38,0.13-0.7,0.19-0.95,0.19h-0.19c-0.64-0.13-1.17-0.19-1.62-0.19c-0.45,0-0.79-0.19-1.05-0.57
		c-0.13,0-0.35-0.07-0.67-0.19c-0.32-0.13-0.54-0.19-0.67-0.19c-1.02-0.51-1.59-1.08-1.71-1.71c0.25-0.64,0.41-1.37,0.48-2.19
		c0.06-0.83,0.22-1.68,0.48-2.57c0.51-4.31,1.39-8.63,2.66-12.94c0.13-1.78,0.41-3.46,0.86-5.04c0.44-1.59,0.86-3.27,1.24-5.04
		c0.38-2.28,0.79-4.5,1.24-6.66c0.44-2.16,1.05-4.38,1.81-6.66c0.25-2.16,0.7-4.28,1.33-6.37c0.63-2.09,1.27-4.28,1.9-6.56
		c0.63-2.03,1.27-4.12,1.9-6.28c0.63-2.16,1.2-4.31,1.71-6.47c0.76-3.17,1.68-6.31,2.76-9.42c1.08-3.11,2.12-6.18,3.14-9.23
		c0.63-2.03,1.33-4.12,2.09-6.28c0.76-2.16,1.52-4.25,2.28-6.28l3.23-8.94c0.63-1.77,1.27-3.49,1.9-5.14
		c0.63-1.65,1.14-3.36,1.52-5.14c0.63-1.52,1.2-3.2,1.71-5.04c0.51-1.84,0.95-3.64,1.33-5.42c0.25-0.63,0.51-1.58,0.76-2.85
		c0.25-1.27,0.38-2.47,0.38-3.61v-0.76c0-0.5,0-1.01,0-1.52c0-0.51-0.07-0.82-0.19-0.95c-0.26-0.38-0.64-0.6-1.14-0.67
		c-0.51-0.06-1.02-0.1-1.52-0.1c-1.02,0-2.13,0.19-3.33,0.57c-1.21,0.38-2.13,0.7-2.76,0.95c-1.4,0.64-2.63,1.43-3.71,2.38
		c-1.08,0.95-2.13,1.87-3.14,2.76c-5.84,5.2-11.13,10.69-15.89,16.46c-4.76,5.77-9.04,11.89-12.84,18.36
		c-2.41,4.19-4.73,8.44-6.94,12.75c-2.22,4.31-4.41,8.69-6.56,13.13c-1.02,2.03-2.03,4.09-3.04,6.18c-1.02,2.09-1.97,4.16-2.85,6.18
		c-0.89,2.03-1.52,4.19-1.9,6.47c-0.38,2.28-0.7,4.44-0.95,6.47c-0.26,1.02-0.45,1.75-0.57,2.19c-0.13,0.45-0.45,0.67-0.95,0.67
		c-0.89,0-1.78-0.7-2.66-2.09c-2.28-2.03-3.62-4.31-4-6.85c0-1.27,0.06-2.5,0.19-3.71c0.13-1.2,0.51-2.44,1.14-3.71
		c1.39-6.47,2.47-12.87,3.23-19.22c0.76-6.34,1.14-12.87,1.14-19.6v-4.38v-1.52c0-0.89-0.16-1.68-0.48-2.38
		c-0.32-0.7-0.67-1.24-1.05-1.62c-1.14-0.76-2.47-1.14-4-1.14c-1.65,0-3.11,0.38-4.38,1.14c-2.92,2.28-4.63,5.07-5.14,8.37
		c-0.51,3.3-0.89,6.41-1.14,9.32c-0.26,1.65-0.51,3.3-0.76,4.95c-0.26,1.65-0.64,3.3-1.14,4.95c-0.64,4.06-1.46,8.06-2.47,11.99
		c-1.02,3.93-2.22,7.8-3.62,11.6c-0.64,2.79-1.46,5.39-2.47,7.8c-0.89,1.78-1.68,3.55-2.38,5.33c-0.7,1.78-1.68,3.55-2.95,5.33
		c-0.76,0.76-1.46,1.52-2.09,2.28c-0.64,0.76-1.4,1.39-2.28,1.9c-1.02,1.01-2.28,1.52-3.81,1.52c-0.13,0.25-0.38,0.41-0.76,0.48
		c-0.38,0.06-0.64,0.1-0.76,0.1c-0.76,0-1.27-0.19-1.52-0.57c-2.16-0.64-4-1.65-5.52-3.04c-0.76-1.01-1.4-2.22-1.9-3.61
		c0-0.63-0.07-1.33-0.19-2.09c-0.13-0.76-0.26-1.58-0.38-2.47c0-0.38,0-0.79,0-1.24c0-0.44,0.13-0.86,0.38-1.24
		c0.25-2.92,0.86-5.9,1.81-8.94s2.12-6.09,3.52-9.13c1.39-3.17,2.92-6.21,4.57-9.13c1.65-2.92,3.3-5.9,4.95-8.94l7.99-10.84
		c0.63-0.89,1.14-1.71,1.52-2.47c0.38-0.76,0.57-1.65,0.57-2.66c0.13-1.52,0.25-2.98,0.38-4.38c0.12-1.39,0.31-2.85,0.57-4.38
		c0.25-1.01,0.38-2.12,0.38-3.33c0-1.2,0-2.44,0-3.71v-5.14c-0.13-0.89-0.19-1.81-0.19-2.76s0-1.81,0-2.57
		c-0.13-1.27-0.38-2.6-0.76-4c-0.38-1.39-0.7-2.79-0.95-4.19c-0.26-1.14-0.54-2.31-0.86-3.52c-0.32-1.2-0.73-2.44-1.24-3.71
		c-0.64-0.89-0.95-1.58-0.95-2.09c-0.64-1.27-1.62-2.19-2.95-2.76c-1.33-0.57-2.7-0.86-4.09-0.86c-0.76,0-1.43,0.03-2,0.1
		c-0.57,0.07-1.17,0.35-1.81,0.86c-0.13,0-0.38,0.07-0.76,0.19c-0.38,0.13-0.7,0.32-0.95,0.57c-1.02,0.89-1.97,1.62-2.85,2.19
		c-0.89,0.57-1.65,1.3-2.28,2.19c-2.41,2.92-4.57,5.87-6.47,8.85c-1.9,2.98-3.55,6.12-4.95,9.42c-1.02,2.54-1.84,4.98-2.47,7.32
		c-0.64,2.35-1.14,4.66-1.52,6.94c-0.13,1.4-0.26,2.82-0.38,4.28c-0.13,1.46-0.19,2.89-0.19,4.28v1.33v3.04
		c0.13,2.28,0.35,4.54,0.67,6.75c0.31,2.22,0.79,4.47,1.43,6.75c0,0.38,0.1,0.79,0.29,1.24c0.19,0.45,0.41,0.86,0.67,1.24
		c0.76,1.02,1.27,1.84,1.52,2.47c0.76,0.26,1.14,0.64,1.14,1.14v0.19c0,0.13-0.19,0.19-0.57,0.19h-0.38c-0.13,0-0.32-0.13-0.57-0.38
		c-1.27-0.5-2.22-1.08-2.85-1.71c-0.64-0.63-1.27-1.46-1.9-2.47l-2.09-4.76c-0.64-1.39-1.08-2.88-1.33-4.47
		c-0.25-1.58-0.57-3.14-0.95-4.66c-0.25-1.14-0.41-2.28-0.48-3.42c-0.06-1.14-0.16-2.41-0.29-3.8c0-1.14,0-2.31,0-3.52
		c0-1.2,0.13-2.44,0.38-3.71c0-0.5,0.03-1.08,0.1-1.71c0.07-0.63,0.22-1.2,0.48-1.71c0.26-2.92,0.7-5.9,1.33-8.94
		c0.63-3.04,1.65-6.02,3.04-8.94c0.89-1.77,1.74-3.62,2.57-5.52c0.82-1.9,1.87-3.61,3.14-5.14c0.25-0.25,0.51-0.57,0.76-0.95
		c0.25-0.38,0.51-0.63,0.76-0.76c0.63-1.65,1.62-3.2,2.95-4.66c1.33-1.46,2.82-2.88,4.47-4.28c0.63-0.25,1.14-0.57,1.52-0.95
		c0.38-0.38,0.82-0.76,1.33-1.14c1.01-0.38,1.96-0.73,2.85-1.05c0.89-0.31,1.77-0.48,2.66-0.48c0.63,0,1.39,0.1,2.28,0.29
		c0.89,0.19,1.65,0.54,2.28,1.05c5.33,1.52,9.13,4.31,11.42,8.37c1.27,1.52,2.28,3.11,3.04,4.76c0.76,1.65,1.65,3.49,2.66,5.52
		c0.51,1.4,0.89,2.82,1.14,4.28c0.25,1.46,0.51,2.95,0.76,4.47c0.25,1.02,0.44,1.93,0.57,2.76c0.13,0.83,0.31,1.74,0.57,2.76
		c0,1.4,0.03,2.73,0.1,4c0.06,1.27,0.22,2.54,0.48,3.8v0.76l0.57,0.38l1.33-1.14c0.63-0.5,1.3-0.98,2-1.43
		c0.7-0.44,1.36-0.79,2-1.05c1.01-0.51,1.9-0.79,2.66-0.86c0.76-0.06,1.46-0.1,2.09-0.1h1.71c1.27,0.26,2.41,0.7,3.42,1.33
		c1.01,0.64,1.84,1.52,2.47,2.66c0.63,0.64,1.14,1.36,1.52,2.19c0.38,0.83,0.76,1.81,1.14,2.95c0.13,2.41,0.63,5.2,1.52,8.37
		c0,1.4,0,2.73,0,4C133.02,197.52,133.09,198.73,133.22,199.87z M82.42,140.89v-0.19h-0.19c-1.14,0.38-2.16,0.92-3.04,1.62
		c-0.89,0.7-1.78,1.55-2.66,2.57v0.57c1.27-0.63,2.31-1.39,3.14-2.28C80.48,142.29,81.4,141.52,82.42,140.89z M78.8,246.67
		c0.25,0.76,0.44,1.55,0.57,2.38c0.13,0.83,0.32,1.81,0.57,2.95c0.51,0.64,0.95,0.95,1.33,0.95c0.63,0,1.14-0.19,1.52-0.57
		c0.76-0.51,1.2-1.08,1.33-1.71c0.63-0.89,1.24-1.71,1.81-2.47c0.57-0.76,1.05-1.58,1.43-2.47c0.38-1.27,0.86-2.57,1.43-3.9
		s1.05-2.69,1.43-4.09l3.04-10.84c0.63-2.92,1.24-5.74,1.81-8.47c0.57-2.73,1.17-5.36,1.81-7.9c0.25-1.14,0.44-2.12,0.57-2.95
		c0.13-0.82,0.31-1.74,0.57-2.76h-0.57c-0.26,0.13-0.51,0.29-0.76,0.48c-0.26,0.19-0.51,0.41-0.76,0.67
		c-0.76,2.03-1.97,3.87-3.62,5.52c-1.52,2.66-2.92,5.39-4.19,8.18c-1.27,2.79-2.6,5.46-4,7.99c-1.02,2.16-1.87,4.28-2.57,6.37
		c-0.7,2.09-1.3,4.28-1.81,6.56c-0.26,1.02-0.41,2.03-0.48,3.04C79.21,244.65,79.05,245.66,78.8,246.67z M83.75,142.6
		c-0.64,0.26-1.27,0.6-1.9,1.05c-0.64,0.45-1.27,0.86-1.9,1.24v0.57h0.57c0.38-0.38,0.82-0.73,1.33-1.05
		c0.51-0.32,0.95-0.73,1.33-1.24C83.56,143.17,83.75,142.98,83.75,142.6z M87.55,251.43V252h0.57c0-0.25,0.03-0.48,0.1-0.67
		c0.06-0.19,0.1-0.41,0.1-0.67C88.19,251.05,87.93,251.3,87.55,251.43z M88.69,249.53c-0.26,0.13-0.38,0.51-0.38,1.14h0.38
		c1.9-2.41,3.23-4.88,4-7.42v-0.57c-0.51,0.51-0.76,0.89-0.76,1.14c-0.64,0.64-1.05,1.24-1.24,1.81c-0.19,0.57-0.35,1.11-0.48,1.62
		l-0.95,0.95c-0.13,0.38-0.26,0.64-0.38,0.76C88.76,249.08,88.69,249.27,88.69,249.53z M89.46,246.29l-0.38,0.38
		c0,0.13,0.03,0.22,0.1,0.29c0.06,0.07,0.1,0.16,0.1,0.29c-0.38,0.26-0.57,0.45-0.57,0.57h0.57v-0.57v-0.38
		c0-0.13,0.03-0.22,0.1-0.29C89.42,246.52,89.46,246.42,89.46,246.29z M89.46,246.29h0.19c0.25,0,0.38-0.19,0.38-0.57h-0.57V246.29z
		 M89.65,252.38l-0.19,0.19l0.19,0.19V252.38z M90.22,251.43c0.89-0.25,1.46-0.67,1.71-1.24c0.25-0.57,0.51-1.17,0.76-1.81
		c-0.64,0.38-1.11,0.83-1.43,1.33C90.95,250.23,90.6,250.8,90.22,251.43z M93.45,247.24c-0.38,0.26-0.57,0.45-0.57,0.57
		C93.26,247.81,93.45,247.62,93.45,247.24z M93.64,240.58h-0.38v0.38L93.64,240.58z M93.64,240.58v-0.19c0-0.25,0.06-0.38,0.19-0.38
		c0.12,0,0.19-0.06,0.19-0.19v-0.57l-0.57,0.57C93.45,239.95,93.51,240.2,93.64,240.58z M111.91,180.84l0.38-0.19
		C112.16,180.78,112.03,180.84,111.91,180.84z M177.17,232.59l-0.19-0.19l-0.19,0.19h-0.19v0.38v0.38c-0.26,1.27-0.6,2.51-1.05,3.71
		c-0.45,1.21-0.79,2.38-1.05,3.52c-1.27,4.19-2.41,8.31-3.42,12.37c-1.02,4.06-2.22,8.31-3.61,12.75c-0.89,3.3-1.81,6.63-2.76,9.99
		c-0.95,3.36-1.94,6.69-2.95,9.99c-0.26,0.63-0.41,1.2-0.48,1.71c-0.07,0.51-0.1,1.01-0.1,1.52c0.38-0.13,0.57-0.38,0.57-0.76
		c0.76-2.03,1.36-3.97,1.81-5.8c0.44-1.84,1.05-3.78,1.81-5.8c0.89-2.66,1.65-5.23,2.28-7.71c0.63-2.47,1.46-5.04,2.47-7.71
		c1.01-4.44,2.09-8.91,3.23-13.41c1.14-4.5,2.35-8.97,3.61-13.41c0-0.13,0.03-0.31,0.1-0.57c0.06-0.25,0.1-0.51,0.1-0.76V232.59z
		 M163.28,288.15c0,0.5,0.19,0.76,0.57,0.76l0.19-0.19c0-0.38,0.1-0.73,0.29-1.05c0.19-0.32,0.29-0.73,0.29-1.24
		c0.63-2.16,1.3-4.28,2-6.37c0.7-2.09,1.49-4.16,2.38-6.18c2.54-6.98,4.69-14.14,6.47-21.5l0.19-0.19c0.25-0.25,0.38-0.51,0.38-0.76
		h-0.38c-0.13,0-0.19-0.06-0.19-0.19v0.19c-0.38,0.38-0.57,0.89-0.57,1.52c-1.4,3.55-2.6,7.04-3.61,10.46
		c-1.02,3.42-2.03,6.97-3.04,10.66c-1.02,2.54-1.84,4.98-2.47,7.32C165.11,283.74,164.29,285.99,163.28,288.15z M164.23,272.36h0.57
		v-0.19l-0.38,0.19H164.23z M165.18,270.07l-0.19,0.19l0.19,0.38V270.07z M165.18,269.88c0.38,0,0.57-0.32,0.57-0.95
		c0-0.25-0.03-0.41-0.1-0.48c-0.07-0.07-0.1-0.16-0.1-0.29c-0.13,0.25-0.16,0.51-0.1,0.76C165.53,269.19,165.43,269.5,165.18,269.88
		z M165.94,266.65v0.57c0.12-0.26,0.16-0.45,0.09-0.57c-0.07-0.13,0.03-0.32,0.29-0.57C166.06,266.33,165.94,266.52,165.94,266.65z
		 M166.32,265.32v0.76c0.38-0.38,0.57-0.95,0.57-1.71C166.51,264.75,166.32,265.06,166.32,265.32z M173.17,238.87
		c-0.13,0.26-0.22,0.45-0.29,0.57c-0.07,0.13-0.1,0.32-0.1,0.57c0,0.13,0.03,0.26,0.1,0.38c0.06,0.13,0.1,0.32,0.1,0.57
		c-0.26,0.26-0.45,0.54-0.57,0.86c-0.13,0.32-0.32,0.6-0.57,0.86c-0.64,3.17-1.4,6.34-2.28,9.51c-0.89,3.17-1.78,6.4-2.66,9.7v2.28
		l0.57-0.57c0.89-3.68,1.74-7.23,2.57-10.65c0.82-3.42,1.81-6.97,2.95-10.65v-1.33C173.1,240.33,173.17,239.63,173.17,238.87z
		 M173.17,238.87c0.38-0.25,0.57-0.63,0.57-1.14C173.36,238.11,173.17,238.49,173.17,238.87z M182.49,149.83
		c-0.64,0-0.95,0.19-0.95,0.57C181.79,150.4,182.11,150.21,182.49,149.83z M183.82,148.88h-0.76v0.57
		C183.57,149.45,183.82,149.26,183.82,148.88z M184.78,148.69c-0.64,0-0.95,0.07-0.95,0.19
		C184.46,148.88,184.78,148.82,184.78,148.69z M185.92,148.12h0.38l0.76-0.38c0.51,0,0.95-0.19,1.33-0.57
		c-0.89,0-1.33,0.07-1.33,0.19c-0.76,0-1.21,0.13-1.33,0.38c-0.26,0-0.57,0.32-0.95,0.95C185.54,148.69,185.92,148.5,185.92,148.12z
		 M186.68,149.83c0-0.25,0.13-0.38,0.38-0.38h-0.38V149.83z M187.25,149.45c0.13,0,0.38-0.19,0.76-0.57
		C187.5,148.88,187.25,149.07,187.25,149.45z M188.96,148.88v-0.19h-0.38l-0.57,0.19H188.96z"/>
	<path class="st1" d="M265.63,218.13c0.12-0.12,0.31-0.19,0.57-0.19c0.25,0,0.48,0.13,0.67,0.38c0.19,0.26,0.41,0.45,0.67,0.57
		c0.13,0,0.19,0.19,0.19,0.57c-0.26,0.64-0.45,1.21-0.57,1.71c-0.13,0.51-0.32,1.02-0.57,1.52c-1.9,3.17-3.78,6.25-5.61,9.23
		c-1.84,2.98-3.84,5.93-5.99,8.85c-0.76,1.14-1.62,2.32-2.57,3.52c-0.95,1.21-1.87,2.51-2.76,3.9l-5.14,4.57
		c-1.14,0.64-2.16,1.14-3.04,1.52c-0.89,0.38-1.84,0.57-2.85,0.57c-1.27,0-2.66-0.38-4.19-1.14c-1.4-0.63-2.73-1.49-4-2.57
		c-1.27-1.08-2.35-2.31-3.23-3.71c-1.02-1.77-1.65-3.8-1.9-6.09c0-0.51-0.03-1.01-0.1-1.52c-0.07-0.5-0.09-1.01-0.09-1.52
		c-0.13-0.38-0.19-0.89-0.19-1.52c0.63-6.59,1.77-12.87,3.42-18.83c0.25-0.63,0.51-1.27,0.76-1.9c0.25-0.63,0.38-1.27,0.38-1.9
		v-0.38c-0.64,0.26-0.98,0.6-1.05,1.05c-0.06,0.45-0.22,0.98-0.48,1.62l-7.23,12.75c-1.02,1.9-2.06,3.74-3.14,5.52
		c-1.08,1.78-2.25,3.55-3.52,5.33c-0.64,1.02-1.36,1.94-2.19,2.76c-0.83,0.83-1.68,1.75-2.57,2.76c-0.51,0.64-1.14,1.17-1.9,1.62
		c-0.76,0.45-1.46,0.79-2.09,1.05c-0.26,0.13-0.64,0.19-1.14,0.19c-0.38,0-1.08-0.13-2.09-0.38c-1.02-0.38-1.94-0.98-2.76-1.81
		c-0.83-0.82-1.75-1.68-2.76-2.57c-1.39-1.01-2.09-2.41-2.09-4.19c0-0.25,0.03-0.41,0.1-0.48c0.07-0.06,0.1-0.22,0.1-0.48
		c0-0.38-0.03-0.79-0.1-1.24c-0.06-0.44-0.1-0.86-0.1-1.24c0-1.9,0.16-3.71,0.48-5.42c0.32-1.71,0.79-3.39,1.43-5.04
		c0.38-1.52,0.86-3.04,1.43-4.57c0.57-1.52,1.17-2.98,1.81-4.38c1.77-3.42,3.93-6.78,6.47-10.08c0.51-0.89,0.82-1.33,0.95-1.33
		c0.63-1.01,1.33-1.74,2.09-2.19c0.76-0.44,1.52-0.98,2.28-1.62c0.51-0.38,1.01-0.57,1.52-0.57c0.25,0,0.51-0.03,0.76-0.09
		c0.25-0.06,0.51-0.09,0.76-0.09c1.39,0,2.92,0.32,4.57,0.95c1.65,0.64,3.11,1.59,4.38,2.85c0.38,0.38,0.67,0.83,0.86,1.33
		c0.19,0.51,0.41,1.02,0.67,1.52c0,0.13,0.03,0.26,0.1,0.38c0.06,0.13,0.1,0.32,0.1,0.57c0,0.51-0.19,0.95-0.57,1.33
		c-0.26,0.26-0.45,0.38-0.57,0.38c-0.13,0-0.45-0.13-0.95-0.38l-3.04-2.28c-0.26-0.25-0.51-0.38-0.76-0.38
		c-0.26,0-0.45,0.07-0.57,0.19l-2.28,2.09c-0.89,1.02-1.68,2.03-2.38,3.04c-0.7,1.02-1.43,2.03-2.19,3.04
		c-1.4,2.54-2.57,5.07-3.52,7.61c-0.95,2.54-1.87,5.14-2.76,7.8c-0.51,1.02-0.86,2.03-1.05,3.04c-0.19,1.02-0.41,2.03-0.67,3.04
		c-0.13,0.26-0.19,0.6-0.19,1.05c0,0.45,0,0.79,0,1.05c0,0.26,0.13,0.51,0.38,0.76h0.19c0.25,0,0.44-0.06,0.57-0.19
		c1.65-1.52,3.2-3.17,4.66-4.95c1.46-1.78,2.82-3.74,4.09-5.9c2.03-2.92,4.03-5.8,5.99-8.66c1.96-2.85,3.9-5.74,5.8-8.66
		c1.14-1.9,2.44-3.87,3.9-5.9c1.46-2.03,2.88-4,4.28-5.9l3.61-5.14c0.51-0.76,0.89-1.14,1.14-1.14c0.13,0,0.57,0.13,1.33,0.38
		c0.38,0.26,0.82,0.45,1.33,0.57c0.51,0.13,0.89,0.32,1.14,0.57c0.89,0.89,1.33,1.71,1.33,2.47c0,0.26-0.03,0.45-0.1,0.57
		c-0.07,0.13-0.1,0.32-0.1,0.57l-2.09,6.47c-1.02,3.42-2.03,6.88-3.04,10.37c-1.02,3.49-1.97,7.01-2.85,10.56
		c-0.26,1.52-0.54,3.04-0.86,4.57c-0.32,1.52-0.6,3.17-0.86,4.95c-0.13,1.02-0.22,2.03-0.29,3.04c-0.07,1.02-0.1,2.03-0.1,3.04
		c0,0.76,0.03,1.49,0.1,2.19c0.06,0.7,0.1,1.43,0.1,2.19c0,0.76,0.09,1.4,0.29,1.9c0.19,0.51,0.41,1.08,0.67,1.71
		c0.51,0.89,1.33,1.33,2.47,1.33h0.57c0.25-0.13,0.57-0.19,0.95-0.19c0.38,0,0.7-0.13,0.95-0.38c0.63-0.63,1.3-1.24,2-1.81
		c0.7-0.57,1.36-1.24,2-2c1.77-1.9,3.55-3.87,5.33-5.9c1.77-2.03,3.36-4.25,4.76-6.66c1.39-1.9,2.73-3.8,4-5.71
		c1.27-1.9,2.6-3.87,4-5.9c0.38-0.51,0.67-1.05,0.86-1.62c0.19-0.57,0.41-1.17,0.67-1.81l1.33-1.14c0.12-0.13,0.31-0.19,0.57-0.19
		c0.25,0,0.44,0.07,0.57,0.19c0.25,0.13,0.35,0.22,0.29,0.29C265.47,217.91,265.51,218.01,265.63,218.13z M208.94,210.14
		c-1.14,0.38-1.71,1.08-1.71,2.09l-0.76,0.57c-1.52,2.28-2.85,4.79-4,7.52c-1.14,2.73-2.09,5.49-2.85,8.28
		c-0.26,0.76-0.38,1.33-0.38,1.71c0,0.38,0.06,0.7,0.19,0.95c-0.51,0.13-0.76,0.51-0.76,1.14c0,0.13,0.03,0.22,0.1,0.29
		c0.06,0.06,0.1,0.16,0.1,0.29c0,0.13-0.03,0.19-0.1,0.19c-0.07,0-0.1,0.07-0.1,0.19c-0.13,0-0.13,0.07,0,0.19
		c0-0.13,0.03-0.22,0.1-0.29c0.06-0.06,0.1-0.16,0.1-0.29c0.38-0.25,0.57-0.89,0.57-1.9c0.25-0.13,0.57-0.7,0.95-1.71
		c0.76-2.54,1.62-5.04,2.57-7.51c0.95-2.47,2.12-4.85,3.52-7.13c0.25-0.25,0.41-0.63,0.48-1.14c0.06-0.51,0.22-0.95,0.48-1.33
		C207.92,212.11,208.43,211.41,208.94,210.14z M199.33,225.93c0.06,0,0.1-0.06,0.1-0.19l-0.19,0.38
		C199.23,226,199.26,225.93,199.33,225.93z M200.19,222.89c0-0.13,0.03-0.22,0.09-0.29c0.06-0.06,0.1-0.16,0.1-0.29
		c-0.26,0-0.38,0.13-0.38,0.38L200.19,222.89z M204.56,223.84c-0.38,0.38-0.51,0.57-0.38,0.57L204.56,223.84z M205.13,222.89
		c0.25-0.13,0.38-0.5,0.38-1.14C205.26,222.26,205.13,222.64,205.13,222.89z M205.51,221.75c0.25-0.13,0.38-0.32,0.38-0.57v-0.57
		C205.64,220.86,205.51,221.24,205.51,221.75z M205.89,220.61c0.63-0.25,1.01-0.76,1.14-1.52
		C206.27,219.21,205.89,219.72,205.89,220.61z M207.04,219.09c0.25-0.13,0.38-0.51,0.38-1.14
		C207.16,218.07,207.04,218.45,207.04,219.09z M207.42,217.94c0.76-0.51,1.14-1.39,1.14-2.66c-0.76,0.38-1.14,1.08-1.14,2.09V217.94
		z M209.51,213.38c-0.64,0.38-0.95,1.02-0.95,1.9c0.63-0.25,0.95-0.63,0.95-1.14v-0.57c0.76-0.13,1.14-0.63,1.14-1.52
		C210.14,212.17,209.76,212.62,209.51,213.38z M208.94,210.14c0.51-0.51,0.76-1.08,0.76-1.71c-0.51,0.26-0.76,0.7-0.76,1.33V210.14z
		 M211.03,211.28c0.76-0.25,1.14-0.7,1.14-1.33C211.41,210.21,211.03,210.65,211.03,211.28z M257.07,232.02
		c-0.26,0.25-0.38,0.51-0.38,0.76L257.07,232.02z M260.69,226.89c-0.26,0.13-0.38,0.22-0.38,0.29c0,0.07-0.07,0.16-0.19,0.29
		l0.38-0.38L260.69,226.89z M262.78,222.89c0.38-0.13,0.57-0.25,0.57-0.38c-0.13,0-0.26,0.07-0.38,0.19L262.78,222.89z
		 M263.92,221.75c0,0.26-0.13,0.38-0.38,0.38c0.12,0,0.25-0.06,0.38-0.19V221.75z M264.87,218.7v0.38c0-0.13,0.03-0.19,0.1-0.19
		c0.06,0,0.1-0.06,0.1-0.19H264.87z"/>
	<path class="st1" d="M300.26,203.67c0,0.26-0.07,0.45-0.19,0.57c-0.51,0.26-0.95,0.38-1.33,0.38c-1.02,0.26-2.03,0.6-3.04,1.05
		c-1.02,0.45-2.03,1.11-3.04,2c-2.16,1.65-4.38,3.81-6.66,6.47c-2.16,2.92-4.28,5.84-6.37,8.75c-2.09,2.92-4.16,6.03-6.18,9.32
		l-4.57,8.75c-1.02,1.65-1.71,3.74-2.09,6.28c-0.26,1.27-0.6,2.47-1.05,3.62c-0.45,1.14-0.79,2.22-1.05,3.23
		c-0.13,0.63-0.57,1.33-1.33,2.09c-0.26,0.25-0.51,0.38-0.76,0.38c-0.51,0-0.83-0.19-0.95-0.57c0-0.38-0.06-0.7-0.19-0.95
		c-0.13-0.26-0.38-0.38-0.76-0.38c-0.89-0.13-1.33-0.51-1.33-1.14v-0.57c0-0.25,0.03-0.44,0.1-0.57c0.06-0.13,0.09-0.32,0.09-0.57
		v-0.38h-0.38c-0.13,0.26-0.26,0.45-0.38,0.57c-0.13,0.13-0.26,0.32-0.38,0.57V252c0-0.51-0.26-0.76-0.76-0.76
		c-0.64-0.13-0.95-0.44-0.95-0.95c0-0.13,0.12-0.7,0.38-1.71c0.13-1.01,0.25-2.12,0.38-3.33c0.13-1.2,0.32-2.38,0.57-3.52
		c0.38-2.16,0.79-4.19,1.24-6.09c0.44-1.9,0.79-3.8,1.05-5.71c0.38-1.78,0.79-3.49,1.24-5.14c0.44-1.65,0.79-3.23,1.05-4.76
		c0-1.27,0.25-2.35,0.76-3.23c0.38-1.9,0.82-3.62,1.33-5.14c0.76-2.41,1.43-4.76,2-7.04s0.98-4.69,1.24-7.23
		c0.25-0.25,0.51-0.51,0.76-0.76c0.25-0.25,0.57-0.5,0.95-0.76c0.25-0.13,0.35-0.22,0.29-0.29c-0.07-0.06-0.03-0.1,0.1-0.1h0.38
		l2.47,0.76c0.38,0.38,0.57,0.83,0.57,1.33h0.38c0.51,0,0.95,0.19,1.33,0.57c0.12,0.38,0.25,0.76,0.38,1.14
		c0.13,0.38,0.31,0.64,0.57,0.76c0.38,0.26,0.57,0.64,0.57,1.14c0,0.64-0.03,1.11-0.1,1.43c-0.07,0.32-0.1,0.6-0.1,0.86
		c-0.26,0.89-0.6,2.03-1.05,3.42c-0.45,1.4-0.92,2.89-1.43,4.47c-0.51,1.59-1.02,3.14-1.52,4.66c-0.51,1.52-0.89,2.79-1.14,3.81
		c0,0.76-0.07,1.27-0.19,1.52c0,0.13,0.03,0.19,0.1,0.19c0.06,0,0.1,0.07,0.1,0.19h0.57l1.14-0.95l9.13-13.13
		c2.66-2.66,5.45-4.88,8.37-6.66c1.52-0.63,2.79-0.95,3.81-0.95c0.63,0,1.58,0.13,2.85,0.38c1.39,0.13,2.41,1.14,3.04,3.04V203.67z
		 M282.19,216.61c0.12-0.13,0.19-0.57,0.19-1.33c-0.64,0.64-1.21,1.27-1.71,1.9c-0.51,0.64-1.02,1.46-1.52,2.47
		c-0.13,0.13-0.19,0.32-0.19,0.57c-0.51,0.25-0.95,0.64-1.33,1.14c-0.38,0.51-0.7,1.08-0.95,1.71c-0.26,0.38-0.57,0.79-0.95,1.24
		c-0.38,0.45-0.7,0.98-0.95,1.62c-0.89,0.76-1.33,1.59-1.33,2.47c-0.76,1.02-1.3,2-1.62,2.95c-0.32,0.95-0.73,1.93-1.24,2.95v0.57
		h0.57c0.89-1.65,1.65-3.68,2.28-6.09c0.25-0.25,0.54-0.57,0.86-0.95c0.31-0.38,0.6-0.82,0.86-1.33c0.38-0.51,0.73-0.98,1.05-1.43
		c0.31-0.44,0.6-1.05,0.86-1.81c0.38-0.38,0.76-0.79,1.14-1.24c0.38-0.44,0.63-0.98,0.76-1.62c0-0.13,0.13-0.31,0.38-0.57
		c0.63-0.51,1.17-1.05,1.62-1.62C281.39,217.66,281.81,217.12,282.19,216.61z M271.34,227.08c0,0.26,0.12,0.45,0.38,0.57l0.38-0.19
		l0.38-0.19c0.76-1.39,1.62-2.79,2.57-4.19c0.95-1.39,1.93-2.79,2.95-4.19l0.57-1.52c0.76-0.89,1.52-1.77,2.28-2.66
		c0.76-0.89,1.46-1.84,2.09-2.85l0.57-0.95c-1.02,0.64-1.9,1.49-2.66,2.57c-0.76,1.08-1.52,2.13-2.28,3.14
		c-0.13,0.13-0.19,0.32-0.19,0.57c-1.02,1.02-1.9,2.09-2.66,3.23c-0.76,1.14-1.52,2.28-2.28,3.42
		C272.8,224.6,272.1,225.68,271.34,227.08z M282.95,214.71c0.13,0,0.25-0.06,0.38-0.19L282.95,214.71z M284.47,209.38
		c-0.26,0-0.38,0.13-0.38,0.38C284.34,209.76,284.47,209.64,284.47,209.38z M284.09,213.76c0.25-0.25,0.38-0.44,0.38-0.57
		C284.21,213.44,284.09,213.63,284.09,213.76z M284.85,212.24c-0.13,0.13-0.19,0.26-0.19,0.38c0-0.13,0.06-0.19,0.19-0.19V212.24z
		 M285.8,211.28c0.25-0.25,0.38-0.44,0.38-0.57C285.93,210.97,285.8,211.16,285.8,211.28z"/>
	<path class="st1" d="M309.58,207.86c0,0.89-0.45,1.4-1.33,1.52v-0.95c-0.51,0.26-0.76,0.76-0.76,1.52
		c0.38-0.38,0.63-0.57,0.76-0.57c-0.13,0.25-0.19,0.51-0.19,0.76c0,0.38,0.06,0.64,0.19,0.76c-1.14,2.16-2.19,4.25-3.14,6.28
		c-0.95,2.03-1.75,4.19-2.38,6.47c-0.26,0.64-0.45,1.3-0.57,2c-0.13,0.7-0.26,1.49-0.38,2.38c0.25-0.13,0.41-0.35,0.48-0.67
		c0.06-0.31,0.22-0.6,0.48-0.86c1.27-4.06,2.6-7.8,4-11.23c0.63-1.01,1.3-2.16,2-3.42c0.7-1.27,1.17-2.41,1.43-3.42
		c0.76-0.5,1.14-0.95,1.14-1.33c0.12-0.51,0.25-0.76,0.38-0.76c0.63,0,0.98,0.16,1.05,0.48c0.06,0.32,0.16,0.6,0.29,0.86v0.38
		l0.38-0.19c0.13,0,0.19-0.06,0.19-0.19c0.63,0,0.95,0.13,0.95,0.38c0,0.51-0.07,0.89-0.19,1.14c-0.13,0.25-0.32,0.57-0.57,0.95
		c-0.76,2.66-1.71,5.33-2.85,7.99c-0.64,2.41-1.33,4.76-2.09,7.04c-0.76,2.28-1.46,4.63-2.09,7.04c-0.38,1.65-0.73,3.33-1.05,5.04
		c-0.32,1.71-0.48,3.46-0.48,5.23v2.85c0.13,0,0.22,0.03,0.29,0.09c0.06,0.07,0.16,0.1,0.29,0.1c0.89-0.25,1.46-0.57,1.71-0.95
		c1.27-1.14,2.5-2.28,3.71-3.42c1.2-1.14,2.44-2.41,3.71-3.81c1.39-1.52,2.76-3.01,4.09-4.47c1.33-1.46,2.69-2.76,4.09-3.9
		c1.01-1.39,2.09-2.69,3.23-3.9c1.14-1.2,2.28-2.44,3.42-3.71c1.52-1.52,2.95-3.07,4.28-4.66c1.33-1.58,2.63-3.14,3.9-4.66
		l0.95-1.33c0.25,0.26,0.38,0.57,0.38,0.95c0,0.38,0.06,0.7,0.19,0.95V213c0,0.26-0.03,0.48-0.1,0.67c-0.07,0.19-0.1,0.41-0.1,0.67
		c-0.13,1.02-0.48,2.03-1.05,3.04c-0.57,1.02-1.24,2.03-2,3.04c-1.02,0.51-1.59,0.95-1.71,1.33l-0.19,0.19
		c-1.27,1.14-2.32,2.25-3.14,3.33c-0.83,1.08-1.75,2.25-2.76,3.52c-1.78,1.9-3.49,3.8-5.14,5.71c-1.65,1.9-3.23,3.74-4.76,5.52
		c-0.64,1.02-1.27,1.94-1.9,2.76c-0.64,0.83-1.27,1.62-1.9,2.38c-0.38,0.64-0.79,1.17-1.24,1.62c-0.45,0.45-0.92,0.98-1.43,1.62
		l-2.85,2.66c-0.76,0.38-1.65,0.57-2.66,0.57c-0.89,0-1.59-0.06-2.09-0.19c-0.26-0.25-0.6-0.44-1.05-0.57
		c-0.45-0.13-0.79-0.38-1.05-0.76c-1.27-0.51-2.16-0.95-2.66-1.33c-0.38-0.51-0.76-1.01-1.14-1.52c-0.38-0.5-0.7-1.08-0.95-1.71
		c-0.89-2.16-1.33-4.19-1.33-6.09c0-2.16,0.12-4.28,0.38-6.37c0.25-2.09,0.7-4.21,1.33-6.37c0.25-1.52,0.54-2.98,0.86-4.38
		c0.31-1.39,0.79-2.79,1.43-4.19l3.61-7.23c0.51-1.01,1.11-1.93,1.81-2.76c0.7-0.82,1.36-1.74,2-2.76c0.13-0.25,0.35-0.41,0.67-0.48
		c0.32-0.06,0.54-0.09,0.67-0.09c0.13,0.64,0.25,0.95,0.38,0.95c0,0.13-0.03,0.22-0.1,0.29c-0.06,0.07-0.09,0.16-0.09,0.29
		c0,0.13,0.03,0.19,0.09,0.19c0.06,0,0.1,0.07,0.1,0.19v0.38h0.38v0.38C309.77,207.61,309.71,207.73,309.58,207.86z M300.45,227.08
		c0-0.13,0.13-0.25,0.38-0.38c-0.13,0-0.26,0.07-0.38,0.19V227.08z M301.21,226.12c0-0.13-0.13-0.44-0.38-0.95
		c-0.13,0.26-0.19,0.51-0.19,0.76c0,0.26,0.06,0.45,0.19,0.57C301.08,226.51,301.21,226.38,301.21,226.12z M300.83,225.17
		c0.13-0.13,0.19-0.38,0.19-0.76C300.89,224.54,300.83,224.79,300.83,225.17z M301.4,224.41c0.13-0.13,0.19-0.32,0.19-0.57
		c0-0.25,0-0.5,0-0.76C301.46,223.21,301.4,223.65,301.4,224.41z M301.78,228.03c-0.13,0.13-0.19,0.32-0.19,0.57v0.76
		c0.12-0.13,0.19-0.32,0.19-0.57V228.03z M302.16,222.51c0-0.12-0.03-0.19-0.1-0.19c-0.07,0-0.1-0.06-0.1-0.19
		c-0.13,0.13-0.19,0.26-0.19,0.38v0.57C302.03,222.83,302.16,222.64,302.16,222.51z M301.97,222.13c0.38-0.63,0.76-1.24,1.14-1.81
		c0.38-0.57,0.57-1.36,0.57-2.38C302.67,219.09,302.1,220.48,301.97,222.13z M303.68,217.94c0.25-0.25,0.38-0.51,0.38-0.76
		C303.81,217.18,303.68,217.44,303.68,217.94z M304.25,216.8c0-0.13-0.03-0.22-0.1-0.29c-0.07-0.06-0.1-0.16-0.1-0.29v0.76
		L304.25,216.8z M304.25,216.23c0.63-0.5,1.08-1.08,1.33-1.71c0.25-0.63,0.51-1.46,0.76-2.47c-0.64,0.64-1.11,1.24-1.43,1.81
		C304.6,214.42,304.38,215.22,304.25,216.23z M306.35,212.05c0.13-0.13,0.29-0.25,0.48-0.38c0.19-0.12,0.29-0.31,0.29-0.57
		c-0.26,0.13-0.45,0.22-0.57,0.29C306.41,211.44,306.35,211.66,306.35,212.05z M307.11,211.09c0-0.13-0.03-0.25-0.1-0.38
		c-0.07-0.13-0.1-0.25-0.1-0.38l0.57-0.38C307.49,210.59,307.36,210.97,307.11,211.09z M309.58,207.86c0-0.25-0.07-0.51-0.19-0.76
		c-0.76,0.13-1.14,0.57-1.14,1.33c0.25-0.25,0.51-0.38,0.76-0.38C309.26,208.05,309.45,207.99,309.58,207.86z M310.91,205.77
		l-0.38,0.38l0.19,0.38c-0.38,0-0.7,0.13-0.95,0.38c0.12-0.13,0.19-0.22,0.19-0.29c0-0.06,0.13-0.16,0.38-0.29
		c0-0.13,0.06-0.22,0.19-0.29c0.13-0.06,0.19-0.16,0.19-0.29l0.19-0.19V205.77z M312.05,245.91c0-0.13,0.03-0.19,0.1-0.19
		c0.06,0,0.1-0.06,0.1-0.19l-0.38,0.38c-0.13,0-0.19,0.07-0.19,0.19v0.38c0-0.13,0.06-0.19,0.19-0.19
		C311.99,246.29,312.05,246.17,312.05,245.91z M312.24,245.53c0.89-0.38,1.39-0.89,1.52-1.52c-0.26,0.13-0.48,0.32-0.67,0.57
		C312.91,244.84,312.63,245.15,312.24,245.53z M321.57,190.17c-0.26,0.13-0.38,0.32-0.38,0.57c0,0.26-0.07,0.45-0.19,0.57
		c-0.76,0.38-1.33,0.95-1.71,1.71c-0.38,0.38-0.57,0.83-0.57,1.33c0,0.38,0.06,0.7,0.19,0.95c-0.26,0.51-0.51,1.14-0.76,1.9
		c-0.26,0-0.45,0.03-0.57,0.09c-0.13,0.07-0.26,0.1-0.38,0.1c-0.13,0-0.19-0.1-0.19-0.29c0-0.19-0.13-0.29-0.38-0.29v-0.57
		c-0.26-0.25-0.54-0.44-0.86-0.57c-0.32-0.13-0.54-0.44-0.67-0.95c0-0.38-0.16-0.6-0.48-0.67c-0.32-0.06-0.6-0.22-0.86-0.48
		c-0.38-0.13-0.57-0.44-0.57-0.95c0.13-1.01,0.35-1.96,0.67-2.85c0.31-0.89,0.92-1.65,1.81-2.28c0.12-0.25,0.51-0.38,1.14-0.38
		c0.38,0,0.63,0.07,0.76,0.19c0.25,0.13,0.6,0.26,1.05,0.38c0.44,0.13,0.79,0.32,1.05,0.57c0.38,0.26,0.73,0.57,1.05,0.95
		C321.03,189.6,321.31,189.91,321.57,190.17z M315.48,241.73c-0.26,0.13-0.48,0.26-0.67,0.38c-0.19,0.13-0.35,0.51-0.48,1.14
		c0.76-0.5,1.14-0.89,1.14-1.14V241.73z M315.48,239.44c-0.13,0-0.19,0.06-0.19,0.19v0.38c0,0.13,0.13-0.06,0.38-0.57v-0.19
		C315.67,239.38,315.6,239.44,315.48,239.44z M315.67,241.73c0.12-0.12,0.19-0.31,0.19-0.57c0,0.13-0.13,0.32-0.38,0.57H315.67z
		 M315.86,241.15c0.51-0.13,0.89-0.51,1.14-1.14C316.36,240.27,315.98,240.65,315.86,241.15z M316.05,189.4h0.38
		c-0.13,0-0.19-0.13-0.19-0.38v-0.19c-0.13,0-0.19,0.13-0.19,0.38V189.4z M316.81,237.73c-0.26,0.13-0.51,0.51-0.76,1.14
		c0.63-0.25,0.95-0.5,0.95-0.76c0-0.13-0.03-0.19-0.1-0.19C316.84,237.92,316.81,237.86,316.81,237.73z M316.62,190.17
		c0.89-0.13,1.33-0.57,1.33-1.33v-0.19l-0.19,0.19h-0.57v-0.38c-0.38,0-0.6,0.03-0.67,0.09c-0.07,0.07-0.16,0.16-0.29,0.29h0.57
		c-0.26,0.13-0.38,0.38-0.38,0.76C316.56,189.72,316.62,189.91,316.62,190.17z M316.81,237.54c0.12-0.13,0.31-0.19,0.57-0.19
		l0.38-0.38h-0.19L316.81,237.54z M317.57,239.44c0.38-0.38,0.63-0.89,0.76-1.52L317.57,239.44z M318.52,237.54l0.19-0.19h-0.19
		V237.54z M318.9,235.26c0,0.13-0.03,0.19-0.1,0.19c-0.07,0-0.1,0.07-0.1,0.19l0.38-0.38v-0.19L318.9,235.26z M318.71,237.35
		c0.76-0.25,1.2-0.63,1.33-1.14C319.28,236.72,318.84,237.1,318.71,237.35z M319.85,234.11c-0.13,0-0.19,0.07-0.19,0.19l0.19,0.19
		V234.11z M319.85,234.11l0.38-0.19h0.19c0-0.25,0.13-0.51,0.38-0.76c-0.13,0-0.19,0.03-0.19,0.1c0,0.07-0.07,0.09-0.19,0.09
		l-0.57,0.57V234.11z M320.24,236.21l0.38-0.19l-0.19-0.19l-0.38,0.38H320.24z M320.62,236.02c0.51-0.13,0.89-0.63,1.14-1.52
		C321,235,320.62,235.51,320.62,236.02z M322.33,231.83c-0.76,0.26-1.27,0.7-1.52,1.33C321.31,233.04,321.82,232.59,322.33,231.83z
		 M322.52,233.35c-0.13,0.26-0.19,0.45-0.19,0.57c0,0.13-0.07,0.19-0.19,0.19c-0.26,0-0.38,0.13-0.38,0.38
		c0.13,0,0.16-0.03,0.1-0.09c-0.07-0.06,0.03-0.1,0.29-0.1c0-0.25,0.12-0.38,0.38-0.38V233.35z M322.9,232.59l0.38-0.38
		L322.9,232.59z M325.37,229.93h-0.19c0,0.25-0.07,0.45-0.19,0.57c0.13-0.13,0.25-0.19,0.38-0.19V229.93z M326.7,226.89
		c0-0.38,0.19-0.57,0.57-0.57v-0.19l-0.57,0.57V226.89z M328.04,225.55c0.51-0.38,0.95-0.89,1.33-1.52
		c-0.76,0.26-1.14,0.57-1.14,0.95L328.04,225.55z M328.99,226.31c-0.13,0-0.19,0.03-0.19,0.09c0,0.07-0.06,0.1-0.19,0.1l-0.38,0.57
		c0.12,0,0.25-0.06,0.38-0.19L328.99,226.31z M328.99,225.93c0.25-0.25,0.44-0.38,0.57-0.38L328.99,225.93z M330.32,223.08
		l-0.19,0.19L330.32,223.08z M330.7,224.22l-0.57,0.38L330.7,224.22z M331.08,222.32c0-0.13,0.03-0.22,0.1-0.29
		c0.06-0.06,0.1-0.22,0.1-0.48l-0.57,0.57v0.57C330.95,222.57,331.08,222.45,331.08,222.32z M330.7,224.22
		c0.76-0.13,1.2-0.57,1.33-1.33C331.78,223.02,331.33,223.46,330.7,224.22z M332.41,220.61c0.76-0.13,1.39-0.63,1.9-1.52
		C333.68,219.34,333.05,219.85,332.41,220.61z M334.89,218.13c0.63-0.25,1.01-0.76,1.14-1.52c-0.64,0.38-0.95,0.76-0.95,1.14
		C334.95,217.88,334.89,218.01,334.89,218.13z M336.03,218.7c-0.64,0.26-1.02,0.64-1.14,1.14c0.76-0.25,1.14-0.57,1.14-0.95V218.7z
		 M336.6,216.23c0.63-0.38,1.01-0.95,1.14-1.71C337.1,214.9,336.72,215.47,336.6,216.23z M337.55,216.8
		c-0.13,0.13-0.26,0.19-0.38,0.19v0.19L337.55,216.8z M338.31,215.85c-0.13,0.13-0.26,0.19-0.38,0.19c-0.13,0-0.19,0.07-0.19,0.19
		c0.13,0,0.19-0.03,0.19-0.09c0-0.06,0.12-0.1,0.38-0.1V215.85z M338.12,214.14c0.63-0.25,0.95-0.76,0.95-1.52
		c-0.51,0.13-0.83,0.38-0.95,0.76V214.14z"/>
	<path class="st1" d="M377.88,218.7c0.25,1.27,0.38,2.22,0.38,2.85c0,2.16-0.47,4.12-1.43,5.9c-0.95,1.78-1.97,3.36-3.04,4.76
		c-1.08,1.4-2.09,2.57-3.04,3.52c-0.95,0.95-1.43,1.56-1.43,1.81c0,0.13,0.13,0.19,0.38,0.19h0.19c-1.4,1.78-2.92,3.65-4.57,5.61
		c-1.65,1.97-3.17,3.65-4.57,5.04c-1.78,1.78-3.68,3.33-5.71,4.66c-2.03,1.33-4.25,2.31-6.66,2.95c-0.89,0.25-1.71,0.44-2.47,0.57
		c-0.76,0.13-1.59,0.19-2.47,0.19c-2.66,0-4.95-0.7-6.85-2.09c-1.4-1.01-2.7-2.03-3.9-3.04c-1.21-1.01-2.19-2.22-2.95-3.61
		c-0.64-1.27-1.08-2.66-1.33-4.19c-0.12-0.5-0.19-1.01-0.19-1.52c0-0.51,0-1.08,0-1.71c0-0.63,0-1.17,0-1.62
		c0-0.44,0.07-0.98,0.19-1.62v-4.57c0.25-1.14,0.51-2.25,0.76-3.33c0.25-1.08,0.51-2.12,0.76-3.14v-1.14c0-0.13,0.03-0.22,0.09-0.29
		c0.06-0.06,0.1-0.16,0.1-0.29c0-0.12-0.03-0.25-0.1-0.38c-0.07-0.13-0.09-0.25-0.09-0.38c0-0.13-0.03-0.19-0.1-0.19
		c-0.07,0-0.1-0.06-0.1-0.19l0.57-0.76c0.38-0.25,0.82-0.76,1.33-1.52c0.63-1.14,1.2-2.31,1.71-3.52c0.51-1.2,1.08-2.38,1.71-3.52
		c1.77-3.04,3.74-5.71,5.9-7.99c1.52-1.9,3.3-3.49,5.33-4.76c1.01-0.89,2.16-1.39,3.42-1.52c0.51-0.13,0.98-0.19,1.43-0.19
		c0.44,0,0.86,0,1.24,0c2.28,0,4.38,0.51,6.28,1.52c2.41,1.4,3.61,3.36,3.61,5.9v0.57c-0.13,1.9-0.7,3.81-1.71,5.71
		c-0.76,1.52-1.62,2.98-2.57,4.38c-0.95,1.4-2.13,2.6-3.52,3.61c-3.42,2.66-6.85,4.44-10.27,5.33l-2.09,0.57
		c-0.89,0.13-1.52,0.7-1.9,1.71l-1.9,14.65v0.76c0,0.64,0.06,1.3,0.19,2c0.12,0.7,0.31,1.36,0.57,2c0.12,1.14,0.89,1.71,2.28,1.71
		h1.52c1.77-0.38,3.52-0.89,5.23-1.52c1.71-0.63,3.33-1.46,4.85-2.47c1.52-1.01,2.98-2.12,4.38-3.33c1.39-1.2,2.79-2.5,4.19-3.9
		c0.76-0.76,1.84-1.68,3.23-2.76c1.39-1.08,2.54-2.12,3.42-3.14c1.14-1.39,2.22-2.76,3.23-4.09s2.03-2.69,3.04-4.09
		c0.63-1.01,1.24-2.03,1.81-3.04C376.83,220.73,377.37,219.72,377.88,218.7z M335.83,219.27l0.38-0.38c-0.13,0-0.19,0.03-0.19,0.09
		c0,0.07-0.07,0.1-0.19,0.1V219.27z M336.21,218.7c0.76-0.51,1.14-1.33,1.14-2.47C336.72,216.87,336.34,217.69,336.21,218.7z
		 M339.26,217.37c1.01-1.9,2.12-3.77,3.33-5.61c1.2-1.84,2.57-3.64,4.09-5.42v-0.76l-0.57,0.38c-0.26,0.25-0.57,0.54-0.95,0.86
		c-0.38,0.32-0.7,0.67-0.95,1.05c-1.14,1.4-2.19,2.85-3.14,4.38c-0.95,1.52-1.87,3.11-2.76,4.76c-0.51,1.02-0.95,2.28-1.33,3.81
		l0.95-1.33c0.25-0.25,0.48-0.6,0.67-1.05C338.78,217.98,339,217.63,339.26,217.37z M338.12,215.28c-0.26,0.13-0.51,0.45-0.76,0.95
		C337.86,216.11,338.12,215.79,338.12,215.28z M339.83,212.24c-0.89,0.64-1.46,1.65-1.71,3.04c0.89-0.89,1.52-1.9,1.9-3.04
		c0.25-0.25,0.38-0.57,0.38-0.95C340.02,211.54,339.83,211.86,339.83,212.24z M341.54,209.76c-0.64,0.38-1.02,0.89-1.14,1.52
		C341.16,211.16,341.54,210.65,341.54,209.76z M342.3,208.81c-0.38,0.13-0.57,0.45-0.57,0.95L342.3,208.81z M342.87,208.24
		c0.25-0.25,0.38-0.57,0.38-0.95L342.87,208.24z M343.25,214.9c0.13-0.12,0.19-0.31,0.19-0.57c0,0.13-0.03,0.19-0.1,0.19
		c-0.07,0-0.1,0.07-0.1,0.19V214.9z M343.63,214.33c0.38-0.13,0.57-0.44,0.57-0.95C343.95,213.63,343.76,213.95,343.63,214.33z
		 M353.72,206.53c-0.64,0.38-1.21,0.83-1.71,1.33c-0.51,0.51-1.08,1.02-1.71,1.52c-1.27,1.52-2.35,3.08-3.23,4.66
		c-0.89,1.59-1.78,3.27-2.66,5.04c-0.13,0.13-0.19,0.32-0.19,0.57v0.19c0,0.26,0.19,0.38,0.57,0.38c0.51-0.25,0.95-0.48,1.33-0.67
		c0.38-0.19,0.76-0.41,1.14-0.67c1.39-1.14,2.69-2.35,3.9-3.62c1.2-1.27,2.19-2.73,2.95-4.38c0.89-1.52,1.39-2.92,1.52-4.19v-0.19
		c0-0.38-0.26-0.57-0.76-0.57h-0.38L353.72,206.53z M349.53,206.53c-0.26,0-0.45,0.07-0.57,0.19c-1.02,1.02-1.94,2.03-2.76,3.04
		c-0.83,1.02-1.49,2.22-2,3.62c0.38-0.13,0.63-0.38,0.76-0.76c0.76-1.01,1.55-1.97,2.38-2.85c0.82-0.89,1.55-1.84,2.19-2.85V206.53z
		 M355.62,212.24c0,0.13-0.13,0.32-0.38,0.57c-0.25,0.51-0.38,0.83-0.38,0.95h0.38c-0.25,0.26-0.41,0.57-0.47,0.95
		c-0.07,0.38-0.16,0.7-0.29,0.95c-0.13,0.26-0.29,0.41-0.48,0.48c-0.19,0.07-0.35,0.22-0.47,0.48v0.19h0.19
		c0.25-0.13,0.41-0.25,0.48-0.38c0.06-0.13,0.22-0.32,0.47-0.57c0.51-0.38,0.92-0.82,1.24-1.33c0.32-0.51,0.6-1.01,0.86-1.52
		c0.25-0.25,0.38-0.54,0.38-0.86c0-0.31,0.06-0.6,0.19-0.86c-0.38,0-0.6,0.16-0.67,0.48c-0.06,0.32-0.22,0.54-0.47,0.67l-0.38,0.38
		c-0.13,0-0.19-0.06-0.19-0.19V212.24z M355.05,217.94l0.38-0.19C355.3,217.75,355.18,217.82,355.05,217.94z M357.52,214.9
		c-0.89,0.38-1.46,1.21-1.71,2.47C356.7,216.87,357.27,216.04,357.52,214.9z M358.1,214.14c-0.26,0.13-0.38,0.22-0.38,0.29
		c0,0.07-0.07,0.16-0.19,0.29c0.13,0,0.19-0.03,0.19-0.1c0-0.06,0.06-0.09,0.19-0.09C357.9,214.39,357.97,214.27,358.1,214.14z
		 M362.85,240.96c0.13-0.13,0.38-0.29,0.76-0.48c0.38-0.19,0.63-0.41,0.76-0.67l-1.71,1.14v0.19L362.85,240.96z M365.32,241.35
		c0-0.13-0.06-0.19-0.19-0.19l-0.57,0.57C364.82,241.47,365.07,241.35,365.32,241.35z M365.7,238.3c-0.26,0.25-0.38,0.57-0.38,0.95
		L365.7,238.3z M365.9,240.58c0.38-0.12,0.57-0.44,0.57-0.95C366.08,239.89,365.9,240.2,365.9,240.58z M366.47,239.63
		c0.38-0.13,0.63-0.38,0.76-0.76c-0.13,0.13-0.25,0.22-0.38,0.29C366.72,239.22,366.59,239.38,366.47,239.63z M366.66,237.54
		c0.51-0.13,0.95-0.7,1.33-1.71c-0.38,0.26-0.67,0.48-0.86,0.67C366.94,236.68,366.78,237.03,366.66,237.54z M367.23,238.87
		c0.51-0.25,0.95-0.76,1.33-1.52C367.8,237.86,367.35,238.37,367.23,238.87z M367.99,235.83c0.63-0.13,1.14-0.7,1.52-1.71
		C368.87,234.37,368.37,234.94,367.99,235.83z M369.32,236.21c-0.26,0.25-0.45,0.57-0.57,0.95L369.32,236.21z M369.51,234.11
		c0.76-0.25,1.14-0.7,1.14-1.33C370.01,233.04,369.63,233.48,369.51,234.11z M370.65,232.59c0.63-0.25,1.11-0.63,1.43-1.14
		c0.32-0.5,0.6-1.08,0.86-1.71c-0.51,0.38-0.92,0.79-1.24,1.24C371.38,231.42,371.03,231.96,370.65,232.59z M371.98,232.97
		c-0.38,0.38-0.57,0.7-0.57,0.95L371.98,232.97z M372.17,232.78c0.38-0.38,0.57-0.69,0.57-0.95L372.17,232.78z M372.93,229.74
		c0.13,0,0.31-0.32,0.57-0.95h-0.38l-0.19,0.19V229.74z M373.5,228.79c0.51-0.13,0.76-0.44,0.76-0.95h-0.57L373.5,228.79z
		 M375.79,225.17c-0.89,0.89-1.4,1.65-1.52,2.28v0.38c0.38-0.38,0.73-0.76,1.04-1.14C375.63,226.31,375.79,225.81,375.79,225.17z
		 M375.79,225.17c0.51-0.13,0.76-0.32,0.76-0.57l-0.38-0.38v-0.19h-0.19l0.19,0.19C376.17,224.6,376.04,224.92,375.79,225.17z"/>
	<path class="st1" d="M406.23,220.99l-6.28,0.57l-4.19,0.57c-1.02,0.26-2.06,0.45-3.14,0.57c-1.08,0.13-2.13,0.32-3.14,0.57
		c-1.02,0.25-2,0.41-2.95,0.48c-0.95,0.07-1.93,0.16-2.95,0.29h-0.95c-0.51,0-1.27-0.13-2.28-0.38c-0.26,0-0.38-0.19-0.38-0.57
		c0-0.25,0.03-0.38,0.09-0.38c0.06,0,0.1-0.06,0.1-0.19l-0.38-0.38c-0.26,0-0.45-0.06-0.57-0.19c-0.13,0-0.19-0.06-0.19-0.19
		c0-0.13,0.06-0.25,0.19-0.38c0-0.12,0.12-0.31,0.38-0.57v-0.19c-0.38-0.25-0.67-0.5-0.86-0.76c-0.19-0.25-0.41-0.51-0.67-0.76
		c-0.13,0-0.19-0.13-0.19-0.38c0-0.13,0.13-0.32,0.38-0.57c0.63-0.5,1.46-0.95,2.47-1.33l3.42-0.76c0.38-0.12,0.89-0.19,1.52-0.19
		c0.76,0,1.49,0,2.19,0c0.7,0,1.43-0.06,2.19-0.19c0.38-0.13,1.08-0.19,2.09-0.19c0.63,0,1.3-0.03,2-0.1c0.7-0.06,1.36-0.09,2-0.09
		c0.63,0,1.3-0.03,2-0.09c0.7-0.06,1.36-0.1,2-0.1c0.63,0,1.3,0.03,2,0.1c0.7,0.07,1.43,0.09,2.19,0.09c1.14,0,1.97,0.16,2.47,0.48
		c0.51,0.32,1.14,0.98,1.9,2l0.57,0.76c0,0.26,0.03,0.54,0.09,0.86c0.06,0.32,0.1,0.6,0.1,0.86v0.19c0,0.38-0.19,0.64-0.57,0.76
		h-2.66V220.99z"/>
	<path class="st1" d="M492.98,199.87v3.23c0,0.89,0,1.75,0,2.57c0,0.83-0.13,1.62-0.38,2.38c0,0.38,0.1,0.7,0.29,0.95
		c0.19,0.26,0.29,0.57,0.29,0.95h0.38v-0.38c1.14-2.92,2.5-5.77,4.09-8.56c1.58-2.79,3.2-5.45,4.85-7.99
		c2.03-3.42,4.06-6.82,6.09-10.18c2.03-3.36,4.31-6.63,6.85-9.8c1.78-2.54,3.62-4.98,5.52-7.33c1.9-2.34,4-4.66,6.28-6.94
		c1.9-2.54,4.63-4.95,8.18-7.23c1.01-0.89,2.03-1.65,3.04-2.28c1.01-0.63,2.03-1.27,3.04-1.9c2.28-1.39,4.82-2.47,7.61-3.23h1.33
		c1.01,0,1.77,0.13,2.28,0.38c0.5,0.26,1.08,0.57,1.71,0.95c3.3,2.41,5.2,5.2,5.71,8.37c0.25,0.89,0.41,1.71,0.48,2.47
		c0.06,0.76,0.09,1.59,0.09,2.47v2.09v1.71c0,2.79-0.19,5.71-0.57,8.75c-0.26,2.03-0.64,3.97-1.14,5.8
		c-0.51,1.84-0.95,3.78-1.33,5.8c-0.38,1.65-0.73,3.27-1.05,4.85c-0.32,1.59-0.6,3.08-0.86,4.47c-0.64,1.78-1.17,3.49-1.62,5.14
		c-0.45,1.65-0.98,3.3-1.62,4.95c-0.64,2.16-1.27,4.25-1.9,6.28c-0.64,2.03-1.21,4.12-1.71,6.28c-2.54,6.98-4.69,14.43-6.47,22.36
		c-1.78,7.93-3.93,15.51-6.47,22.74l-1.33,4.19c-0.38,0.89-0.92,2.41-1.62,4.57c-0.7,2.16-1.43,4.47-2.19,6.95
		c-0.76,2.47-1.49,4.85-2.19,7.13c-0.7,2.28-1.24,4-1.62,5.14c-0.26,0.5-0.57,1.05-0.95,1.62c-0.38,0.57-0.57,1.17-0.57,1.81
		c0,0.25-0.19,0.44-0.57,0.57c-0.38,0.13-0.7,0.19-0.95,0.19h-0.19c-0.64-0.13-1.17-0.19-1.62-0.19c-0.45,0-0.79-0.19-1.05-0.57
		c-0.13,0-0.35-0.07-0.67-0.19c-0.32-0.13-0.54-0.19-0.67-0.19c-1.02-0.51-1.59-1.08-1.71-1.71c0.25-0.64,0.41-1.37,0.48-2.19
		c0.06-0.83,0.22-1.68,0.48-2.57c0.5-4.31,1.39-8.63,2.66-12.94c0.13-1.78,0.41-3.46,0.86-5.04c0.44-1.59,0.86-3.27,1.24-5.04
		c0.38-2.28,0.79-4.5,1.24-6.66c0.44-2.16,1.05-4.38,1.81-6.66c0.25-2.16,0.7-4.28,1.33-6.37c0.63-2.09,1.27-4.28,1.9-6.56
		c0.63-2.03,1.27-4.12,1.9-6.28c0.63-2.16,1.2-4.31,1.71-6.47c0.76-3.17,1.68-6.31,2.76-9.42c1.08-3.11,2.12-6.18,3.14-9.23
		c0.63-2.03,1.33-4.12,2.09-6.28c0.76-2.16,1.52-4.25,2.28-6.28l3.23-8.94c0.63-1.77,1.27-3.49,1.9-5.14
		c0.63-1.65,1.14-3.36,1.52-5.14c0.63-1.52,1.2-3.2,1.71-5.04c0.51-1.84,0.95-3.64,1.33-5.42c0.25-0.63,0.5-1.58,0.76-2.85
		c0.25-1.27,0.38-2.47,0.38-3.61v-0.76c0-0.5,0-1.01,0-1.52c0-0.51-0.07-0.82-0.19-0.95c-0.26-0.38-0.64-0.6-1.14-0.67
		c-0.51-0.06-1.02-0.1-1.52-0.1c-1.02,0-2.13,0.19-3.33,0.57c-1.21,0.38-2.13,0.7-2.76,0.95c-1.4,0.64-2.63,1.43-3.71,2.38
		c-1.08,0.95-2.13,1.87-3.14,2.76c-5.83,5.2-11.13,10.69-15.89,16.46c-4.76,5.77-9.04,11.89-12.84,18.36
		c-2.41,4.19-4.73,8.44-6.94,12.75c-2.22,4.31-4.41,8.69-6.56,13.13c-1.02,2.03-2.03,4.09-3.04,6.18c-1.02,2.09-1.97,4.16-2.85,6.18
		c-0.89,2.03-1.52,4.19-1.9,6.47c-0.38,2.28-0.7,4.44-0.95,6.47c-0.26,1.02-0.45,1.75-0.57,2.19c-0.13,0.45-0.45,0.67-0.95,0.67
		c-0.89,0-1.78-0.7-2.66-2.09c-2.28-2.03-3.61-4.31-4-6.85c0-1.27,0.06-2.5,0.19-3.71c0.13-1.2,0.5-2.44,1.14-3.71
		c1.39-6.47,2.47-12.87,3.23-19.22c0.76-6.34,1.14-12.87,1.14-19.6v-4.38v-1.52c0-0.89-0.16-1.68-0.48-2.38
		c-0.32-0.7-0.67-1.24-1.05-1.62c-1.14-0.76-2.47-1.14-4-1.14c-1.65,0-3.11,0.38-4.38,1.14c-2.92,2.28-4.63,5.07-5.14,8.37
		c-0.51,3.3-0.89,6.41-1.14,9.32c-0.26,1.65-0.51,3.3-0.76,4.95c-0.25,1.65-0.64,3.3-1.14,4.95c-0.64,4.06-1.46,8.06-2.47,11.99
		c-1.02,3.93-2.22,7.8-3.62,11.6c-0.64,2.79-1.46,5.39-2.47,7.8c-0.89,1.78-1.68,3.55-2.38,5.33c-0.7,1.78-1.68,3.55-2.95,5.33
		c-0.76,0.76-1.46,1.52-2.09,2.28c-0.64,0.76-1.4,1.39-2.28,1.9c-1.02,1.01-2.28,1.52-3.8,1.52c-0.13,0.25-0.38,0.41-0.76,0.48
		c-0.38,0.06-0.64,0.1-0.76,0.1c-0.76,0-1.27-0.19-1.52-0.57c-2.16-0.64-4-1.65-5.52-3.04c-0.76-1.01-1.4-2.22-1.9-3.61
		c0-0.63-0.07-1.33-0.19-2.09c-0.13-0.76-0.26-1.58-0.38-2.47c0-0.38,0-0.79,0-1.24c0-0.44,0.13-0.86,0.38-1.24
		c0.25-2.92,0.86-5.9,1.81-8.94c0.95-3.04,2.12-6.09,3.52-9.13c1.39-3.17,2.92-6.21,4.57-9.13c1.65-2.92,3.3-5.9,4.95-8.94
		l7.99-10.84c0.63-0.89,1.14-1.71,1.52-2.47c0.38-0.76,0.57-1.65,0.57-2.66c0.13-1.52,0.25-2.98,0.38-4.38
		c0.13-1.39,0.32-2.85,0.57-4.38c0.25-1.01,0.38-2.12,0.38-3.33c0-1.2,0-2.44,0-3.71v-5.14c-0.13-0.89-0.19-1.81-0.19-2.76
		s0-1.81,0-2.57c-0.13-1.27-0.38-2.6-0.76-4c-0.38-1.39-0.7-2.79-0.95-4.19c-0.26-1.14-0.54-2.31-0.86-3.52
		c-0.32-1.2-0.73-2.44-1.24-3.71c-0.64-0.89-0.95-1.58-0.95-2.09c-0.64-1.27-1.62-2.19-2.95-2.76c-1.33-0.57-2.7-0.86-4.09-0.86
		c-0.76,0-1.43,0.03-2,0.1c-0.57,0.07-1.17,0.35-1.81,0.86c-0.13,0-0.38,0.07-0.76,0.19c-0.38,0.13-0.7,0.32-0.95,0.57
		c-1.02,0.89-1.97,1.62-2.85,2.19c-0.89,0.57-1.65,1.3-2.28,2.19c-2.41,2.92-4.57,5.87-6.47,8.85c-1.9,2.98-3.55,6.12-4.95,9.42
		c-1.02,2.54-1.84,4.98-2.47,7.32c-0.64,2.35-1.14,4.66-1.52,6.94c-0.13,1.4-0.26,2.82-0.38,4.28c-0.13,1.46-0.19,2.89-0.19,4.28
		v1.33v3.04c0.13,2.28,0.35,4.54,0.67,6.75c0.32,2.22,0.79,4.47,1.43,6.75c0,0.38,0.1,0.79,0.29,1.24c0.19,0.45,0.41,0.86,0.67,1.24
		c0.76,1.02,1.27,1.84,1.52,2.47c0.76,0.26,1.14,0.64,1.14,1.14v0.19c0,0.13-0.19,0.19-0.57,0.19h-0.38c-0.13,0-0.32-0.13-0.57-0.38
		c-1.27-0.5-2.22-1.08-2.85-1.71c-0.64-0.63-1.27-1.46-1.9-2.47l-2.09-4.76c-0.64-1.39-1.08-2.88-1.33-4.47
		c-0.25-1.58-0.57-3.14-0.95-4.66c-0.25-1.14-0.41-2.28-0.48-3.42c-0.06-1.14-0.16-2.41-0.29-3.8c0-1.14,0-2.31,0-3.52
		c0-1.2,0.13-2.44,0.38-3.71c0-0.5,0.03-1.08,0.09-1.71c0.07-0.63,0.22-1.2,0.48-1.71c0.25-2.92,0.7-5.9,1.33-8.94
		c0.63-3.04,1.65-6.02,3.04-8.94c0.89-1.77,1.74-3.62,2.57-5.52c0.82-1.9,1.87-3.61,3.14-5.14c0.25-0.25,0.51-0.57,0.76-0.95
		c0.25-0.38,0.5-0.63,0.76-0.76c0.63-1.65,1.62-3.2,2.95-4.66c1.33-1.46,2.82-2.88,4.47-4.28c0.63-0.25,1.14-0.57,1.52-0.95
		c0.38-0.38,0.82-0.76,1.33-1.14c1.01-0.38,1.96-0.73,2.85-1.05c0.89-0.31,1.77-0.48,2.66-0.48c0.63,0,1.39,0.1,2.28,0.29
		c0.89,0.19,1.65,0.54,2.28,1.05c5.33,1.52,9.13,4.31,11.42,8.37c1.27,1.52,2.28,3.11,3.04,4.76c0.76,1.65,1.65,3.49,2.66,5.52
		c0.51,1.4,0.89,2.82,1.14,4.28c0.25,1.46,0.51,2.95,0.76,4.47c0.25,1.02,0.44,1.93,0.57,2.76c0.13,0.83,0.32,1.74,0.57,2.76
		c0,1.4,0.03,2.73,0.1,4c0.06,1.27,0.22,2.54,0.48,3.8v0.76l0.57,0.38l1.33-1.14c0.63-0.5,1.3-0.98,2-1.43
		c0.7-0.44,1.36-0.79,2-1.05c1.01-0.51,1.9-0.79,2.66-0.86c0.76-0.06,1.46-0.1,2.09-0.1h1.71c1.27,0.26,2.41,0.7,3.42,1.33
		c1.01,0.64,1.84,1.52,2.47,2.66c0.63,0.64,1.14,1.36,1.52,2.19c0.38,0.83,0.76,1.81,1.14,2.95c0.12,2.41,0.63,5.2,1.52,8.37
		c0,1.4,0,2.73,0,4C492.79,197.52,492.86,198.73,492.98,199.87z M442.18,140.89v-0.19h-0.19c-1.14,0.38-2.16,0.92-3.04,1.62
		c-0.89,0.7-1.78,1.55-2.66,2.57v0.57c1.27-0.63,2.31-1.39,3.14-2.28C440.25,142.29,441.17,141.52,442.18,140.89z M438.57,246.67
		c0.25,0.76,0.44,1.55,0.57,2.38c0.13,0.83,0.31,1.81,0.57,2.95c0.51,0.64,0.95,0.95,1.33,0.95c0.63,0,1.14-0.19,1.52-0.57
		c0.76-0.51,1.2-1.08,1.33-1.71c0.63-0.89,1.24-1.71,1.81-2.47c0.57-0.76,1.05-1.58,1.43-2.47c0.38-1.27,0.86-2.57,1.43-3.9
		c0.57-1.33,1.05-2.69,1.43-4.09l3.04-10.84c0.63-2.92,1.24-5.74,1.81-8.47c0.57-2.73,1.17-5.36,1.81-7.9
		c0.25-1.14,0.44-2.12,0.57-2.95c0.13-0.82,0.32-1.74,0.57-2.76h-0.57c-0.26,0.13-0.51,0.29-0.76,0.48
		c-0.26,0.19-0.51,0.41-0.76,0.67c-0.76,2.03-1.97,3.87-3.61,5.52c-1.52,2.66-2.92,5.39-4.19,8.18c-1.27,2.79-2.6,5.46-4,7.99
		c-1.02,2.16-1.87,4.28-2.57,6.37c-0.7,2.09-1.3,4.28-1.81,6.56c-0.25,1.02-0.41,2.03-0.48,3.04
		C438.98,244.65,438.82,245.66,438.57,246.67z M443.52,142.6c-0.64,0.26-1.27,0.6-1.9,1.05c-0.64,0.45-1.27,0.86-1.9,1.24v0.57h0.57
		c0.38-0.38,0.82-0.73,1.33-1.05c0.51-0.32,0.95-0.73,1.33-1.24C443.33,143.17,443.52,142.98,443.52,142.6z M447.32,251.43V252h0.57
		c0-0.25,0.03-0.48,0.09-0.67c0.06-0.19,0.09-0.41,0.09-0.67C447.96,251.05,447.7,251.3,447.32,251.43z M448.46,249.53
		c-0.26,0.13-0.38,0.51-0.38,1.14h0.38c1.9-2.41,3.23-4.88,4-7.42v-0.57c-0.51,0.51-0.76,0.89-0.76,1.14
		c-0.64,0.64-1.05,1.24-1.24,1.81c-0.19,0.57-0.35,1.11-0.48,1.62l-0.95,0.95c-0.13,0.38-0.26,0.64-0.38,0.76
		C448.53,249.08,448.46,249.27,448.46,249.53z M449.22,246.29l-0.38,0.38c0,0.13,0.03,0.22,0.09,0.29c0.06,0.07,0.1,0.16,0.1,0.29
		c-0.38,0.26-0.57,0.45-0.57,0.57h0.57v-0.57v-0.38c0-0.13,0.03-0.22,0.09-0.29C449.19,246.52,449.22,246.42,449.22,246.29z
		 M449.22,246.29h0.19c0.25,0,0.38-0.19,0.38-0.57h-0.57V246.29z M449.41,252.38l-0.19,0.19l0.19,0.19V252.38z M449.99,251.43
		c0.89-0.25,1.46-0.67,1.71-1.24c0.25-0.57,0.51-1.17,0.76-1.81c-0.64,0.38-1.11,0.83-1.43,1.33
		C450.71,250.23,450.37,250.8,449.99,251.43z M453.22,247.24c-0.38,0.26-0.57,0.45-0.57,0.57
		C453.03,247.81,453.22,247.62,453.22,247.24z M453.41,240.58h-0.38v0.38L453.41,240.58z M453.41,240.58v-0.19
		c0-0.25,0.06-0.38,0.19-0.38c0.13,0,0.19-0.06,0.19-0.19v-0.57l-0.57,0.57C453.22,239.95,453.28,240.2,453.41,240.58z
		 M471.67,180.84l0.38-0.19C471.93,180.78,471.8,180.84,471.67,180.84z M536.93,232.59l-0.19-0.19l-0.19,0.19h-0.19v0.38v0.38
		c-0.26,1.27-0.6,2.51-1.05,3.71c-0.45,1.21-0.79,2.38-1.05,3.52c-1.27,4.19-2.41,8.31-3.42,12.37c-1.02,4.06-2.22,8.31-3.62,12.75
		c-0.89,3.3-1.81,6.63-2.76,9.99c-0.95,3.36-1.93,6.69-2.95,9.99c-0.26,0.63-0.41,1.2-0.48,1.71c-0.07,0.51-0.1,1.01-0.1,1.52
		c0.38-0.13,0.57-0.38,0.57-0.76c0.76-2.03,1.36-3.97,1.81-5.8c0.44-1.84,1.05-3.78,1.81-5.8c0.89-2.66,1.65-5.23,2.28-7.71
		c0.63-2.47,1.46-5.04,2.47-7.71c1.01-4.44,2.09-8.91,3.23-13.41c1.14-4.5,2.35-8.97,3.62-13.41c0-0.13,0.03-0.31,0.09-0.57
		c0.06-0.25,0.09-0.51,0.09-0.76V232.59z M523.04,288.15c0,0.5,0.19,0.76,0.57,0.76l0.19-0.19c0-0.38,0.09-0.73,0.29-1.05
		c0.19-0.32,0.29-0.73,0.29-1.24c0.63-2.16,1.3-4.28,2-6.37c0.7-2.09,1.49-4.16,2.38-6.18c2.54-6.98,4.69-14.14,6.47-21.5l0.19-0.19
		c0.25-0.25,0.38-0.51,0.38-0.76h-0.38c-0.13,0-0.19-0.06-0.19-0.19v0.19c-0.38,0.38-0.57,0.89-0.57,1.52
		c-1.4,3.55-2.6,7.04-3.62,10.46c-1.02,3.42-2.03,6.97-3.04,10.66c-1.02,2.54-1.84,4.98-2.47,7.32
		C524.88,283.74,524.06,285.99,523.04,288.15z M524,272.36h0.57v-0.19l-0.38,0.19H524z M524.95,270.07l-0.19,0.19l0.19,0.38V270.07z
		 M524.95,269.88c0.38,0,0.57-0.32,0.57-0.95c0-0.25-0.03-0.41-0.09-0.48c-0.07-0.07-0.1-0.16-0.1-0.29
		c-0.13,0.25-0.16,0.51-0.09,0.76C525.29,269.19,525.2,269.5,524.95,269.88z M525.71,266.65v0.57c0.13-0.26,0.16-0.45,0.09-0.57
		c-0.07-0.13,0.03-0.32,0.29-0.57C525.83,266.33,525.71,266.52,525.71,266.65z M526.09,265.32v0.76c0.38-0.38,0.57-0.95,0.57-1.71
		C526.28,264.75,526.09,265.06,526.09,265.32z M532.94,238.87c-0.13,0.26-0.22,0.45-0.29,0.57c-0.07,0.13-0.1,0.32-0.1,0.57
		c0,0.13,0.03,0.26,0.1,0.38c0.06,0.13,0.09,0.32,0.09,0.57c-0.26,0.26-0.45,0.54-0.57,0.86c-0.13,0.32-0.32,0.6-0.57,0.86
		c-0.64,3.17-1.4,6.34-2.28,9.51c-0.89,3.17-1.78,6.4-2.66,9.7v2.28l0.57-0.57c0.89-3.68,1.74-7.23,2.57-10.65
		c0.82-3.42,1.81-6.97,2.95-10.65v-1.33C532.87,240.33,532.94,239.63,532.94,238.87z M532.94,238.87c0.38-0.25,0.57-0.63,0.57-1.14
		C533.13,238.11,532.94,238.49,532.94,238.87z M542.26,149.83c-0.64,0-0.95,0.19-0.95,0.57
		C541.56,150.4,541.88,150.21,542.26,149.83z M543.59,148.88h-0.76v0.57C543.34,149.45,543.59,149.26,543.59,148.88z M544.54,148.69
		c-0.64,0-0.95,0.07-0.95,0.19C544.23,148.88,544.54,148.82,544.54,148.69z M545.68,148.12h0.38l0.76-0.38
		c0.51,0,0.95-0.19,1.33-0.57c-0.89,0-1.33,0.07-1.33,0.19c-0.76,0-1.21,0.13-1.33,0.38c-0.25,0-0.57,0.32-0.95,0.95
		C545.3,148.69,545.68,148.5,545.68,148.12z M546.45,149.83c0-0.25,0.12-0.38,0.38-0.38h-0.38V149.83z M547.02,149.45
		c0.13,0,0.38-0.19,0.76-0.57C547.27,148.88,547.02,149.07,547.02,149.45z M548.73,148.88v-0.19h-0.38l-0.57,0.19H548.73z"/>
	<path class="st1" d="M625.4,218.13c0.13-0.12,0.32-0.19,0.57-0.19c0.25,0,0.48,0.13,0.67,0.38c0.19,0.26,0.41,0.45,0.67,0.57
		c0.13,0,0.19,0.19,0.19,0.57c-0.26,0.64-0.45,1.21-0.57,1.71c-0.13,0.51-0.32,1.02-0.57,1.52c-1.9,3.17-3.78,6.25-5.61,9.23
		c-1.84,2.98-3.84,5.93-5.99,8.85c-0.76,1.14-1.62,2.32-2.57,3.52c-0.95,1.21-1.87,2.51-2.76,3.9l-5.14,4.57
		c-1.14,0.64-2.16,1.14-3.04,1.52c-0.89,0.38-1.84,0.57-2.85,0.57c-1.27,0-2.66-0.38-4.19-1.14c-1.4-0.63-2.73-1.49-4-2.57
		c-1.27-1.08-2.35-2.31-3.23-3.71c-1.02-1.77-1.65-3.8-1.9-6.09c0-0.51-0.03-1.01-0.09-1.52c-0.07-0.5-0.1-1.01-0.1-1.52
		c-0.13-0.38-0.19-0.89-0.19-1.52c0.63-6.59,1.78-12.87,3.42-18.83c0.25-0.63,0.51-1.27,0.76-1.9c0.25-0.63,0.38-1.27,0.38-1.9
		v-0.38c-0.64,0.26-0.98,0.6-1.05,1.05c-0.07,0.45-0.22,0.98-0.48,1.62l-7.23,12.75c-1.02,1.9-2.06,3.74-3.14,5.52
		c-1.08,1.78-2.25,3.55-3.52,5.33c-0.64,1.02-1.36,1.94-2.19,2.76c-0.83,0.83-1.68,1.75-2.57,2.76c-0.51,0.64-1.14,1.17-1.9,1.62
		c-0.76,0.45-1.46,0.79-2.09,1.05c-0.26,0.13-0.64,0.19-1.14,0.19c-0.38,0-1.08-0.13-2.09-0.38c-1.02-0.38-1.94-0.98-2.76-1.81
		c-0.83-0.82-1.75-1.68-2.76-2.57c-1.39-1.01-2.09-2.41-2.09-4.19c0-0.25,0.03-0.41,0.09-0.48c0.07-0.06,0.09-0.22,0.09-0.48
		c0-0.38-0.03-0.79-0.09-1.24c-0.06-0.44-0.09-0.86-0.09-1.24c0-1.9,0.16-3.71,0.48-5.42c0.32-1.71,0.79-3.39,1.43-5.04
		c0.38-1.52,0.86-3.04,1.43-4.57c0.57-1.52,1.17-2.98,1.81-4.38c1.77-3.42,3.93-6.78,6.47-10.08c0.5-0.89,0.82-1.33,0.95-1.33
		c0.63-1.01,1.33-1.74,2.09-2.19c0.76-0.44,1.52-0.98,2.28-1.62c0.5-0.38,1.01-0.57,1.52-0.57c0.25,0,0.5-0.03,0.76-0.09
		c0.25-0.06,0.5-0.09,0.76-0.09c1.39,0,2.92,0.32,4.57,0.95c1.65,0.64,3.11,1.59,4.38,2.85c0.38,0.38,0.67,0.83,0.86,1.33
		c0.19,0.51,0.41,1.02,0.67,1.52c0,0.13,0.03,0.26,0.1,0.38c0.06,0.13,0.09,0.32,0.09,0.57c0,0.51-0.19,0.95-0.57,1.33
		c-0.26,0.26-0.45,0.38-0.57,0.38c-0.13,0-0.45-0.13-0.95-0.38l-3.04-2.28c-0.26-0.25-0.51-0.38-0.76-0.38
		c-0.26,0-0.45,0.07-0.57,0.19l-2.28,2.09c-0.89,1.02-1.68,2.03-2.38,3.04c-0.7,1.02-1.43,2.03-2.19,3.04
		c-1.4,2.54-2.57,5.07-3.52,7.61c-0.95,2.54-1.87,5.14-2.76,7.8c-0.51,1.02-0.86,2.03-1.05,3.04c-0.19,1.02-0.41,2.03-0.67,3.04
		c-0.13,0.26-0.19,0.6-0.19,1.05c0,0.45,0,0.79,0,1.05c0,0.26,0.13,0.51,0.38,0.76h0.19c0.25,0,0.44-0.06,0.57-0.19
		c1.65-1.52,3.2-3.17,4.66-4.95c1.46-1.78,2.82-3.74,4.09-5.9c2.03-2.92,4.03-5.8,5.99-8.66c1.96-2.85,3.9-5.74,5.8-8.66
		c1.14-1.9,2.44-3.87,3.9-5.9c1.46-2.03,2.88-4,4.28-5.9l3.61-5.14c0.51-0.76,0.89-1.14,1.14-1.14c0.13,0,0.57,0.13,1.33,0.38
		c0.38,0.26,0.82,0.45,1.33,0.57c0.5,0.13,0.89,0.32,1.14,0.57c0.89,0.89,1.33,1.71,1.33,2.47c0,0.26-0.03,0.45-0.09,0.57
		c-0.07,0.13-0.09,0.32-0.09,0.57l-2.09,6.47c-1.02,3.42-2.03,6.88-3.04,10.37c-1.02,3.49-1.97,7.01-2.85,10.56
		c-0.26,1.52-0.54,3.04-0.86,4.57c-0.32,1.52-0.6,3.17-0.86,4.95c-0.13,1.02-0.22,2.03-0.29,3.04c-0.07,1.02-0.09,2.03-0.09,3.04
		c0,0.76,0.03,1.49,0.09,2.19c0.06,0.7,0.1,1.43,0.1,2.19c0,0.76,0.09,1.4,0.29,1.9c0.19,0.51,0.41,1.08,0.67,1.71
		c0.5,0.89,1.33,1.33,2.47,1.33h0.57c0.25-0.13,0.57-0.19,0.95-0.19c0.38,0,0.7-0.13,0.95-0.38c0.63-0.63,1.3-1.24,2-1.81
		c0.7-0.57,1.36-1.24,2-2c1.77-1.9,3.55-3.87,5.33-5.9c1.77-2.03,3.36-4.25,4.76-6.66c1.39-1.9,2.73-3.8,4-5.71
		c1.27-1.9,2.6-3.87,4-5.9c0.38-0.51,0.67-1.05,0.86-1.62c0.19-0.57,0.41-1.17,0.67-1.81l1.33-1.14c0.13-0.13,0.32-0.19,0.57-0.19
		c0.25,0,0.44,0.07,0.57,0.19c0.25,0.13,0.35,0.22,0.29,0.29C625.24,217.91,625.28,218.01,625.4,218.13z M568.71,210.14
		c-1.14,0.38-1.71,1.08-1.71,2.09l-0.76,0.57c-1.52,2.28-2.85,4.79-4,7.52c-1.14,2.73-2.09,5.49-2.85,8.28
		c-0.26,0.76-0.38,1.33-0.38,1.71c0,0.38,0.06,0.7,0.19,0.95c-0.51,0.13-0.76,0.51-0.76,1.14c0,0.13,0.03,0.22,0.09,0.29
		c0.06,0.06,0.1,0.16,0.1,0.29c0,0.13-0.03,0.19-0.1,0.19c-0.07,0-0.09,0.07-0.09,0.19c-0.13,0-0.13,0.07,0,0.19
		c0-0.13,0.03-0.22,0.09-0.29c0.06-0.06,0.1-0.16,0.1-0.29c0.38-0.25,0.57-0.89,0.57-1.9c0.25-0.13,0.57-0.7,0.95-1.71
		c0.76-2.54,1.62-5.04,2.57-7.51c0.95-2.47,2.12-4.85,3.52-7.13c0.25-0.25,0.41-0.63,0.48-1.14c0.06-0.51,0.22-0.95,0.48-1.33
		C567.69,212.11,568.2,211.41,568.71,210.14z M559.1,225.93c0.06,0,0.09-0.06,0.09-0.19l-0.19,0.38
		C559,226,559.03,225.93,559.1,225.93z M559.95,222.89c0-0.13,0.03-0.22,0.1-0.29c0.06-0.06,0.09-0.16,0.09-0.29
		c-0.26,0-0.38,0.13-0.38,0.38L559.95,222.89z M564.33,223.84c-0.38,0.38-0.51,0.57-0.38,0.57L564.33,223.84z M564.9,222.89
		c0.25-0.13,0.38-0.5,0.38-1.14C565.03,222.26,564.9,222.64,564.9,222.89z M565.28,221.75c0.25-0.13,0.38-0.32,0.38-0.57v-0.57
		C565.41,220.86,565.28,221.24,565.28,221.75z M565.66,220.61c0.63-0.25,1.01-0.76,1.14-1.52
		C566.04,219.21,565.66,219.72,565.66,220.61z M566.8,219.09c0.25-0.13,0.38-0.51,0.38-1.14
		C566.93,218.07,566.8,218.45,566.8,219.09z M567.18,217.94c0.76-0.51,1.14-1.39,1.14-2.66c-0.76,0.38-1.14,1.08-1.14,2.09V217.94z
		 M569.28,213.38c-0.64,0.38-0.95,1.02-0.95,1.9c0.63-0.25,0.95-0.63,0.95-1.14v-0.57c0.76-0.13,1.14-0.63,1.14-1.52
		C569.91,212.17,569.53,212.62,569.28,213.38z M568.71,210.14c0.51-0.51,0.76-1.08,0.76-1.71c-0.51,0.26-0.76,0.7-0.76,1.33V210.14z
		 M570.8,211.28c0.76-0.25,1.14-0.7,1.14-1.33C571.18,210.21,570.8,210.65,570.8,211.28z M616.84,232.02
		c-0.26,0.25-0.38,0.51-0.38,0.76L616.84,232.02z M620.46,226.89c-0.25,0.13-0.38,0.22-0.38,0.29c0,0.07-0.07,0.16-0.19,0.29
		l0.38-0.38L620.46,226.89z M622.55,222.89c0.38-0.13,0.57-0.25,0.57-0.38c-0.13,0-0.26,0.07-0.38,0.19L622.55,222.89z
		 M623.69,221.75c0,0.26-0.13,0.38-0.38,0.38c0.13,0,0.25-0.06,0.38-0.19V221.75z M624.64,218.7v0.38c0-0.13,0.03-0.19,0.09-0.19
		c0.06,0,0.09-0.06,0.09-0.19H624.64z"/>
	<path class="st1" d="M664.98,218.7c0.25,1.27,0.38,2.22,0.38,2.85c0,2.16-0.48,4.12-1.43,5.9c-0.95,1.78-1.97,3.36-3.04,4.76
		c-1.08,1.4-2.09,2.57-3.04,3.52c-0.95,0.95-1.43,1.56-1.43,1.81c0,0.13,0.13,0.19,0.38,0.19h0.19c-1.4,1.78-2.92,3.65-4.57,5.61
		c-1.65,1.97-3.17,3.65-4.57,5.04c-1.78,1.78-3.68,3.33-5.71,4.66c-2.03,1.33-4.25,2.31-6.66,2.95c-0.89,0.25-1.71,0.44-2.47,0.57
		c-0.76,0.13-1.59,0.19-2.47,0.19c-2.66,0-4.95-0.7-6.85-2.09c-1.4-1.01-2.7-2.03-3.9-3.04c-1.21-1.01-2.19-2.22-2.95-3.61
		c-0.64-1.27-1.08-2.66-1.33-4.19c-0.13-0.5-0.19-1.01-0.19-1.52c0-0.51,0-1.08,0-1.71c0-0.63,0-1.17,0-1.62
		c0-0.44,0.07-0.98,0.19-1.62v-4.57c0.25-1.14,0.51-2.25,0.76-3.33c0.25-1.08,0.51-2.12,0.76-3.14v-1.14c0-0.13,0.03-0.22,0.09-0.29
		c0.06-0.06,0.1-0.16,0.1-0.29c0-0.12-0.03-0.25-0.1-0.38c-0.07-0.13-0.09-0.25-0.09-0.38c0-0.13-0.03-0.19-0.1-0.19
		c-0.07,0-0.09-0.06-0.09-0.19l0.57-0.76c0.38-0.25,0.82-0.76,1.33-1.52c0.63-1.14,1.2-2.31,1.71-3.52c0.5-1.2,1.08-2.38,1.71-3.52
		c1.77-3.04,3.74-5.71,5.9-7.99c1.52-1.9,3.3-3.49,5.33-4.76c1.01-0.89,2.16-1.39,3.42-1.52c0.5-0.13,0.98-0.19,1.43-0.19
		c0.44,0,0.86,0,1.24,0c2.28,0,4.38,0.51,6.28,1.52c2.41,1.4,3.62,3.36,3.62,5.9v0.57c-0.13,1.9-0.7,3.81-1.71,5.71
		c-0.76,1.52-1.62,2.98-2.57,4.38c-0.95,1.4-2.13,2.6-3.52,3.61c-3.42,2.66-6.85,4.44-10.27,5.33l-2.09,0.57
		c-0.89,0.13-1.52,0.7-1.9,1.71l-1.9,14.65v0.76c0,0.64,0.06,1.3,0.19,2c0.13,0.7,0.32,1.36,0.57,2c0.13,1.14,0.89,1.71,2.28,1.71
		h1.52c1.77-0.38,3.52-0.89,5.23-1.52c1.71-0.63,3.33-1.46,4.85-2.47c1.52-1.01,2.98-2.12,4.38-3.33c1.39-1.2,2.79-2.5,4.19-3.9
		c0.76-0.76,1.84-1.68,3.23-2.76c1.39-1.08,2.54-2.12,3.42-3.14c1.14-1.39,2.22-2.76,3.23-4.09c1.01-1.33,2.03-2.69,3.04-4.09
		c0.63-1.01,1.24-2.03,1.81-3.04C663.93,220.73,664.47,219.72,664.98,218.7z M622.93,219.27l0.38-0.38c-0.13,0-0.19,0.03-0.19,0.09
		c0,0.07-0.07,0.1-0.19,0.1V219.27z M623.31,218.7c0.76-0.51,1.14-1.33,1.14-2.47C623.81,216.87,623.43,217.69,623.31,218.7z
		 M626.35,217.37c1.01-1.9,2.12-3.77,3.33-5.61c1.2-1.84,2.57-3.64,4.09-5.42v-0.76l-0.57,0.38c-0.26,0.25-0.57,0.54-0.95,0.86
		c-0.38,0.32-0.7,0.67-0.95,1.05c-1.14,1.4-2.19,2.85-3.14,4.38c-0.95,1.52-1.87,3.11-2.76,4.76c-0.51,1.02-0.95,2.28-1.33,3.81
		l0.95-1.33c0.25-0.25,0.48-0.6,0.67-1.05C625.88,217.98,626.1,217.63,626.35,217.37z M625.21,215.28
		c-0.26,0.13-0.51,0.45-0.76,0.95C624.96,216.11,625.21,215.79,625.21,215.28z M626.92,212.24c-0.89,0.64-1.46,1.65-1.71,3.04
		c0.89-0.89,1.52-1.9,1.9-3.04c0.25-0.25,0.38-0.57,0.38-0.95C627.11,211.54,626.92,211.86,626.92,212.24z M628.64,209.76
		c-0.64,0.38-1.02,0.89-1.14,1.52C628.26,211.16,628.64,210.65,628.64,209.76z M629.4,208.81c-0.38,0.13-0.57,0.45-0.57,0.95
		L629.4,208.81z M629.97,208.24c0.25-0.25,0.38-0.57,0.38-0.95L629.97,208.24z M630.35,214.9c0.13-0.12,0.19-0.31,0.19-0.57
		c0,0.13-0.03,0.19-0.09,0.19c-0.07,0-0.1,0.07-0.1,0.19V214.9z M630.73,214.33c0.38-0.13,0.57-0.44,0.57-0.95
		C631.04,213.63,630.85,213.95,630.73,214.33z M640.81,206.53c-0.64,0.38-1.21,0.83-1.71,1.33c-0.51,0.51-1.08,1.02-1.71,1.52
		c-1.27,1.52-2.35,3.08-3.23,4.66c-0.89,1.59-1.78,3.27-2.66,5.04c-0.13,0.13-0.19,0.32-0.19,0.57v0.19c0,0.26,0.19,0.38,0.57,0.38
		c0.51-0.25,0.95-0.48,1.33-0.67c0.38-0.19,0.76-0.41,1.14-0.67c1.39-1.14,2.69-2.35,3.9-3.62c1.2-1.27,2.19-2.73,2.95-4.38
		c0.89-1.52,1.39-2.92,1.52-4.19v-0.19c0-0.38-0.26-0.57-0.76-0.57h-0.38L640.81,206.53z M636.63,206.53
		c-0.26,0-0.45,0.07-0.57,0.19c-1.02,1.02-1.94,2.03-2.76,3.04c-0.83,1.02-1.49,2.22-2,3.62c0.38-0.13,0.63-0.38,0.76-0.76
		c0.76-1.01,1.55-1.97,2.38-2.85c0.82-0.89,1.55-1.84,2.19-2.85V206.53z M642.72,212.24c0,0.13-0.13,0.32-0.38,0.57
		c-0.25,0.51-0.38,0.83-0.38,0.95h0.38c-0.25,0.26-0.41,0.57-0.48,0.95c-0.07,0.38-0.16,0.7-0.29,0.95
		c-0.13,0.26-0.29,0.41-0.48,0.48c-0.19,0.07-0.35,0.22-0.48,0.48v0.19h0.19c0.25-0.13,0.41-0.25,0.48-0.38
		c0.06-0.13,0.22-0.32,0.48-0.57c0.5-0.38,0.92-0.82,1.24-1.33c0.32-0.51,0.6-1.01,0.86-1.52c0.25-0.25,0.38-0.54,0.38-0.86
		c0-0.31,0.06-0.6,0.19-0.86c-0.38,0-0.6,0.16-0.67,0.48c-0.07,0.32-0.22,0.54-0.48,0.67l-0.38,0.38c-0.13,0-0.19-0.06-0.19-0.19
		V212.24z M642.15,217.94l0.38-0.19C642.4,217.75,642.27,217.82,642.15,217.94z M644.62,214.9c-0.89,0.38-1.46,1.21-1.71,2.47
		C643.79,216.87,644.36,216.04,644.62,214.9z M645.19,214.14c-0.26,0.13-0.38,0.22-0.38,0.29c0,0.07-0.07,0.16-0.19,0.29
		c0.13,0,0.19-0.03,0.19-0.1c0-0.06,0.06-0.09,0.19-0.09C645,214.39,645.06,214.27,645.19,214.14z M649.95,240.96
		c0.13-0.13,0.38-0.29,0.76-0.48c0.38-0.19,0.63-0.41,0.76-0.67l-1.71,1.14v0.19L649.95,240.96z M652.42,241.35
		c0-0.13-0.07-0.19-0.19-0.19l-0.57,0.57C651.91,241.47,652.16,241.35,652.42,241.35z M652.8,238.3c-0.26,0.25-0.38,0.57-0.38,0.95
		L652.8,238.3z M652.99,240.58c0.38-0.12,0.57-0.44,0.57-0.95C653.18,239.89,652.99,240.2,652.99,240.58z M653.56,239.63
		c0.38-0.13,0.63-0.38,0.76-0.76c-0.13,0.13-0.25,0.22-0.38,0.29C653.81,239.22,653.69,239.38,653.56,239.63z M653.75,237.54
		c0.5-0.13,0.95-0.7,1.33-1.71c-0.38,0.26-0.67,0.48-0.86,0.67S653.88,237.03,653.75,237.54z M654.32,238.87
		c0.51-0.25,0.95-0.76,1.33-1.52C654.89,237.86,654.45,238.37,654.32,238.87z M655.08,235.83c0.63-0.13,1.14-0.7,1.52-1.71
		C655.97,234.37,655.46,234.94,655.08,235.83z M656.41,236.21c-0.25,0.25-0.45,0.57-0.57,0.95L656.41,236.21z M656.6,234.11
		c0.76-0.25,1.14-0.7,1.14-1.33C657.11,233.04,656.73,233.48,656.6,234.11z M657.75,232.59c0.63-0.25,1.11-0.63,1.43-1.14
		c0.32-0.5,0.6-1.08,0.86-1.71c-0.51,0.38-0.92,0.79-1.24,1.24C658.47,231.42,658.13,231.96,657.75,232.59z M659.08,232.97
		c-0.38,0.38-0.57,0.7-0.57,0.95L659.08,232.97z M659.27,232.78c0.38-0.38,0.57-0.69,0.57-0.95L659.27,232.78z M660.03,229.74
		c0.13,0,0.32-0.32,0.57-0.95h-0.38l-0.19,0.19V229.74z M660.6,228.79c0.5-0.13,0.76-0.44,0.76-0.95h-0.57L660.6,228.79z
		 M662.88,225.17c-0.89,0.89-1.4,1.65-1.52,2.28v0.38c0.38-0.38,0.73-0.76,1.05-1.14C662.72,226.31,662.88,225.81,662.88,225.17z
		 M662.88,225.17c0.51-0.13,0.76-0.32,0.76-0.57l-0.38-0.38v-0.19h-0.19l0.19,0.19C663.26,224.6,663.14,224.92,662.88,225.17z"/>
</g>
<g>
	<g>
		<path class="st0" d="M354.63,96.11c4.8-8.33,8.65-20.67,2.09-28.13c-2.41-2.74-6.43-3.83-9.78-4.88c-2.53-0.8-4.97-1.66-7.18-2.89
			l1.69,4.08c2.66,1.1,5.48,1.98,8.36,3.02c10.41,3.79,7.67,16.17,3.27,25.04L354.63,96.11z"/>
	</g>
	<g>
		<path class="st1" d="M361.14,96.03v-5.77c-0.52,0.09-1,0.41-1.23,1.02c-1.01,2.74-2.42,5.24-4.15,7.52l1.35,3.26
			C358.66,100.19,360.01,98.18,361.14,96.03z"/>
	</g>
	<g>
		<path class="st1" d="M361.14,51.86c-4.27,2.23-8.56,4.43-12.9,6.51c-1.54,0.74-0.58,2.74,0.78,2.88
			c4.86,0.52,9.12,2.57,12.12,6.46v-4.45c-2.16-1.93-4.64-3.29-7.41-4.14c2.48-1.23,4.95-2.5,7.41-3.78V51.86z"/>
	</g>
	<g>
		<path class="st0" d="M367.64,96.11c-4.8-8.33-8.65-20.67-2.09-28.13c2.41-2.74,6.43-3.83,9.78-4.88c2.52-0.8,4.97-1.66,7.18-2.89
			l-1.69,4.08c-2.66,1.1-5.48,1.98-8.36,3.02c-10.41,3.79-7.67,16.17-3.27,25.04L367.64,96.11z"/>
	</g>
	<g>
		<path class="st1" d="M361.14,96.03v-5.77c0.52,0.09,1.01,0.41,1.23,1.02c1.01,2.74,2.43,5.24,4.15,7.52l-1.35,3.26
			C363.62,100.19,362.27,98.18,361.14,96.03z"/>
	</g>
	<g>
		<path class="st1" d="M361.14,51.86c4.27,2.23,8.56,4.43,12.9,6.51c1.54,0.74,0.59,2.74-0.78,2.88c-4.86,0.52-9.12,2.57-12.13,6.46
			v-4.45c2.17-1.93,4.64-3.29,7.41-4.14c-2.48-1.23-4.95-2.5-7.41-3.78V51.86z"/>
	</g>
	<g>
		<path class="st0" d="M345.43,105.31c-2.49-9.29-8.5-20.73-18.41-21.37c-3.65-0.23-7.26,1.84-10.37,3.46
			c-2.35,1.22-4.69,2.34-7.12,3.04l4.08,1.69c2.66-1.1,5.28-2.48,8.05-3.77c10.04-4.68,16.86,6.02,20.02,15.4L345.43,105.31z"/>
	</g>
	<g>
		<path class="st1" d="M349.98,100.65l-4.08-4.08c-0.31,0.43-0.43,1-0.15,1.6c1.22,2.65,1.99,5.42,2.38,8.26l3.26,1.35
			C351.17,105.35,350.7,102.97,349.98,100.65z"/>
	</g>
	<g>
		<path class="st1" d="M318.74,69.42c-1.44,4.6-2.92,9.19-4.52,13.73c-0.57,1.61,1.52,2.35,2.59,1.49
			c3.81-3.07,8.27-4.63,13.14-4.01l-3.15-3.15c-2.89,0.17-5.61,0.96-8.17,2.31c0.88-2.63,1.73-5.27,2.56-7.91L318.74,69.42z"/>
	</g>
	<g>
		<path class="st0" d="M354.63,96.11c-9.29-2.49-20.73-8.5-21.37-18.41c-0.23-3.65,1.84-7.26,3.46-10.37
			c1.22-2.35,2.34-4.69,3.04-7.12l1.69,4.08c-1.1,2.66-2.48,5.27-3.77,8.05c-4.68,10.04,6.02,16.86,15.4,20.02L354.63,96.11z"/>
	</g>
	<g>
		<path class="st1" d="M349.98,100.65l-4.08-4.08c0.43-0.31,1-0.43,1.6-0.15c2.65,1.23,5.42,1.99,8.26,2.38l1.35,3.26
			C354.67,101.84,352.29,101.38,349.98,100.65z"/>
	</g>
	<g>
		<path class="st1" d="M318.74,69.42c4.6-1.44,9.19-2.92,13.73-4.52c1.61-0.57,2.35,1.52,1.49,2.59c-3.06,3.8-4.63,8.27-4,13.14
			l-3.15-3.15c0.17-2.89,0.96-5.61,2.31-8.17c-2.63,0.88-5.27,1.73-7.91,2.56L318.74,69.42z"/>
	</g>
	<g>
		<path class="st0" d="M345.43,118.32c-8.33-4.8-20.67-8.65-28.13-2.09c-2.75,2.41-3.83,6.43-4.88,9.78
			c-0.79,2.52-1.66,4.97-2.89,7.18l4.08-1.69c1.1-2.66,1.98-5.48,3.03-8.36c3.79-10.41,16.17-7.67,25.04-3.27L345.43,118.32z"/>
	</g>
	<g>
		<path class="st1" d="M345.35,111.82l-5.77,0c0.09,0.52,0.4,1.01,1.02,1.24c2.74,1.01,5.23,2.43,7.52,4.15l3.26-1.35
			C349.51,114.29,347.5,112.94,345.35,111.82z"/>
	</g>
	<g>
		<path class="st1" d="M301.18,111.82c2.23,4.27,4.43,8.56,6.51,12.91c0.74,1.54,2.74,0.58,2.88-0.78
			c0.52-4.86,2.58-9.12,6.46-12.12h-4.45c-1.93,2.17-3.29,4.64-4.14,7.41c-1.23-2.48-2.5-4.95-3.78-7.41H301.18z"/>
	</g>
	<g>
		<path class="st0" d="M345.43,105.31c-8.33,4.8-20.67,8.65-28.13,2.09c-2.74-2.41-3.83-6.43-4.88-9.78
			c-0.79-2.53-1.66-4.97-2.89-7.18l4.08,1.69c1.1,2.66,1.98,5.48,3.03,8.36c3.79,10.41,16.17,7.67,25.04,3.27L345.43,105.31z"/>
	</g>
	<g>
		<path class="st1" d="M345.35,111.82l-5.77,0c0.09-0.52,0.4-1.01,1.02-1.23c2.74-1.01,5.23-2.43,7.52-4.15l3.26,1.35
			C349.51,109.34,347.5,110.69,345.35,111.82z"/>
	</g>
	<g>
		<path class="st1" d="M301.18,111.82c2.23-4.27,4.43-8.56,6.51-12.91c0.74-1.54,2.74-0.58,2.88,0.78
			c0.52,4.86,2.58,9.12,6.46,12.12h-4.45c-1.92-2.16-3.29-4.64-4.14-7.41c-1.23,2.48-2.5,4.95-3.78,7.41H301.18z"/>
	</g>
	<g>
		<path class="st0" d="M354.63,127.52c-9.29,2.5-20.73,8.5-21.37,18.41c-0.23,3.65,1.84,7.26,3.47,10.37
			c1.22,2.35,2.34,4.69,3.04,7.12l1.69-4.08c-1.1-2.66-2.48-5.28-3.77-8.05c-4.68-10.04,6.01-16.86,15.4-20.02L354.63,127.52z"/>
	</g>
	<g>
		<path class="st1" d="M349.98,122.98l-4.08,4.08c0.43,0.31,1,0.43,1.6,0.15c2.65-1.22,5.42-1.99,8.26-2.38l1.35-3.26
			C354.67,121.79,352.29,122.26,349.98,122.98z"/>
	</g>
	<g>
		<path class="st1" d="M318.74,154.21c4.6,1.44,9.19,2.92,13.73,4.52c1.61,0.57,2.35-1.52,1.49-2.59c-3.06-3.81-4.63-8.27-4-13.14
			l-3.15,3.15c0.17,2.89,0.96,5.61,2.31,8.17c-2.63-0.88-5.27-1.73-7.91-2.56L318.74,154.21z"/>
	</g>
	<g>
		<path class="st0" d="M345.43,118.32c-2.49,9.29-8.5,20.73-18.41,21.37c-3.65,0.23-7.26-1.84-10.37-3.46
			c-2.35-1.22-4.69-2.34-7.12-3.04l4.08-1.69c2.66,1.1,5.28,2.48,8.05,3.77c10.04,4.68,16.86-6.02,20.02-15.4L345.43,118.32z"/>
	</g>
	<g>
		<path class="st1" d="M349.98,122.98l-4.08,4.08c-0.31-0.43-0.43-1-0.15-1.6c1.22-2.65,1.99-5.42,2.38-8.26l3.26-1.35
			C351.17,118.28,350.7,120.66,349.98,122.98z"/>
	</g>
	<g>
		<path class="st1" d="M318.74,154.21c-1.44-4.6-2.92-9.19-4.52-13.73c-0.57-1.61,1.52-2.35,2.59-1.49
			c3.81,3.07,8.27,4.63,13.14,4.01l-3.15,3.15c-2.89-0.17-5.61-0.96-8.17-2.31c0.88,2.63,1.73,5.27,2.56,7.91L318.74,154.21z"/>
	</g>
	<g>
		<path class="st0" d="M367.64,127.52c-4.8,8.33-8.65,20.67-2.09,28.13c2.41,2.74,6.43,3.83,9.78,4.88
			c2.52,0.79,4.97,1.66,7.18,2.89l-1.69-4.08c-2.66-1.1-5.48-1.98-8.36-3.02c-10.41-3.79-7.67-16.17-3.27-25.04L367.64,127.52z"/>
	</g>
	<g>
		<path class="st1" d="M361.14,127.6v5.77c0.52-0.09,1.01-0.4,1.23-1.02c1.01-2.74,2.43-5.23,4.15-7.52l-1.35-3.26
			C363.62,123.44,362.27,125.45,361.14,127.6z"/>
	</g>
	<g>
		<path class="st1" d="M361.14,171.77c4.27-2.23,8.56-4.43,12.9-6.51c1.54-0.74,0.59-2.74-0.78-2.88
			c-4.86-0.52-9.12-2.57-12.12-6.46v4.45c2.16,1.93,4.64,3.29,7.41,4.14c-2.48,1.24-4.95,2.5-7.41,3.78L361.14,171.77z"/>
	</g>
	<g>
		<path class="st0" d="M354.63,127.52c4.81,8.33,8.65,20.67,2.09,28.13c-2.42,2.74-6.43,3.83-9.78,4.88
			c-2.53,0.79-4.97,1.66-7.18,2.89l1.69-4.08c2.66-1.1,5.48-1.98,8.36-3.02c10.41-3.79,7.67-16.17,3.27-25.04L354.63,127.52z"/>
	</g>
	<g>
		<path class="st1" d="M361.14,127.6v5.77c-0.52-0.09-1-0.4-1.23-1.02c-1.01-2.74-2.43-5.23-4.15-7.52l1.35-3.26
			C358.66,123.44,360.01,125.45,361.14,127.6z"/>
	</g>
	<g>
		<path class="st1" d="M361.14,171.77c-4.27-2.23-8.56-4.43-12.9-6.51c-1.54-0.74-0.58-2.74,0.78-2.88
			c4.86-0.52,9.12-2.57,12.13-6.46v4.45c-2.17,1.93-4.64,3.29-7.41,4.14c2.48,1.23,4.95,2.5,7.41,3.78L361.14,171.77z"/>
	</g>
	<g>
		<path class="st0" d="M376.84,118.32c2.5,9.29,8.5,20.73,18.41,21.37c3.65,0.23,7.26-1.84,10.37-3.46
			c2.35-1.22,4.69-2.34,7.12-3.04l-4.08-1.69c-2.66,1.1-5.28,2.48-8.05,3.77c-10.04,4.68-16.86-6.01-20.02-15.4L376.84,118.32z"/>
	</g>
	<g>
		<path class="st1" d="M372.3,122.98l4.08,4.08c0.31-0.43,0.43-1,0.15-1.6c-1.22-2.66-1.99-5.42-2.38-8.26l-3.26-1.35
			C371.11,118.29,371.58,120.66,372.3,122.98z"/>
	</g>
	<g>
		<path class="st1" d="M403.53,154.21c1.44-4.6,2.92-9.19,4.52-13.73c0.57-1.61-1.52-2.35-2.59-1.49c-3.81,3.07-8.27,4.63-13.14,4
			l3.15,3.15c2.89-0.17,5.61-0.96,8.17-2.31c-0.88,2.63-1.73,5.27-2.56,7.91L403.53,154.21z"/>
	</g>
	<g>
		<path class="st0" d="M367.64,127.52c9.29,2.49,20.73,8.5,21.37,18.41c0.23,3.65-1.84,7.26-3.46,10.37
			c-1.22,2.35-2.34,4.69-3.04,7.12l-1.69-4.08c1.1-2.66,2.48-5.27,3.77-8.05c4.68-10.04-6.01-16.86-15.4-20.02L367.64,127.52z"/>
	</g>
	<g>
		<path class="st1" d="M372.3,122.98l4.08,4.08c-0.43,0.31-1,0.43-1.6,0.15c-2.65-1.22-5.42-1.99-8.26-2.38l-1.35-3.26
			C367.61,121.79,369.98,122.25,372.3,122.98z"/>
	</g>
	<g>
		<path class="st1" d="M403.53,154.21c-4.6,1.44-9.18,2.92-13.73,4.52c-1.61,0.57-2.35-1.52-1.49-2.59c3.07-3.81,4.63-8.27,4-13.14
			l3.15,3.15c-0.17,2.89-0.96,5.61-2.31,8.17c2.63-0.88,5.27-1.73,7.91-2.56L403.53,154.21z"/>
	</g>
	<g>
		<path class="st0" d="M376.84,105.31c8.33,4.8,20.67,8.65,28.13,2.09c2.74-2.41,3.83-6.44,4.88-9.78c0.8-2.52,1.66-4.97,2.89-7.18
			l-4.08,1.69c-1.1,2.66-1.98,5.48-3.03,8.36c-3.79,10.41-16.17,7.67-25.04,3.27L376.84,105.31z"/>
	</g>
	<g>
		<path class="st1" d="M376.93,111.82l5.77,0c-0.09-0.52-0.4-1.01-1.03-1.24c-2.74-1.01-5.23-2.43-7.52-4.15l-3.26,1.35
			C372.76,109.34,374.77,110.69,376.93,111.82z"/>
	</g>
	<g>
		<path class="st1" d="M421.1,111.82c-2.23-4.27-4.43-8.56-6.51-12.91c-0.74-1.54-2.74-0.58-2.89,0.78
			c-0.52,4.86-2.57,9.12-6.46,12.12h4.45c1.93-2.16,3.29-4.64,4.14-7.41c1.24,2.48,2.5,4.95,3.78,7.41L421.1,111.82z"/>
	</g>
	<g>
		<path class="st0" d="M376.84,118.32c8.33-4.8,20.67-8.65,28.13-2.09c2.75,2.42,3.83,6.43,4.88,9.78c0.8,2.53,1.66,4.97,2.89,7.18
			l-4.08-1.69c-1.1-2.66-1.98-5.48-3.02-8.36c-3.79-10.41-16.17-7.67-25.04-3.27L376.84,118.32z"/>
	</g>
	<g>
		<path class="st1" d="M376.93,111.82l5.77,0c-0.09,0.52-0.4,1.01-1.03,1.23c-2.74,1.01-5.23,2.43-7.52,4.15l-3.26-1.35
			C372.77,114.29,374.77,112.94,376.93,111.82z"/>
	</g>
	<g>
		<path class="st1" d="M421.1,111.82c-2.23,4.27-4.43,8.56-6.51,12.9c-0.74,1.54-2.74,0.59-2.88-0.78
			c-0.52-4.86-2.57-9.12-6.46-12.12h4.45c1.93,2.16,3.29,4.64,4.14,7.41c1.23-2.48,2.5-4.95,3.78-7.41L421.1,111.82z"/>
	</g>
	<g>
		<path class="st0" d="M367.64,96.11c9.29-2.5,20.73-8.5,21.37-18.41c0.23-3.65-1.84-7.26-3.46-10.37
			c-1.22-2.35-2.34-4.69-3.04-7.12l-1.69,4.08c1.1,2.66,2.48,5.28,3.77,8.05c4.68,10.04-6.01,16.86-15.4,20.02L367.64,96.11z"/>
	</g>
	<g>
		<path class="st1" d="M372.3,100.65l4.08-4.08c-0.43-0.31-1-0.43-1.6-0.15c-2.65,1.22-5.42,1.99-8.26,2.38l-1.35,3.26
			C367.61,101.84,369.98,101.38,372.3,100.65z"/>
	</g>
	<g>
		<path class="st1" d="M403.53,69.42c-4.6-1.44-9.18-2.92-13.73-4.52c-1.61-0.57-2.35,1.52-1.49,2.59c3.07,3.8,4.63,8.27,4,13.14
			l3.15-3.15c-0.17-2.89-0.96-5.61-2.31-8.17c2.63,0.88,5.27,1.73,7.91,2.56L403.53,69.42z"/>
	</g>
	<g>
		<path class="st0" d="M376.84,105.31c2.49-9.29,8.5-20.73,18.41-21.37c3.65-0.23,7.26,1.84,10.37,3.46
			c2.35,1.22,4.69,2.34,7.12,3.04l-4.08,1.69c-2.66-1.1-5.28-2.48-8.05-3.77c-10.04-4.68-16.86,6.02-20.02,15.4L376.84,105.31z"/>
	</g>
	<g>
		<path class="st1" d="M372.3,100.65l4.08-4.08c0.31,0.43,0.43,1,0.15,1.6c-1.22,2.65-1.99,5.42-2.38,8.26l-3.26,1.35
			C371.11,105.35,371.58,102.97,372.3,100.65z"/>
	</g>
	<g>
		<path class="st1" d="M403.53,69.42c1.44,4.6,2.92,9.19,4.52,13.73c0.57,1.61-1.52,2.35-2.59,1.49c-3.81-3.07-8.27-4.63-13.14-4
			l3.15-3.15c2.89,0.17,5.61,0.96,8.17,2.31c-0.88-2.63-1.73-5.27-2.56-7.91L403.53,69.42z"/>
	</g>
</g>
</svg>
