<?xml version="1.0" encoding="utf-8"?>
<!-- Generator: Adobe Illustrator 23.0.3, SVG Export Plug-In . SVG Version: 6.00 Build 0)  -->
<svg version="1.1" id="Layer_1" xmlns="http://www.w3.org/2000/svg" xmlns:xlink="http://www.w3.org/1999/xlink" x="0px" y="0px"
	 viewBox="0 0 837.25 229.82" style="enable-background:new 0 0 837.25 229.82;" xml:space="preserve">
<style type="text/css">
	.st0{fill:#14A0A9;}
	.st1{fill:#1E2242;}
</style>
<g>
	<path class="st0" d="M404.49,171.51c1.88,0,3.49,0.66,4.83,1.98c1.35,1.32,2.04,2.92,2.07,4.79c0.02,1.92-0.66,3.57-2.06,4.95
		c-1.39,1.37-3.06,2.06-5.01,2.06h-7.6v11.62c0,0.17-0.08,0.25-0.25,0.25h-1.2c-0.17,0-0.25-0.08-0.25-0.25v-25.16
		c0-0.17,0.08-0.25,0.25-0.25H404.49z M404.49,183.62c1.43,0,2.66-0.51,3.68-1.54c1.01-1.01,1.52-2.23,1.52-3.67
		c0-1.44-0.51-2.67-1.52-3.68c-1.02-1.03-2.25-1.54-3.68-1.54h-7.76v10.42H404.49z"/>
	<path class="st0" d="M416.95,197.13c-0.17,0-0.25-0.08-0.25-0.25V171.8c0-0.17,0.08-0.25,0.25-0.25h1.2c0.15,0,0.23,0.08,0.23,0.25
		v25.08c0,0.17-0.08,0.25-0.23,0.25H416.95z M434.67,185.19H416.7v-1.7h17.97V185.19z M433.24,197.17c-0.17,0-0.25-0.08-0.25-0.25
		v-25.08c0-0.17,0.08-0.25,0.25-0.25h1.2c0.15,0,0.23,0.08,0.23,0.25v25.08c0,0.17-0.08,0.25-0.23,0.25H433.24z"/>
	<path class="st0" d="M447.68,196.17c-1.53-0.66-2.88-1.57-4.08-2.75c-1.18-1.19-2.1-2.55-2.75-4.08c-0.67-1.58-1-3.25-1-4.99
		c0-1.74,0.33-3.4,1-4.99c0.66-1.53,1.57-2.88,2.75-4.08c1.19-1.18,2.55-2.09,4.08-2.74c1.59-0.68,3.25-1.02,4.99-1.02
		s3.4,0.34,4.99,1.02c1.53,0.64,2.88,1.56,4.08,2.74c1.18,1.19,2.09,2.55,2.74,4.08c0.68,1.58,1.02,3.25,1.02,4.99
		c0,1.74-0.34,3.4-1.02,4.99c-0.64,1.53-1.56,2.88-2.74,4.08c-1.19,1.18-2.55,2.1-4.08,2.75c-1.59,0.67-3.25,1-4.99,1
		S449.27,196.84,447.68,196.17z M448.34,174.11c-1.33,0.56-2.52,1.35-3.54,2.38c-1.02,1.03-1.82,2.21-2.38,3.54
		c-0.58,1.38-0.88,2.83-0.88,4.33c0,1.5,0.29,2.94,0.88,4.33c0.56,1.33,1.35,2.51,2.38,3.54s2.21,1.82,3.54,2.38
		c1.38,0.58,2.82,0.88,4.33,0.88s2.94-0.29,4.33-0.88c1.33-0.56,2.51-1.35,3.54-2.38c1.02-1.03,1.82-2.21,2.38-3.54
		c0.58-1.38,0.88-2.83,0.88-4.33c0-1.5-0.29-2.94-0.88-4.33c-0.56-1.33-1.35-2.51-2.38-3.54c-1.03-1.02-2.21-1.82-3.54-2.38
		c-1.38-0.58-2.82-0.88-4.33-0.88S449.73,173.52,448.34,174.11z"/>
	<path class="st0" d="M481.6,171.55c0.17,0,0.25,0.08,0.25,0.25v1.2c0,0.17-0.08,0.25-0.25,0.25h-7.21v23.67
		c0,0.17-0.08,0.25-0.25,0.25h-1.2c-0.15,0-0.23-0.08-0.23-0.25v-23.67h-7.21c-0.17,0-0.25-0.08-0.25-0.25v-1.2
		c0-0.17,0.08-0.25,0.25-0.25H481.6z"/>
	<path class="st0" d="M488.64,196.17c-1.53-0.66-2.88-1.57-4.08-2.75c-1.18-1.19-2.1-2.55-2.75-4.08c-0.67-1.58-1-3.25-1-4.99
		c0-1.74,0.33-3.4,1-4.99c0.66-1.53,1.57-2.88,2.75-4.08c1.19-1.18,2.55-2.09,4.08-2.74c1.59-0.68,3.25-1.02,4.99-1.02
		s3.4,0.34,4.99,1.02c1.53,0.64,2.88,1.56,4.08,2.74c1.18,1.19,2.09,2.55,2.74,4.08c0.68,1.58,1.02,3.25,1.02,4.99
		c0,1.74-0.34,3.4-1.02,4.99c-0.64,1.53-1.56,2.88-2.74,4.08c-1.19,1.18-2.55,2.1-4.08,2.75c-1.59,0.67-3.25,1-4.99,1
		S490.23,196.84,488.64,196.17z M489.3,174.11c-1.33,0.56-2.52,1.35-3.54,2.38c-1.02,1.03-1.82,2.21-2.38,3.54
		c-0.58,1.38-0.88,2.83-0.88,4.33c0,1.5,0.29,2.94,0.88,4.33c0.56,1.33,1.35,2.51,2.38,3.54s2.21,1.82,3.54,2.38
		c1.38,0.58,2.82,0.88,4.33,0.88s2.94-0.29,4.33-0.88c1.33-0.56,2.51-1.35,3.54-2.38c1.02-1.03,1.82-2.21,2.38-3.54
		c0.58-1.38,0.88-2.83,0.88-4.33c0-1.5-0.29-2.94-0.88-4.33c-0.56-1.33-1.35-2.51-2.38-3.54c-1.03-1.02-2.21-1.82-3.54-2.38
		c-1.38-0.58-2.82-0.88-4.33-0.88S490.69,173.52,489.3,174.11z"/>
	<path class="st0" d="M519.27,196.24c-1.68-0.68-3.15-1.67-4.42-2.97c-1.26-1.31-2.21-2.82-2.84-4.52
		c-0.64-1.78-0.88-3.62-0.72-5.52c0.27-3.12,1.55-5.79,3.83-8.01c2.28-2.22,4.98-3.42,8.12-3.61c1.85-0.12,3.62,0.14,5.31,0.79
		c1.69,0.63,3.19,1.59,4.51,2.88c0.12,0.12,0.12,0.24,0,0.36l-0.86,0.84c-0.12,0.11-0.24,0.11-0.36,0c-2.13-2.12-4.71-3.19-7.72-3.2
		c-2.9-0.02-5.42,0.95-7.58,2.93c-2.16,1.99-3.35,4.43-3.58,7.31c-0.12,1.6,0.09,3.13,0.63,4.61c0.51,1.43,1.29,2.7,2.32,3.81
		c1.04,1.12,2.25,1.98,3.63,2.59c1.43,0.64,2.93,0.97,4.51,0.97c2.98,0,5.54-1.03,7.69-3.09v-5.9h-5.36c-0.17,0-0.25-0.08-0.25-0.25
		v-1.2c0-0.17,0.08-0.25,0.25-0.25h6.79c0.17,0,0.25,0.08,0.25,0.25v7.94c0,0.07-0.02,0.13-0.07,0.18l-0.04,0.04
		c-1.16,1.17-2.46,2.1-3.92,2.79c-1.5,0.69-3.06,1.08-4.67,1.16C522.83,197.25,521.01,196.94,519.27,196.24z"/>
	<path class="st0" d="M539.51,185.33v-13.52c0-0.17,0.08-0.25,0.25-0.25h9.19c1.87,0,3.48,0.66,4.83,1.97
		c1.33,1.32,2.02,2.92,2.06,4.79c0.02,1.92-0.66,3.57-2.06,4.95c-1.39,1.37-3.06,2.06-4.99,2.06H539.51z M539.76,197.17
		c-0.17,0-0.25-0.08-0.25-0.25v-15.29h1.68v15.29c0,0.17-0.08,0.25-0.23,0.25H539.76z M541.19,183.64h7.76
		c1.43,0,2.65-0.51,3.67-1.52c1.01-1.01,1.52-2.23,1.52-3.67s-0.51-2.66-1.52-3.68c-1.01-1.01-2.24-1.52-3.67-1.52h-7.76V183.64z
		 M553.67,197.17c-0.1,0-0.17-0.04-0.21-0.13l-6.53-11.92l1.48-0.8l6.83,12.5c0.05,0.07,0.05,0.15,0,0.23
		c-0.05,0.08-0.12,0.13-0.21,0.13H553.67z"/>
	<path class="st0" d="M570.13,171.53c0.11,0,0.18,0.05,0.23,0.14l10.44,25.16c0.04,0.08,0.03,0.16-0.02,0.23s-0.12,0.11-0.21,0.11
		h-1.29c-0.11,0-0.18-0.05-0.23-0.16l-4.34-10.48h-10.69l-4.36,10.48c-0.05,0.11-0.13,0.16-0.23,0.16h-1.29
		c-0.08,0-0.15-0.04-0.21-0.11c-0.05-0.07-0.05-0.15-0.02-0.23l10.44-25.16c0.05-0.09,0.13-0.14,0.23-0.14H570.13z M574.01,184.85
		l-4.65-11.19l-4.65,11.19H574.01z"/>
	<path class="st0" d="M593.48,171.51c1.88,0,3.49,0.66,4.83,1.98c1.35,1.32,2.04,2.92,2.07,4.79c0.02,1.92-0.66,3.57-2.06,4.95
		c-1.39,1.37-3.06,2.06-5.01,2.06h-7.6v11.62c0,0.17-0.08,0.25-0.25,0.25h-1.2c-0.17,0-0.25-0.08-0.25-0.25v-25.16
		c0-0.17,0.08-0.25,0.25-0.25H593.48z M593.48,183.62c1.43,0,2.66-0.51,3.68-1.54c1.01-1.01,1.52-2.23,1.52-3.67
		c0-1.44-0.51-2.67-1.52-3.68c-1.03-1.03-2.25-1.54-3.68-1.54h-7.76v10.42H593.48z"/>
	<path class="st0" d="M605.94,197.13c-0.17,0-0.25-0.08-0.25-0.25V171.8c0-0.17,0.08-0.25,0.25-0.25h1.2c0.15,0,0.23,0.08,0.23,0.25
		v25.08c0,0.17-0.08,0.25-0.23,0.25H605.94z M623.66,185.19h-17.97v-1.7h17.97V185.19z M622.23,197.17c-0.17,0-0.25-0.08-0.25-0.25
		v-25.08c0-0.17,0.08-0.25,0.25-0.25h1.2c0.16,0,0.23,0.08,0.23,0.25v25.08c0,0.17-0.08,0.25-0.23,0.25H622.23z"/>
	<path class="st0" d="M642.45,171.51c0.09,0,0.17,0.04,0.21,0.13c0.05,0.08,0.05,0.17,0,0.25l-7.29,11.58l-0.16,0.27v13.18
		c0,0.17-0.08,0.25-0.25,0.25h-1.2c-0.15,0-0.23-0.08-0.23-0.25v-13.21l-7.44-11.82c-0.05-0.08-0.05-0.17,0-0.25
		c0.05-0.08,0.12-0.13,0.21-0.13h1.41c0.1,0,0.17,0.04,0.21,0.11l6.44,10.26l6.45-10.26c0.05-0.07,0.12-0.11,0.21-0.11H642.45z"/>
	<path class="st1" d="M289.55,95.84v3.23c0,0.89,0,1.75,0,2.57c0,0.83-0.13,1.62-0.38,2.38c0,0.38,0.09,0.7,0.29,0.95
		c0.19,0.26,0.29,0.57,0.29,0.95h0.38v-0.38c1.14-2.92,2.5-5.77,4.09-8.56c1.58-2.79,3.2-5.45,4.85-7.99
		c2.03-3.42,4.06-6.82,6.09-10.18c2.03-3.36,4.31-6.63,6.85-9.8c1.77-2.54,3.62-4.98,5.52-7.33c1.9-2.34,4-4.66,6.28-6.94
		c1.9-2.54,4.63-4.95,8.18-7.23c1.01-0.89,2.03-1.65,3.04-2.28c1.01-0.63,2.03-1.27,3.04-1.9c2.28-1.39,4.82-2.47,7.61-3.23h1.33
		c1.01,0,1.77,0.13,2.28,0.38c0.51,0.26,1.08,0.57,1.71,0.95c3.3,2.41,5.2,5.2,5.71,8.37c0.25,0.89,0.41,1.71,0.48,2.47
		c0.06,0.76,0.1,1.59,0.1,2.47v2.09v1.71c0,2.79-0.19,5.71-0.57,8.75c-0.26,2.03-0.64,3.97-1.14,5.8c-0.51,1.84-0.95,3.78-1.33,5.8
		c-0.38,1.65-0.73,3.27-1.05,4.85c-0.32,1.59-0.6,3.08-0.86,4.47c-0.64,1.78-1.17,3.49-1.62,5.14c-0.45,1.65-0.98,3.3-1.62,4.95
		c-0.64,2.16-1.27,4.25-1.9,6.28c-0.64,2.03-1.21,4.12-1.71,6.28c-2.54,6.98-4.69,14.43-6.47,22.36
		c-1.78,7.93-3.93,15.51-6.47,22.74l-1.33,4.19c-0.38,0.89-0.92,2.41-1.62,4.57c-0.7,2.16-1.43,4.47-2.19,6.95
		c-0.76,2.47-1.49,4.85-2.19,7.13c-0.7,2.28-1.24,4-1.62,5.14c-0.26,0.5-0.57,1.05-0.95,1.62c-0.38,0.57-0.57,1.17-0.57,1.81
		c0,0.25-0.19,0.44-0.57,0.57c-0.38,0.13-0.7,0.19-0.95,0.19h-0.19c-0.64-0.13-1.17-0.19-1.62-0.19c-0.45,0-0.79-0.19-1.05-0.57
		c-0.13,0-0.35-0.07-0.67-0.19c-0.32-0.13-0.54-0.19-0.67-0.19c-1.02-0.51-1.59-1.08-1.71-1.71c0.25-0.64,0.41-1.37,0.48-2.19
		c0.06-0.83,0.22-1.68,0.48-2.57c0.51-4.31,1.39-8.63,2.66-12.94c0.13-1.78,0.41-3.46,0.86-5.04c0.44-1.59,0.86-3.27,1.24-5.04
		c0.38-2.28,0.79-4.5,1.24-6.66c0.44-2.16,1.05-4.38,1.81-6.66c0.25-2.16,0.7-4.28,1.33-6.37c0.63-2.09,1.27-4.28,1.9-6.56
		c0.63-2.03,1.27-4.12,1.9-6.28c0.63-2.16,1.2-4.31,1.71-6.47c0.76-3.17,1.68-6.31,2.76-9.42c1.08-3.11,2.12-6.18,3.14-9.23
		c0.63-2.03,1.33-4.12,2.09-6.28c0.76-2.16,1.52-4.25,2.28-6.28l3.23-8.94c0.63-1.77,1.27-3.49,1.9-5.14
		c0.63-1.65,1.14-3.36,1.52-5.14c0.63-1.52,1.2-3.2,1.71-5.04c0.51-1.84,0.95-3.64,1.33-5.42c0.25-0.63,0.51-1.58,0.76-2.85
		c0.25-1.27,0.38-2.47,0.38-3.61v-0.76c0-0.5,0-1.01,0-1.52c0-0.51-0.07-0.82-0.19-0.95c-0.26-0.38-0.64-0.6-1.14-0.67
		c-0.51-0.06-1.02-0.1-1.52-0.1c-1.02,0-2.13,0.19-3.33,0.57c-1.21,0.38-2.13,0.7-2.76,0.95c-1.4,0.64-2.63,1.43-3.71,2.38
		c-1.08,0.95-2.13,1.87-3.14,2.76c-5.84,5.2-11.13,10.69-15.89,16.46c-4.76,5.77-9.04,11.89-12.84,18.36
		c-2.41,4.19-4.73,8.44-6.94,12.75c-2.22,4.31-4.41,8.69-6.56,13.13c-1.02,2.03-2.03,4.09-3.04,6.18c-1.02,2.09-1.97,4.16-2.85,6.18
		c-0.89,2.03-1.52,4.19-1.9,6.47c-0.38,2.28-0.7,4.44-0.95,6.47c-0.26,1.02-0.45,1.75-0.57,2.19c-0.13,0.45-0.45,0.67-0.95,0.67
		c-0.89,0-1.78-0.7-2.66-2.09c-2.28-2.03-3.62-4.31-4-6.85c0-1.27,0.06-2.5,0.19-3.71c0.13-1.2,0.51-2.44,1.14-3.71
		c1.39-6.47,2.47-12.87,3.23-19.22c0.76-6.34,1.14-12.87,1.14-19.6v-4.38v-1.52c0-0.89-0.16-1.68-0.48-2.38
		c-0.32-0.7-0.67-1.24-1.05-1.62c-1.14-0.76-2.47-1.14-4-1.14c-1.65,0-3.11,0.38-4.38,1.14c-2.92,2.28-4.63,5.07-5.14,8.37
		c-0.51,3.3-0.89,6.41-1.14,9.32c-0.26,1.65-0.51,3.3-0.76,4.95c-0.26,1.65-0.64,3.3-1.14,4.95c-0.64,4.06-1.46,8.06-2.47,11.99
		c-1.02,3.93-2.22,7.8-3.62,11.6c-0.64,2.79-1.46,5.39-2.47,7.8c-0.89,1.78-1.68,3.55-2.38,5.33c-0.7,1.78-1.68,3.55-2.95,5.33
		c-0.76,0.76-1.46,1.52-2.09,2.28c-0.64,0.76-1.4,1.39-2.28,1.9c-1.02,1.01-2.28,1.52-3.81,1.52c-0.13,0.25-0.38,0.41-0.76,0.48
		c-0.38,0.06-0.64,0.1-0.76,0.1c-0.76,0-1.27-0.19-1.52-0.57c-2.16-0.64-4-1.65-5.52-3.04c-0.76-1.01-1.4-2.22-1.9-3.61
		c0-0.63-0.07-1.33-0.19-2.09c-0.13-0.76-0.26-1.58-0.38-2.47c0-0.38,0-0.79,0-1.24c0-0.44,0.13-0.86,0.38-1.24
		c0.25-2.92,0.86-5.9,1.81-8.94c0.95-3.04,2.12-6.09,3.52-9.13c1.39-3.17,2.92-6.21,4.57-9.13c1.65-2.92,3.3-5.9,4.95-8.94
		l7.99-10.84c0.63-0.89,1.14-1.71,1.52-2.47c0.38-0.76,0.57-1.65,0.57-2.66c0.13-1.52,0.25-2.98,0.38-4.38
		c0.12-1.39,0.31-2.85,0.57-4.38c0.25-1.01,0.38-2.12,0.38-3.33c0-1.2,0-2.44,0-3.71v-5.14c-0.13-0.89-0.19-1.81-0.19-2.76
		s0-1.81,0-2.57c-0.13-1.27-0.38-2.6-0.76-4c-0.38-1.39-0.7-2.79-0.95-4.19c-0.26-1.14-0.54-2.31-0.86-3.52
		c-0.32-1.2-0.73-2.44-1.24-3.71c-0.64-0.89-0.95-1.58-0.95-2.09c-0.64-1.27-1.62-2.19-2.95-2.76c-1.33-0.57-2.7-0.86-4.09-0.86
		c-0.76,0-1.43,0.03-2,0.1c-0.57,0.07-1.17,0.35-1.81,0.86c-0.13,0-0.38,0.07-0.76,0.19c-0.38,0.13-0.7,0.32-0.95,0.57
		c-1.02,0.89-1.97,1.62-2.85,2.19c-0.89,0.57-1.65,1.3-2.28,2.19c-2.41,2.92-4.57,5.87-6.47,8.85c-1.9,2.98-3.55,6.12-4.95,9.42
		c-1.02,2.54-1.84,4.98-2.47,7.32c-0.64,2.35-1.14,4.66-1.52,6.94c-0.13,1.4-0.26,2.82-0.38,4.28c-0.13,1.46-0.19,2.89-0.19,4.28
		v1.33v3.04c0.13,2.28,0.35,4.54,0.67,6.75c0.31,2.22,0.79,4.47,1.43,6.75c0,0.38,0.1,0.79,0.29,1.24c0.19,0.45,0.41,0.86,0.67,1.24
		c0.76,1.02,1.27,1.84,1.52,2.47c0.76,0.26,1.14,0.64,1.14,1.14v0.19c0,0.13-0.19,0.19-0.57,0.19h-0.38c-0.13,0-0.32-0.13-0.57-0.38
		c-1.27-0.5-2.22-1.08-2.85-1.71c-0.64-0.63-1.27-1.46-1.9-2.47l-2.09-4.76c-0.64-1.39-1.08-2.88-1.33-4.47
		c-0.25-1.58-0.57-3.14-0.95-4.66c-0.25-1.14-0.41-2.28-0.48-3.42c-0.06-1.14-0.16-2.41-0.29-3.8c0-1.14,0-2.31,0-3.52
		c0-1.2,0.13-2.44,0.38-3.71c0-0.5,0.03-1.08,0.1-1.71c0.07-0.63,0.22-1.2,0.48-1.71c0.26-2.92,0.7-5.9,1.33-8.94
		c0.63-3.04,1.65-6.02,3.04-8.94c0.89-1.77,1.74-3.62,2.57-5.52c0.82-1.9,1.87-3.61,3.14-5.14c0.25-0.25,0.51-0.57,0.76-0.95
		c0.25-0.38,0.51-0.63,0.76-0.76c0.63-1.65,1.62-3.2,2.95-4.66c1.33-1.46,2.82-2.88,4.47-4.28c0.63-0.25,1.14-0.57,1.52-0.95
		c0.38-0.38,0.82-0.76,1.33-1.14c1.01-0.38,1.96-0.73,2.85-1.05c0.89-0.31,1.77-0.48,2.66-0.48c0.63,0,1.39,0.1,2.28,0.29
		c0.89,0.19,1.65,0.54,2.28,1.05c5.33,1.52,9.13,4.31,11.42,8.37c1.27,1.52,2.28,3.11,3.04,4.76c0.76,1.65,1.65,3.49,2.66,5.52
		c0.51,1.4,0.89,2.82,1.14,4.28c0.25,1.46,0.51,2.95,0.76,4.47c0.25,1.02,0.44,1.93,0.57,2.76c0.13,0.83,0.31,1.74,0.57,2.76
		c0,1.4,0.03,2.73,0.1,4c0.06,1.27,0.22,2.54,0.48,3.8v0.76l0.57,0.38l1.33-1.14c0.63-0.5,1.3-0.98,2-1.43
		c0.7-0.44,1.36-0.79,2-1.05c1.01-0.51,1.9-0.79,2.66-0.86c0.76-0.06,1.46-0.1,2.09-0.1h1.71c1.27,0.26,2.41,0.7,3.42,1.33
		c1.01,0.64,1.84,1.52,2.47,2.66c0.63,0.64,1.14,1.36,1.52,2.19c0.38,0.83,0.76,1.81,1.14,2.95c0.13,2.41,0.63,5.2,1.52,8.37
		c0,1.4,0,2.73,0,4C289.36,93.49,289.42,94.7,289.55,95.84z M238.75,36.86v-0.19h-0.19c-1.14,0.38-2.16,0.92-3.04,1.62
		c-0.89,0.7-1.78,1.55-2.66,2.57v0.57c1.27-0.63,2.31-1.39,3.14-2.28C236.81,38.26,237.73,37.5,238.75,36.86z M235.13,142.64
		c0.25,0.76,0.44,1.55,0.57,2.38c0.13,0.83,0.32,1.81,0.57,2.95c0.51,0.64,0.95,0.95,1.33,0.95c0.63,0,1.14-0.19,1.52-0.57
		c0.76-0.51,1.2-1.08,1.33-1.71c0.63-0.89,1.24-1.71,1.81-2.47c0.57-0.76,1.05-1.58,1.43-2.47c0.38-1.27,0.86-2.57,1.43-3.9
		s1.05-2.69,1.43-4.09l3.04-10.84c0.63-2.92,1.24-5.74,1.81-8.47c0.57-2.73,1.17-5.36,1.81-7.9c0.25-1.14,0.44-2.12,0.57-2.95
		c0.13-0.82,0.31-1.74,0.57-2.76h-0.57c-0.26,0.13-0.51,0.29-0.76,0.48c-0.26,0.19-0.51,0.41-0.76,0.67
		c-0.76,2.03-1.97,3.87-3.62,5.52c-1.52,2.66-2.92,5.39-4.19,8.18c-1.27,2.79-2.6,5.46-4,7.99c-1.02,2.16-1.87,4.28-2.57,6.37
		c-0.7,2.09-1.3,4.28-1.81,6.56c-0.26,1.02-0.41,2.03-0.48,3.04C235.54,140.62,235.39,141.63,235.13,142.64z M240.08,38.57
		c-0.64,0.26-1.27,0.6-1.9,1.05c-0.64,0.45-1.27,0.86-1.9,1.24v0.57h0.57c0.38-0.38,0.82-0.73,1.33-1.05
		c0.51-0.32,0.95-0.73,1.33-1.24C239.89,39.14,240.08,38.95,240.08,38.57z M243.89,147.4v0.57h0.57c0-0.25,0.03-0.48,0.1-0.67
		c0.06-0.19,0.1-0.41,0.1-0.67C244.52,147.02,244.27,147.27,243.89,147.4z M245.03,145.5c-0.26,0.13-0.38,0.51-0.38,1.14h0.38
		c1.9-2.41,3.23-4.88,4-7.42v-0.57c-0.51,0.51-0.76,0.89-0.76,1.14c-0.64,0.64-1.05,1.24-1.24,1.81c-0.19,0.57-0.35,1.11-0.48,1.62
		l-0.95,0.95c-0.13,0.38-0.26,0.64-0.38,0.76C245.09,145.05,245.03,145.24,245.03,145.5z M245.79,142.26l-0.38,0.38
		c0,0.13,0.03,0.22,0.1,0.29c0.06,0.07,0.1,0.16,0.1,0.29c-0.38,0.26-0.57,0.45-0.57,0.57h0.57v-0.57v-0.38
		c0-0.13,0.03-0.22,0.1-0.29C245.76,142.49,245.79,142.39,245.79,142.26z M245.79,142.26h0.19c0.25,0,0.38-0.19,0.38-0.57h-0.57
		V142.26z M245.98,148.35l-0.19,0.19l0.19,0.19V148.35z M246.55,147.4c0.89-0.25,1.46-0.67,1.71-1.24c0.25-0.57,0.51-1.17,0.76-1.81
		c-0.64,0.38-1.11,0.83-1.43,1.33C247.28,146.2,246.93,146.77,246.55,147.4z M249.78,143.21c-0.38,0.26-0.57,0.45-0.57,0.57
		C249.59,143.78,249.78,143.59,249.78,143.21z M249.97,136.55h-0.38v0.38L249.97,136.55z M249.97,136.55v-0.19
		c0-0.25,0.06-0.38,0.19-0.38c0.12,0,0.19-0.06,0.19-0.19v-0.57l-0.57,0.57C249.78,135.92,249.85,136.17,249.97,136.55z
		 M268.24,76.81l0.38-0.19C268.49,76.75,268.36,76.81,268.24,76.81z M333.5,128.56l-0.19-0.19l-0.19,0.19h-0.19v0.38v0.38
		c-0.26,1.27-0.6,2.51-1.05,3.71c-0.45,1.21-0.79,2.38-1.05,3.52c-1.27,4.19-2.41,8.31-3.42,12.37c-1.02,4.06-2.22,8.31-3.61,12.75
		c-0.89,3.3-1.81,6.63-2.76,9.99c-0.95,3.36-1.94,6.69-2.95,9.99c-0.26,0.63-0.41,1.2-0.48,1.71c-0.07,0.51-0.1,1.01-0.1,1.52
		c0.38-0.13,0.57-0.38,0.57-0.76c0.76-2.03,1.36-3.97,1.81-5.8c0.44-1.84,1.05-3.78,1.81-5.8c0.89-2.66,1.65-5.23,2.28-7.71
		c0.63-2.47,1.46-5.04,2.47-7.71c1.01-4.44,2.09-8.91,3.23-13.41c1.14-4.5,2.35-8.97,3.61-13.41c0-0.13,0.03-0.31,0.1-0.57
		c0.06-0.25,0.1-0.51,0.1-0.76V128.56z M319.61,184.12c0,0.5,0.19,0.76,0.57,0.76l0.19-0.19c0-0.38,0.1-0.73,0.29-1.05
		c0.19-0.32,0.29-0.73,0.29-1.24c0.63-2.16,1.3-4.28,2-6.37c0.7-2.09,1.49-4.16,2.38-6.18c2.54-6.98,4.69-14.14,6.47-21.5l0.19-0.19
		c0.25-0.25,0.38-0.51,0.38-0.76h-0.38c-0.13,0-0.19-0.06-0.19-0.19v0.19c-0.38,0.38-0.57,0.89-0.57,1.52
		c-1.4,3.55-2.6,7.04-3.61,10.46c-1.02,3.42-2.03,6.97-3.04,10.66c-1.02,2.54-1.84,4.98-2.47,7.32
		C321.45,179.71,320.62,181.96,319.61,184.12z M320.56,168.33h0.57v-0.19l-0.38,0.19H320.56z M321.51,166.04l-0.19,0.19l0.19,0.38
		V166.04z M321.51,165.85c0.38,0,0.57-0.32,0.57-0.95c0-0.25-0.03-0.41-0.1-0.48c-0.07-0.07-0.1-0.16-0.1-0.29
		c-0.13,0.25-0.16,0.51-0.1,0.76C321.86,165.16,321.76,165.47,321.51,165.85z M322.27,162.62v0.57c0.12-0.26,0.16-0.45,0.09-0.57
		c-0.07-0.13,0.03-0.32,0.29-0.57C322.4,162.3,322.27,162.49,322.27,162.62z M322.65,161.29v0.76c0.38-0.38,0.57-0.95,0.57-1.71
		C322.84,160.72,322.65,161.03,322.65,161.29z M329.5,134.84c-0.13,0.26-0.22,0.45-0.29,0.57c-0.07,0.13-0.1,0.32-0.1,0.57
		c0,0.13,0.03,0.26,0.1,0.38c0.06,0.13,0.1,0.32,0.1,0.57c-0.26,0.26-0.45,0.54-0.57,0.86c-0.13,0.32-0.32,0.6-0.57,0.86
		c-0.64,3.17-1.4,6.34-2.28,9.51c-0.89,3.17-1.78,6.4-2.66,9.7v2.28l0.57-0.57c0.89-3.68,1.74-7.23,2.57-10.65
		c0.82-3.42,1.81-6.97,2.95-10.65v-1.33C329.44,136.3,329.5,135.6,329.5,134.84z M329.5,134.84c0.38-0.25,0.57-0.63,0.57-1.14
		C329.69,134.08,329.5,134.46,329.5,134.84z M338.83,45.8c-0.64,0-0.95,0.19-0.95,0.57C338.13,46.37,338.44,46.18,338.83,45.8z
		 M340.16,44.85h-0.76v0.57C339.9,45.42,340.16,45.23,340.16,44.85z M341.11,44.66c-0.64,0-0.95,0.07-0.95,0.19
		C340.79,44.85,341.11,44.79,341.11,44.66z M342.25,44.09h0.38l0.76-0.38c0.51,0,0.95-0.19,1.33-0.57c-0.89,0-1.33,0.07-1.33,0.19
		c-0.76,0-1.21,0.13-1.33,0.38c-0.26,0-0.57,0.32-0.95,0.95C341.87,44.66,342.25,44.47,342.25,44.09z M343.01,45.8
		c0-0.25,0.13-0.38,0.38-0.38h-0.38V45.8z M343.58,45.42c0.13,0,0.38-0.19,0.76-0.57C343.83,44.85,343.58,45.04,343.58,45.42z
		 M345.29,44.85v-0.19h-0.38l-0.57,0.19H345.29z"/>
	<path class="st1" d="M421.97,114.1c0.12-0.12,0.31-0.19,0.57-0.19c0.25,0,0.48,0.13,0.67,0.38c0.19,0.26,0.41,0.45,0.67,0.57
		c0.13,0,0.19,0.19,0.19,0.57c-0.26,0.64-0.45,1.21-0.57,1.71c-0.13,0.51-0.32,1.02-0.57,1.52c-1.9,3.17-3.78,6.25-5.61,9.23
		c-1.84,2.98-3.84,5.93-5.99,8.85c-0.76,1.14-1.62,2.32-2.57,3.52c-0.95,1.21-1.87,2.51-2.76,3.9l-5.14,4.57
		c-1.14,0.64-2.16,1.14-3.04,1.52c-0.89,0.38-1.84,0.57-2.85,0.57c-1.27,0-2.66-0.38-4.19-1.14c-1.4-0.63-2.73-1.49-4-2.57
		c-1.27-1.08-2.35-2.31-3.23-3.71c-1.02-1.77-1.65-3.8-1.9-6.09c0-0.51-0.03-1.01-0.1-1.52c-0.07-0.5-0.09-1.01-0.09-1.52
		c-0.13-0.38-0.19-0.89-0.19-1.52c0.63-6.59,1.77-12.87,3.42-18.83c0.25-0.63,0.51-1.27,0.76-1.9c0.25-0.63,0.38-1.27,0.38-1.9
		v-0.38c-0.64,0.26-0.98,0.6-1.05,1.05c-0.06,0.45-0.22,0.98-0.48,1.62l-7.23,12.75c-1.02,1.9-2.06,3.74-3.14,5.52
		c-1.08,1.78-2.25,3.55-3.52,5.33c-0.64,1.02-1.36,1.94-2.19,2.76c-0.83,0.83-1.68,1.75-2.57,2.76c-0.51,0.64-1.14,1.17-1.9,1.62
		c-0.76,0.45-1.46,0.79-2.09,1.05c-0.26,0.13-0.64,0.19-1.14,0.19c-0.38,0-1.08-0.13-2.09-0.38c-1.02-0.38-1.94-0.98-2.76-1.81
		c-0.83-0.82-1.75-1.68-2.76-2.57c-1.39-1.01-2.09-2.41-2.09-4.19c0-0.25,0.03-0.41,0.1-0.48c0.07-0.06,0.1-0.22,0.1-0.48
		c0-0.38-0.03-0.79-0.1-1.24c-0.06-0.44-0.1-0.86-0.1-1.24c0-1.9,0.16-3.71,0.48-5.42c0.32-1.71,0.79-3.39,1.43-5.04
		c0.38-1.52,0.86-3.04,1.43-4.57c0.57-1.52,1.17-2.98,1.81-4.38c1.77-3.42,3.93-6.78,6.47-10.08c0.51-0.89,0.82-1.33,0.95-1.33
		c0.63-1.01,1.33-1.74,2.09-2.19c0.76-0.44,1.52-0.98,2.28-1.62c0.51-0.38,1.01-0.57,1.52-0.57c0.25,0,0.51-0.03,0.76-0.09
		c0.25-0.06,0.51-0.09,0.76-0.09c1.39,0,2.92,0.32,4.57,0.95c1.65,0.64,3.11,1.59,4.38,2.85c0.38,0.38,0.67,0.83,0.86,1.33
		c0.19,0.51,0.41,1.02,0.67,1.52c0,0.13,0.03,0.26,0.1,0.38c0.06,0.13,0.1,0.32,0.1,0.57c0,0.51-0.19,0.95-0.57,1.33
		c-0.26,0.26-0.45,0.38-0.57,0.38c-0.13,0-0.45-0.13-0.95-0.38l-3.04-2.28c-0.26-0.25-0.51-0.38-0.76-0.38
		c-0.26,0-0.45,0.07-0.57,0.19l-2.28,2.09c-0.89,1.02-1.68,2.03-2.38,3.04c-0.7,1.02-1.43,2.03-2.19,3.04
		c-1.4,2.54-2.57,5.07-3.52,7.61c-0.95,2.54-1.87,5.14-2.76,7.8c-0.51,1.02-0.86,2.03-1.05,3.04c-0.19,1.02-0.41,2.03-0.67,3.04
		c-0.13,0.26-0.19,0.6-0.19,1.05c0,0.45,0,0.79,0,1.05c0,0.26,0.13,0.51,0.38,0.76h0.19c0.25,0,0.44-0.06,0.57-0.19
		c1.65-1.52,3.2-3.17,4.66-4.95c1.46-1.78,2.82-3.74,4.09-5.9c2.03-2.92,4.03-5.8,5.99-8.66c1.96-2.85,3.9-5.74,5.8-8.66
		c1.14-1.9,2.44-3.87,3.9-5.9c1.46-2.03,2.88-4,4.28-5.9l3.61-5.14c0.51-0.76,0.89-1.14,1.14-1.14c0.13,0,0.57,0.13,1.33,0.38
		c0.38,0.26,0.82,0.45,1.33,0.57c0.51,0.13,0.89,0.32,1.14,0.57c0.89,0.89,1.33,1.71,1.33,2.47c0,0.26-0.03,0.45-0.1,0.57
		c-0.07,0.13-0.1,0.32-0.1,0.57l-2.09,6.47c-1.02,3.42-2.03,6.88-3.04,10.37c-1.02,3.49-1.97,7.01-2.85,10.56
		c-0.26,1.52-0.54,3.04-0.86,4.57c-0.32,1.52-0.6,3.17-0.86,4.95c-0.13,1.02-0.22,2.03-0.29,3.04c-0.07,1.02-0.1,2.03-0.1,3.04
		c0,0.76,0.03,1.49,0.1,2.19c0.06,0.7,0.1,1.43,0.1,2.19c0,0.76,0.09,1.4,0.29,1.9c0.19,0.51,0.41,1.08,0.67,1.71
		c0.51,0.89,1.33,1.33,2.47,1.33h0.57c0.25-0.13,0.57-0.19,0.95-0.19c0.38,0,0.7-0.13,0.95-0.38c0.63-0.63,1.3-1.24,2-1.81
		c0.7-0.57,1.36-1.24,2-2c1.77-1.9,3.55-3.87,5.33-5.9c1.77-2.03,3.36-4.25,4.76-6.66c1.39-1.9,2.73-3.8,4-5.71
		c1.27-1.9,2.6-3.87,4-5.9c0.38-0.51,0.67-1.05,0.86-1.62c0.19-0.57,0.41-1.17,0.67-1.81l1.33-1.14c0.12-0.13,0.31-0.19,0.57-0.19
		c0.25,0,0.44,0.07,0.57,0.19c0.25,0.13,0.35,0.22,0.29,0.29C421.81,113.88,421.84,113.98,421.97,114.1z M365.27,106.11
		c-1.14,0.38-1.71,1.08-1.71,2.09l-0.76,0.57c-1.52,2.28-2.85,4.79-4,7.52c-1.14,2.73-2.09,5.49-2.85,8.28
		c-0.26,0.76-0.38,1.33-0.38,1.71c0,0.38,0.06,0.7,0.19,0.95c-0.51,0.13-0.76,0.51-0.76,1.14c0,0.13,0.03,0.22,0.1,0.29
		c0.06,0.06,0.1,0.16,0.1,0.29c0,0.13-0.03,0.19-0.1,0.19c-0.07,0-0.1,0.07-0.1,0.19c-0.13,0-0.13,0.07,0,0.19
		c0-0.13,0.03-0.22,0.1-0.29c0.06-0.06,0.1-0.16,0.1-0.29c0.38-0.25,0.57-0.89,0.57-1.9c0.25-0.13,0.57-0.7,0.95-1.71
		c0.76-2.54,1.62-5.04,2.57-7.51c0.95-2.47,2.12-4.85,3.52-7.13c0.25-0.25,0.41-0.63,0.48-1.14c0.06-0.51,0.22-0.95,0.48-1.33
		C364.25,108.08,364.76,107.38,365.27,106.11z M355.66,121.9c0.06,0,0.1-0.06,0.1-0.19l-0.19,0.38
		C355.57,121.97,355.6,121.9,355.66,121.9z M356.52,118.86c0-0.13,0.03-0.22,0.09-0.29c0.06-0.06,0.1-0.16,0.1-0.29
		c-0.26,0-0.38,0.13-0.38,0.38L356.52,118.86z M360.89,119.81c-0.38,0.38-0.51,0.57-0.38,0.57L360.89,119.81z M361.47,118.86
		c0.25-0.13,0.38-0.5,0.38-1.14C361.59,118.23,361.47,118.61,361.47,118.86z M361.85,117.72c0.25-0.13,0.38-0.32,0.38-0.57v-0.57
		C361.97,116.83,361.85,117.21,361.85,117.72z M362.23,116.58c0.63-0.25,1.01-0.76,1.14-1.52
		C362.61,115.18,362.23,115.69,362.23,116.58z M363.37,115.06c0.25-0.13,0.38-0.51,0.38-1.14
		C363.49,114.04,363.37,114.42,363.37,115.06z M363.75,113.91c0.76-0.51,1.14-1.39,1.14-2.66c-0.76,0.38-1.14,1.08-1.14,2.09V113.91
		z M365.84,109.35c-0.64,0.38-0.95,1.02-0.95,1.9c0.63-0.25,0.95-0.63,0.95-1.14v-0.57c0.76-0.13,1.14-0.63,1.14-1.52
		C366.47,108.14,366.09,108.59,365.84,109.35z M365.27,106.11c0.51-0.51,0.76-1.08,0.76-1.71c-0.51,0.26-0.76,0.7-0.76,1.33V106.11z
		 M367.36,107.26c0.76-0.25,1.14-0.7,1.14-1.33C367.74,106.18,367.36,106.62,367.36,107.26z M413.41,127.99
		c-0.26,0.25-0.38,0.51-0.38,0.76L413.41,127.99z M417.02,122.86c-0.26,0.13-0.38,0.22-0.38,0.29c0,0.07-0.07,0.16-0.19,0.29
		l0.38-0.38L417.02,122.86z M419.11,118.86c0.38-0.13,0.57-0.25,0.57-0.38c-0.13,0-0.26,0.07-0.38,0.19L419.11,118.86z
		 M420.26,117.72c0,0.26-0.13,0.38-0.38,0.38c0.12,0,0.25-0.06,0.38-0.19V117.72z M421.21,114.68v0.38c0-0.13,0.03-0.19,0.1-0.19
		c0.06,0,0.1-0.06,0.1-0.19H421.21z"/>
	<path class="st1" d="M456.59,99.65c0,0.26-0.07,0.45-0.19,0.57c-0.51,0.26-0.95,0.38-1.33,0.38c-1.02,0.26-2.03,0.6-3.04,1.05
		c-1.02,0.45-2.03,1.11-3.04,2c-2.16,1.65-4.38,3.81-6.66,6.47c-2.16,2.92-4.28,5.84-6.37,8.75c-2.09,2.92-4.16,6.03-6.18,9.32
		l-4.57,8.75c-1.02,1.65-1.71,3.74-2.09,6.28c-0.26,1.27-0.6,2.47-1.05,3.62c-0.45,1.14-0.79,2.22-1.05,3.23
		c-0.13,0.63-0.57,1.33-1.33,2.09c-0.26,0.25-0.51,0.38-0.76,0.38c-0.51,0-0.83-0.19-0.95-0.57c0-0.38-0.06-0.7-0.19-0.95
		c-0.13-0.26-0.38-0.38-0.76-0.38c-0.89-0.13-1.33-0.51-1.33-1.14v-0.57c0-0.25,0.03-0.44,0.1-0.57c0.06-0.13,0.09-0.32,0.09-0.57
		v-0.38h-0.38c-0.13,0.26-0.26,0.45-0.38,0.57c-0.13,0.13-0.26,0.32-0.38,0.57v-0.57c0-0.51-0.26-0.76-0.76-0.76
		c-0.64-0.13-0.95-0.44-0.95-0.95c0-0.13,0.12-0.7,0.38-1.71c0.13-1.01,0.25-2.12,0.38-3.33c0.13-1.2,0.32-2.38,0.57-3.52
		c0.38-2.16,0.79-4.19,1.24-6.09c0.44-1.9,0.79-3.8,1.05-5.71c0.38-1.78,0.79-3.49,1.24-5.14c0.44-1.65,0.79-3.23,1.05-4.76
		c0-1.27,0.25-2.35,0.76-3.23c0.38-1.9,0.82-3.62,1.33-5.14c0.76-2.41,1.43-4.76,2-7.04s0.98-4.69,1.24-7.23
		c0.25-0.25,0.51-0.51,0.76-0.76c0.25-0.25,0.57-0.5,0.95-0.76c0.25-0.13,0.35-0.22,0.29-0.29c-0.07-0.06-0.03-0.1,0.1-0.1h0.38
		l2.47,0.76c0.38,0.38,0.57,0.83,0.57,1.33h0.38c0.51,0,0.95,0.19,1.33,0.57c0.12,0.38,0.25,0.76,0.38,1.14
		c0.13,0.38,0.31,0.64,0.57,0.76c0.38,0.26,0.57,0.64,0.57,1.14c0,0.64-0.03,1.11-0.1,1.43c-0.07,0.32-0.1,0.6-0.1,0.86
		c-0.26,0.89-0.6,2.03-1.05,3.42c-0.45,1.4-0.92,2.89-1.43,4.47c-0.51,1.59-1.02,3.14-1.52,4.66c-0.51,1.52-0.89,2.79-1.14,3.81
		c0,0.76-0.07,1.27-0.19,1.52c0,0.13,0.03,0.19,0.1,0.19c0.06,0,0.1,0.07,0.1,0.19h0.57l1.14-0.95l9.13-13.13
		c2.66-2.66,5.45-4.88,8.37-6.66c1.52-0.63,2.79-0.95,3.81-0.95c0.63,0,1.58,0.13,2.85,0.38c1.39,0.13,2.41,1.14,3.04,3.04V99.65z
		 M438.52,112.58c0.12-0.13,0.19-0.57,0.19-1.33c-0.64,0.64-1.21,1.27-1.71,1.9c-0.51,0.64-1.02,1.46-1.52,2.47
		c-0.13,0.13-0.19,0.32-0.19,0.57c-0.51,0.25-0.95,0.64-1.33,1.14c-0.38,0.51-0.7,1.08-0.95,1.71c-0.26,0.38-0.57,0.79-0.95,1.24
		c-0.38,0.45-0.7,0.98-0.95,1.62c-0.89,0.76-1.33,1.59-1.33,2.47c-0.76,1.02-1.3,2-1.62,2.95c-0.32,0.95-0.73,1.93-1.24,2.95v0.57
		h0.57c0.89-1.65,1.65-3.68,2.28-6.09c0.25-0.25,0.54-0.57,0.86-0.95c0.31-0.38,0.6-0.82,0.86-1.33c0.38-0.51,0.73-0.98,1.05-1.43
		c0.31-0.44,0.6-1.05,0.86-1.81c0.38-0.38,0.76-0.79,1.14-1.24c0.38-0.44,0.63-0.98,0.76-1.62c0-0.13,0.13-0.31,0.38-0.57
		c0.63-0.51,1.17-1.05,1.62-1.62C437.73,113.63,438.14,113.09,438.52,112.58z M427.67,123.05c0,0.26,0.12,0.45,0.38,0.57l0.38-0.19
		l0.38-0.19c0.76-1.39,1.62-2.79,2.57-4.19c0.95-1.39,1.93-2.79,2.95-4.19l0.57-1.52c0.76-0.89,1.52-1.77,2.28-2.66
		c0.76-0.89,1.46-1.84,2.09-2.85l0.57-0.95c-1.02,0.64-1.9,1.49-2.66,2.57c-0.76,1.08-1.52,2.13-2.28,3.14
		c-0.13,0.13-0.19,0.32-0.19,0.57c-1.02,1.02-1.9,2.09-2.66,3.23c-0.76,1.14-1.52,2.28-2.28,3.42
		C429.13,120.57,428.44,121.65,427.67,123.05z M439.28,110.68c0.13,0,0.25-0.06,0.38-0.19L439.28,110.68z M440.8,105.35
		c-0.26,0-0.38,0.13-0.38,0.38C440.67,105.73,440.8,105.61,440.8,105.35z M440.42,109.73c0.25-0.25,0.38-0.44,0.38-0.57
		C440.55,109.41,440.42,109.6,440.42,109.73z M441.18,108.21c-0.13,0.13-0.19,0.26-0.19,0.38c0-0.13,0.06-0.19,0.19-0.19V108.21z
		 M442.13,107.26c0.25-0.25,0.38-0.44,0.38-0.57C442.26,106.94,442.13,107.13,442.13,107.26z"/>
	<path class="st1" d="M465.91,103.83c0,0.89-0.45,1.4-1.33,1.52v-0.95c-0.51,0.26-0.76,0.76-0.76,1.52
		c0.38-0.38,0.63-0.57,0.76-0.57c-0.13,0.25-0.19,0.51-0.19,0.76c0,0.38,0.06,0.64,0.19,0.76c-1.14,2.16-2.19,4.25-3.14,6.28
		c-0.95,2.03-1.75,4.19-2.38,6.47c-0.26,0.64-0.45,1.3-0.57,2c-0.13,0.7-0.26,1.49-0.38,2.38c0.25-0.13,0.41-0.35,0.48-0.67
		c0.06-0.31,0.22-0.6,0.48-0.86c1.27-4.06,2.6-7.8,4-11.23c0.63-1.01,1.3-2.16,2-3.42c0.7-1.27,1.17-2.41,1.43-3.42
		c0.76-0.5,1.14-0.95,1.14-1.33c0.12-0.51,0.25-0.76,0.38-0.76c0.63,0,0.98,0.16,1.05,0.48c0.06,0.32,0.16,0.6,0.29,0.86v0.38
		l0.38-0.19c0.13,0,0.19-0.06,0.19-0.19c0.63,0,0.95,0.13,0.95,0.38c0,0.51-0.07,0.89-0.19,1.14c-0.13,0.25-0.32,0.57-0.57,0.95
		c-0.76,2.66-1.71,5.33-2.85,7.99c-0.64,2.41-1.33,4.76-2.09,7.04c-0.76,2.28-1.46,4.63-2.09,7.04c-0.38,1.65-0.73,3.33-1.05,5.04
		c-0.32,1.71-0.48,3.46-0.48,5.23v2.85c0.13,0,0.22,0.03,0.29,0.09c0.06,0.07,0.16,0.1,0.29,0.1c0.89-0.25,1.46-0.57,1.71-0.95
		c1.27-1.14,2.5-2.28,3.71-3.42c1.2-1.14,2.44-2.41,3.71-3.81c1.39-1.52,2.76-3.01,4.09-4.47c1.33-1.46,2.69-2.76,4.09-3.9
		c1.01-1.39,2.09-2.69,3.23-3.9c1.14-1.2,2.28-2.44,3.42-3.71c1.52-1.52,2.95-3.07,4.28-4.66c1.33-1.58,2.63-3.14,3.9-4.66
		l0.95-1.33c0.25,0.26,0.38,0.57,0.38,0.95c0,0.38,0.06,0.7,0.19,0.95v0.38c0,0.26-0.03,0.48-0.1,0.67c-0.07,0.19-0.1,0.41-0.1,0.67
		c-0.13,1.02-0.48,2.03-1.05,3.04c-0.57,1.02-1.24,2.03-2,3.04c-1.02,0.51-1.59,0.95-1.71,1.33l-0.19,0.19
		c-1.27,1.14-2.32,2.25-3.14,3.33c-0.83,1.08-1.75,2.25-2.76,3.52c-1.78,1.9-3.49,3.8-5.14,5.71c-1.65,1.9-3.23,3.74-4.76,5.52
		c-0.64,1.02-1.27,1.94-1.9,2.76c-0.64,0.83-1.27,1.62-1.9,2.38c-0.38,0.64-0.79,1.17-1.24,1.62c-0.45,0.45-0.92,0.98-1.43,1.62
		l-2.85,2.66c-0.76,0.38-1.65,0.57-2.66,0.57c-0.89,0-1.59-0.06-2.09-0.19c-0.26-0.25-0.6-0.44-1.05-0.57
		c-0.45-0.13-0.79-0.38-1.05-0.76c-1.27-0.51-2.16-0.95-2.66-1.33c-0.38-0.51-0.76-1.01-1.14-1.52c-0.38-0.5-0.7-1.08-0.95-1.71
		c-0.89-2.16-1.33-4.19-1.33-6.09c0-2.16,0.12-4.28,0.38-6.37c0.25-2.09,0.7-4.21,1.33-6.37c0.25-1.52,0.54-2.98,0.86-4.38
		c0.31-1.39,0.79-2.79,1.43-4.19l3.61-7.23c0.51-1.01,1.11-1.93,1.81-2.76c0.7-0.82,1.36-1.74,2-2.76c0.13-0.25,0.35-0.41,0.67-0.48
		c0.32-0.06,0.54-0.09,0.67-0.09c0.13,0.64,0.25,0.95,0.38,0.95c0,0.13-0.03,0.22-0.1,0.29c-0.06,0.07-0.09,0.16-0.09,0.29
		c0,0.13,0.03,0.19,0.09,0.19c0.06,0,0.1,0.07,0.1,0.19v0.38h0.38v0.38C466.1,103.58,466.04,103.71,465.91,103.83z M456.78,123.05
		c0-0.13,0.13-0.25,0.38-0.38c-0.13,0-0.26,0.07-0.38,0.19V123.05z M457.54,122.1c0-0.13-0.13-0.44-0.38-0.95
		c-0.13,0.26-0.19,0.51-0.19,0.76c0,0.26,0.06,0.45,0.19,0.57C457.41,122.48,457.54,122.35,457.54,122.1z M457.16,121.14
		c0.13-0.13,0.19-0.38,0.19-0.76C457.22,120.51,457.16,120.76,457.16,121.14z M457.73,120.38c0.13-0.13,0.19-0.32,0.19-0.57
		c0-0.25,0-0.5,0-0.76C457.8,119.18,457.73,119.62,457.73,120.38z M458.11,124c-0.13,0.13-0.19,0.32-0.19,0.57v0.76
		c0.12-0.13,0.19-0.32,0.19-0.57V124z M458.49,118.48c0-0.12-0.03-0.19-0.1-0.19c-0.07,0-0.1-0.06-0.1-0.19
		c-0.13,0.13-0.19,0.26-0.19,0.38v0.57C458.37,118.8,458.49,118.61,458.49,118.48z M458.3,118.1c0.38-0.63,0.76-1.24,1.14-1.81
		c0.38-0.57,0.57-1.36,0.57-2.38C459,115.06,458.43,116.45,458.3,118.1z M460.02,113.91c0.25-0.25,0.38-0.51,0.38-0.76
		C460.14,113.15,460.02,113.41,460.02,113.91z M460.59,112.77c0-0.13-0.03-0.22-0.1-0.29c-0.07-0.06-0.1-0.16-0.1-0.29v0.76
		L460.59,112.77z M460.59,112.2c0.63-0.5,1.08-1.08,1.33-1.71c0.25-0.63,0.51-1.46,0.76-2.47c-0.64,0.64-1.11,1.24-1.43,1.81
		C460.93,110.39,460.71,111.19,460.59,112.2z M462.68,108.02c0.13-0.13,0.29-0.25,0.48-0.38c0.19-0.12,0.29-0.31,0.29-0.57
		c-0.26,0.13-0.45,0.22-0.57,0.29C462.74,107.42,462.68,107.64,462.68,108.02z M463.44,107.06c0-0.13-0.03-0.25-0.1-0.38
		c-0.07-0.13-0.1-0.25-0.1-0.38l0.57-0.38C463.82,106.56,463.69,106.94,463.44,107.06z M465.91,103.83c0-0.25-0.07-0.51-0.19-0.76
		c-0.76,0.13-1.14,0.57-1.14,1.33c0.25-0.25,0.51-0.38,0.76-0.38C465.6,104.02,465.79,103.96,465.91,103.83z M467.25,101.74
		l-0.38,0.38l0.19,0.38c-0.38,0-0.7,0.13-0.95,0.38c0.12-0.13,0.19-0.22,0.19-0.29c0-0.06,0.13-0.16,0.38-0.29
		c0-0.13,0.06-0.22,0.19-0.29c0.13-0.06,0.19-0.16,0.19-0.29l0.19-0.19V101.74z M468.39,141.88c0-0.13,0.03-0.19,0.1-0.19
		c0.06,0,0.1-0.06,0.1-0.19l-0.38,0.38c-0.13,0-0.19,0.07-0.19,0.19v0.38c0-0.13,0.06-0.19,0.19-0.19
		C468.32,142.26,468.39,142.14,468.39,141.88z M468.58,141.5c0.89-0.38,1.39-0.89,1.52-1.52c-0.26,0.13-0.48,0.32-0.67,0.57
		C469.24,140.81,468.96,141.12,468.58,141.5z M477.9,86.14c-0.26,0.13-0.38,0.32-0.38,0.57c0,0.26-0.07,0.45-0.19,0.57
		c-0.76,0.38-1.33,0.95-1.71,1.71c-0.38,0.38-0.57,0.83-0.57,1.33c0,0.38,0.06,0.7,0.19,0.95c-0.26,0.51-0.51,1.14-0.76,1.9
		c-0.26,0-0.45,0.03-0.57,0.09c-0.13,0.07-0.26,0.1-0.38,0.1c-0.13,0-0.19-0.1-0.19-0.29c0-0.19-0.13-0.29-0.38-0.29v-0.57
		c-0.26-0.25-0.54-0.44-0.86-0.57c-0.32-0.13-0.54-0.44-0.67-0.95c0-0.38-0.16-0.6-0.48-0.67c-0.32-0.06-0.6-0.22-0.86-0.48
		c-0.38-0.13-0.57-0.44-0.57-0.95c0.13-1.01,0.35-1.96,0.67-2.85c0.31-0.89,0.92-1.65,1.81-2.28c0.12-0.25,0.51-0.38,1.14-0.38
		c0.38,0,0.63,0.07,0.76,0.19c0.25,0.13,0.6,0.26,1.05,0.38c0.44,0.13,0.79,0.32,1.05,0.57c0.38,0.26,0.73,0.57,1.05,0.95
		C477.36,85.57,477.64,85.88,477.9,86.14z M471.81,137.7c-0.26,0.13-0.48,0.26-0.67,0.38c-0.19,0.13-0.35,0.51-0.48,1.14
		c0.76-0.5,1.14-0.89,1.14-1.14V137.7z M471.81,135.41c-0.13,0-0.19,0.06-0.19,0.19v0.38c0,0.13,0.13-0.06,0.38-0.57v-0.19
		C472,135.35,471.94,135.41,471.81,135.41z M472,137.7c0.12-0.12,0.19-0.31,0.19-0.57c0,0.13-0.13,0.32-0.38,0.57H472z
		 M472.19,137.13c0.51-0.13,0.89-0.51,1.14-1.14C472.7,136.24,472.32,136.62,472.19,137.13z M472.38,85.38h0.38
		c-0.13,0-0.19-0.13-0.19-0.38V84.8c-0.13,0-0.19,0.13-0.19,0.38V85.38z M473.14,133.7c-0.26,0.13-0.51,0.51-0.76,1.14
		c0.63-0.25,0.95-0.5,0.95-0.76c0-0.13-0.03-0.19-0.1-0.19C473.17,133.89,473.14,133.83,473.14,133.7z M472.95,86.14
		c0.89-0.13,1.33-0.57,1.33-1.33v-0.19l-0.19,0.19h-0.57v-0.38c-0.38,0-0.6,0.03-0.67,0.09c-0.07,0.07-0.16,0.16-0.29,0.29h0.57
		c-0.26,0.13-0.38,0.38-0.38,0.76C472.89,85.69,472.95,85.88,472.95,86.14z M473.14,133.51c0.12-0.13,0.31-0.19,0.57-0.19l0.38-0.38
		h-0.19L473.14,133.51z M473.9,135.41c0.38-0.38,0.63-0.89,0.76-1.52L473.9,135.41z M474.86,133.51l0.19-0.19h-0.19V133.51z
		 M475.24,131.23c0,0.13-0.03,0.19-0.1,0.19c-0.07,0-0.1,0.07-0.1,0.19l0.38-0.38v-0.19L475.24,131.23z M475.05,133.32
		c0.76-0.25,1.2-0.63,1.33-1.14C475.62,132.69,475.17,133.07,475.05,133.32z M476.19,130.09c-0.13,0-0.19,0.07-0.19,0.19l0.19,0.19
		V130.09z M476.19,130.09l0.38-0.19h0.19c0-0.25,0.13-0.51,0.38-0.76c-0.13,0-0.19,0.03-0.19,0.1c0,0.07-0.07,0.09-0.19,0.09
		l-0.57,0.57V130.09z M476.57,132.18l0.38-0.19l-0.19-0.19l-0.38,0.38H476.57z M476.95,131.99c0.51-0.13,0.89-0.63,1.14-1.52
		C477.33,130.98,476.95,131.48,476.95,131.99z M478.66,127.8c-0.76,0.26-1.27,0.7-1.52,1.33
		C477.64,129.01,478.15,128.56,478.66,127.8z M478.85,129.32c-0.13,0.26-0.19,0.45-0.19,0.57c0,0.13-0.07,0.19-0.19,0.19
		c-0.26,0-0.38,0.13-0.38,0.38c0.13,0,0.16-0.03,0.1-0.09c-0.07-0.06,0.03-0.1,0.29-0.1c0-0.25,0.12-0.38,0.38-0.38V129.32z
		 M479.23,128.56l0.38-0.38L479.23,128.56z M481.71,125.9h-0.19c0,0.25-0.07,0.45-0.19,0.57c0.13-0.13,0.25-0.19,0.38-0.19V125.9z
		 M483.04,122.86c0-0.38,0.19-0.57,0.57-0.57v-0.19l-0.57,0.57V122.86z M484.37,121.52c0.51-0.38,0.95-0.89,1.33-1.52
		c-0.76,0.26-1.14,0.57-1.14,0.95L484.37,121.52z M485.32,122.29c-0.13,0-0.19,0.03-0.19,0.09c0,0.07-0.06,0.1-0.19,0.1l-0.38,0.57
		c0.12,0,0.25-0.06,0.38-0.19L485.32,122.29z M485.32,121.9c0.25-0.25,0.44-0.38,0.57-0.38L485.32,121.9z M486.65,119.05l-0.19,0.19
		L486.65,119.05z M487.03,120.19l-0.57,0.38L487.03,120.19z M487.41,118.29c0-0.13,0.03-0.22,0.1-0.29c0.06-0.06,0.1-0.22,0.1-0.48
		l-0.57,0.57v0.57C487.29,118.55,487.41,118.42,487.41,118.29z M487.03,120.19c0.76-0.13,1.2-0.57,1.33-1.33
		C488.11,118.99,487.67,119.43,487.03,120.19z M488.74,116.58c0.76-0.13,1.39-0.63,1.9-1.52
		C490.01,115.31,489.38,115.82,488.74,116.58z M491.22,114.1c0.63-0.25,1.01-0.76,1.14-1.52c-0.64,0.38-0.95,0.76-0.95,1.14
		C491.28,113.85,491.22,113.98,491.22,114.1z M492.36,114.68c-0.64,0.26-1.02,0.64-1.14,1.14c0.76-0.25,1.14-0.57,1.14-0.95V114.68z
		 M492.93,112.2c0.63-0.38,1.01-0.95,1.14-1.71C493.44,110.87,493.06,111.44,492.93,112.2z M493.88,112.77
		c-0.13,0.13-0.26,0.19-0.38,0.19v0.19L493.88,112.77z M494.64,111.82c-0.13,0.13-0.26,0.19-0.38,0.19c-0.13,0-0.19,0.07-0.19,0.19
		c0.13,0,0.19-0.03,0.19-0.09c0-0.06,0.12-0.1,0.38-0.1V111.82z M494.45,110.11c0.63-0.25,0.95-0.76,0.95-1.52
		c-0.51,0.13-0.83,0.38-0.95,0.76V110.11z"/>
	<path class="st1" d="M534.21,114.68c0.25,1.27,0.38,2.22,0.38,2.85c0,2.16-0.47,4.12-1.43,5.9c-0.95,1.78-1.97,3.36-3.04,4.76
		c-1.08,1.4-2.09,2.57-3.04,3.52c-0.95,0.95-1.43,1.56-1.43,1.81c0,0.13,0.13,0.19,0.38,0.19h0.19c-1.4,1.78-2.92,3.65-4.57,5.61
		c-1.65,1.97-3.17,3.65-4.57,5.04c-1.78,1.78-3.68,3.33-5.71,4.66c-2.03,1.33-4.25,2.31-6.66,2.95c-0.89,0.25-1.71,0.44-2.47,0.57
		c-0.76,0.13-1.59,0.19-2.47,0.19c-2.66,0-4.95-0.7-6.85-2.09c-1.4-1.01-2.7-2.03-3.9-3.04c-1.21-1.01-2.19-2.22-2.95-3.61
		c-0.64-1.27-1.08-2.66-1.33-4.19c-0.12-0.5-0.19-1.01-0.19-1.52c0-0.51,0-1.08,0-1.71c0-0.63,0-1.17,0-1.62
		c0-0.44,0.07-0.98,0.19-1.62v-4.57c0.25-1.14,0.51-2.25,0.76-3.33c0.25-1.08,0.51-2.12,0.76-3.14v-1.14c0-0.13,0.03-0.22,0.09-0.29
		c0.06-0.06,0.1-0.16,0.1-0.29c0-0.12-0.03-0.25-0.1-0.38c-0.07-0.13-0.09-0.25-0.09-0.38c0-0.13-0.03-0.19-0.1-0.19
		c-0.07,0-0.1-0.06-0.1-0.19l0.57-0.76c0.38-0.25,0.82-0.76,1.33-1.52c0.63-1.14,1.2-2.31,1.71-3.52c0.51-1.2,1.08-2.38,1.71-3.52
		c1.77-3.04,3.74-5.71,5.9-7.99c1.52-1.9,3.3-3.49,5.33-4.76c1.01-0.89,2.16-1.39,3.42-1.52c0.51-0.13,0.98-0.19,1.43-0.19
		c0.44,0,0.86,0,1.24,0c2.28,0,4.38,0.51,6.28,1.52c2.41,1.4,3.61,3.36,3.61,5.9v0.57c-0.13,1.9-0.7,3.81-1.71,5.71
		c-0.76,1.52-1.62,2.98-2.57,4.38c-0.95,1.4-2.13,2.6-3.52,3.61c-3.42,2.66-6.85,4.44-10.27,5.33l-2.09,0.57
		c-0.89,0.13-1.52,0.7-1.9,1.71l-1.9,14.65v0.76c0,0.64,0.06,1.3,0.19,2c0.12,0.7,0.31,1.36,0.57,2c0.12,1.14,0.89,1.71,2.28,1.71
		h1.52c1.77-0.38,3.52-0.89,5.23-1.52c1.71-0.63,3.33-1.46,4.85-2.47c1.52-1.01,2.98-2.12,4.38-3.33c1.39-1.2,2.79-2.5,4.19-3.9
		c0.76-0.76,1.84-1.68,3.23-2.76c1.39-1.08,2.54-2.12,3.42-3.14c1.14-1.39,2.22-2.76,3.23-4.09s2.03-2.69,3.04-4.09
		c0.63-1.01,1.24-2.03,1.81-3.04C533.17,116.71,533.7,115.69,534.21,114.68z M492.17,115.25l0.38-0.38c-0.13,0-0.19,0.03-0.19,0.09
		c0,0.07-0.07,0.1-0.19,0.1V115.25z M492.55,114.68c0.76-0.51,1.14-1.33,1.14-2.47C493.05,112.84,492.67,113.66,492.55,114.68z
		 M495.59,113.34c1.01-1.9,2.12-3.77,3.33-5.61c1.2-1.84,2.57-3.64,4.09-5.42v-0.76l-0.57,0.38c-0.26,0.25-0.57,0.54-0.95,0.86
		c-0.38,0.32-0.7,0.67-0.95,1.05c-1.14,1.4-2.19,2.85-3.14,4.38c-0.95,1.52-1.87,3.11-2.76,4.76c-0.51,1.02-0.95,2.28-1.33,3.81
		l0.95-1.33c0.25-0.25,0.48-0.6,0.67-1.05C495.12,113.95,495.34,113.6,495.59,113.34z M494.45,111.25
		c-0.26,0.13-0.51,0.45-0.76,0.95C494.19,112.08,494.45,111.76,494.45,111.25z M496.16,108.21c-0.89,0.64-1.46,1.65-1.71,3.04
		c0.89-0.89,1.52-1.9,1.9-3.04c0.25-0.25,0.38-0.57,0.38-0.95C496.35,107.51,496.16,107.83,496.16,108.21z M497.87,105.73
		c-0.64,0.38-1.02,0.89-1.14,1.52C497.49,107.13,497.87,106.62,497.87,105.73z M498.64,104.78c-0.38,0.13-0.57,0.45-0.57,0.95
		L498.64,104.78z M499.21,104.21c0.25-0.25,0.38-0.57,0.38-0.95L499.21,104.21z M499.59,110.87c0.13-0.12,0.19-0.31,0.19-0.57
		c0,0.13-0.03,0.19-0.1,0.19c-0.07,0-0.1,0.07-0.1,0.19V110.87z M499.97,110.3c0.38-0.13,0.57-0.44,0.57-0.95
		C500.28,109.6,500.09,109.92,499.97,110.3z M510.05,102.5c-0.64,0.38-1.21,0.83-1.71,1.33c-0.51,0.51-1.08,1.02-1.71,1.52
		c-1.27,1.52-2.35,3.08-3.23,4.66c-0.89,1.59-1.78,3.27-2.66,5.04c-0.13,0.13-0.19,0.32-0.19,0.57v0.19c0,0.26,0.19,0.38,0.57,0.38
		c0.51-0.25,0.95-0.48,1.33-0.67c0.38-0.19,0.76-0.41,1.14-0.67c1.39-1.14,2.69-2.35,3.9-3.62c1.2-1.27,2.19-2.73,2.95-4.38
		c0.89-1.52,1.39-2.92,1.52-4.19v-0.19c0-0.38-0.26-0.57-0.76-0.57h-0.38L510.05,102.5z M505.87,102.5c-0.26,0-0.45,0.07-0.57,0.19
		c-1.02,1.02-1.94,2.03-2.76,3.04c-0.83,1.02-1.49,2.22-2,3.62c0.38-0.13,0.63-0.38,0.76-0.76c0.76-1.01,1.55-1.97,2.38-2.85
		c0.82-0.89,1.55-1.84,2.19-2.85V102.5z M511.95,108.21c0,0.13-0.13,0.32-0.38,0.57c-0.25,0.51-0.38,0.83-0.38,0.95h0.38
		c-0.25,0.26-0.41,0.57-0.47,0.95c-0.07,0.38-0.16,0.7-0.29,0.95c-0.13,0.26-0.29,0.41-0.48,0.48c-0.19,0.07-0.35,0.22-0.47,0.48
		v0.19h0.19c0.25-0.13,0.41-0.25,0.48-0.38c0.06-0.13,0.22-0.32,0.47-0.57c0.51-0.38,0.92-0.82,1.24-1.33
		c0.32-0.51,0.6-1.01,0.86-1.52c0.25-0.25,0.38-0.54,0.38-0.86c0-0.31,0.06-0.6,0.19-0.86c-0.38,0-0.6,0.16-0.67,0.48
		c-0.06,0.32-0.22,0.54-0.47,0.67l-0.38,0.38c-0.13,0-0.19-0.06-0.19-0.19V108.21z M511.38,113.91l0.38-0.19
		C511.64,113.72,511.51,113.79,511.38,113.91z M513.86,110.87c-0.89,0.38-1.46,1.21-1.71,2.47
		C513.03,112.84,513.6,112.01,513.86,110.87z M514.43,110.11c-0.26,0.13-0.38,0.22-0.38,0.29c0,0.07-0.07,0.16-0.19,0.29
		c0.13,0,0.19-0.03,0.19-0.1c0-0.06,0.06-0.09,0.19-0.09C514.24,110.36,514.3,110.24,514.43,110.11z M519.18,136.94
		c0.13-0.13,0.38-0.29,0.76-0.48c0.38-0.19,0.63-0.41,0.76-0.67l-1.71,1.14v0.19L519.18,136.94z M521.66,137.32
		c0-0.13-0.06-0.19-0.19-0.19l-0.57,0.57C521.15,137.44,521.4,137.32,521.66,137.32z M522.04,134.27c-0.26,0.25-0.38,0.57-0.38,0.95
		L522.04,134.27z M522.23,136.55c0.38-0.12,0.57-0.44,0.57-0.95C522.42,135.86,522.23,136.17,522.23,136.55z M522.8,135.6
		c0.38-0.13,0.63-0.38,0.76-0.76c-0.13,0.13-0.25,0.22-0.38,0.29C523.05,135.19,522.92,135.35,522.8,135.6z M522.99,133.51
		c0.51-0.13,0.95-0.7,1.33-1.71c-0.38,0.26-0.67,0.48-0.86,0.67C523.27,132.65,523.11,133.01,522.99,133.51z M523.56,134.84
		c0.51-0.25,0.95-0.76,1.33-1.52C524.13,133.83,523.68,134.34,523.56,134.84z M524.32,131.8c0.63-0.13,1.14-0.7,1.52-1.71
		C525.21,130.34,524.7,130.91,524.32,131.8z M525.65,132.18c-0.26,0.25-0.45,0.57-0.57,0.95L525.65,132.18z M525.84,130.09
		c0.76-0.25,1.14-0.7,1.14-1.33C526.35,129.01,525.97,129.45,525.84,130.09z M526.98,128.56c0.63-0.25,1.11-0.63,1.43-1.14
		c0.32-0.5,0.6-1.08,0.86-1.71c-0.51,0.38-0.92,0.79-1.24,1.24C527.71,127.39,527.37,127.93,526.98,128.56z M528.32,128.94
		c-0.38,0.38-0.57,0.7-0.57,0.95L528.32,128.94z M528.51,128.75c0.38-0.38,0.57-0.69,0.57-0.95L528.51,128.75z M529.27,125.71
		c0.13,0,0.31-0.32,0.57-0.95h-0.38l-0.19,0.19V125.71z M529.84,124.76c0.51-0.13,0.76-0.44,0.76-0.95h-0.57L529.84,124.76z
		 M532.12,121.14c-0.89,0.89-1.4,1.65-1.52,2.28v0.38c0.38-0.38,0.73-0.76,1.04-1.14C531.96,122.29,532.12,121.78,532.12,121.14z
		 M532.12,121.14c0.51-0.13,0.76-0.32,0.76-0.57l-0.38-0.38V120h-0.19l0.19,0.19C532.5,120.57,532.37,120.89,532.12,121.14z"/>
	<path class="st1" d="M562.56,116.96l-6.28,0.57l-4.19,0.57c-1.02,0.26-2.06,0.45-3.14,0.57c-1.08,0.13-2.13,0.32-3.14,0.57
		c-1.02,0.25-2,0.41-2.95,0.48c-0.95,0.07-1.93,0.16-2.95,0.29h-0.95c-0.51,0-1.27-0.13-2.28-0.38c-0.26,0-0.38-0.19-0.38-0.57
		c0-0.25,0.03-0.38,0.09-0.38c0.06,0,0.1-0.06,0.1-0.19l-0.38-0.38c-0.26,0-0.45-0.06-0.57-0.19c-0.13,0-0.19-0.06-0.19-0.19
		c0-0.13,0.06-0.25,0.19-0.38c0-0.12,0.12-0.31,0.38-0.57v-0.19c-0.38-0.25-0.67-0.5-0.86-0.76c-0.19-0.25-0.41-0.51-0.67-0.76
		c-0.13,0-0.19-0.13-0.19-0.38c0-0.13,0.13-0.32,0.38-0.57c0.63-0.5,1.46-0.95,2.47-1.33l3.42-0.76c0.38-0.12,0.89-0.19,1.52-0.19
		c0.76,0,1.49,0,2.19,0c0.7,0,1.43-0.06,2.19-0.19c0.38-0.13,1.08-0.19,2.09-0.19c0.63,0,1.3-0.03,2-0.1c0.7-0.06,1.36-0.09,2-0.09
		c0.63,0,1.3-0.03,2-0.09c0.7-0.06,1.36-0.1,2-0.1c0.63,0,1.3,0.03,2,0.1c0.7,0.07,1.43,0.09,2.19,0.09c1.14,0,1.97,0.16,2.47,0.48
		c0.51,0.32,1.14,0.98,1.9,2l0.57,0.76c0,0.26,0.03,0.54,0.09,0.86c0.06,0.32,0.1,0.6,0.1,0.86v0.19c0,0.38-0.19,0.64-0.57,0.76
		h-2.66V116.96z"/>
	<path class="st1" d="M649.32,95.84v3.23c0,0.89,0,1.75,0,2.57c0,0.83-0.13,1.62-0.38,2.38c0,0.38,0.1,0.7,0.29,0.95
		c0.19,0.26,0.29,0.57,0.29,0.95h0.38v-0.38c1.14-2.92,2.5-5.77,4.09-8.56c1.58-2.79,3.2-5.45,4.85-7.99
		c2.03-3.42,4.06-6.82,6.09-10.18c2.03-3.36,4.31-6.63,6.85-9.8c1.78-2.54,3.62-4.98,5.52-7.33c1.9-2.34,4-4.66,6.28-6.94
		c1.9-2.54,4.63-4.95,8.18-7.23c1.01-0.89,2.03-1.65,3.04-2.28c1.01-0.63,2.03-1.27,3.04-1.9c2.28-1.39,4.82-2.47,7.61-3.23h1.33
		c1.01,0,1.77,0.13,2.28,0.38c0.5,0.26,1.08,0.57,1.71,0.95c3.3,2.41,5.2,5.2,5.71,8.37c0.25,0.89,0.41,1.71,0.48,2.47
		c0.06,0.76,0.09,1.59,0.09,2.47v2.09v1.71c0,2.79-0.19,5.71-0.57,8.75c-0.26,2.03-0.64,3.97-1.14,5.8
		c-0.51,1.84-0.95,3.78-1.33,5.8c-0.38,1.65-0.73,3.27-1.05,4.85c-0.32,1.59-0.6,3.08-0.86,4.47c-0.64,1.78-1.17,3.49-1.62,5.14
		c-0.45,1.65-0.98,3.3-1.62,4.95c-0.64,2.16-1.27,4.25-1.9,6.28c-0.64,2.03-1.21,4.12-1.71,6.28c-2.54,6.98-4.69,14.43-6.47,22.36
		c-1.78,7.93-3.93,15.51-6.47,22.74l-1.33,4.19c-0.38,0.89-0.92,2.41-1.62,4.57c-0.7,2.16-1.43,4.47-2.19,6.95
		c-0.76,2.47-1.49,4.85-2.19,7.13c-0.7,2.28-1.24,4-1.62,5.14c-0.26,0.5-0.57,1.05-0.95,1.62c-0.38,0.57-0.57,1.17-0.57,1.81
		c0,0.25-0.19,0.44-0.57,0.57c-0.38,0.13-0.7,0.19-0.95,0.19h-0.19c-0.64-0.13-1.17-0.19-1.62-0.19c-0.45,0-0.79-0.19-1.05-0.57
		c-0.13,0-0.35-0.07-0.67-0.19c-0.32-0.13-0.54-0.19-0.67-0.19c-1.02-0.51-1.59-1.08-1.71-1.71c0.25-0.64,0.41-1.37,0.48-2.19
		c0.06-0.83,0.22-1.68,0.48-2.57c0.5-4.31,1.39-8.63,2.66-12.94c0.13-1.78,0.41-3.46,0.86-5.04c0.44-1.59,0.86-3.27,1.24-5.04
		c0.38-2.28,0.79-4.5,1.24-6.66c0.44-2.16,1.05-4.38,1.81-6.66c0.25-2.16,0.7-4.28,1.33-6.37c0.63-2.09,1.27-4.28,1.9-6.56
		c0.63-2.03,1.27-4.12,1.9-6.28c0.63-2.16,1.2-4.31,1.71-6.47c0.76-3.17,1.68-6.31,2.76-9.42c1.08-3.11,2.12-6.18,3.14-9.23
		c0.63-2.03,1.33-4.12,2.09-6.28c0.76-2.16,1.52-4.25,2.28-6.28l3.23-8.94c0.63-1.77,1.27-3.49,1.9-5.14
		c0.63-1.65,1.14-3.36,1.52-5.14c0.63-1.52,1.2-3.2,1.71-5.04c0.51-1.84,0.95-3.64,1.33-5.42c0.25-0.63,0.5-1.58,0.76-2.85
		c0.25-1.27,0.38-2.47,0.38-3.61v-0.76c0-0.5,0-1.01,0-1.52c0-0.51-0.07-0.82-0.19-0.95c-0.26-0.38-0.64-0.6-1.14-0.67
		c-0.51-0.06-1.02-0.1-1.52-0.1c-1.02,0-2.13,0.19-3.33,0.57c-1.21,0.38-2.13,0.7-2.76,0.95c-1.4,0.64-2.63,1.43-3.71,2.38
		c-1.08,0.95-2.13,1.87-3.14,2.76c-5.83,5.2-11.13,10.69-15.89,16.46c-4.76,5.77-9.04,11.89-12.84,18.36
		c-2.41,4.19-4.73,8.44-6.94,12.75c-2.22,4.31-4.41,8.69-6.56,13.13c-1.02,2.03-2.03,4.09-3.04,6.18c-1.02,2.09-1.97,4.16-2.85,6.18
		c-0.89,2.03-1.52,4.19-1.9,6.47c-0.38,2.28-0.7,4.44-0.95,6.47c-0.26,1.02-0.45,1.75-0.57,2.19c-0.13,0.45-0.45,0.67-0.95,0.67
		c-0.89,0-1.78-0.7-2.66-2.09c-2.28-2.03-3.61-4.31-4-6.85c0-1.27,0.06-2.5,0.19-3.71c0.13-1.2,0.5-2.44,1.14-3.71
		c1.39-6.47,2.47-12.87,3.23-19.22c0.76-6.34,1.14-12.87,1.14-19.6v-4.38v-1.52c0-0.89-0.16-1.68-0.48-2.38
		c-0.32-0.7-0.67-1.24-1.05-1.62c-1.14-0.76-2.47-1.14-4-1.14c-1.65,0-3.11,0.38-4.38,1.14c-2.92,2.28-4.63,5.07-5.14,8.37
		c-0.51,3.3-0.89,6.41-1.14,9.32c-0.26,1.65-0.51,3.3-0.76,4.95c-0.25,1.65-0.64,3.3-1.14,4.95c-0.64,4.06-1.46,8.06-2.47,11.99
		c-1.02,3.93-2.22,7.8-3.62,11.6c-0.64,2.79-1.46,5.39-2.47,7.8c-0.89,1.78-1.68,3.55-2.38,5.33c-0.7,1.78-1.68,3.55-2.95,5.33
		c-0.76,0.76-1.46,1.52-2.09,2.28c-0.64,0.76-1.4,1.39-2.28,1.9c-1.02,1.01-2.28,1.52-3.8,1.52c-0.13,0.25-0.38,0.41-0.76,0.48
		c-0.38,0.06-0.64,0.1-0.76,0.1c-0.76,0-1.27-0.19-1.52-0.57c-2.16-0.64-4-1.65-5.52-3.04c-0.76-1.01-1.4-2.22-1.9-3.61
		c0-0.63-0.07-1.33-0.19-2.09c-0.13-0.76-0.26-1.58-0.38-2.47c0-0.38,0-0.79,0-1.24c0-0.44,0.13-0.86,0.38-1.24
		c0.25-2.92,0.86-5.9,1.81-8.94c0.95-3.04,2.12-6.09,3.52-9.13c1.39-3.17,2.92-6.21,4.57-9.13c1.65-2.92,3.3-5.9,4.95-8.94
		l7.99-10.84c0.63-0.89,1.14-1.71,1.52-2.47c0.38-0.76,0.57-1.65,0.57-2.66c0.13-1.52,0.25-2.98,0.38-4.38
		c0.13-1.39,0.32-2.85,0.57-4.38c0.25-1.01,0.38-2.12,0.38-3.33c0-1.2,0-2.44,0-3.71v-5.14c-0.13-0.89-0.19-1.81-0.19-2.76
		s0-1.81,0-2.57c-0.13-1.27-0.38-2.6-0.76-4c-0.38-1.39-0.7-2.79-0.95-4.19c-0.26-1.14-0.54-2.31-0.86-3.52
		c-0.32-1.2-0.73-2.44-1.24-3.71c-0.64-0.89-0.95-1.58-0.95-2.09c-0.64-1.27-1.62-2.19-2.95-2.76c-1.33-0.57-2.7-0.86-4.09-0.86
		c-0.76,0-1.43,0.03-2,0.1c-0.57,0.07-1.17,0.35-1.81,0.86c-0.13,0-0.38,0.07-0.76,0.19c-0.38,0.13-0.7,0.32-0.95,0.57
		c-1.02,0.89-1.97,1.62-2.85,2.19c-0.89,0.57-1.65,1.3-2.28,2.19c-2.41,2.92-4.57,5.87-6.47,8.85c-1.9,2.98-3.55,6.12-4.95,9.42
		c-1.02,2.54-1.84,4.98-2.47,7.32c-0.64,2.35-1.14,4.66-1.52,6.94c-0.13,1.4-0.26,2.82-0.38,4.28c-0.13,1.46-0.19,2.89-0.19,4.28
		v1.33v3.04c0.13,2.28,0.35,4.54,0.67,6.75c0.32,2.22,0.79,4.47,1.43,6.75c0,0.38,0.1,0.79,0.29,1.24c0.19,0.45,0.41,0.86,0.67,1.24
		c0.76,1.02,1.27,1.84,1.52,2.47c0.76,0.26,1.14,0.64,1.14,1.14v0.19c0,0.13-0.19,0.19-0.57,0.19h-0.38c-0.13,0-0.32-0.13-0.57-0.38
		c-1.27-0.5-2.22-1.08-2.85-1.71c-0.64-0.63-1.27-1.46-1.9-2.47l-2.09-4.76c-0.64-1.39-1.08-2.88-1.33-4.47
		c-0.25-1.58-0.57-3.14-0.95-4.66c-0.25-1.14-0.41-2.28-0.48-3.42c-0.06-1.14-0.16-2.41-0.29-3.8c0-1.14,0-2.31,0-3.52
		c0-1.2,0.13-2.44,0.38-3.71c0-0.5,0.03-1.08,0.09-1.71c0.07-0.63,0.22-1.2,0.48-1.71c0.25-2.92,0.7-5.9,1.33-8.94
		c0.63-3.04,1.65-6.02,3.04-8.94c0.89-1.77,1.74-3.62,2.57-5.52c0.82-1.9,1.87-3.61,3.14-5.14c0.25-0.25,0.51-0.57,0.76-0.95
		c0.25-0.38,0.5-0.63,0.76-0.76c0.63-1.65,1.62-3.2,2.95-4.66c1.33-1.46,2.82-2.88,4.47-4.28c0.63-0.25,1.14-0.57,1.52-0.95
		c0.38-0.38,0.82-0.76,1.33-1.14c1.01-0.38,1.96-0.73,2.85-1.05c0.89-0.31,1.77-0.48,2.66-0.48c0.63,0,1.39,0.1,2.28,0.29
		c0.89,0.19,1.65,0.54,2.28,1.05c5.33,1.52,9.13,4.31,11.42,8.37c1.27,1.52,2.28,3.11,3.04,4.76c0.76,1.65,1.65,3.49,2.66,5.52
		c0.51,1.4,0.89,2.82,1.14,4.28c0.25,1.46,0.51,2.95,0.76,4.47c0.25,1.02,0.44,1.93,0.57,2.76c0.13,0.83,0.32,1.74,0.57,2.76
		c0,1.4,0.03,2.73,0.1,4c0.06,1.27,0.22,2.54,0.48,3.8v0.76l0.57,0.38l1.33-1.14c0.63-0.5,1.3-0.98,2-1.43
		c0.7-0.44,1.36-0.79,2-1.05c1.01-0.51,1.9-0.79,2.66-0.86c0.76-0.06,1.46-0.1,2.09-0.1h1.71c1.27,0.26,2.41,0.7,3.42,1.33
		c1.01,0.64,1.84,1.52,2.47,2.66c0.63,0.64,1.14,1.36,1.52,2.19c0.38,0.83,0.76,1.81,1.14,2.95c0.12,2.41,0.63,5.2,1.52,8.37
		c0,1.4,0,2.73,0,4C649.13,93.49,649.19,94.7,649.32,95.84z M598.52,36.86v-0.19h-0.19c-1.14,0.38-2.16,0.92-3.04,1.62
		c-0.89,0.7-1.78,1.55-2.66,2.57v0.57c1.27-0.63,2.31-1.39,3.14-2.28C596.58,38.26,597.5,37.5,598.52,36.86z M594.9,142.64
		c0.25,0.76,0.44,1.55,0.57,2.38c0.13,0.83,0.31,1.81,0.57,2.95c0.51,0.64,0.95,0.95,1.33,0.95c0.63,0,1.14-0.19,1.52-0.57
		c0.76-0.51,1.2-1.08,1.33-1.71c0.63-0.89,1.24-1.71,1.81-2.47c0.57-0.76,1.05-1.58,1.43-2.47c0.38-1.27,0.86-2.57,1.43-3.9
		c0.57-1.33,1.05-2.69,1.43-4.09l3.04-10.84c0.63-2.92,1.24-5.74,1.81-8.47c0.57-2.73,1.17-5.36,1.81-7.9
		c0.25-1.14,0.44-2.12,0.57-2.95c0.13-0.82,0.32-1.74,0.57-2.76h-0.57c-0.26,0.13-0.51,0.29-0.76,0.48
		c-0.26,0.19-0.51,0.41-0.76,0.67c-0.76,2.03-1.97,3.87-3.61,5.52c-1.52,2.66-2.92,5.39-4.19,8.18c-1.27,2.79-2.6,5.46-4,7.99
		c-1.02,2.16-1.87,4.28-2.57,6.37c-0.7,2.09-1.3,4.28-1.81,6.56c-0.25,1.02-0.41,2.03-0.48,3.04
		C595.31,140.62,595.16,141.63,594.9,142.64z M599.85,38.57c-0.64,0.26-1.27,0.6-1.9,1.05c-0.64,0.45-1.27,0.86-1.9,1.24v0.57h0.57
		c0.38-0.38,0.82-0.73,1.33-1.05c0.51-0.32,0.95-0.73,1.33-1.24C599.66,39.14,599.85,38.95,599.85,38.57z M603.65,147.4v0.57h0.57
		c0-0.25,0.03-0.48,0.09-0.67c0.06-0.19,0.09-0.41,0.09-0.67C604.29,147.02,604.04,147.27,603.65,147.4z M604.8,145.5
		c-0.26,0.13-0.38,0.51-0.38,1.14h0.38c1.9-2.41,3.23-4.88,4-7.42v-0.57c-0.51,0.51-0.76,0.89-0.76,1.14
		c-0.64,0.64-1.05,1.24-1.24,1.81c-0.19,0.57-0.35,1.11-0.48,1.62l-0.95,0.95c-0.13,0.38-0.26,0.64-0.38,0.76
		C604.86,145.05,604.8,145.24,604.8,145.5z M605.56,142.26l-0.38,0.38c0,0.13,0.03,0.22,0.09,0.29c0.06,0.07,0.1,0.16,0.1,0.29
		c-0.38,0.26-0.57,0.45-0.57,0.57h0.57v-0.57v-0.38c0-0.13,0.03-0.22,0.09-0.29C605.52,142.49,605.56,142.39,605.56,142.26z
		 M605.56,142.26h0.19c0.25,0,0.38-0.19,0.38-0.57h-0.57V142.26z M605.75,148.35l-0.19,0.19l0.19,0.19V148.35z M606.32,147.4
		c0.89-0.25,1.46-0.67,1.71-1.24c0.25-0.57,0.51-1.17,0.76-1.81c-0.64,0.38-1.11,0.83-1.43,1.33
		C607.05,146.2,606.7,146.77,606.32,147.4z M609.55,143.21c-0.38,0.26-0.57,0.45-0.57,0.57
		C609.36,143.78,609.55,143.59,609.55,143.21z M609.74,136.55h-0.38v0.38L609.74,136.55z M609.74,136.55v-0.19
		c0-0.25,0.06-0.38,0.19-0.38c0.13,0,0.19-0.06,0.19-0.19v-0.57l-0.57,0.57C609.55,135.92,609.62,136.17,609.74,136.55z
		 M628.01,76.81l0.38-0.19C628.26,76.75,628.13,76.81,628.01,76.81z M693.27,128.56l-0.19-0.19l-0.19,0.19h-0.19v0.38v0.38
		c-0.26,1.27-0.6,2.51-1.05,3.71c-0.45,1.21-0.79,2.38-1.05,3.52c-1.27,4.19-2.41,8.31-3.42,12.37c-1.02,4.06-2.22,8.31-3.62,12.75
		c-0.89,3.3-1.81,6.63-2.76,9.99c-0.95,3.36-1.93,6.69-2.95,9.99c-0.26,0.63-0.41,1.2-0.48,1.71c-0.07,0.51-0.1,1.01-0.1,1.52
		c0.38-0.13,0.57-0.38,0.57-0.76c0.76-2.03,1.36-3.97,1.81-5.8c0.44-1.84,1.05-3.78,1.81-5.8c0.89-2.66,1.65-5.23,2.28-7.71
		c0.63-2.47,1.46-5.04,2.47-7.71c1.01-4.44,2.09-8.91,3.23-13.41c1.14-4.5,2.35-8.97,3.62-13.41c0-0.13,0.03-0.31,0.09-0.57
		c0.06-0.25,0.09-0.51,0.09-0.76V128.56z M679.38,184.12c0,0.5,0.19,0.76,0.57,0.76l0.19-0.19c0-0.38,0.09-0.73,0.29-1.05
		c0.19-0.32,0.29-0.73,0.29-1.24c0.63-2.16,1.3-4.28,2-6.37c0.7-2.09,1.49-4.16,2.38-6.18c2.54-6.98,4.69-14.14,6.47-21.5l0.19-0.19
		c0.25-0.25,0.38-0.51,0.38-0.76h-0.38c-0.13,0-0.19-0.06-0.19-0.19v0.19c-0.38,0.38-0.57,0.89-0.57,1.52
		c-1.4,3.55-2.6,7.04-3.62,10.46c-1.02,3.42-2.03,6.97-3.04,10.66c-1.02,2.54-1.84,4.98-2.47,7.32
		C681.21,179.71,680.39,181.96,679.38,184.12z M680.33,168.33h0.57v-0.19l-0.38,0.19H680.33z M681.28,166.04l-0.19,0.19l0.19,0.38
		V166.04z M681.28,165.85c0.38,0,0.57-0.32,0.57-0.95c0-0.25-0.03-0.41-0.09-0.48c-0.07-0.07-0.1-0.16-0.1-0.29
		c-0.13,0.25-0.16,0.51-0.09,0.76C681.63,165.16,681.53,165.47,681.28,165.85z M682.04,162.62v0.57c0.13-0.26,0.16-0.45,0.09-0.57
		c-0.07-0.13,0.03-0.32,0.29-0.57C682.17,162.3,682.04,162.49,682.04,162.62z M682.42,161.29v0.76c0.38-0.38,0.57-0.95,0.57-1.71
		C682.61,160.72,682.42,161.03,682.42,161.29z M689.27,134.84c-0.13,0.26-0.22,0.45-0.29,0.57c-0.07,0.13-0.1,0.32-0.1,0.57
		c0,0.13,0.03,0.26,0.1,0.38c0.06,0.13,0.09,0.32,0.09,0.57c-0.26,0.26-0.45,0.54-0.57,0.86c-0.13,0.32-0.32,0.6-0.57,0.86
		c-0.64,3.17-1.4,6.34-2.28,9.51c-0.89,3.17-1.78,6.4-2.66,9.7v2.28l0.57-0.57c0.89-3.68,1.74-7.23,2.57-10.65
		c0.82-3.42,1.81-6.97,2.95-10.65v-1.33C689.2,136.3,689.27,135.6,689.27,134.84z M689.27,134.84c0.38-0.25,0.57-0.63,0.57-1.14
		C689.46,134.08,689.27,134.46,689.27,134.84z M698.59,45.8c-0.64,0-0.95,0.19-0.95,0.57C697.89,46.37,698.21,46.18,698.59,45.8z
		 M699.92,44.85h-0.76v0.57C699.67,45.42,699.92,45.23,699.92,44.85z M700.88,44.66c-0.64,0-0.95,0.07-0.95,0.19
		C700.56,44.85,700.88,44.79,700.88,44.66z M702.02,44.09h0.38l0.76-0.38c0.51,0,0.95-0.19,1.33-0.57c-0.89,0-1.33,0.07-1.33,0.19
		c-0.76,0-1.21,0.13-1.33,0.38c-0.25,0-0.57,0.32-0.95,0.95C701.64,44.66,702.02,44.47,702.02,44.09z M702.78,45.8
		c0-0.25,0.12-0.38,0.38-0.38h-0.38V45.8z M703.35,45.42c0.13,0,0.38-0.19,0.76-0.57C703.6,44.85,703.35,45.04,703.35,45.42z
		 M705.06,44.85v-0.19h-0.38l-0.57,0.19H705.06z"/>
	<path class="st1" d="M781.74,114.1c0.13-0.12,0.32-0.19,0.57-0.19c0.25,0,0.48,0.13,0.67,0.38c0.19,0.26,0.41,0.45,0.67,0.57
		c0.13,0,0.19,0.19,0.19,0.57c-0.26,0.64-0.45,1.21-0.57,1.71c-0.13,0.51-0.32,1.02-0.57,1.52c-1.9,3.17-3.78,6.25-5.61,9.23
		c-1.84,2.98-3.84,5.93-5.99,8.85c-0.76,1.14-1.62,2.32-2.57,3.52c-0.95,1.21-1.87,2.51-2.76,3.9l-5.14,4.57
		c-1.14,0.64-2.16,1.14-3.04,1.52c-0.89,0.38-1.84,0.57-2.85,0.57c-1.27,0-2.66-0.38-4.19-1.14c-1.4-0.63-2.73-1.49-4-2.57
		c-1.27-1.08-2.35-2.31-3.23-3.71c-1.02-1.77-1.65-3.8-1.9-6.09c0-0.51-0.03-1.01-0.09-1.52c-0.07-0.5-0.1-1.01-0.1-1.52
		c-0.13-0.38-0.19-0.89-0.19-1.52c0.63-6.59,1.78-12.87,3.42-18.83c0.25-0.63,0.51-1.27,0.76-1.9c0.25-0.63,0.38-1.27,0.38-1.9
		v-0.38c-0.64,0.26-0.98,0.6-1.05,1.05c-0.07,0.45-0.22,0.98-0.48,1.62l-7.23,12.75c-1.02,1.9-2.06,3.74-3.14,5.52
		c-1.08,1.78-2.25,3.55-3.52,5.33c-0.64,1.02-1.36,1.94-2.19,2.76c-0.83,0.83-1.68,1.75-2.57,2.76c-0.51,0.64-1.14,1.17-1.9,1.62
		c-0.76,0.45-1.46,0.79-2.09,1.05c-0.26,0.13-0.64,0.19-1.14,0.19c-0.38,0-1.08-0.13-2.09-0.38c-1.02-0.38-1.94-0.98-2.76-1.81
		c-0.83-0.82-1.75-1.68-2.76-2.57c-1.39-1.01-2.09-2.41-2.09-4.19c0-0.25,0.03-0.41,0.09-0.48c0.07-0.06,0.09-0.22,0.09-0.48
		c0-0.38-0.03-0.79-0.09-1.24c-0.06-0.44-0.09-0.86-0.09-1.24c0-1.9,0.16-3.71,0.48-5.42c0.32-1.71,0.79-3.39,1.43-5.04
		c0.38-1.52,0.86-3.04,1.43-4.57c0.57-1.52,1.17-2.98,1.81-4.38c1.77-3.42,3.93-6.78,6.47-10.08c0.5-0.89,0.82-1.33,0.95-1.33
		c0.63-1.01,1.33-1.74,2.09-2.19c0.76-0.44,1.52-0.98,2.28-1.62c0.5-0.38,1.01-0.57,1.52-0.57c0.25,0,0.5-0.03,0.76-0.09
		c0.25-0.06,0.5-0.09,0.76-0.09c1.39,0,2.92,0.32,4.57,0.95c1.65,0.64,3.11,1.59,4.38,2.85c0.38,0.38,0.67,0.83,0.86,1.33
		c0.19,0.51,0.41,1.02,0.67,1.52c0,0.13,0.03,0.26,0.1,0.38c0.06,0.13,0.09,0.32,0.09,0.57c0,0.51-0.19,0.95-0.57,1.33
		c-0.26,0.26-0.45,0.38-0.57,0.38c-0.13,0-0.45-0.13-0.95-0.38l-3.04-2.28c-0.26-0.25-0.51-0.38-0.76-0.38
		c-0.26,0-0.45,0.07-0.57,0.19l-2.28,2.09c-0.89,1.02-1.68,2.03-2.38,3.04c-0.7,1.02-1.43,2.03-2.19,3.04
		c-1.4,2.54-2.57,5.07-3.52,7.61c-0.95,2.54-1.87,5.14-2.76,7.8c-0.51,1.02-0.86,2.03-1.05,3.04c-0.19,1.02-0.41,2.03-0.67,3.04
		c-0.13,0.26-0.19,0.6-0.19,1.05c0,0.45,0,0.79,0,1.05c0,0.26,0.13,0.51,0.38,0.76h0.19c0.25,0,0.44-0.06,0.57-0.19
		c1.65-1.52,3.2-3.17,4.66-4.95c1.46-1.78,2.82-3.74,4.09-5.9c2.03-2.92,4.03-5.8,5.99-8.66c1.96-2.85,3.9-5.74,5.8-8.66
		c1.14-1.9,2.44-3.87,3.9-5.9c1.46-2.03,2.88-4,4.28-5.9l3.61-5.14c0.51-0.76,0.89-1.14,1.14-1.14c0.13,0,0.57,0.13,1.33,0.38
		c0.38,0.26,0.82,0.45,1.33,0.57c0.5,0.13,0.89,0.32,1.14,0.57c0.89,0.89,1.33,1.71,1.33,2.47c0,0.26-0.03,0.45-0.09,0.57
		c-0.07,0.13-0.09,0.32-0.09,0.57l-2.09,6.47c-1.02,3.42-2.03,6.88-3.04,10.37c-1.02,3.49-1.97,7.01-2.85,10.56
		c-0.26,1.52-0.54,3.04-0.86,4.57c-0.32,1.52-0.6,3.17-0.86,4.95c-0.13,1.02-0.22,2.03-0.29,3.04c-0.07,1.02-0.09,2.03-0.09,3.04
		c0,0.76,0.03,1.49,0.09,2.19c0.06,0.7,0.1,1.43,0.1,2.19c0,0.76,0.09,1.4,0.29,1.9c0.19,0.51,0.41,1.08,0.67,1.71
		c0.5,0.89,1.33,1.33,2.47,1.33h0.57c0.25-0.13,0.57-0.19,0.95-0.19c0.38,0,0.7-0.13,0.95-0.38c0.63-0.63,1.3-1.24,2-1.81
		c0.7-0.57,1.36-1.24,2-2c1.77-1.9,3.55-3.87,5.33-5.9c1.77-2.03,3.36-4.25,4.76-6.66c1.39-1.9,2.73-3.8,4-5.71
		c1.27-1.9,2.6-3.87,4-5.9c0.38-0.51,0.67-1.05,0.86-1.62c0.19-0.57,0.41-1.17,0.67-1.81l1.33-1.14c0.13-0.13,0.32-0.19,0.57-0.19
		c0.25,0,0.44,0.07,0.57,0.19c0.25,0.13,0.35,0.22,0.29,0.29C781.58,113.88,781.61,113.98,781.74,114.1z M725.04,106.11
		c-1.14,0.38-1.71,1.08-1.71,2.09l-0.76,0.57c-1.52,2.28-2.85,4.79-4,7.52c-1.14,2.73-2.09,5.49-2.85,8.28
		c-0.26,0.76-0.38,1.33-0.38,1.71c0,0.38,0.06,0.7,0.19,0.95c-0.51,0.13-0.76,0.51-0.76,1.14c0,0.13,0.03,0.22,0.09,0.29
		c0.06,0.06,0.1,0.16,0.1,0.29c0,0.13-0.03,0.19-0.1,0.19c-0.07,0-0.09,0.07-0.09,0.19c-0.13,0-0.13,0.07,0,0.19
		c0-0.13,0.03-0.22,0.09-0.29c0.06-0.06,0.1-0.16,0.1-0.29c0.38-0.25,0.57-0.89,0.57-1.9c0.25-0.13,0.57-0.7,0.95-1.71
		c0.76-2.54,1.62-5.04,2.57-7.51c0.95-2.47,2.12-4.85,3.52-7.13c0.25-0.25,0.41-0.63,0.48-1.14c0.06-0.51,0.22-0.95,0.48-1.33
		C724.02,108.08,724.53,107.38,725.04,106.11z M715.43,121.9c0.06,0,0.09-0.06,0.09-0.19l-0.19,0.38
		C715.34,121.97,715.37,121.9,715.43,121.9z M716.29,118.86c0-0.13,0.03-0.22,0.1-0.29c0.06-0.06,0.09-0.16,0.09-0.29
		c-0.26,0-0.38,0.13-0.38,0.38L716.29,118.86z M720.66,119.81c-0.38,0.38-0.51,0.57-0.38,0.57L720.66,119.81z M721.23,118.86
		c0.25-0.13,0.38-0.5,0.38-1.14C721.36,118.23,721.23,118.61,721.23,118.86z M721.61,117.72c0.25-0.13,0.38-0.32,0.38-0.57v-0.57
		C721.74,116.83,721.61,117.21,721.61,117.72z M721.99,116.58c0.63-0.25,1.01-0.76,1.14-1.52
		C722.38,115.18,721.99,115.69,721.99,116.58z M723.14,115.06c0.25-0.13,0.38-0.51,0.38-1.14
		C723.26,114.04,723.14,114.42,723.14,115.06z M723.52,113.91c0.76-0.51,1.14-1.39,1.14-2.66c-0.76,0.38-1.14,1.08-1.14,2.09V113.91
		z M725.61,109.35c-0.64,0.38-0.95,1.02-0.95,1.9c0.63-0.25,0.95-0.63,0.95-1.14v-0.57c0.76-0.13,1.14-0.63,1.14-1.52
		C726.24,108.14,725.86,108.59,725.61,109.35z M725.04,106.11c0.51-0.51,0.76-1.08,0.76-1.71c-0.51,0.26-0.76,0.7-0.76,1.33V106.11z
		 M727.13,107.26c0.76-0.25,1.14-0.7,1.14-1.33C727.51,106.18,727.13,106.62,727.13,107.26z M773.17,127.99
		c-0.26,0.25-0.38,0.51-0.38,0.76L773.17,127.99z M776.79,122.86c-0.25,0.13-0.38,0.22-0.38,0.29c0,0.07-0.07,0.16-0.19,0.29
		l0.38-0.38L776.79,122.86z M778.88,118.86c0.38-0.13,0.57-0.25,0.57-0.38c-0.13,0-0.26,0.07-0.38,0.19L778.88,118.86z
		 M780.02,117.72c0,0.26-0.13,0.38-0.38,0.38c0.13,0,0.25-0.06,0.38-0.19V117.72z M780.98,114.68v0.38c0-0.13,0.03-0.19,0.09-0.19
		c0.06,0,0.09-0.06,0.09-0.19H780.98z"/>
	<path class="st1" d="M821.31,114.68c0.25,1.27,0.38,2.22,0.38,2.85c0,2.16-0.48,4.12-1.43,5.9c-0.95,1.78-1.97,3.36-3.04,4.76
		c-1.08,1.4-2.09,2.57-3.04,3.52c-0.95,0.95-1.43,1.56-1.43,1.81c0,0.13,0.13,0.19,0.38,0.19h0.19c-1.4,1.78-2.92,3.65-4.57,5.61
		c-1.65,1.97-3.17,3.65-4.57,5.04c-1.78,1.78-3.68,3.33-5.71,4.66c-2.03,1.33-4.25,2.31-6.66,2.95c-0.89,0.25-1.71,0.44-2.47,0.57
		c-0.76,0.13-1.59,0.19-2.47,0.19c-2.66,0-4.95-0.7-6.85-2.09c-1.4-1.01-2.7-2.03-3.9-3.04c-1.21-1.01-2.19-2.22-2.95-3.61
		c-0.64-1.27-1.08-2.66-1.33-4.19c-0.13-0.5-0.19-1.01-0.19-1.52c0-0.51,0-1.08,0-1.71c0-0.63,0-1.17,0-1.62
		c0-0.44,0.07-0.98,0.19-1.62v-4.57c0.25-1.14,0.51-2.25,0.76-3.33c0.25-1.08,0.51-2.12,0.76-3.14v-1.14c0-0.13,0.03-0.22,0.09-0.29
		c0.06-0.06,0.1-0.16,0.1-0.29c0-0.12-0.03-0.25-0.1-0.38c-0.07-0.13-0.09-0.25-0.09-0.38c0-0.13-0.03-0.19-0.1-0.19
		c-0.07,0-0.09-0.06-0.09-0.19l0.57-0.76c0.38-0.25,0.82-0.76,1.33-1.52c0.63-1.14,1.2-2.31,1.71-3.52c0.5-1.2,1.08-2.38,1.71-3.52
		c1.77-3.04,3.74-5.71,5.9-7.99c1.52-1.9,3.3-3.49,5.33-4.76c1.01-0.89,2.16-1.39,3.42-1.52c0.5-0.13,0.98-0.19,1.43-0.19
		c0.44,0,0.86,0,1.24,0c2.28,0,4.38,0.51,6.28,1.52c2.41,1.4,3.62,3.36,3.62,5.9v0.57c-0.13,1.9-0.7,3.81-1.71,5.71
		c-0.76,1.52-1.62,2.98-2.57,4.38c-0.95,1.4-2.13,2.6-3.52,3.61c-3.42,2.66-6.85,4.44-10.27,5.33l-2.09,0.57
		c-0.89,0.13-1.52,0.7-1.9,1.71l-1.9,14.65v0.76c0,0.64,0.06,1.3,0.19,2c0.13,0.7,0.32,1.36,0.57,2c0.13,1.14,0.89,1.71,2.28,1.71
		h1.52c1.77-0.38,3.52-0.89,5.23-1.52c1.71-0.63,3.33-1.46,4.85-2.47c1.52-1.01,2.98-2.12,4.38-3.33c1.39-1.2,2.79-2.5,4.19-3.9
		c0.76-0.76,1.84-1.68,3.23-2.76c1.39-1.08,2.54-2.12,3.42-3.14c1.14-1.39,2.22-2.76,3.23-4.09c1.01-1.33,2.03-2.69,3.04-4.09
		c0.63-1.01,1.24-2.03,1.81-3.04C820.26,116.71,820.8,115.69,821.31,114.68z M779.26,115.25l0.38-0.38c-0.13,0-0.19,0.03-0.19,0.09
		c0,0.07-0.07,0.1-0.19,0.1V115.25z M779.64,114.68c0.76-0.51,1.14-1.33,1.14-2.47C780.15,112.84,779.77,113.66,779.64,114.68z
		 M782.69,113.34c1.01-1.9,2.12-3.77,3.33-5.61c1.2-1.84,2.57-3.64,4.09-5.42v-0.76l-0.57,0.38c-0.26,0.25-0.57,0.54-0.95,0.86
		c-0.38,0.32-0.7,0.67-0.95,1.05c-1.14,1.4-2.19,2.85-3.14,4.38c-0.95,1.52-1.87,3.11-2.76,4.76c-0.51,1.02-0.95,2.28-1.33,3.81
		l0.95-1.33c0.25-0.25,0.48-0.6,0.67-1.05C782.21,113.95,782.43,113.6,782.69,113.34z M781.54,111.25
		c-0.26,0.13-0.51,0.45-0.76,0.95C781.29,112.08,781.54,111.76,781.54,111.25z M783.26,108.21c-0.89,0.64-1.46,1.65-1.71,3.04
		c0.89-0.89,1.52-1.9,1.9-3.04c0.25-0.25,0.38-0.57,0.38-0.95C783.45,107.51,783.26,107.83,783.26,108.21z M784.97,105.73
		c-0.64,0.38-1.02,0.89-1.14,1.52C784.59,107.13,784.97,106.62,784.97,105.73z M785.73,104.78c-0.38,0.13-0.57,0.45-0.57,0.95
		L785.73,104.78z M786.3,104.21c0.25-0.25,0.38-0.57,0.38-0.95L786.3,104.21z M786.68,110.87c0.13-0.12,0.19-0.31,0.19-0.57
		c0,0.13-0.03,0.19-0.09,0.19c-0.07,0-0.1,0.07-0.1,0.19V110.87z M787.06,110.3c0.38-0.13,0.57-0.44,0.57-0.95
		C787.38,109.6,787.19,109.92,787.06,110.3z M797.15,102.5c-0.64,0.38-1.21,0.83-1.71,1.33c-0.51,0.51-1.08,1.02-1.71,1.52
		c-1.27,1.52-2.35,3.08-3.23,4.66c-0.89,1.59-1.78,3.27-2.66,5.04c-0.13,0.13-0.19,0.32-0.19,0.57v0.19c0,0.26,0.19,0.38,0.57,0.38
		c0.51-0.25,0.95-0.48,1.33-0.67c0.38-0.19,0.76-0.41,1.14-0.67c1.39-1.14,2.69-2.35,3.9-3.62c1.2-1.27,2.19-2.73,2.95-4.38
		c0.89-1.52,1.39-2.92,1.52-4.19v-0.19c0-0.38-0.26-0.57-0.76-0.57h-0.38L797.15,102.5z M792.96,102.5c-0.26,0-0.45,0.07-0.57,0.19
		c-1.02,1.02-1.94,2.03-2.76,3.04c-0.83,1.02-1.49,2.22-2,3.62c0.38-0.13,0.63-0.38,0.76-0.76c0.76-1.01,1.55-1.97,2.38-2.85
		c0.82-0.89,1.55-1.84,2.19-2.85V102.5z M799.05,108.21c0,0.13-0.13,0.32-0.38,0.57c-0.25,0.51-0.38,0.83-0.38,0.95h0.38
		c-0.25,0.26-0.41,0.57-0.48,0.95c-0.07,0.38-0.16,0.7-0.29,0.95c-0.13,0.26-0.29,0.41-0.48,0.48c-0.19,0.07-0.35,0.22-0.48,0.48
		v0.19h0.19c0.25-0.13,0.41-0.25,0.48-0.38c0.06-0.13,0.22-0.32,0.48-0.57c0.5-0.38,0.92-0.82,1.24-1.33
		c0.32-0.51,0.6-1.01,0.86-1.52c0.25-0.25,0.38-0.54,0.38-0.86c0-0.31,0.06-0.6,0.19-0.86c-0.38,0-0.6,0.16-0.67,0.48
		c-0.07,0.32-0.22,0.54-0.48,0.67l-0.38,0.38c-0.13,0-0.19-0.06-0.19-0.19V108.21z M798.48,113.91l0.38-0.19
		C798.73,113.72,798.6,113.79,798.48,113.91z M800.95,110.87c-0.89,0.38-1.46,1.21-1.71,2.47
		C800.12,112.84,800.7,112.01,800.95,110.87z M801.52,110.11c-0.26,0.13-0.38,0.22-0.38,0.29c0,0.07-0.07,0.16-0.19,0.29
		c0.13,0,0.19-0.03,0.19-0.1c0-0.06,0.06-0.09,0.19-0.09C801.33,110.36,801.39,110.24,801.52,110.11z M806.28,136.94
		c0.13-0.13,0.38-0.29,0.76-0.48c0.38-0.19,0.63-0.41,0.76-0.67l-1.71,1.14v0.19L806.28,136.94z M808.75,137.32
		c0-0.13-0.07-0.19-0.19-0.19l-0.57,0.57C808.24,137.44,808.5,137.32,808.75,137.32z M809.13,134.27c-0.26,0.25-0.38,0.57-0.38,0.95
		L809.13,134.27z M809.32,136.55c0.38-0.12,0.57-0.44,0.57-0.95C809.51,135.86,809.32,136.17,809.32,136.55z M809.89,135.6
		c0.38-0.13,0.63-0.38,0.76-0.76c-0.13,0.13-0.25,0.22-0.38,0.29C810.15,135.19,810.02,135.35,809.89,135.6z M810.08,133.51
		c0.5-0.13,0.95-0.7,1.33-1.71c-0.38,0.26-0.67,0.48-0.86,0.67S810.21,133.01,810.08,133.51z M810.65,134.84
		c0.51-0.25,0.95-0.76,1.33-1.52C811.23,133.83,810.78,134.34,810.65,134.84z M811.42,131.8c0.63-0.13,1.14-0.7,1.52-1.71
		C812.3,130.34,811.8,130.91,811.42,131.8z M812.75,132.18c-0.25,0.25-0.45,0.57-0.57,0.95L812.75,132.18z M812.94,130.09
		c0.76-0.25,1.14-0.7,1.14-1.33C813.44,129.01,813.06,129.45,812.94,130.09z M814.08,128.56c0.63-0.25,1.11-0.63,1.43-1.14
		c0.32-0.5,0.6-1.08,0.86-1.71c-0.51,0.38-0.92,0.79-1.24,1.24C814.81,127.39,814.46,127.93,814.08,128.56z M815.41,128.94
		c-0.38,0.38-0.57,0.7-0.57,0.95L815.41,128.94z M815.6,128.75c0.38-0.38,0.57-0.69,0.57-0.95L815.6,128.75z M816.36,125.71
		c0.13,0,0.32-0.32,0.57-0.95h-0.38l-0.19,0.19V125.71z M816.93,124.76c0.5-0.13,0.76-0.44,0.76-0.95h-0.57L816.93,124.76z
		 M819.22,121.14c-0.89,0.89-1.4,1.65-1.52,2.28v0.38c0.38-0.38,0.73-0.76,1.05-1.14C819.06,122.29,819.22,121.78,819.22,121.14z
		 M819.22,121.14c0.51-0.13,0.76-0.32,0.76-0.57l-0.38-0.38V120h-0.19l0.19,0.19C819.6,120.57,819.47,120.89,819.22,121.14z"/>
</g>
<g>
	<g>
		<path class="st0" d="M100.38,92.94c6.64-11.51,11.95-28.56,2.89-38.86c-3.33-3.79-8.89-5.29-13.51-6.74
			c-3.49-1.1-6.87-2.29-9.92-3.99l2.33,5.63c3.67,1.52,7.57,2.73,11.55,4.18c14.38,5.24,10.59,22.34,4.51,34.59L100.38,92.94z"/>
	</g>
	<g>
		<path class="st1" d="M109.36,92.82v-7.97c-0.72,0.12-1.39,0.56-1.71,1.42c-1.39,3.79-3.35,7.23-5.74,10.39l1.87,4.51
			C105.94,98.58,107.81,95.8,109.36,92.82z"/>
	</g>
	<g>
		<path class="st1" d="M109.36,31.81c-5.9,3.08-11.82,6.12-17.83,9c-2.12,1.02-0.81,3.78,1.08,3.98c6.71,0.72,12.6,3.56,16.75,8.92
			v-6.15c-2.99-2.66-6.41-4.54-10.23-5.72c3.43-1.71,6.84-3.46,10.23-5.22V31.81z"/>
	</g>
	<g>
		<path class="st0" d="M118.35,92.94c-6.64-11.51-11.95-28.56-2.89-38.86c3.33-3.79,8.89-5.29,13.51-6.74
			c3.49-1.1,6.86-2.29,9.92-3.99l-2.33,5.63c-3.67,1.52-7.57,2.73-11.55,4.18c-14.38,5.24-10.59,22.34-4.51,34.59L118.35,92.94z"/>
	</g>
	<g>
		<path class="st1" d="M109.36,92.82v-7.97c0.72,0.12,1.39,0.56,1.71,1.42c1.4,3.79,3.35,7.23,5.74,10.39l-1.87,4.51
			C112.79,98.58,110.92,95.8,109.36,92.82z"/>
	</g>
	<g>
		<path class="st1" d="M109.36,31.81c5.9,3.08,11.82,6.12,17.83,9c2.12,1.02,0.81,3.78-1.08,3.98c-6.71,0.72-12.6,3.56-16.75,8.92
			v-6.15c2.99-2.66,6.41-4.54,10.24-5.72c-3.43-1.71-6.84-3.46-10.24-5.22V31.81z"/>
	</g>
	<g>
		<path class="st0" d="M87.67,105.65c-3.45-12.83-11.75-28.64-25.43-29.52c-5.04-0.32-10.03,2.54-14.32,4.79
			c-3.24,1.69-6.47,3.23-9.83,4.2l5.63,2.33c3.67-1.52,7.29-3.42,11.12-5.21c13.87-6.46,23.29,8.31,27.65,21.27L87.67,105.65z"/>
	</g>
	<g>
		<path class="st1" d="M93.94,99.21l-5.63-5.63c-0.42,0.59-0.59,1.38-0.21,2.21c1.69,3.67,2.75,7.48,3.29,11.41l4.5,1.87
			C95.59,105.7,94.94,102.42,93.94,99.21z"/>
	</g>
	<g>
		<path class="st1" d="M50.8,56.07c-1.99,6.35-4.03,12.69-6.24,18.97c-0.78,2.22,2.1,3.24,3.58,2.05
			c5.26-4.24,11.42-6.39,18.15-5.53l-4.35-4.35c-4,0.23-7.75,1.32-11.28,3.19c1.22-3.63,2.39-7.28,3.54-10.93L50.8,56.07z"/>
	</g>
	<g>
		<path class="st0" d="M100.38,92.94C87.55,89.5,71.73,81.19,70.85,67.51c-0.32-5.04,2.55-10.02,4.79-14.32
			c1.69-3.24,3.23-6.48,4.2-9.84l2.33,5.63c-1.52,3.67-3.42,7.29-5.21,11.12c-6.46,13.87,8.31,23.29,21.27,27.65L100.38,92.94z"/>
	</g>
	<g>
		<path class="st1" d="M93.94,99.21l-5.63-5.63c0.59-0.42,1.38-0.59,2.21-0.21c3.66,1.69,7.48,2.75,11.4,3.29l1.87,4.5
			C100.43,100.86,97.15,100.22,93.94,99.21z"/>
	</g>
	<g>
		<path class="st1" d="M50.8,56.07c6.35-1.99,12.69-4.03,18.97-6.24c2.22-0.78,3.25,2.1,2.05,3.58c-4.23,5.26-6.39,11.42-5.53,18.15
			l-4.35-4.35c0.23-3.99,1.32-7.75,3.19-11.28c-3.63,1.22-7.28,2.39-10.93,3.54L50.8,56.07z"/>
	</g>
	<g>
		<path class="st0" d="M87.67,123.62c-11.51-6.64-28.56-11.95-38.86-2.89c-3.79,3.34-5.29,8.89-6.74,13.51
			c-1.1,3.49-2.29,6.86-3.99,9.92l5.63-2.33c1.52-3.67,2.73-7.57,4.18-11.55c5.23-14.38,22.34-10.59,34.59-4.51L87.67,123.62z"/>
	</g>
	<g>
		<path class="st1" d="M87.55,114.64l-7.97,0c0.12,0.72,0.56,1.39,1.41,1.71c3.79,1.4,7.23,3.35,10.39,5.74l4.5-1.87
			C93.3,118.06,90.53,116.19,87.55,114.64z"/>
	</g>
	<g>
		<path class="st1" d="M26.54,114.64c3.08,5.9,6.12,11.82,9,17.83c1.02,2.12,3.78,0.81,3.98-1.08c0.72-6.71,3.56-12.6,8.92-16.75
			h-6.15c-2.66,2.99-4.54,6.41-5.72,10.23c-1.71-3.43-3.46-6.84-5.22-10.23H26.54z"/>
	</g>
	<g>
		<path class="st0" d="M87.67,105.65c-11.51,6.64-28.56,11.95-38.86,2.89c-3.79-3.34-5.29-8.89-6.74-13.51
			c-1.1-3.49-2.29-6.87-3.99-9.92l5.63,2.33c1.52,3.67,2.73,7.57,4.18,11.55c5.23,14.38,22.34,10.59,34.59,4.51L87.67,105.65z"/>
	</g>
	<g>
		<path class="st1" d="M87.55,114.64l-7.97,0c0.12-0.72,0.56-1.39,1.41-1.7c3.79-1.4,7.23-3.35,10.39-5.74l4.5,1.87
			C93.3,111.21,90.53,113.08,87.55,114.64z"/>
	</g>
	<g>
		<path class="st1" d="M26.54,114.64c3.08-5.9,6.12-11.82,9-17.83c1.02-2.12,3.78-0.81,3.98,1.08c0.72,6.71,3.56,12.6,8.92,16.75
			h-6.15c-2.66-2.99-4.54-6.41-5.72-10.23c-1.71,3.43-3.46,6.84-5.22,10.23H26.54z"/>
	</g>
	<g>
		<path class="st0" d="M100.38,136.33c-12.83,3.45-28.64,11.75-29.52,25.43c-0.32,5.04,2.55,10.02,4.79,14.32
			c1.69,3.24,3.23,6.47,4.19,9.83l2.34-5.63c-1.52-3.67-3.43-7.29-5.21-11.12c-6.47-13.87,8.31-23.29,21.27-27.65L100.38,136.33z"/>
	</g>
	<g>
		<path class="st1" d="M93.94,130.06l-5.63,5.63c0.59,0.42,1.38,0.59,2.21,0.21c3.67-1.69,7.48-2.74,11.4-3.29l1.87-4.51
			C100.43,128.41,97.15,129.06,93.94,130.06z"/>
	</g>
	<g>
		<path class="st1" d="M50.8,173.2c6.35,1.99,12.69,4.03,18.97,6.24c2.22,0.78,3.25-2.1,2.05-3.58c-4.23-5.26-6.39-11.42-5.53-18.15
			l-4.35,4.35c0.23,4,1.32,7.75,3.19,11.28c-3.63-1.22-7.28-2.39-10.93-3.54L50.8,173.2z"/>
	</g>
	<g>
		<path class="st0" d="M87.67,123.62c-3.44,12.83-11.75,28.64-25.43,29.52c-5.04,0.32-10.02-2.55-14.32-4.79
			c-3.24-1.69-6.48-3.23-9.84-4.2l5.63-2.33c3.67,1.52,7.29,3.42,11.12,5.21c13.87,6.46,23.29-8.31,27.65-21.27L87.67,123.62z"/>
	</g>
	<g>
		<path class="st1" d="M93.94,130.06l-5.63,5.63c-0.42-0.59-0.59-1.38-0.2-2.2c1.69-3.67,2.74-7.48,3.29-11.41l4.5-1.87
			C95.59,123.57,94.94,126.85,93.94,130.06z"/>
	</g>
	<g>
		<path class="st1" d="M50.8,173.2c-1.99-6.35-4.03-12.69-6.24-18.97c-0.78-2.22,2.1-3.25,3.58-2.05
			c5.26,4.24,11.42,6.39,18.15,5.53l-4.35,4.35c-3.99-0.23-7.75-1.32-11.28-3.19c1.22,3.63,2.39,7.28,3.54,10.93L50.8,173.2z"/>
	</g>
	<g>
		<path class="st0" d="M118.35,136.33c-6.63,11.51-11.95,28.56-2.89,38.86c3.33,3.79,8.89,5.29,13.51,6.74
			c3.49,1.1,6.86,2.29,9.92,3.99l-2.33-5.63c-3.67-1.52-7.57-2.73-11.55-4.18c-14.38-5.23-10.59-22.34-4.51-34.59L118.35,136.33z"/>
	</g>
	<g>
		<path class="st1" d="M109.36,136.45v7.97c0.72-0.12,1.39-0.56,1.71-1.41c1.4-3.79,3.35-7.23,5.74-10.39l-1.87-4.51
			C112.79,130.7,110.92,133.47,109.36,136.45z"/>
	</g>
	<g>
		<path class="st1" d="M109.36,197.46c5.9-3.08,11.83-6.12,17.83-9c2.12-1.02,0.81-3.78-1.08-3.98c-6.71-0.72-12.6-3.56-16.75-8.92
			v6.15c2.99,2.66,6.41,4.55,10.23,5.72c-3.43,1.71-6.84,3.46-10.23,5.23L109.36,197.46z"/>
	</g>
	<g>
		<path class="st0" d="M100.38,136.33c6.64,11.51,11.95,28.56,2.89,38.86c-3.34,3.79-8.89,5.29-13.51,6.74
			c-3.49,1.1-6.87,2.29-9.92,3.99l2.33-5.63c3.67-1.52,7.57-2.73,11.55-4.18c14.38-5.24,10.59-22.34,4.51-34.6L100.38,136.33z"/>
	</g>
	<g>
		<path class="st1" d="M109.36,136.45v7.97c-0.72-0.12-1.39-0.56-1.7-1.41c-1.4-3.79-3.35-7.23-5.74-10.39l1.87-4.51
			C105.94,130.7,107.81,133.47,109.36,136.45z"/>
	</g>
	<g>
		<path class="st1" d="M109.36,197.46c-5.9-3.08-11.82-6.12-17.83-9c-2.12-1.02-0.81-3.78,1.08-3.98c6.71-0.72,12.6-3.56,16.75-8.92
			v6.15c-2.99,2.66-6.41,4.54-10.24,5.72c3.43,1.71,6.84,3.46,10.24,5.22L109.36,197.46z"/>
	</g>
	<g>
		<path class="st0" d="M131.06,123.62c3.45,12.83,11.75,28.64,25.43,29.52c5.04,0.32,10.02-2.55,14.32-4.79
			c3.24-1.69,6.48-3.23,9.84-4.2l-5.63-2.33c-3.67,1.52-7.29,3.42-11.12,5.21c-13.87,6.47-23.28-8.31-27.65-21.27L131.06,123.62z"/>
	</g>
	<g>
		<path class="st1" d="M124.79,130.06l5.63,5.63c0.43-0.59,0.59-1.38,0.21-2.21c-1.69-3.67-2.74-7.48-3.29-11.41l-4.5-1.87
			C123.14,123.57,123.79,126.85,124.79,130.06z"/>
	</g>
	<g>
		<path class="st1" d="M167.93,173.2c1.99-6.35,4.03-12.69,6.24-18.97c0.78-2.22-2.1-3.25-3.58-2.05
			c-5.26,4.24-11.42,6.39-18.15,5.53l4.35,4.35c4-0.23,7.75-1.32,11.28-3.19c-1.22,3.63-2.39,7.28-3.54,10.93L167.93,173.2z"/>
	</g>
	<g>
		<path class="st0" d="M118.35,136.33c12.83,3.45,28.64,11.75,29.52,25.43c0.32,5.04-2.55,10.02-4.79,14.32
			c-1.69,3.24-3.23,6.48-4.2,9.84l-2.34-5.63c1.52-3.67,3.43-7.29,5.21-11.12c6.46-13.87-8.31-23.29-21.27-27.65L118.35,136.33z"/>
	</g>
	<g>
		<path class="st1" d="M124.79,130.06l5.63,5.63c-0.59,0.42-1.38,0.59-2.2,0.2c-3.67-1.69-7.48-2.74-11.41-3.29l-1.87-4.5
			C118.3,128.41,121.58,129.06,124.79,130.06z"/>
	</g>
	<g>
		<path class="st1" d="M167.93,173.2c-6.35,1.99-12.69,4.03-18.97,6.24c-2.22,0.78-3.25-2.1-2.05-3.58
			c4.24-5.26,6.39-11.42,5.53-18.15l4.35,4.35c-0.23,3.99-1.32,7.75-3.19,11.28c3.63-1.22,7.28-2.39,10.93-3.54L167.93,173.2z"/>
	</g>
	<g>
		<path class="st0" d="M131.06,105.65c11.51,6.64,28.56,11.95,38.86,2.89c3.79-3.33,5.29-8.89,6.74-13.51
			c1.1-3.49,2.29-6.86,3.99-9.92l-5.63,2.33c-1.52,3.67-2.73,7.57-4.18,11.55c-5.23,14.38-22.34,10.59-34.59,4.51L131.06,105.65z"/>
	</g>
	<g>
		<path class="st1" d="M131.18,114.64l7.97,0c-0.12-0.72-0.56-1.39-1.42-1.71c-3.79-1.4-7.23-3.35-10.39-5.74l-4.5,1.87
			C125.43,111.21,128.2,113.08,131.18,114.64z"/>
	</g>
	<g>
		<path class="st1" d="M192.19,114.64c-3.08-5.9-6.12-11.82-9-17.83c-1.02-2.12-3.78-0.81-3.99,1.08
			c-0.72,6.71-3.56,12.6-8.92,16.75h6.15c2.66-2.99,4.55-6.41,5.72-10.23c1.71,3.43,3.46,6.84,5.23,10.23L192.19,114.64z"/>
	</g>
	<g>
		<path class="st0" d="M131.06,123.62c11.51-6.64,28.56-11.95,38.86-2.89c3.79,3.34,5.29,8.89,6.74,13.51
			c1.1,3.49,2.29,6.87,3.99,9.92l-5.63-2.33c-1.52-3.67-2.73-7.58-4.18-11.55c-5.24-14.38-22.34-10.59-34.59-4.51L131.06,123.62z"/>
	</g>
	<g>
		<path class="st1" d="M131.18,114.64l7.97,0c-0.12,0.72-0.56,1.39-1.42,1.7c-3.79,1.39-7.23,3.35-10.39,5.74l-4.5-1.86
			C125.43,118.06,128.2,116.19,131.18,114.64z"/>
	</g>
	<g>
		<path class="st1" d="M192.19,114.64c-3.08,5.9-6.12,11.82-9,17.83c-1.02,2.13-3.78,0.81-3.98-1.08
			c-0.72-6.71-3.56-12.6-8.92-16.75h6.15c2.66,2.99,4.54,6.41,5.72,10.23c1.71-3.43,3.46-6.84,5.22-10.23L192.19,114.64z"/>
	</g>
	<g>
		<path class="st0" d="M118.35,92.94c12.83-3.45,28.64-11.75,29.52-25.43c0.32-5.04-2.55-10.02-4.79-14.32
			c-1.69-3.24-3.23-6.48-4.19-9.84l-2.34,5.63c1.52,3.67,3.43,7.29,5.21,11.12c6.46,13.87-8.31,23.29-21.27,27.65L118.35,92.94z"/>
	</g>
	<g>
		<path class="st1" d="M124.79,99.21l5.63-5.63c-0.59-0.42-1.38-0.59-2.21-0.21c-3.67,1.69-7.48,2.74-11.41,3.29l-1.87,4.5
			C118.3,100.86,121.58,100.22,124.79,99.21z"/>
	</g>
	<g>
		<path class="st1" d="M167.93,56.07c-6.35-1.99-12.69-4.03-18.97-6.24c-2.22-0.78-3.25,2.1-2.05,3.58
			c4.24,5.26,6.39,11.42,5.53,18.15l4.35-4.35c-0.23-4-1.32-7.75-3.19-11.28c3.63,1.22,7.28,2.39,10.93,3.54L167.93,56.07z"/>
	</g>
	<g>
		<path class="st0" d="M131.06,105.65c3.44-12.83,11.75-28.64,25.43-29.52c5.04-0.32,10.02,2.54,14.32,4.78
			c3.24,1.69,6.48,3.23,9.84,4.2l-5.63,2.34c-3.67-1.52-7.29-3.43-11.12-5.21c-13.87-6.46-23.28,8.31-27.65,21.27L131.06,105.65z"/>
	</g>
	<g>
		<path class="st1" d="M124.79,99.21l5.63-5.63c0.42,0.59,0.59,1.38,0.2,2.2c-1.69,3.67-2.74,7.48-3.29,11.41l-4.5,1.87
			C123.14,105.7,123.78,102.42,124.79,99.21z"/>
	</g>
	<g>
		<path class="st1" d="M167.93,56.07c1.99,6.35,4.03,12.69,6.24,18.97c0.78,2.22-2.1,3.25-3.58,2.05
			c-5.26-4.23-11.42-6.39-18.15-5.53l4.35-4.35c3.99,0.23,7.75,1.32,11.28,3.19c-1.22-3.63-2.39-7.28-3.54-10.93L167.93,56.07z"/>
	</g>
</g>
</svg>
