<?xml version="1.0" encoding="utf-8"?>
<!-- Generator: Adobe Illustrator 23.0.3, SVG Export Plug-In . SVG Version: 6.00 Build 0)  -->
<svg version="1.1" id="Layer_1" xmlns="http://www.w3.org/2000/svg" xmlns:xlink="http://www.w3.org/1999/xlink" x="0px" y="0px"
	 viewBox="0 0 941.68 222.8" style="enable-background:new 0 0 941.68 222.8;" xml:space="preserve">
<style type="text/css">
	.st0{fill:#14A0A9;}
	.st1{fill:#1E2242;}
</style>
<g>
	<g>
		<path class="st0" d="M469.83,170.98c1.88,0,3.49,0.66,4.83,1.98c1.35,1.32,2.04,2.92,2.07,4.79c0.02,1.92-0.66,3.57-2.06,4.95
			c-1.39,1.37-3.06,2.06-5.01,2.06h-7.6v11.62c0,0.17-0.08,0.25-0.25,0.25h-1.2c-0.17,0-0.25-0.08-0.25-0.25v-25.16
			c0-0.17,0.08-0.25,0.25-0.25H469.83z M469.83,183.08c1.43,0,2.66-0.51,3.68-1.54c1.01-1.01,1.52-2.23,1.52-3.67
			c0-1.44-0.51-2.67-1.52-3.68c-1.02-1.03-2.25-1.54-3.68-1.54h-7.76v10.42H469.83z"/>
		<path class="st0" d="M482.29,196.6c-0.17,0-0.25-0.08-0.25-0.25v-25.08c0-0.17,0.08-0.25,0.25-0.25h1.2
			c0.15,0,0.23,0.08,0.23,0.25v25.08c0,0.17-0.08,0.25-0.23,0.25H482.29z M500.01,184.66h-17.97v-1.7h17.97V184.66z M498.58,196.64
			c-0.17,0-0.25-0.08-0.25-0.25V171.3c0-0.17,0.08-0.25,0.25-0.25h1.2c0.15,0,0.23,0.08,0.23,0.25v25.08c0,0.17-0.08,0.25-0.23,0.25
			H498.58z"/>
		<path class="st0" d="M513.03,195.63c-1.53-0.66-2.88-1.57-4.08-2.75c-1.18-1.19-2.1-2.55-2.75-4.08c-0.67-1.58-1-3.25-1-4.99
			c0-1.74,0.33-3.4,1-4.99c0.66-1.53,1.57-2.88,2.75-4.08c1.19-1.18,2.55-2.09,4.08-2.74c1.59-0.68,3.25-1.02,4.99-1.02
			s3.4,0.34,4.99,1.02c1.53,0.64,2.88,1.56,4.08,2.74c1.18,1.19,2.09,2.55,2.74,4.08c0.68,1.58,1.02,3.25,1.02,4.99
			c0,1.74-0.34,3.4-1.02,4.99c-0.64,1.53-1.56,2.88-2.74,4.08c-1.19,1.18-2.55,2.1-4.08,2.75c-1.59,0.67-3.25,1-4.99,1
			S514.61,196.3,513.03,195.63z M513.69,173.57c-1.33,0.56-2.52,1.35-3.54,2.38c-1.02,1.03-1.82,2.21-2.38,3.54
			c-0.58,1.38-0.88,2.83-0.88,4.33c0,1.5,0.29,2.94,0.88,4.33c0.56,1.33,1.35,2.51,2.38,3.54s2.21,1.82,3.54,2.38
			c1.38,0.58,2.82,0.88,4.33,0.88s2.94-0.29,4.33-0.88c1.33-0.56,2.51-1.35,3.54-2.38c1.02-1.03,1.82-2.21,2.38-3.54
			c0.58-1.38,0.88-2.83,0.88-4.33c0-1.5-0.29-2.94-0.88-4.33c-0.56-1.33-1.35-2.51-2.38-3.54c-1.03-1.02-2.21-1.82-3.54-2.38
			c-1.38-0.58-2.82-0.88-4.33-0.88S515.07,172.99,513.69,173.57z"/>
		<path class="st0" d="M546.94,171.01c0.17,0,0.25,0.08,0.25,0.25v1.2c0,0.17-0.08,0.25-0.25,0.25h-7.21v23.67
			c0,0.17-0.08,0.25-0.25,0.25h-1.2c-0.15,0-0.23-0.08-0.23-0.25v-23.67h-7.21c-0.17,0-0.25-0.08-0.25-0.25v-1.2
			c0-0.17,0.08-0.25,0.25-0.25H546.94z"/>
		<path class="st0" d="M553.99,195.63c-1.53-0.66-2.88-1.57-4.08-2.75c-1.18-1.19-2.1-2.55-2.75-4.08c-0.67-1.58-1-3.25-1-4.99
			c0-1.74,0.33-3.4,1-4.99c0.66-1.53,1.57-2.88,2.75-4.08c1.19-1.18,2.55-2.09,4.08-2.74c1.59-0.68,3.25-1.02,4.99-1.02
			s3.4,0.34,4.99,1.02c1.53,0.64,2.88,1.56,4.08,2.74c1.18,1.19,2.09,2.55,2.74,4.08c0.68,1.58,1.02,3.25,1.02,4.99
			c0,1.74-0.34,3.4-1.02,4.99c-0.64,1.53-1.56,2.88-2.74,4.08c-1.19,1.18-2.55,2.1-4.08,2.75c-1.59,0.67-3.25,1-4.99,1
			S555.57,196.3,553.99,195.63z M554.65,173.57c-1.33,0.56-2.52,1.35-3.54,2.38c-1.02,1.03-1.82,2.21-2.38,3.54
			c-0.58,1.38-0.88,2.83-0.88,4.33c0,1.5,0.29,2.94,0.88,4.33c0.56,1.33,1.35,2.51,2.38,3.54s2.21,1.82,3.54,2.38
			c1.38,0.58,2.82,0.88,4.33,0.88s2.94-0.29,4.33-0.88c1.33-0.56,2.51-1.35,3.54-2.38c1.02-1.03,1.82-2.21,2.38-3.54
			c0.58-1.38,0.88-2.83,0.88-4.33c0-1.5-0.29-2.94-0.88-4.33c-0.56-1.33-1.35-2.51-2.38-3.54c-1.03-1.02-2.21-1.82-3.54-2.38
			c-1.38-0.58-2.82-0.88-4.33-0.88S556.03,172.99,554.65,173.57z"/>
		<path class="st0" d="M584.61,195.71c-1.68-0.68-3.15-1.67-4.42-2.97c-1.26-1.31-2.21-2.82-2.84-4.52
			c-0.64-1.78-0.88-3.62-0.72-5.52c0.27-3.12,1.55-5.79,3.83-8.01c2.28-2.22,4.98-3.42,8.12-3.61c1.85-0.12,3.62,0.14,5.31,0.79
			c1.69,0.63,3.19,1.59,4.51,2.88c0.12,0.12,0.12,0.24,0,0.36l-0.86,0.84c-0.12,0.11-0.24,0.11-0.36,0
			c-2.13-2.12-4.71-3.19-7.72-3.2c-2.9-0.02-5.42,0.95-7.58,2.93c-2.16,1.99-3.35,4.43-3.58,7.31c-0.12,1.6,0.09,3.13,0.63,4.61
			c0.51,1.43,1.29,2.7,2.32,3.81c1.04,1.12,2.25,1.98,3.63,2.59c1.43,0.64,2.93,0.97,4.51,0.97c2.98,0,5.54-1.03,7.69-3.09v-5.9
			h-5.36c-0.17,0-0.25-0.08-0.25-0.25v-1.2c0-0.17,0.08-0.25,0.25-0.25h6.79c0.17,0,0.25,0.08,0.25,0.25v7.94
			c0,0.07-0.02,0.13-0.07,0.18l-0.04,0.04c-1.16,1.17-2.46,2.1-3.92,2.79c-1.5,0.69-3.06,1.08-4.67,1.16
			C588.17,196.71,586.35,196.41,584.61,195.71z"/>
		<path class="st0" d="M604.85,184.8v-13.52c0-0.17,0.08-0.25,0.25-0.25h9.19c1.87,0,3.48,0.66,4.83,1.97
			c1.33,1.32,2.02,2.92,2.06,4.79c0.02,1.92-0.66,3.57-2.06,4.95c-1.39,1.37-3.06,2.06-4.99,2.06H604.85z M605.1,196.64
			c-0.17,0-0.25-0.08-0.25-0.25V181.1h1.68v15.29c0,0.17-0.08,0.25-0.23,0.25H605.1z M606.53,183.1h7.76c1.43,0,2.65-0.51,3.67-1.52
			c1.01-1.01,1.52-2.23,1.52-3.67s-0.51-2.66-1.52-3.68c-1.01-1.01-2.24-1.52-3.67-1.52h-7.76V183.1z M619.01,196.64
			c-0.1,0-0.17-0.04-0.21-0.13l-6.53-11.92l1.48-0.8l6.83,12.5c0.05,0.07,0.05,0.15,0,0.23c-0.05,0.08-0.12,0.13-0.21,0.13H619.01z"
			/>
		<path class="st0" d="M635.48,171c0.11,0,0.18,0.05,0.23,0.14l10.44,25.16c0.04,0.08,0.03,0.16-0.02,0.23s-0.12,0.11-0.21,0.11
			h-1.29c-0.11,0-0.18-0.05-0.23-0.16L640.05,186h-10.69L625,196.47c-0.05,0.11-0.13,0.16-0.23,0.16h-1.29
			c-0.08,0-0.15-0.04-0.21-0.11c-0.05-0.07-0.05-0.15-0.02-0.23l10.44-25.16c0.05-0.09,0.13-0.14,0.23-0.14H635.48z M639.36,184.32
			l-4.65-11.19l-4.65,11.19H639.36z"/>
		<path class="st0" d="M658.83,170.98c1.88,0,3.49,0.66,4.83,1.98c1.35,1.32,2.04,2.92,2.07,4.79c0.02,1.92-0.66,3.57-2.06,4.95
			c-1.39,1.37-3.06,2.06-5.01,2.06h-7.6v11.62c0,0.17-0.08,0.25-0.25,0.25h-1.2c-0.17,0-0.25-0.08-0.25-0.25v-25.16
			c0-0.17,0.08-0.25,0.25-0.25H658.83z M658.83,183.08c1.43,0,2.66-0.51,3.68-1.54c1.01-1.01,1.52-2.23,1.52-3.67
			c0-1.44-0.51-2.67-1.52-3.68c-1.03-1.03-2.25-1.54-3.68-1.54h-7.76v10.42H658.83z"/>
		<path class="st0" d="M671.29,196.6c-0.17,0-0.25-0.08-0.25-0.25v-25.08c0-0.17,0.08-0.25,0.25-0.25h1.2
			c0.15,0,0.23,0.08,0.23,0.25v25.08c0,0.17-0.08,0.25-0.23,0.25H671.29z M689,184.66h-17.97v-1.7H689V184.66z M687.57,196.64
			c-0.17,0-0.25-0.08-0.25-0.25V171.3c0-0.17,0.08-0.25,0.25-0.25h1.2c0.16,0,0.23,0.08,0.23,0.25v25.08c0,0.17-0.08,0.25-0.23,0.25
			H687.57z"/>
		<path class="st0" d="M707.79,170.98c0.09,0,0.17,0.04,0.21,0.13c0.05,0.08,0.05,0.17,0,0.25l-7.29,11.58l-0.16,0.27v13.18
			c0,0.17-0.08,0.25-0.25,0.25h-1.2c-0.15,0-0.23-0.08-0.23-0.25v-13.21l-7.44-11.82c-0.05-0.08-0.05-0.17,0-0.25
			c0.05-0.08,0.12-0.13,0.21-0.13h1.41c0.1,0,0.17,0.04,0.21,0.11l6.44,10.26l6.45-10.26c0.05-0.07,0.12-0.11,0.21-0.11H707.79z"/>
	</g>
	<g>
		<path class="st1" d="M354.89,95.3v3.23c0,0.89,0,1.75,0,2.57c0,0.83-0.13,1.62-0.38,2.38c0,0.38,0.09,0.7,0.29,0.95
			c0.19,0.26,0.29,0.57,0.29,0.95h0.38v-0.38c1.14-2.92,2.5-5.77,4.09-8.56c1.58-2.79,3.2-5.45,4.85-7.99
			c2.03-3.42,4.06-6.82,6.09-10.18c2.03-3.36,4.31-6.63,6.85-9.8c1.77-2.54,3.62-4.98,5.52-7.33c1.9-2.34,4-4.66,6.28-6.94
			c1.9-2.54,4.63-4.95,8.18-7.23c1.01-0.89,2.03-1.65,3.04-2.28c1.01-0.63,2.03-1.27,3.04-1.9c2.28-1.39,4.82-2.47,7.61-3.23h1.33
			c1.01,0,1.77,0.13,2.28,0.38c0.51,0.26,1.08,0.57,1.71,0.95c3.3,2.41,5.2,5.2,5.71,8.37c0.25,0.89,0.41,1.71,0.48,2.47
			c0.06,0.76,0.1,1.59,0.1,2.47v2.09v1.71c0,2.79-0.19,5.71-0.57,8.75c-0.26,2.03-0.64,3.97-1.14,5.8c-0.51,1.84-0.95,3.78-1.33,5.8
			c-0.38,1.65-0.73,3.27-1.05,4.85c-0.32,1.59-0.6,3.08-0.86,4.47c-0.64,1.78-1.17,3.49-1.62,5.14c-0.45,1.65-0.98,3.3-1.62,4.95
			c-0.64,2.16-1.27,4.25-1.9,6.28c-0.64,2.03-1.21,4.12-1.71,6.28c-2.54,6.98-4.69,14.43-6.47,22.36
			c-1.78,7.93-3.93,15.51-6.47,22.74l-1.33,4.19c-0.38,0.89-0.92,2.41-1.62,4.57c-0.7,2.16-1.43,4.47-2.19,6.95
			c-0.76,2.47-1.49,4.85-2.19,7.13c-0.7,2.28-1.24,4-1.62,5.14c-0.26,0.5-0.57,1.05-0.95,1.62c-0.38,0.57-0.57,1.17-0.57,1.81
			c0,0.25-0.19,0.44-0.57,0.57c-0.38,0.13-0.7,0.19-0.95,0.19h-0.19c-0.64-0.13-1.17-0.19-1.62-0.19c-0.45,0-0.79-0.19-1.05-0.57
			c-0.13,0-0.35-0.07-0.67-0.19c-0.32-0.13-0.54-0.19-0.67-0.19c-1.02-0.51-1.59-1.08-1.71-1.71c0.25-0.64,0.41-1.37,0.48-2.19
			c0.06-0.83,0.22-1.68,0.48-2.57c0.51-4.31,1.39-8.63,2.66-12.94c0.13-1.78,0.41-3.46,0.86-5.04c0.44-1.59,0.86-3.27,1.24-5.04
			c0.38-2.28,0.79-4.5,1.24-6.66c0.44-2.16,1.05-4.38,1.81-6.66c0.25-2.16,0.7-4.28,1.33-6.37c0.63-2.09,1.27-4.28,1.9-6.56
			c0.63-2.03,1.27-4.12,1.9-6.28c0.63-2.16,1.2-4.31,1.71-6.47c0.76-3.17,1.68-6.31,2.76-9.42c1.08-3.11,2.12-6.18,3.14-9.23
			c0.63-2.03,1.33-4.12,2.09-6.28c0.76-2.16,1.52-4.25,2.28-6.28l3.23-8.94c0.63-1.77,1.27-3.49,1.9-5.14
			c0.63-1.65,1.14-3.36,1.52-5.14c0.63-1.52,1.2-3.2,1.71-5.04c0.51-1.84,0.95-3.64,1.33-5.42c0.25-0.63,0.51-1.58,0.76-2.85
			c0.25-1.27,0.38-2.47,0.38-3.61v-0.76c0-0.5,0-1.01,0-1.52c0-0.51-0.07-0.82-0.19-0.95c-0.26-0.38-0.64-0.6-1.14-0.67
			c-0.51-0.06-1.02-0.1-1.52-0.1c-1.02,0-2.13,0.19-3.33,0.57c-1.21,0.38-2.13,0.7-2.76,0.95c-1.4,0.64-2.63,1.43-3.71,2.38
			c-1.08,0.95-2.13,1.87-3.14,2.76c-5.84,5.2-11.13,10.69-15.89,16.46c-4.76,5.77-9.04,11.89-12.84,18.36
			c-2.41,4.19-4.73,8.44-6.94,12.75c-2.22,4.31-4.41,8.69-6.56,13.13c-1.02,2.03-2.03,4.09-3.04,6.18
			c-1.02,2.09-1.97,4.16-2.85,6.18c-0.89,2.03-1.52,4.19-1.9,6.47c-0.38,2.28-0.7,4.44-0.95,6.47c-0.26,1.02-0.45,1.75-0.57,2.19
			c-0.13,0.45-0.45,0.67-0.95,0.67c-0.89,0-1.78-0.7-2.66-2.09c-2.28-2.03-3.62-4.31-4-6.85c0-1.27,0.06-2.5,0.19-3.71
			c0.13-1.2,0.51-2.44,1.14-3.71c1.39-6.47,2.47-12.87,3.23-19.22c0.76-6.34,1.14-12.87,1.14-19.6v-4.38v-1.52
			c0-0.89-0.16-1.68-0.48-2.38c-0.32-0.7-0.67-1.24-1.05-1.62c-1.14-0.76-2.47-1.14-4-1.14c-1.65,0-3.11,0.38-4.38,1.14
			c-2.92,2.28-4.63,5.07-5.14,8.37c-0.51,3.3-0.89,6.41-1.14,9.32c-0.26,1.65-0.51,3.3-0.76,4.95c-0.26,1.65-0.64,3.3-1.14,4.95
			c-0.64,4.06-1.46,8.06-2.47,11.99c-1.02,3.93-2.22,7.8-3.62,11.6c-0.64,2.79-1.46,5.39-2.47,7.8c-0.89,1.78-1.68,3.55-2.38,5.33
			c-0.7,1.78-1.68,3.55-2.95,5.33c-0.76,0.76-1.46,1.52-2.09,2.28c-0.64,0.76-1.4,1.39-2.28,1.9c-1.02,1.01-2.28,1.52-3.81,1.52
			c-0.13,0.25-0.38,0.41-0.76,0.48c-0.38,0.06-0.64,0.1-0.76,0.1c-0.76,0-1.27-0.19-1.52-0.57c-2.16-0.64-4-1.65-5.52-3.04
			c-0.76-1.01-1.4-2.22-1.9-3.61c0-0.63-0.07-1.33-0.19-2.09c-0.13-0.76-0.26-1.58-0.38-2.47c0-0.38,0-0.79,0-1.24
			c0-0.44,0.13-0.86,0.38-1.24c0.25-2.92,0.86-5.9,1.81-8.94s2.12-6.09,3.52-9.13c1.39-3.17,2.92-6.21,4.57-9.13
			c1.65-2.92,3.3-5.9,4.95-8.94l7.99-10.84c0.63-0.89,1.14-1.71,1.52-2.47c0.38-0.76,0.57-1.65,0.57-2.66
			c0.13-1.52,0.25-2.98,0.38-4.38c0.12-1.39,0.31-2.85,0.57-4.38c0.25-1.01,0.38-2.12,0.38-3.33c0-1.2,0-2.44,0-3.71v-5.14
			c-0.13-0.89-0.19-1.81-0.19-2.76s0-1.81,0-2.57c-0.13-1.27-0.38-2.6-0.76-4c-0.38-1.39-0.7-2.79-0.95-4.19
			c-0.26-1.14-0.54-2.31-0.86-3.52c-0.32-1.2-0.73-2.44-1.24-3.71c-0.64-0.89-0.95-1.58-0.95-2.09c-0.64-1.27-1.62-2.19-2.95-2.76
			c-1.33-0.57-2.7-0.86-4.09-0.86c-0.76,0-1.43,0.03-2,0.1c-0.57,0.07-1.17,0.35-1.81,0.86c-0.13,0-0.38,0.07-0.76,0.19
			c-0.38,0.13-0.7,0.32-0.95,0.57c-1.02,0.89-1.97,1.62-2.85,2.19c-0.89,0.57-1.65,1.3-2.28,2.19c-2.41,2.92-4.57,5.87-6.47,8.85
			c-1.9,2.98-3.55,6.12-4.95,9.42c-1.02,2.54-1.84,4.98-2.47,7.32c-0.64,2.35-1.14,4.66-1.52,6.94c-0.13,1.4-0.26,2.82-0.38,4.28
			c-0.13,1.46-0.19,2.89-0.19,4.28v1.33v3.04c0.13,2.28,0.35,4.54,0.67,6.75c0.31,2.22,0.79,4.47,1.43,6.75
			c0,0.38,0.1,0.79,0.29,1.24c0.19,0.45,0.41,0.86,0.67,1.24c0.76,1.02,1.27,1.84,1.52,2.47c0.76,0.26,1.14,0.64,1.14,1.14v0.19
			c0,0.13-0.19,0.19-0.57,0.19h-0.38c-0.13,0-0.32-0.13-0.57-0.38c-1.27-0.5-2.22-1.08-2.85-1.71c-0.64-0.63-1.27-1.46-1.9-2.47
			l-2.09-4.76c-0.64-1.39-1.08-2.88-1.33-4.47c-0.25-1.58-0.57-3.14-0.95-4.66c-0.25-1.14-0.41-2.28-0.48-3.42
			c-0.06-1.14-0.16-2.41-0.29-3.8c0-1.14,0-2.31,0-3.52c0-1.2,0.13-2.44,0.38-3.71c0-0.5,0.03-1.08,0.1-1.71
			c0.07-0.63,0.22-1.2,0.48-1.71c0.26-2.92,0.7-5.9,1.33-8.94c0.63-3.04,1.65-6.02,3.04-8.94c0.89-1.77,1.74-3.62,2.57-5.52
			c0.82-1.9,1.87-3.61,3.14-5.14c0.25-0.25,0.51-0.57,0.76-0.95c0.25-0.38,0.51-0.63,0.76-0.76c0.63-1.65,1.62-3.2,2.95-4.66
			c1.33-1.46,2.82-2.88,4.47-4.28c0.63-0.25,1.14-0.57,1.52-0.95c0.38-0.38,0.82-0.76,1.33-1.14c1.01-0.38,1.96-0.73,2.85-1.05
			c0.89-0.31,1.77-0.48,2.66-0.48c0.63,0,1.39,0.1,2.28,0.29c0.89,0.19,1.65,0.54,2.28,1.05c5.33,1.52,9.13,4.31,11.42,8.37
			c1.27,1.52,2.28,3.11,3.04,4.76c0.76,1.65,1.65,3.49,2.66,5.52c0.51,1.4,0.89,2.82,1.14,4.28c0.25,1.46,0.51,2.95,0.76,4.47
			c0.25,1.02,0.44,1.93,0.57,2.76c0.13,0.83,0.31,1.74,0.57,2.76c0,1.4,0.03,2.73,0.1,4c0.06,1.27,0.22,2.54,0.48,3.8v0.76
			l0.57,0.38l1.33-1.14c0.63-0.5,1.3-0.98,2-1.43c0.7-0.44,1.36-0.79,2-1.05c1.01-0.51,1.9-0.79,2.66-0.86
			c0.76-0.06,1.46-0.1,2.09-0.1h1.71c1.27,0.26,2.41,0.7,3.42,1.33c1.01,0.64,1.84,1.52,2.47,2.66c0.63,0.64,1.14,1.36,1.52,2.19
			c0.38,0.83,0.76,1.81,1.14,2.95c0.13,2.41,0.63,5.2,1.52,8.37c0,1.4,0,2.73,0,4C354.7,92.96,354.76,94.16,354.89,95.3z
			 M304.09,36.33v-0.19h-0.19c-1.14,0.38-2.16,0.92-3.04,1.62c-0.89,0.7-1.78,1.55-2.66,2.57v0.57c1.27-0.63,2.31-1.39,3.14-2.28
			C302.16,37.72,303.08,36.96,304.09,36.33z M300.48,142.11c0.25,0.76,0.44,1.55,0.57,2.38c0.13,0.83,0.32,1.81,0.57,2.95
			c0.51,0.64,0.95,0.95,1.33,0.95c0.63,0,1.14-0.19,1.52-0.57c0.76-0.51,1.2-1.08,1.33-1.71c0.63-0.89,1.24-1.71,1.81-2.47
			c0.57-0.76,1.05-1.58,1.43-2.47c0.38-1.27,0.86-2.57,1.43-3.9s1.05-2.69,1.43-4.09l3.04-10.84c0.63-2.92,1.24-5.74,1.81-8.47
			c0.57-2.73,1.17-5.36,1.81-7.9c0.25-1.14,0.44-2.12,0.57-2.95c0.13-0.82,0.31-1.74,0.57-2.76h-0.57
			c-0.26,0.13-0.51,0.29-0.76,0.48c-0.26,0.19-0.51,0.41-0.76,0.67c-0.76,2.03-1.97,3.87-3.62,5.52c-1.52,2.66-2.92,5.39-4.19,8.18
			c-1.27,2.79-2.6,5.46-4,7.99c-1.02,2.16-1.87,4.28-2.57,6.37c-0.7,2.09-1.3,4.28-1.81,6.56c-0.26,1.02-0.41,2.03-0.48,3.04
			C300.89,140.08,300.73,141.09,300.48,142.11z M305.43,38.04c-0.64,0.26-1.27,0.6-1.9,1.05c-0.64,0.45-1.27,0.86-1.9,1.24v0.57
			h0.57c0.38-0.38,0.82-0.73,1.33-1.05c0.51-0.32,0.95-0.73,1.33-1.24C305.24,38.61,305.43,38.42,305.43,38.04z M309.23,146.86v0.57
			h0.57c0-0.25,0.03-0.48,0.1-0.67c0.06-0.19,0.1-0.41,0.1-0.67C309.86,146.48,309.61,146.74,309.23,146.86z M310.37,144.96
			c-0.26,0.13-0.38,0.51-0.38,1.14h0.38c1.9-2.41,3.23-4.88,4-7.42v-0.57c-0.51,0.51-0.76,0.89-0.76,1.14
			c-0.64,0.64-1.05,1.24-1.24,1.81c-0.19,0.57-0.35,1.11-0.48,1.62l-0.95,0.95c-0.13,0.38-0.26,0.64-0.38,0.76
			C310.43,144.52,310.37,144.71,310.37,144.96z M311.13,141.73l-0.38,0.38c0,0.13,0.03,0.22,0.1,0.29c0.06,0.07,0.1,0.16,0.1,0.29
			c-0.38,0.26-0.57,0.45-0.57,0.57h0.57v-0.57v-0.38c0-0.13,0.03-0.22,0.1-0.29C311.1,141.95,311.13,141.86,311.13,141.73z
			 M311.13,141.73h0.19c0.25,0,0.38-0.19,0.38-0.57h-0.57V141.73z M311.32,147.82l-0.19,0.19l0.19,0.19V147.82z M311.89,146.86
			c0.89-0.25,1.46-0.67,1.71-1.24c0.25-0.57,0.51-1.17,0.76-1.81c-0.64,0.38-1.11,0.83-1.43,1.33
			C312.62,145.66,312.27,146.23,311.89,146.86z M315.13,142.68c-0.38,0.26-0.57,0.45-0.57,0.57
			C314.94,143.25,315.13,143.06,315.13,142.68z M315.32,136.02h-0.38v0.38L315.32,136.02z M315.32,136.02v-0.19
			c0-0.25,0.06-0.38,0.19-0.38c0.12,0,0.19-0.06,0.19-0.19v-0.57l-0.57,0.57C315.13,135.39,315.19,135.64,315.32,136.02z
			 M333.58,76.28l0.38-0.19C333.84,76.22,333.71,76.28,333.58,76.28z M398.84,128.03l-0.19-0.19l-0.19,0.19h-0.19v0.38v0.38
			c-0.26,1.27-0.6,2.51-1.05,3.71c-0.45,1.21-0.79,2.38-1.05,3.52c-1.27,4.19-2.41,8.31-3.42,12.37c-1.02,4.06-2.22,8.31-3.61,12.75
			c-0.89,3.3-1.81,6.63-2.76,9.99c-0.95,3.36-1.94,6.69-2.95,9.99c-0.26,0.63-0.41,1.2-0.48,1.71c-0.07,0.51-0.1,1.01-0.1,1.52
			c0.38-0.13,0.57-0.38,0.57-0.76c0.76-2.03,1.36-3.97,1.81-5.8c0.44-1.84,1.05-3.78,1.81-5.8c0.89-2.66,1.65-5.23,2.28-7.71
			c0.63-2.47,1.46-5.04,2.47-7.71c1.01-4.44,2.09-8.91,3.23-13.41c1.14-4.5,2.35-8.97,3.61-13.41c0-0.13,0.03-0.31,0.1-0.57
			c0.06-0.25,0.1-0.51,0.1-0.76V128.03z M384.95,183.59c0,0.5,0.19,0.76,0.57,0.76l0.19-0.19c0-0.38,0.1-0.73,0.29-1.05
			c0.19-0.32,0.29-0.73,0.29-1.24c0.63-2.16,1.3-4.28,2-6.37c0.7-2.09,1.49-4.16,2.38-6.18c2.54-6.98,4.69-14.14,6.47-21.5
			l0.19-0.19c0.25-0.25,0.38-0.51,0.38-0.76h-0.38c-0.13,0-0.19-0.06-0.19-0.19v0.19c-0.38,0.38-0.57,0.89-0.57,1.52
			c-1.4,3.55-2.6,7.04-3.61,10.46c-1.02,3.42-2.03,6.97-3.04,10.66c-1.02,2.54-1.84,4.98-2.47,7.32
			C386.79,179.18,385.97,181.43,384.95,183.59z M385.9,167.79h0.57v-0.19l-0.38,0.19H385.9z M386.86,165.51l-0.19,0.19l0.19,0.38
			V165.51z M386.86,165.32c0.38,0,0.57-0.32,0.57-0.95c0-0.25-0.03-0.41-0.1-0.48c-0.07-0.07-0.1-0.16-0.1-0.29
			c-0.13,0.25-0.16,0.51-0.1,0.76C387.2,164.62,387.11,164.94,386.86,165.32z M387.62,162.09v0.57c0.12-0.26,0.16-0.45,0.09-0.57
			c-0.07-0.13,0.03-0.32,0.29-0.57C387.74,161.77,387.62,161.96,387.62,162.09z M388,160.75v0.76c0.38-0.38,0.57-0.95,0.57-1.71
			C388.19,160.18,388,160.5,388,160.75z M394.85,134.31c-0.13,0.26-0.22,0.45-0.29,0.57c-0.07,0.13-0.1,0.32-0.1,0.57
			c0,0.13,0.03,0.26,0.1,0.38c0.06,0.13,0.1,0.32,0.1,0.57c-0.26,0.26-0.45,0.54-0.57,0.86c-0.13,0.32-0.32,0.6-0.57,0.86
			c-0.64,3.17-1.4,6.34-2.28,9.51c-0.89,3.17-1.78,6.4-2.66,9.7v2.28l0.57-0.57c0.89-3.68,1.74-7.23,2.57-10.65
			c0.82-3.42,1.81-6.97,2.95-10.65v-1.33C394.78,135.77,394.85,135.07,394.85,134.31z M394.85,134.31c0.38-0.25,0.57-0.63,0.57-1.14
			C395.04,133.55,394.85,133.93,394.85,134.31z M404.17,45.27c-0.64,0-0.95,0.19-0.95,0.57C403.47,45.84,403.79,45.65,404.17,45.27z
			 M405.5,44.32h-0.76v0.57C405.25,44.89,405.5,44.7,405.5,44.32z M406.45,44.13c-0.64,0-0.95,0.07-0.95,0.19
			C406.13,44.32,406.45,44.25,406.45,44.13z M407.59,43.55h0.38l0.76-0.38c0.51,0,0.95-0.19,1.33-0.57c-0.89,0-1.33,0.07-1.33,0.19
			c-0.76,0-1.21,0.13-1.33,0.38c-0.26,0-0.57,0.32-0.95,0.95C407.21,44.13,407.59,43.94,407.59,43.55z M408.35,45.27
			c0-0.25,0.13-0.38,0.38-0.38h-0.38V45.27z M408.93,44.89c0.13,0,0.38-0.19,0.76-0.57C409.18,44.32,408.93,44.51,408.93,44.89z
			 M410.64,44.32v-0.19h-0.38l-0.57,0.19H410.64z"/>
		<path class="st1" d="M487.31,113.57c0.12-0.12,0.31-0.19,0.57-0.19c0.25,0,0.48,0.13,0.67,0.38c0.19,0.26,0.41,0.45,0.67,0.57
			c0.13,0,0.19,0.19,0.19,0.57c-0.26,0.64-0.45,1.21-0.57,1.71c-0.13,0.51-0.32,1.02-0.57,1.52c-1.9,3.17-3.78,6.25-5.61,9.23
			c-1.84,2.98-3.84,5.93-5.99,8.85c-0.76,1.14-1.62,2.32-2.57,3.52c-0.95,1.21-1.87,2.51-2.76,3.9l-5.14,4.57
			c-1.14,0.64-2.16,1.14-3.04,1.52c-0.89,0.38-1.84,0.57-2.85,0.57c-1.27,0-2.66-0.38-4.19-1.14c-1.4-0.63-2.73-1.49-4-2.57
			c-1.27-1.08-2.35-2.31-3.23-3.71c-1.02-1.77-1.65-3.8-1.9-6.09c0-0.51-0.03-1.01-0.1-1.52c-0.07-0.5-0.09-1.01-0.09-1.52
			c-0.13-0.38-0.19-0.89-0.19-1.52c0.63-6.59,1.77-12.87,3.42-18.83c0.25-0.63,0.51-1.27,0.76-1.9c0.25-0.63,0.38-1.27,0.38-1.9
			v-0.38c-0.64,0.26-0.98,0.6-1.05,1.05c-0.06,0.45-0.22,0.98-0.48,1.62l-7.23,12.75c-1.02,1.9-2.06,3.74-3.14,5.52
			c-1.08,1.78-2.25,3.55-3.52,5.33c-0.64,1.02-1.36,1.94-2.19,2.76c-0.83,0.83-1.68,1.75-2.57,2.76c-0.51,0.64-1.14,1.17-1.9,1.62
			c-0.76,0.45-1.46,0.79-2.09,1.05c-0.26,0.13-0.64,0.19-1.14,0.19c-0.38,0-1.08-0.13-2.09-0.38c-1.02-0.38-1.94-0.98-2.76-1.81
			c-0.83-0.82-1.75-1.68-2.76-2.57c-1.39-1.01-2.09-2.41-2.09-4.19c0-0.25,0.03-0.41,0.1-0.48c0.07-0.06,0.1-0.22,0.1-0.48
			c0-0.38-0.03-0.79-0.1-1.24c-0.06-0.44-0.1-0.86-0.1-1.24c0-1.9,0.16-3.71,0.48-5.42c0.32-1.71,0.79-3.39,1.43-5.04
			c0.38-1.52,0.86-3.04,1.43-4.57c0.57-1.52,1.17-2.98,1.81-4.38c1.77-3.42,3.93-6.78,6.47-10.08c0.51-0.89,0.82-1.33,0.95-1.33
			c0.63-1.01,1.33-1.74,2.09-2.19c0.76-0.44,1.52-0.98,2.28-1.62c0.51-0.38,1.01-0.57,1.52-0.57c0.25,0,0.51-0.03,0.76-0.09
			c0.25-0.06,0.51-0.09,0.76-0.09c1.39,0,2.92,0.32,4.57,0.95c1.65,0.64,3.11,1.59,4.38,2.85c0.38,0.38,0.67,0.83,0.86,1.33
			c0.19,0.51,0.41,1.02,0.67,1.52c0,0.13,0.03,0.26,0.1,0.38c0.06,0.13,0.1,0.32,0.1,0.57c0,0.51-0.19,0.95-0.57,1.33
			c-0.26,0.26-0.45,0.38-0.57,0.38c-0.13,0-0.45-0.13-0.95-0.38l-3.04-2.28c-0.26-0.25-0.51-0.38-0.76-0.38
			c-0.26,0-0.45,0.07-0.57,0.19l-2.28,2.09c-0.89,1.02-1.68,2.03-2.38,3.04c-0.7,1.02-1.43,2.03-2.19,3.04
			c-1.4,2.54-2.57,5.07-3.52,7.61c-0.95,2.54-1.87,5.14-2.76,7.8c-0.51,1.02-0.86,2.03-1.05,3.04c-0.19,1.02-0.41,2.03-0.67,3.04
			c-0.13,0.26-0.19,0.6-0.19,1.05c0,0.45,0,0.79,0,1.05c0,0.26,0.13,0.51,0.38,0.76h0.19c0.25,0,0.44-0.06,0.57-0.19
			c1.65-1.52,3.2-3.17,4.66-4.95c1.46-1.78,2.82-3.74,4.09-5.9c2.03-2.92,4.03-5.8,5.99-8.66c1.96-2.85,3.9-5.74,5.8-8.66
			c1.14-1.9,2.44-3.87,3.9-5.9c1.46-2.03,2.88-4,4.28-5.9l3.61-5.14c0.51-0.76,0.89-1.14,1.14-1.14c0.13,0,0.57,0.13,1.33,0.38
			c0.38,0.26,0.82,0.45,1.33,0.57c0.51,0.13,0.89,0.32,1.14,0.57c0.89,0.89,1.33,1.71,1.33,2.47c0,0.26-0.03,0.45-0.1,0.57
			c-0.07,0.13-0.1,0.32-0.1,0.57l-2.09,6.47c-1.02,3.42-2.03,6.88-3.04,10.37c-1.02,3.49-1.97,7.01-2.85,10.56
			c-0.26,1.52-0.54,3.04-0.86,4.57c-0.32,1.52-0.6,3.17-0.86,4.95c-0.13,1.02-0.22,2.03-0.29,3.04c-0.07,1.02-0.1,2.03-0.1,3.04
			c0,0.76,0.03,1.49,0.1,2.19c0.06,0.7,0.1,1.43,0.1,2.19c0,0.76,0.09,1.4,0.29,1.9c0.19,0.51,0.41,1.08,0.67,1.71
			c0.51,0.89,1.33,1.33,2.47,1.33h0.57c0.25-0.13,0.57-0.19,0.95-0.19c0.38,0,0.7-0.13,0.95-0.38c0.63-0.63,1.3-1.24,2-1.81
			c0.7-0.57,1.36-1.24,2-2c1.77-1.9,3.55-3.87,5.33-5.9c1.77-2.03,3.36-4.25,4.76-6.66c1.39-1.9,2.73-3.8,4-5.71
			c1.27-1.9,2.6-3.87,4-5.9c0.38-0.51,0.67-1.05,0.86-1.62c0.19-0.57,0.41-1.17,0.67-1.81l1.33-1.14c0.12-0.13,0.31-0.19,0.57-0.19
			c0.25,0,0.44,0.07,0.57,0.19c0.25,0.13,0.35,0.22,0.29,0.29C487.15,113.35,487.18,113.45,487.31,113.57z M430.61,105.58
			c-1.14,0.38-1.71,1.08-1.71,2.09l-0.76,0.57c-1.52,2.28-2.85,4.79-4,7.52c-1.14,2.73-2.09,5.49-2.85,8.28
			c-0.26,0.76-0.38,1.33-0.38,1.71c0,0.38,0.06,0.7,0.19,0.95c-0.51,0.13-0.76,0.51-0.76,1.14c0,0.13,0.03,0.22,0.1,0.29
			c0.06,0.06,0.1,0.16,0.1,0.29c0,0.13-0.03,0.19-0.1,0.19c-0.07,0-0.1,0.07-0.1,0.19c-0.13,0-0.13,0.07,0,0.19
			c0-0.13,0.03-0.22,0.1-0.29c0.06-0.06,0.1-0.16,0.1-0.29c0.38-0.25,0.57-0.89,0.57-1.9c0.25-0.13,0.57-0.7,0.95-1.71
			c0.76-2.54,1.62-5.04,2.57-7.51c0.95-2.47,2.12-4.85,3.52-7.13c0.25-0.25,0.41-0.63,0.48-1.14c0.06-0.51,0.22-0.95,0.48-1.33
			C429.6,107.55,430.11,106.85,430.61,105.58z M421.01,121.37c0.06,0,0.1-0.06,0.1-0.19l-0.19,0.38
			C420.91,121.44,420.94,121.37,421.01,121.37z M421.86,118.33c0-0.13,0.03-0.22,0.09-0.29c0.06-0.06,0.1-0.16,0.1-0.29
			c-0.26,0-0.38,0.13-0.38,0.38L421.86,118.33z M426.24,119.28c-0.38,0.38-0.51,0.57-0.38,0.57L426.24,119.28z M426.81,118.33
			c0.25-0.13,0.38-0.5,0.38-1.14C426.93,117.69,426.81,118.07,426.81,118.33z M427.19,117.18c0.25-0.13,0.38-0.32,0.38-0.57v-0.57
			C427.31,116.3,427.19,116.68,427.19,117.18z M427.57,116.04c0.63-0.25,1.01-0.76,1.14-1.52
			C427.95,114.65,427.57,115.16,427.57,116.04z M428.71,114.52c0.25-0.13,0.38-0.51,0.38-1.14
			C428.84,113.51,428.71,113.89,428.71,114.52z M429.09,113.38c0.76-0.51,1.14-1.39,1.14-2.66c-0.76,0.38-1.14,1.08-1.14,2.09
			V113.38z M431.19,108.81c-0.64,0.38-0.95,1.02-0.95,1.9c0.63-0.25,0.95-0.63,0.95-1.14V109c0.76-0.13,1.14-0.63,1.14-1.52
			C431.82,107.61,431.44,108.05,431.19,108.81z M430.61,105.58c0.51-0.51,0.76-1.08,0.76-1.71c-0.51,0.26-0.76,0.7-0.76,1.33V105.58
			z M432.71,106.72c0.76-0.25,1.14-0.7,1.14-1.33C433.09,105.64,432.71,106.09,432.71,106.72z M478.75,127.46
			c-0.26,0.25-0.38,0.51-0.38,0.76L478.75,127.46z M482.37,122.32c-0.26,0.13-0.38,0.22-0.38,0.29c0,0.07-0.07,0.16-0.19,0.29
			l0.38-0.38L482.37,122.32z M484.46,118.33c0.38-0.13,0.57-0.25,0.57-0.38c-0.13,0-0.26,0.07-0.38,0.19L484.46,118.33z
			 M485.6,117.18c0,0.26-0.13,0.38-0.38,0.38c0.12,0,0.25-0.06,0.38-0.19V117.18z M486.55,114.14v0.38c0-0.13,0.03-0.19,0.1-0.19
			c0.06,0,0.1-0.06,0.1-0.19H486.55z"/>
		<path class="st1" d="M521.94,99.11c0,0.26-0.07,0.45-0.19,0.57c-0.51,0.26-0.95,0.38-1.33,0.38c-1.02,0.26-2.03,0.6-3.04,1.05
			c-1.02,0.45-2.03,1.11-3.04,2c-2.16,1.65-4.38,3.81-6.66,6.47c-2.16,2.92-4.28,5.84-6.37,8.75c-2.09,2.92-4.16,6.03-6.18,9.32
			l-4.57,8.75c-1.02,1.65-1.71,3.74-2.09,6.28c-0.26,1.27-0.6,2.47-1.05,3.62c-0.45,1.14-0.79,2.22-1.05,3.23
			c-0.13,0.63-0.57,1.33-1.33,2.09c-0.26,0.25-0.51,0.38-0.76,0.38c-0.51,0-0.83-0.19-0.95-0.57c0-0.38-0.06-0.7-0.19-0.95
			c-0.13-0.26-0.38-0.38-0.76-0.38c-0.89-0.13-1.33-0.51-1.33-1.14v-0.57c0-0.25,0.03-0.44,0.1-0.57c0.06-0.13,0.09-0.32,0.09-0.57
			v-0.38h-0.38c-0.13,0.26-0.26,0.45-0.38,0.57c-0.13,0.13-0.26,0.32-0.38,0.57v-0.57c0-0.51-0.26-0.76-0.76-0.76
			c-0.64-0.13-0.95-0.44-0.95-0.95c0-0.13,0.12-0.7,0.38-1.71c0.13-1.01,0.25-2.12,0.38-3.33c0.13-1.2,0.32-2.38,0.57-3.52
			c0.38-2.16,0.79-4.19,1.24-6.09c0.44-1.9,0.79-3.8,1.05-5.71c0.38-1.78,0.79-3.49,1.24-5.14c0.44-1.65,0.79-3.23,1.05-4.76
			c0-1.27,0.25-2.35,0.76-3.23c0.38-1.9,0.82-3.62,1.33-5.14c0.76-2.41,1.43-4.76,2-7.04s0.98-4.69,1.24-7.23
			c0.25-0.25,0.51-0.51,0.76-0.76c0.25-0.25,0.57-0.5,0.95-0.76c0.25-0.13,0.35-0.22,0.29-0.29c-0.07-0.06-0.03-0.1,0.1-0.1h0.38
			l2.47,0.76c0.38,0.38,0.57,0.83,0.57,1.33h0.38c0.51,0,0.95,0.19,1.33,0.57c0.12,0.38,0.25,0.76,0.38,1.14
			c0.13,0.38,0.31,0.64,0.57,0.76c0.38,0.26,0.57,0.64,0.57,1.14c0,0.64-0.03,1.11-0.1,1.43c-0.07,0.32-0.1,0.6-0.1,0.86
			c-0.26,0.89-0.6,2.03-1.05,3.42c-0.45,1.4-0.92,2.89-1.43,4.47c-0.51,1.59-1.02,3.14-1.52,4.66c-0.51,1.52-0.89,2.79-1.14,3.81
			c0,0.76-0.07,1.27-0.19,1.52c0,0.13,0.03,0.19,0.1,0.19c0.06,0,0.1,0.07,0.1,0.19h0.57l1.14-0.95l9.13-13.13
			c2.66-2.66,5.45-4.88,8.37-6.66c1.52-0.63,2.79-0.95,3.81-0.95c0.63,0,1.58,0.13,2.85,0.38c1.39,0.13,2.41,1.14,3.04,3.04V99.11z
			 M503.86,112.05c0.12-0.13,0.19-0.57,0.19-1.33c-0.64,0.64-1.21,1.27-1.71,1.9c-0.51,0.64-1.02,1.46-1.52,2.47
			c-0.13,0.13-0.19,0.32-0.19,0.57c-0.51,0.25-0.95,0.64-1.33,1.14c-0.38,0.51-0.7,1.08-0.95,1.71c-0.26,0.38-0.57,0.79-0.95,1.24
			c-0.38,0.45-0.7,0.98-0.95,1.62c-0.89,0.76-1.33,1.59-1.33,2.47c-0.76,1.02-1.3,2-1.62,2.95c-0.32,0.95-0.73,1.93-1.24,2.95v0.57
			h0.57c0.89-1.65,1.65-3.68,2.28-6.09c0.25-0.25,0.54-0.57,0.86-0.95c0.31-0.38,0.6-0.82,0.86-1.33c0.38-0.51,0.73-0.98,1.05-1.43
			c0.31-0.44,0.6-1.05,0.86-1.81c0.38-0.38,0.76-0.79,1.14-1.24c0.38-0.44,0.63-0.98,0.76-1.62c0-0.13,0.13-0.31,0.38-0.57
			c0.63-0.51,1.17-1.05,1.62-1.62C503.07,113.09,503.48,112.56,503.86,112.05z M493.02,122.51c0,0.26,0.12,0.45,0.38,0.57l0.38-0.19
			l0.38-0.19c0.76-1.39,1.62-2.79,2.57-4.19c0.95-1.39,1.93-2.79,2.95-4.19l0.57-1.52c0.76-0.89,1.52-1.77,2.28-2.66
			c0.76-0.89,1.46-1.84,2.09-2.85l0.57-0.95c-1.02,0.64-1.9,1.49-2.66,2.57c-0.76,1.08-1.52,2.13-2.28,3.14
			c-0.13,0.13-0.19,0.32-0.19,0.57c-1.02,1.02-1.9,2.09-2.66,3.23c-0.76,1.14-1.52,2.28-2.28,3.42
			C494.48,120.04,493.78,121.12,493.02,122.51z M504.62,110.15c0.13,0,0.25-0.06,0.38-0.19L504.62,110.15z M506.15,104.82
			c-0.26,0-0.38,0.13-0.38,0.38C506.02,105.2,506.15,105.07,506.15,104.82z M505.77,109.19c0.25-0.25,0.38-0.44,0.38-0.57
			C505.89,108.88,505.77,109.07,505.77,109.19z M506.53,107.67c-0.13,0.13-0.19,0.26-0.19,0.38c0-0.13,0.06-0.19,0.19-0.19V107.67z
			 M507.48,106.72c0.25-0.25,0.38-0.44,0.38-0.57C507.6,106.41,507.48,106.6,507.48,106.72z"/>
		<path class="st1" d="M531.26,103.3c0,0.89-0.45,1.4-1.33,1.52v-0.95c-0.51,0.26-0.76,0.76-0.76,1.52
			c0.38-0.38,0.63-0.57,0.76-0.57c-0.13,0.25-0.19,0.51-0.19,0.76c0,0.38,0.06,0.64,0.19,0.76c-1.14,2.16-2.19,4.25-3.14,6.28
			c-0.95,2.03-1.75,4.19-2.38,6.47c-0.26,0.64-0.45,1.3-0.57,2c-0.13,0.7-0.26,1.49-0.38,2.38c0.25-0.13,0.41-0.35,0.48-0.67
			c0.06-0.31,0.22-0.6,0.48-0.86c1.27-4.06,2.6-7.8,4-11.23c0.63-1.01,1.3-2.16,2-3.42c0.7-1.27,1.17-2.41,1.43-3.42
			c0.76-0.5,1.14-0.95,1.14-1.33c0.12-0.51,0.25-0.76,0.38-0.76c0.63,0,0.98,0.16,1.05,0.48c0.06,0.32,0.16,0.6,0.29,0.86v0.38
			l0.38-0.19c0.13,0,0.19-0.06,0.19-0.19c0.63,0,0.95,0.13,0.95,0.38c0,0.51-0.07,0.89-0.19,1.14c-0.13,0.25-0.32,0.57-0.57,0.95
			c-0.76,2.66-1.71,5.33-2.85,7.99c-0.64,2.41-1.33,4.76-2.09,7.04c-0.76,2.28-1.46,4.63-2.09,7.04c-0.38,1.65-0.73,3.33-1.05,5.04
			c-0.32,1.71-0.48,3.46-0.48,5.23v2.85c0.13,0,0.22,0.03,0.29,0.09c0.06,0.07,0.16,0.1,0.29,0.1c0.89-0.25,1.46-0.57,1.71-0.95
			c1.27-1.14,2.5-2.28,3.71-3.42c1.2-1.14,2.44-2.41,3.71-3.81c1.39-1.52,2.76-3.01,4.09-4.47c1.33-1.46,2.69-2.76,4.09-3.9
			c1.01-1.39,2.09-2.69,3.23-3.9c1.14-1.2,2.28-2.44,3.42-3.71c1.52-1.52,2.95-3.07,4.28-4.66c1.33-1.58,2.63-3.14,3.9-4.66
			l0.95-1.33c0.25,0.26,0.38,0.57,0.38,0.95c0,0.38,0.06,0.7,0.19,0.95v0.38c0,0.26-0.03,0.48-0.1,0.67
			c-0.07,0.19-0.1,0.41-0.1,0.67c-0.13,1.02-0.48,2.03-1.05,3.04c-0.57,1.02-1.24,2.03-2,3.04c-1.02,0.51-1.59,0.95-1.71,1.33
			l-0.19,0.19c-1.27,1.14-2.32,2.25-3.14,3.33c-0.83,1.08-1.75,2.25-2.76,3.52c-1.78,1.9-3.49,3.8-5.14,5.71
			c-1.65,1.9-3.23,3.74-4.76,5.52c-0.64,1.02-1.27,1.94-1.9,2.76c-0.64,0.83-1.27,1.62-1.9,2.38c-0.38,0.64-0.79,1.17-1.24,1.62
			c-0.45,0.45-0.92,0.98-1.43,1.62l-2.85,2.66c-0.76,0.38-1.65,0.57-2.66,0.57c-0.89,0-1.59-0.06-2.09-0.19
			c-0.26-0.25-0.6-0.44-1.05-0.57c-0.45-0.13-0.79-0.38-1.05-0.76c-1.27-0.51-2.16-0.95-2.66-1.33c-0.38-0.51-0.76-1.01-1.14-1.52
			c-0.38-0.5-0.7-1.08-0.95-1.71c-0.89-2.16-1.33-4.19-1.33-6.09c0-2.16,0.12-4.28,0.38-6.37c0.25-2.09,0.7-4.21,1.33-6.37
			c0.25-1.52,0.54-2.98,0.86-4.38c0.31-1.39,0.79-2.79,1.43-4.19l3.61-7.23c0.51-1.01,1.11-1.93,1.81-2.76
			c0.7-0.82,1.36-1.74,2-2.76c0.13-0.25,0.35-0.41,0.67-0.48c0.32-0.06,0.54-0.09,0.67-0.09c0.13,0.64,0.25,0.95,0.38,0.95
			c0,0.13-0.03,0.22-0.1,0.29c-0.06,0.07-0.09,0.16-0.09,0.29c0,0.13,0.03,0.19,0.09,0.19c0.06,0,0.1,0.07,0.1,0.19v0.38h0.38v0.38
			C531.45,103.04,531.38,103.17,531.26,103.3z M522.13,122.51c0-0.13,0.13-0.25,0.38-0.38c-0.13,0-0.26,0.07-0.38,0.19V122.51z
			 M522.89,121.56c0-0.13-0.13-0.44-0.38-0.95c-0.13,0.26-0.19,0.51-0.19,0.76c0,0.26,0.06,0.45,0.19,0.57
			C522.76,121.94,522.89,121.82,522.89,121.56z M522.51,120.61c0.13-0.13,0.19-0.38,0.19-0.76
			C522.57,119.98,522.51,120.23,522.51,120.61z M523.08,119.85c0.13-0.13,0.19-0.32,0.19-0.57c0-0.25,0-0.5,0-0.76
			C523.14,118.64,523.08,119.09,523.08,119.85z M523.46,123.46c-0.13,0.13-0.19,0.32-0.19,0.57v0.76c0.12-0.13,0.19-0.32,0.19-0.57
			V123.46z M523.84,117.95c0-0.12-0.03-0.19-0.1-0.19c-0.07,0-0.1-0.06-0.1-0.19c-0.13,0.13-0.19,0.26-0.19,0.38v0.57
			C523.71,118.26,523.84,118.07,523.84,117.95z M523.65,117.57c0.38-0.63,0.76-1.24,1.14-1.81c0.38-0.57,0.57-1.36,0.57-2.38
			C524.34,114.52,523.77,115.92,523.65,117.57z M525.36,113.38c0.25-0.25,0.38-0.51,0.38-0.76
			C525.49,112.62,525.36,112.87,525.36,113.38z M525.93,112.24c0-0.13-0.03-0.22-0.1-0.29c-0.07-0.06-0.1-0.16-0.1-0.29v0.76
			L525.93,112.24z M525.93,111.67c0.63-0.5,1.08-1.08,1.33-1.71c0.25-0.63,0.51-1.46,0.76-2.47c-0.64,0.64-1.11,1.24-1.43,1.81
			C526.28,109.86,526.06,110.65,525.93,111.67z M528.02,107.48c0.13-0.13,0.29-0.25,0.48-0.38c0.19-0.12,0.29-0.31,0.29-0.57
			c-0.26,0.13-0.45,0.22-0.57,0.29C528.09,106.88,528.02,107.1,528.02,107.48z M528.79,106.53c0-0.13-0.03-0.25-0.1-0.38
			c-0.07-0.13-0.1-0.25-0.1-0.38l0.57-0.38C529.17,106.02,529.04,106.41,528.79,106.53z M531.26,103.3c0-0.25-0.07-0.51-0.19-0.76
			c-0.76,0.13-1.14,0.57-1.14,1.33c0.25-0.25,0.51-0.38,0.76-0.38C530.94,103.49,531.13,103.42,531.26,103.3z M532.59,101.2
			l-0.38,0.38l0.19,0.38c-0.38,0-0.7,0.13-0.95,0.38c0.12-0.13,0.19-0.22,0.19-0.29c0-0.06,0.13-0.16,0.38-0.29
			c0-0.13,0.06-0.22,0.19-0.29c0.13-0.06,0.19-0.16,0.19-0.29l0.19-0.19V101.2z M533.73,141.35c0-0.13,0.03-0.19,0.1-0.19
			c0.06,0,0.1-0.06,0.1-0.19l-0.38,0.38c-0.13,0-0.19,0.07-0.19,0.19v0.38c0-0.13,0.06-0.19,0.19-0.19
			C533.67,141.73,533.73,141.6,533.73,141.35z M533.92,140.97c0.89-0.38,1.39-0.89,1.52-1.52c-0.26,0.13-0.48,0.32-0.67,0.57
			C534.59,140.27,534.3,140.59,533.92,140.97z M543.24,85.6c-0.26,0.13-0.38,0.32-0.38,0.57c0,0.26-0.07,0.45-0.19,0.57
			c-0.76,0.38-1.33,0.95-1.71,1.71c-0.38,0.38-0.57,0.83-0.57,1.33c0,0.38,0.06,0.7,0.19,0.95c-0.26,0.51-0.51,1.14-0.76,1.9
			c-0.26,0-0.45,0.03-0.57,0.09c-0.13,0.07-0.26,0.1-0.38,0.1c-0.13,0-0.19-0.1-0.19-0.29c0-0.19-0.13-0.29-0.38-0.29v-0.57
			c-0.26-0.25-0.54-0.44-0.86-0.57c-0.32-0.13-0.54-0.44-0.67-0.95c0-0.38-0.16-0.6-0.48-0.67c-0.32-0.06-0.6-0.22-0.86-0.48
			c-0.38-0.13-0.57-0.44-0.57-0.95c0.13-1.01,0.35-1.96,0.67-2.85c0.31-0.89,0.92-1.65,1.81-2.28c0.12-0.25,0.51-0.38,1.14-0.38
			c0.38,0,0.63,0.07,0.76,0.19c0.25,0.13,0.6,0.26,1.05,0.38c0.44,0.13,0.79,0.32,1.05,0.57c0.38,0.26,0.73,0.57,1.05,0.95
			C542.7,85.03,542.99,85.35,543.24,85.6z M537.16,137.16c-0.26,0.13-0.48,0.26-0.67,0.38c-0.19,0.13-0.35,0.51-0.48,1.14
			c0.76-0.5,1.14-0.89,1.14-1.14V137.16z M537.16,134.88c-0.13,0-0.19,0.06-0.19,0.19v0.38c0,0.13,0.13-0.06,0.38-0.57v-0.19
			C537.35,134.82,537.28,134.88,537.16,134.88z M537.35,137.16c0.12-0.12,0.19-0.31,0.19-0.57c0,0.13-0.13,0.32-0.38,0.57H537.35z
			 M537.54,136.59c0.51-0.13,0.89-0.51,1.14-1.14C538.04,135.71,537.66,136.09,537.54,136.59z M537.73,84.84h0.38
			c-0.13,0-0.19-0.13-0.19-0.38v-0.19c-0.13,0-0.19,0.13-0.19,0.38V84.84z M538.49,133.17c-0.26,0.13-0.51,0.51-0.76,1.14
			c0.63-0.25,0.95-0.5,0.95-0.76c0-0.13-0.03-0.19-0.1-0.19C538.52,133.36,538.49,133.29,538.49,133.17z M538.3,85.6
			c0.89-0.13,1.33-0.57,1.33-1.33v-0.19l-0.19,0.19h-0.57v-0.38c-0.38,0-0.6,0.03-0.67,0.09c-0.07,0.07-0.16,0.16-0.29,0.29h0.57
			c-0.26,0.13-0.38,0.38-0.38,0.76C538.23,85.16,538.3,85.35,538.3,85.6z M538.49,132.98c0.12-0.13,0.31-0.19,0.57-0.19l0.38-0.38
			h-0.19L538.49,132.98z M539.25,134.88c0.38-0.38,0.63-0.89,0.76-1.52L539.25,134.88z M540.2,132.98l0.19-0.19h-0.19V132.98z
			 M540.58,130.69c0,0.13-0.03,0.19-0.1,0.19c-0.07,0-0.1,0.07-0.1,0.19l0.38-0.38v-0.19L540.58,130.69z M540.39,132.79
			c0.76-0.25,1.2-0.63,1.33-1.14C540.96,132.15,540.52,132.53,540.39,132.79z M541.53,129.55c-0.13,0-0.19,0.07-0.19,0.19l0.19,0.19
			V129.55z M541.53,129.55l0.38-0.19h0.19c0-0.25,0.13-0.51,0.38-0.76c-0.13,0-0.19,0.03-0.19,0.1c0,0.07-0.07,0.09-0.19,0.09
			l-0.57,0.57V129.55z M541.91,131.64l0.38-0.19l-0.19-0.19l-0.38,0.38H541.91z M542.29,131.45c0.51-0.13,0.89-0.63,1.14-1.52
			C542.67,130.44,542.29,130.95,542.29,131.45z M544.01,127.27c-0.76,0.26-1.27,0.7-1.52,1.33
			C542.99,128.47,543.5,128.03,544.01,127.27z M544.2,128.79c-0.13,0.26-0.19,0.45-0.19,0.57c0,0.13-0.07,0.19-0.19,0.19
			c-0.26,0-0.38,0.13-0.38,0.38c0.13,0,0.16-0.03,0.1-0.09c-0.07-0.06,0.03-0.1,0.29-0.1c0-0.25,0.12-0.38,0.38-0.38V128.79z
			 M544.58,128.03l0.38-0.38L544.58,128.03z M547.05,125.37h-0.19c0,0.25-0.07,0.45-0.19,0.57c0.13-0.13,0.25-0.19,0.38-0.19V125.37
			z M548.38,122.32c0-0.38,0.19-0.57,0.57-0.57v-0.19l-0.57,0.57V122.32z M549.71,120.99c0.51-0.38,0.95-0.89,1.33-1.52
			c-0.76,0.26-1.14,0.57-1.14,0.95L549.71,120.99z M550.66,121.75c-0.13,0-0.19,0.03-0.19,0.09c0,0.07-0.06,0.1-0.19,0.1l-0.38,0.57
			c0.12,0,0.25-0.06,0.38-0.19L550.66,121.75z M550.66,121.37c0.25-0.25,0.44-0.38,0.57-0.38L550.66,121.37z M552,118.52l-0.19,0.19
			L552,118.52z M552.38,119.66l-0.57,0.38L552.38,119.66z M552.76,117.76c0-0.13,0.03-0.22,0.1-0.29c0.06-0.06,0.1-0.22,0.1-0.48
			l-0.57,0.57v0.57C552.63,118.01,552.76,117.88,552.76,117.76z M552.38,119.66c0.76-0.13,1.2-0.57,1.33-1.33
			C553.45,118.45,553.01,118.9,552.38,119.66z M554.09,116.04c0.76-0.13,1.39-0.63,1.9-1.52
			C555.36,114.78,554.72,115.28,554.09,116.04z M556.56,113.57c0.63-0.25,1.01-0.76,1.14-1.52c-0.64,0.38-0.95,0.76-0.95,1.14
			C556.62,113.32,556.56,113.45,556.56,113.57z M557.7,114.14c-0.64,0.26-1.02,0.64-1.14,1.14c0.76-0.25,1.14-0.57,1.14-0.95V114.14
			z M558.27,111.67c0.63-0.38,1.01-0.95,1.14-1.71C558.78,110.34,558.4,110.91,558.27,111.67z M559.23,112.24
			c-0.13,0.13-0.26,0.19-0.38,0.19v0.19L559.23,112.24z M559.99,111.29c-0.13,0.13-0.26,0.19-0.38,0.19c-0.13,0-0.19,0.07-0.19,0.19
			c0.13,0,0.19-0.03,0.19-0.09c0-0.06,0.12-0.1,0.38-0.1V111.29z M559.8,109.57c0.63-0.25,0.95-0.76,0.95-1.52
			c-0.51,0.13-0.83,0.38-0.95,0.76V109.57z"/>
		<path class="st1" d="M599.56,114.14c0.25,1.27,0.38,2.22,0.38,2.85c0,2.16-0.47,4.12-1.43,5.9c-0.95,1.78-1.97,3.36-3.04,4.76
			c-1.08,1.4-2.09,2.57-3.04,3.52c-0.95,0.95-1.43,1.56-1.43,1.81c0,0.13,0.13,0.19,0.38,0.19h0.19c-1.4,1.78-2.92,3.65-4.57,5.61
			c-1.65,1.97-3.17,3.65-4.57,5.04c-1.78,1.78-3.68,3.33-5.71,4.66c-2.03,1.33-4.25,2.31-6.66,2.95c-0.89,0.25-1.71,0.44-2.47,0.57
			c-0.76,0.13-1.59,0.19-2.47,0.19c-2.66,0-4.95-0.7-6.85-2.09c-1.4-1.01-2.7-2.03-3.9-3.04c-1.21-1.01-2.19-2.22-2.95-3.61
			c-0.64-1.27-1.08-2.66-1.33-4.19c-0.12-0.5-0.19-1.01-0.19-1.52c0-0.51,0-1.08,0-1.71c0-0.63,0-1.17,0-1.62
			c0-0.44,0.07-0.98,0.19-1.62v-4.57c0.25-1.14,0.51-2.25,0.76-3.33c0.25-1.08,0.51-2.12,0.76-3.14v-1.14
			c0-0.13,0.03-0.22,0.09-0.29c0.06-0.06,0.1-0.16,0.1-0.29c0-0.12-0.03-0.25-0.1-0.38c-0.07-0.13-0.09-0.25-0.09-0.38
			c0-0.13-0.03-0.19-0.1-0.19c-0.07,0-0.1-0.06-0.1-0.19l0.57-0.76c0.38-0.25,0.82-0.76,1.33-1.52c0.63-1.14,1.2-2.31,1.71-3.52
			c0.51-1.2,1.08-2.38,1.71-3.52c1.77-3.04,3.74-5.71,5.9-7.99c1.52-1.9,3.3-3.49,5.33-4.76c1.01-0.89,2.16-1.39,3.42-1.52
			c0.51-0.13,0.98-0.19,1.43-0.19c0.44,0,0.86,0,1.24,0c2.28,0,4.38,0.51,6.28,1.52c2.41,1.4,3.61,3.36,3.61,5.9v0.57
			c-0.13,1.9-0.7,3.81-1.71,5.71c-0.76,1.52-1.62,2.98-2.57,4.38c-0.95,1.4-2.13,2.6-3.52,3.61c-3.42,2.66-6.85,4.44-10.27,5.33
			l-2.09,0.57c-0.89,0.13-1.52,0.7-1.9,1.71l-1.9,14.65v0.76c0,0.64,0.06,1.3,0.19,2c0.12,0.7,0.31,1.36,0.57,2
			c0.12,1.14,0.89,1.71,2.28,1.71h1.52c1.77-0.38,3.52-0.89,5.23-1.52c1.71-0.63,3.33-1.46,4.85-2.47c1.52-1.01,2.98-2.12,4.38-3.33
			c1.39-1.2,2.79-2.5,4.19-3.9c0.76-0.76,1.84-1.68,3.23-2.76c1.39-1.08,2.54-2.12,3.42-3.14c1.14-1.39,2.22-2.76,3.23-4.09
			s2.03-2.69,3.04-4.09c0.63-1.01,1.24-2.03,1.81-3.04C598.51,116.17,599.05,115.16,599.56,114.14z M557.51,114.71l0.38-0.38
			c-0.13,0-0.19,0.03-0.19,0.09c0,0.07-0.07,0.1-0.19,0.1V114.71z M557.89,114.14c0.76-0.51,1.14-1.33,1.14-2.47
			C558.4,112.3,558.02,113.13,557.89,114.14z M560.94,112.81c1.01-1.9,2.12-3.77,3.33-5.61c1.2-1.84,2.57-3.64,4.09-5.42v-0.76
			l-0.57,0.38c-0.26,0.25-0.57,0.54-0.95,0.86c-0.38,0.32-0.7,0.67-0.95,1.05c-1.14,1.4-2.19,2.85-3.14,4.38
			c-0.95,1.52-1.87,3.11-2.76,4.76c-0.51,1.02-0.95,2.28-1.33,3.81l0.95-1.33c0.25-0.25,0.48-0.6,0.67-1.05
			C560.46,113.41,560.68,113.06,560.94,112.81z M559.79,110.72c-0.26,0.13-0.51,0.45-0.76,0.95
			C559.54,111.54,559.79,111.22,559.79,110.72z M561.51,107.67c-0.89,0.64-1.46,1.65-1.71,3.04c0.89-0.89,1.52-1.9,1.9-3.04
			c0.25-0.25,0.38-0.57,0.38-0.95C561.7,106.98,561.51,107.29,561.51,107.67z M563.22,105.2c-0.64,0.38-1.02,0.89-1.14,1.52
			C562.84,106.6,563.22,106.09,563.22,105.2z M563.98,104.25c-0.38,0.13-0.57,0.45-0.57,0.95L563.98,104.25z M564.55,103.68
			c0.25-0.25,0.38-0.57,0.38-0.95L564.55,103.68z M564.93,110.34c0.13-0.12,0.19-0.31,0.19-0.57c0,0.13-0.03,0.19-0.1,0.19
			c-0.07,0-0.1,0.07-0.1,0.19V110.34z M565.31,109.76c0.38-0.13,0.57-0.44,0.57-0.95C565.63,109.07,565.44,109.38,565.31,109.76z
			 M575.4,101.96c-0.64,0.38-1.21,0.83-1.71,1.33c-0.51,0.51-1.08,1.02-1.71,1.52c-1.27,1.52-2.35,3.08-3.23,4.66
			c-0.89,1.59-1.78,3.27-2.66,5.04c-0.13,0.13-0.19,0.32-0.19,0.57v0.19c0,0.26,0.19,0.38,0.57,0.38c0.51-0.25,0.95-0.48,1.33-0.67
			c0.38-0.19,0.76-0.41,1.14-0.67c1.39-1.14,2.69-2.35,3.9-3.62c1.2-1.27,2.19-2.73,2.95-4.38c0.89-1.52,1.39-2.92,1.52-4.19v-0.19
			c0-0.38-0.26-0.57-0.76-0.57h-0.38L575.4,101.96z M571.21,101.96c-0.26,0-0.45,0.07-0.57,0.19c-1.02,1.02-1.94,2.03-2.76,3.04
			c-0.83,1.02-1.49,2.22-2,3.62c0.38-0.13,0.63-0.38,0.76-0.76c0.76-1.01,1.55-1.97,2.38-2.85c0.82-0.89,1.55-1.84,2.19-2.85V101.96
			z M577.3,107.67c0,0.13-0.13,0.32-0.38,0.57c-0.25,0.51-0.38,0.83-0.38,0.95h0.38c-0.25,0.26-0.41,0.57-0.47,0.95
			c-0.07,0.38-0.16,0.7-0.29,0.95c-0.13,0.26-0.29,0.41-0.48,0.48c-0.19,0.07-0.35,0.22-0.47,0.48v0.19h0.19
			c0.25-0.13,0.41-0.25,0.48-0.38c0.06-0.13,0.22-0.32,0.47-0.57c0.51-0.38,0.92-0.82,1.24-1.33c0.32-0.51,0.6-1.01,0.86-1.52
			c0.25-0.25,0.38-0.54,0.38-0.86c0-0.31,0.06-0.6,0.19-0.86c-0.38,0-0.6,0.16-0.67,0.48c-0.06,0.32-0.22,0.54-0.47,0.67l-0.38,0.38
			c-0.13,0-0.19-0.06-0.19-0.19V107.67z M576.73,113.38l0.38-0.19C576.98,113.19,576.85,113.26,576.73,113.38z M579.2,110.34
			c-0.89,0.38-1.46,1.21-1.71,2.47C578.37,112.3,578.95,111.48,579.2,110.34z M579.77,109.57c-0.26,0.13-0.38,0.22-0.38,0.29
			c0,0.07-0.07,0.16-0.19,0.29c0.13,0,0.19-0.03,0.19-0.1c0-0.06,0.06-0.09,0.19-0.09C579.58,109.83,579.64,109.7,579.77,109.57z
			 M584.53,136.4c0.13-0.13,0.38-0.29,0.76-0.48c0.38-0.19,0.63-0.41,0.76-0.67l-1.71,1.14v0.19L584.53,136.4z M587,136.78
			c0-0.13-0.06-0.19-0.19-0.19l-0.57,0.57C586.49,136.91,586.74,136.78,587,136.78z M587.38,133.74c-0.26,0.25-0.38,0.57-0.38,0.95
			L587.38,133.74z M587.57,136.02c0.38-0.12,0.57-0.44,0.57-0.95C587.76,135.32,587.57,135.64,587.57,136.02z M588.14,135.07
			c0.38-0.13,0.63-0.38,0.76-0.76c-0.13,0.13-0.25,0.22-0.38,0.29C588.39,134.66,588.27,134.82,588.14,135.07z M588.33,132.98
			c0.51-0.13,0.95-0.7,1.33-1.71c-0.38,0.26-0.67,0.48-0.86,0.67C588.62,132.12,588.46,132.47,588.33,132.98z M588.9,134.31
			c0.51-0.25,0.95-0.76,1.33-1.52C589.48,133.29,589.03,133.8,588.9,134.31z M589.66,131.26c0.63-0.13,1.14-0.7,1.52-1.71
			C590.55,129.81,590.05,130.38,589.66,131.26z M591,131.64c-0.26,0.25-0.45,0.57-0.57,0.95L591,131.64z M591.19,129.55
			c0.76-0.25,1.14-0.7,1.14-1.33C591.69,128.47,591.31,128.92,591.19,129.55z M592.33,128.03c0.63-0.25,1.11-0.63,1.43-1.14
			c0.32-0.5,0.6-1.08,0.86-1.71c-0.51,0.38-0.92,0.79-1.24,1.24C593.06,126.86,592.71,127.4,592.33,128.03z M593.66,128.41
			c-0.38,0.38-0.57,0.7-0.57,0.95L593.66,128.41z M593.85,128.22c0.38-0.38,0.57-0.69,0.57-0.95L593.85,128.22z M594.61,125.18
			c0.13,0,0.31-0.32,0.57-0.95h-0.38l-0.19,0.19V125.18z M595.18,124.22c0.51-0.13,0.76-0.44,0.76-0.95h-0.57L595.18,124.22z
			 M597.47,120.61c-0.89,0.89-1.4,1.65-1.52,2.28v0.38c0.38-0.38,0.73-0.76,1.04-1.14C597.31,121.75,597.47,121.25,597.47,120.61z
			 M597.47,120.61c0.51-0.13,0.76-0.32,0.76-0.57l-0.38-0.38v-0.19h-0.19l0.19,0.19C597.85,120.04,597.72,120.36,597.47,120.61z"/>
		<path class="st1" d="M627.9,116.42l-6.28,0.57l-4.19,0.57c-1.02,0.26-2.06,0.45-3.14,0.57c-1.08,0.13-2.13,0.32-3.14,0.57
			c-1.02,0.25-2,0.41-2.95,0.48c-0.95,0.07-1.93,0.16-2.95,0.29h-0.95c-0.51,0-1.27-0.13-2.28-0.38c-0.26,0-0.38-0.19-0.38-0.57
			c0-0.25,0.03-0.38,0.09-0.38c0.06,0,0.1-0.06,0.1-0.19l-0.38-0.38c-0.26,0-0.45-0.06-0.57-0.19c-0.13,0-0.19-0.06-0.19-0.19
			c0-0.13,0.06-0.25,0.19-0.38c0-0.12,0.12-0.31,0.38-0.57v-0.19c-0.38-0.25-0.67-0.5-0.86-0.76c-0.19-0.25-0.41-0.51-0.67-0.76
			c-0.13,0-0.19-0.13-0.19-0.38c0-0.13,0.13-0.32,0.38-0.57c0.63-0.5,1.46-0.95,2.47-1.33l3.42-0.76c0.38-0.12,0.89-0.19,1.52-0.19
			c0.76,0,1.49,0,2.19,0c0.7,0,1.43-0.06,2.19-0.19c0.38-0.13,1.08-0.19,2.09-0.19c0.63,0,1.3-0.03,2-0.1c0.7-0.06,1.36-0.09,2-0.09
			c0.63,0,1.3-0.03,2-0.09c0.7-0.06,1.36-0.1,2-0.1c0.63,0,1.3,0.03,2,0.1c0.7,0.07,1.43,0.09,2.19,0.09c1.14,0,1.97,0.16,2.47,0.48
			c0.51,0.32,1.14,0.98,1.9,2l0.57,0.76c0,0.26,0.03,0.54,0.09,0.86c0.06,0.32,0.1,0.6,0.1,0.86v0.19c0,0.38-0.19,0.64-0.57,0.76
			h-2.66V116.42z"/>
		<path class="st1" d="M714.66,95.3v3.23c0,0.89,0,1.75,0,2.57c0,0.83-0.13,1.62-0.38,2.38c0,0.38,0.1,0.7,0.29,0.95
			c0.19,0.26,0.29,0.57,0.29,0.95h0.38v-0.38c1.14-2.92,2.5-5.77,4.09-8.56c1.58-2.79,3.2-5.45,4.85-7.99
			c2.03-3.42,4.06-6.82,6.09-10.18c2.03-3.36,4.31-6.63,6.85-9.8c1.78-2.54,3.62-4.98,5.52-7.33c1.9-2.34,4-4.66,6.28-6.94
			c1.9-2.54,4.63-4.95,8.18-7.23c1.01-0.89,2.03-1.65,3.04-2.28c1.01-0.63,2.03-1.27,3.04-1.9c2.28-1.39,4.82-2.47,7.61-3.23h1.33
			c1.01,0,1.77,0.13,2.28,0.38c0.5,0.26,1.08,0.57,1.71,0.95c3.3,2.41,5.2,5.2,5.71,8.37c0.25,0.89,0.41,1.71,0.48,2.47
			c0.06,0.76,0.09,1.59,0.09,2.47v2.09v1.71c0,2.79-0.19,5.71-0.57,8.75c-0.26,2.03-0.64,3.97-1.14,5.8
			c-0.51,1.84-0.95,3.78-1.33,5.8c-0.38,1.65-0.73,3.27-1.05,4.85c-0.32,1.59-0.6,3.08-0.86,4.47c-0.64,1.78-1.17,3.49-1.62,5.14
			c-0.45,1.65-0.98,3.3-1.62,4.95c-0.64,2.16-1.27,4.25-1.9,6.28c-0.64,2.03-1.21,4.12-1.71,6.28c-2.54,6.98-4.69,14.43-6.47,22.36
			c-1.78,7.93-3.93,15.51-6.47,22.74l-1.33,4.19c-0.38,0.89-0.92,2.41-1.62,4.57c-0.7,2.16-1.43,4.47-2.19,6.95
			c-0.76,2.47-1.49,4.85-2.19,7.13c-0.7,2.28-1.24,4-1.62,5.14c-0.26,0.5-0.57,1.05-0.95,1.62c-0.38,0.57-0.57,1.17-0.57,1.81
			c0,0.25-0.19,0.44-0.57,0.57c-0.38,0.13-0.7,0.19-0.95,0.19h-0.19c-0.64-0.13-1.17-0.19-1.62-0.19c-0.45,0-0.79-0.19-1.05-0.57
			c-0.13,0-0.35-0.07-0.67-0.19c-0.32-0.13-0.54-0.19-0.67-0.19c-1.02-0.51-1.59-1.08-1.71-1.71c0.25-0.64,0.41-1.37,0.48-2.19
			c0.06-0.83,0.22-1.68,0.48-2.57c0.5-4.31,1.39-8.63,2.66-12.94c0.13-1.78,0.41-3.46,0.86-5.04c0.44-1.59,0.86-3.27,1.24-5.04
			c0.38-2.28,0.79-4.5,1.24-6.66c0.44-2.16,1.05-4.38,1.81-6.66c0.25-2.16,0.7-4.28,1.33-6.37c0.63-2.09,1.27-4.28,1.9-6.56
			c0.63-2.03,1.27-4.12,1.9-6.28c0.63-2.16,1.2-4.31,1.71-6.47c0.76-3.17,1.68-6.31,2.76-9.42c1.08-3.11,2.12-6.18,3.14-9.23
			c0.63-2.03,1.33-4.12,2.09-6.28c0.76-2.16,1.52-4.25,2.28-6.28l3.23-8.94c0.63-1.77,1.27-3.49,1.9-5.14
			c0.63-1.65,1.14-3.36,1.52-5.14c0.63-1.52,1.2-3.2,1.71-5.04c0.51-1.84,0.95-3.64,1.33-5.42c0.25-0.63,0.5-1.58,0.76-2.85
			c0.25-1.27,0.38-2.47,0.38-3.61v-0.76c0-0.5,0-1.01,0-1.52c0-0.51-0.07-0.82-0.19-0.95c-0.26-0.38-0.64-0.6-1.14-0.67
			c-0.51-0.06-1.02-0.1-1.52-0.1c-1.02,0-2.13,0.19-3.33,0.57c-1.21,0.38-2.13,0.7-2.76,0.95c-1.4,0.64-2.63,1.43-3.71,2.38
			c-1.08,0.95-2.13,1.87-3.14,2.76c-5.83,5.2-11.13,10.69-15.89,16.46c-4.76,5.77-9.04,11.89-12.84,18.36
			c-2.41,4.19-4.73,8.44-6.94,12.75c-2.22,4.31-4.41,8.69-6.56,13.13c-1.02,2.03-2.03,4.09-3.04,6.18
			c-1.02,2.09-1.97,4.16-2.85,6.18c-0.89,2.03-1.52,4.19-1.9,6.47c-0.38,2.28-0.7,4.44-0.95,6.47c-0.26,1.02-0.45,1.75-0.57,2.19
			c-0.13,0.45-0.45,0.67-0.95,0.67c-0.89,0-1.78-0.7-2.66-2.09c-2.28-2.03-3.61-4.31-4-6.85c0-1.27,0.06-2.5,0.19-3.71
			c0.13-1.2,0.5-2.44,1.14-3.71c1.39-6.47,2.47-12.87,3.23-19.22c0.76-6.34,1.14-12.87,1.14-19.6v-4.38v-1.52
			c0-0.89-0.16-1.68-0.48-2.38c-0.32-0.7-0.67-1.24-1.05-1.62c-1.14-0.76-2.47-1.14-4-1.14c-1.65,0-3.11,0.38-4.38,1.14
			c-2.92,2.28-4.63,5.07-5.14,8.37c-0.51,3.3-0.89,6.41-1.14,9.32c-0.26,1.65-0.51,3.3-0.76,4.95c-0.25,1.65-0.64,3.3-1.14,4.95
			c-0.64,4.06-1.46,8.06-2.47,11.99c-1.02,3.93-2.22,7.8-3.62,11.6c-0.64,2.79-1.46,5.39-2.47,7.8c-0.89,1.78-1.68,3.55-2.38,5.33
			c-0.7,1.78-1.68,3.55-2.95,5.33c-0.76,0.76-1.46,1.52-2.09,2.28c-0.64,0.76-1.4,1.39-2.28,1.9c-1.02,1.01-2.28,1.52-3.8,1.52
			c-0.13,0.25-0.38,0.41-0.76,0.48c-0.38,0.06-0.64,0.1-0.76,0.1c-0.76,0-1.27-0.19-1.52-0.57c-2.16-0.64-4-1.65-5.52-3.04
			c-0.76-1.01-1.4-2.22-1.9-3.61c0-0.63-0.07-1.33-0.19-2.09c-0.13-0.76-0.26-1.58-0.38-2.47c0-0.38,0-0.79,0-1.24
			c0-0.44,0.13-0.86,0.38-1.24c0.25-2.92,0.86-5.9,1.81-8.94c0.95-3.04,2.12-6.09,3.52-9.13c1.39-3.17,2.92-6.21,4.57-9.13
			c1.65-2.92,3.3-5.9,4.95-8.94l7.99-10.84c0.63-0.89,1.14-1.71,1.52-2.47c0.38-0.76,0.57-1.65,0.57-2.66
			c0.13-1.52,0.25-2.98,0.38-4.38c0.13-1.39,0.32-2.85,0.57-4.38c0.25-1.01,0.38-2.12,0.38-3.33c0-1.2,0-2.44,0-3.71v-5.14
			c-0.13-0.89-0.19-1.81-0.19-2.76s0-1.81,0-2.57c-0.13-1.27-0.38-2.6-0.76-4c-0.38-1.39-0.7-2.79-0.95-4.19
			c-0.26-1.14-0.54-2.31-0.86-3.52c-0.32-1.2-0.73-2.44-1.24-3.71c-0.64-0.89-0.95-1.58-0.95-2.09c-0.64-1.27-1.62-2.19-2.95-2.76
			c-1.33-0.57-2.7-0.86-4.09-0.86c-0.76,0-1.43,0.03-2,0.1c-0.57,0.07-1.17,0.35-1.81,0.86c-0.13,0-0.38,0.07-0.76,0.19
			c-0.38,0.13-0.7,0.32-0.95,0.57c-1.02,0.89-1.97,1.62-2.85,2.19c-0.89,0.57-1.65,1.3-2.28,2.19c-2.41,2.92-4.57,5.87-6.47,8.85
			c-1.9,2.98-3.55,6.12-4.95,9.42c-1.02,2.54-1.84,4.98-2.47,7.32c-0.64,2.35-1.14,4.66-1.52,6.94c-0.13,1.4-0.26,2.82-0.38,4.28
			c-0.13,1.46-0.19,2.89-0.19,4.28v1.33v3.04c0.13,2.28,0.35,4.54,0.67,6.75c0.32,2.22,0.79,4.47,1.43,6.75
			c0,0.38,0.1,0.79,0.29,1.24c0.19,0.45,0.41,0.86,0.67,1.24c0.76,1.02,1.27,1.84,1.52,2.47c0.76,0.26,1.14,0.64,1.14,1.14v0.19
			c0,0.13-0.19,0.19-0.57,0.19h-0.38c-0.13,0-0.32-0.13-0.57-0.38c-1.27-0.5-2.22-1.08-2.85-1.71c-0.64-0.63-1.27-1.46-1.9-2.47
			l-2.09-4.76c-0.64-1.39-1.08-2.88-1.33-4.47c-0.25-1.58-0.57-3.14-0.95-4.66c-0.25-1.14-0.41-2.28-0.48-3.42
			c-0.06-1.14-0.16-2.41-0.29-3.8c0-1.14,0-2.31,0-3.52c0-1.2,0.13-2.44,0.38-3.71c0-0.5,0.03-1.08,0.09-1.71
			c0.07-0.63,0.22-1.2,0.48-1.71c0.25-2.92,0.7-5.9,1.33-8.94c0.63-3.04,1.65-6.02,3.04-8.94c0.89-1.77,1.74-3.62,2.57-5.52
			c0.82-1.9,1.87-3.61,3.14-5.14c0.25-0.25,0.51-0.57,0.76-0.95c0.25-0.38,0.5-0.63,0.76-0.76c0.63-1.65,1.62-3.2,2.95-4.66
			c1.33-1.46,2.82-2.88,4.47-4.28c0.63-0.25,1.14-0.57,1.52-0.95c0.38-0.38,0.82-0.76,1.33-1.14c1.01-0.38,1.96-0.73,2.85-1.05
			c0.89-0.31,1.77-0.48,2.66-0.48c0.63,0,1.39,0.1,2.28,0.29c0.89,0.19,1.65,0.54,2.28,1.05c5.33,1.52,9.13,4.31,11.42,8.37
			c1.27,1.52,2.28,3.11,3.04,4.76c0.76,1.65,1.65,3.49,2.66,5.52c0.51,1.4,0.89,2.82,1.14,4.28c0.25,1.46,0.51,2.95,0.76,4.47
			c0.25,1.02,0.44,1.93,0.57,2.76c0.13,0.83,0.32,1.74,0.57,2.76c0,1.4,0.03,2.73,0.1,4c0.06,1.27,0.22,2.54,0.48,3.8v0.76
			l0.57,0.38l1.33-1.14c0.63-0.5,1.3-0.98,2-1.43c0.7-0.44,1.36-0.79,2-1.05c1.01-0.51,1.9-0.79,2.66-0.86
			c0.76-0.06,1.46-0.1,2.09-0.1h1.71c1.27,0.26,2.41,0.7,3.42,1.33c1.01,0.64,1.84,1.52,2.47,2.66c0.63,0.64,1.14,1.36,1.52,2.19
			c0.38,0.83,0.76,1.81,1.14,2.95c0.12,2.41,0.63,5.2,1.52,8.37c0,1.4,0,2.73,0,4C714.47,92.96,714.53,94.16,714.66,95.3z
			 M663.86,36.33v-0.19h-0.19c-1.14,0.38-2.16,0.92-3.04,1.62c-0.89,0.7-1.78,1.55-2.66,2.57v0.57c1.27-0.63,2.31-1.39,3.14-2.28
			C661.93,37.72,662.85,36.96,663.86,36.33z M660.25,142.11c0.25,0.76,0.44,1.55,0.57,2.38c0.13,0.83,0.31,1.81,0.57,2.95
			c0.51,0.64,0.95,0.95,1.33,0.95c0.63,0,1.14-0.19,1.52-0.57c0.76-0.51,1.2-1.08,1.33-1.71c0.63-0.89,1.24-1.71,1.81-2.47
			c0.57-0.76,1.05-1.58,1.43-2.47c0.38-1.27,0.86-2.57,1.43-3.9c0.57-1.33,1.05-2.69,1.43-4.09l3.04-10.84
			c0.63-2.92,1.24-5.74,1.81-8.47c0.57-2.73,1.17-5.36,1.81-7.9c0.25-1.14,0.44-2.12,0.57-2.95c0.13-0.82,0.32-1.74,0.57-2.76h-0.57
			c-0.26,0.13-0.51,0.29-0.76,0.48c-0.26,0.19-0.51,0.41-0.76,0.67c-0.76,2.03-1.97,3.87-3.61,5.52c-1.52,2.66-2.92,5.39-4.19,8.18
			c-1.27,2.79-2.6,5.46-4,7.99c-1.02,2.16-1.87,4.28-2.57,6.37c-0.7,2.09-1.3,4.28-1.81,6.56c-0.25,1.02-0.41,2.03-0.48,3.04
			C660.66,140.08,660.5,141.09,660.25,142.11z M665.19,38.04c-0.64,0.26-1.27,0.6-1.9,1.05c-0.64,0.45-1.27,0.86-1.9,1.24v0.57h0.57
			c0.38-0.38,0.82-0.73,1.33-1.05c0.51-0.32,0.95-0.73,1.33-1.24C665,38.61,665.19,38.42,665.19,38.04z M669,146.86v0.57h0.57
			c0-0.25,0.03-0.48,0.09-0.67c0.06-0.19,0.09-0.41,0.09-0.67C669.63,146.48,669.38,146.74,669,146.86z M670.14,144.96
			c-0.26,0.13-0.38,0.51-0.38,1.14h0.38c1.9-2.41,3.23-4.88,4-7.42v-0.57c-0.51,0.51-0.76,0.89-0.76,1.14
			c-0.64,0.64-1.05,1.24-1.24,1.81c-0.19,0.57-0.35,1.11-0.48,1.62l-0.95,0.95c-0.13,0.38-0.26,0.64-0.38,0.76
			C670.2,144.52,670.14,144.71,670.14,144.96z M670.9,141.73l-0.38,0.38c0,0.13,0.03,0.22,0.09,0.29c0.06,0.07,0.1,0.16,0.1,0.29
			c-0.38,0.26-0.57,0.45-0.57,0.57h0.57v-0.57v-0.38c0-0.13,0.03-0.22,0.09-0.29C670.87,141.95,670.9,141.86,670.9,141.73z
			 M670.9,141.73h0.19c0.25,0,0.38-0.19,0.38-0.57h-0.57V141.73z M671.09,147.82l-0.19,0.19l0.19,0.19V147.82z M671.66,146.86
			c0.89-0.25,1.46-0.67,1.71-1.24c0.25-0.57,0.51-1.17,0.76-1.81c-0.64,0.38-1.11,0.83-1.43,1.33
			C672.39,145.66,672.04,146.23,671.66,146.86z M674.9,142.68c-0.38,0.26-0.57,0.45-0.57,0.57
			C674.71,143.25,674.9,143.06,674.9,142.68z M675.09,136.02h-0.38v0.38L675.09,136.02z M675.09,136.02v-0.19
			c0-0.25,0.06-0.38,0.19-0.38c0.13,0,0.19-0.06,0.19-0.19v-0.57l-0.57,0.57C674.9,135.39,674.96,135.64,675.09,136.02z
			 M693.35,76.28l0.38-0.19C693.6,76.22,693.48,76.28,693.35,76.28z M758.61,128.03l-0.19-0.19l-0.19,0.19h-0.19v0.38v0.38
			c-0.26,1.27-0.6,2.51-1.05,3.71c-0.45,1.21-0.79,2.38-1.05,3.52c-1.27,4.19-2.41,8.31-3.42,12.37c-1.02,4.06-2.22,8.31-3.62,12.75
			c-0.89,3.3-1.81,6.63-2.76,9.99c-0.95,3.36-1.93,6.69-2.95,9.99c-0.26,0.63-0.41,1.2-0.48,1.71c-0.07,0.51-0.1,1.01-0.1,1.52
			c0.38-0.13,0.57-0.38,0.57-0.76c0.76-2.03,1.36-3.97,1.81-5.8c0.44-1.84,1.05-3.78,1.81-5.8c0.89-2.66,1.65-5.23,2.28-7.71
			c0.63-2.47,1.46-5.04,2.47-7.71c1.01-4.44,2.09-8.91,3.23-13.41c1.14-4.5,2.35-8.97,3.62-13.41c0-0.13,0.03-0.31,0.09-0.57
			c0.06-0.25,0.09-0.51,0.09-0.76V128.03z M744.72,183.59c0,0.5,0.19,0.76,0.57,0.76l0.19-0.19c0-0.38,0.09-0.73,0.29-1.05
			c0.19-0.32,0.29-0.73,0.29-1.24c0.63-2.16,1.3-4.28,2-6.37c0.7-2.09,1.49-4.16,2.38-6.18c2.54-6.98,4.69-14.14,6.47-21.5
			l0.19-0.19c0.25-0.25,0.38-0.51,0.38-0.76h-0.38c-0.13,0-0.19-0.06-0.19-0.19v0.19c-0.38,0.38-0.57,0.89-0.57,1.52
			c-1.4,3.55-2.6,7.04-3.62,10.46c-1.02,3.42-2.03,6.97-3.04,10.66c-1.02,2.54-1.84,4.98-2.47,7.32
			C746.56,179.18,745.73,181.43,744.72,183.59z M745.67,167.79h0.57v-0.19l-0.38,0.19H745.67z M746.62,165.51l-0.19,0.19l0.19,0.38
			V165.51z M746.62,165.32c0.38,0,0.57-0.32,0.57-0.95c0-0.25-0.03-0.41-0.09-0.48c-0.07-0.07-0.1-0.16-0.1-0.29
			c-0.13,0.25-0.16,0.51-0.09,0.76C746.97,164.62,746.88,164.94,746.62,165.32z M747.39,162.09v0.57c0.13-0.26,0.16-0.45,0.09-0.57
			c-0.07-0.13,0.03-0.32,0.29-0.57C747.51,161.77,747.39,161.96,747.39,162.09z M747.77,160.75v0.76c0.38-0.38,0.57-0.95,0.57-1.71
			C747.96,160.18,747.77,160.5,747.77,160.75z M754.61,134.31c-0.13,0.26-0.22,0.45-0.29,0.57c-0.07,0.13-0.1,0.32-0.1,0.57
			c0,0.13,0.03,0.26,0.1,0.38c0.06,0.13,0.09,0.32,0.09,0.57c-0.26,0.26-0.45,0.54-0.57,0.86c-0.13,0.32-0.32,0.6-0.57,0.86
			c-0.64,3.17-1.4,6.34-2.28,9.51c-0.89,3.17-1.78,6.4-2.66,9.7v2.28l0.57-0.57c0.89-3.68,1.74-7.23,2.57-10.65
			c0.82-3.42,1.81-6.97,2.95-10.65v-1.33C754.55,135.77,754.61,135.07,754.61,134.31z M754.61,134.31c0.38-0.25,0.57-0.63,0.57-1.14
			C754.81,133.55,754.61,133.93,754.61,134.31z M763.94,45.27c-0.64,0-0.95,0.19-0.95,0.57C763.24,45.84,763.56,45.65,763.94,45.27z
			 M765.27,44.32h-0.76v0.57C765.01,44.89,765.27,44.7,765.27,44.32z M766.22,44.13c-0.64,0-0.95,0.07-0.95,0.19
			C765.9,44.32,766.22,44.25,766.22,44.13z M767.36,43.55h0.38l0.76-0.38c0.51,0,0.95-0.19,1.33-0.57c-0.89,0-1.33,0.07-1.33,0.19
			c-0.76,0-1.21,0.13-1.33,0.38c-0.25,0-0.57,0.32-0.95,0.95C766.98,44.13,767.36,43.94,767.36,43.55z M768.12,45.27
			c0-0.25,0.12-0.38,0.38-0.38h-0.38V45.27z M768.69,44.89c0.13,0,0.38-0.19,0.76-0.57C768.95,44.32,768.69,44.51,768.69,44.89z
			 M770.41,44.32v-0.19h-0.38l-0.57,0.19H770.41z"/>
		<path class="st1" d="M847.08,113.57c0.13-0.12,0.32-0.19,0.57-0.19c0.25,0,0.48,0.13,0.67,0.38c0.19,0.26,0.41,0.45,0.67,0.57
			c0.13,0,0.19,0.19,0.19,0.57c-0.26,0.64-0.45,1.21-0.57,1.71c-0.13,0.51-0.32,1.02-0.57,1.52c-1.9,3.17-3.78,6.25-5.61,9.23
			c-1.84,2.98-3.84,5.93-5.99,8.85c-0.76,1.14-1.62,2.32-2.57,3.52c-0.95,1.21-1.87,2.51-2.76,3.9l-5.14,4.57
			c-1.14,0.64-2.16,1.14-3.04,1.52c-0.89,0.38-1.84,0.57-2.85,0.57c-1.27,0-2.66-0.38-4.19-1.14c-1.4-0.63-2.73-1.49-4-2.57
			c-1.27-1.08-2.35-2.31-3.23-3.71c-1.02-1.77-1.65-3.8-1.9-6.09c0-0.51-0.03-1.01-0.09-1.52c-0.07-0.5-0.1-1.01-0.1-1.52
			c-0.13-0.38-0.19-0.89-0.19-1.52c0.63-6.59,1.78-12.87,3.42-18.83c0.25-0.63,0.51-1.27,0.76-1.9c0.25-0.63,0.38-1.27,0.38-1.9
			v-0.38c-0.64,0.26-0.98,0.6-1.05,1.05c-0.07,0.45-0.22,0.98-0.48,1.62l-7.23,12.75c-1.02,1.9-2.06,3.74-3.14,5.52
			c-1.08,1.78-2.25,3.55-3.52,5.33c-0.64,1.02-1.36,1.94-2.19,2.76c-0.83,0.83-1.68,1.75-2.57,2.76c-0.51,0.64-1.14,1.17-1.9,1.62
			c-0.76,0.45-1.46,0.79-2.09,1.05c-0.26,0.13-0.64,0.19-1.14,0.19c-0.38,0-1.08-0.13-2.09-0.38c-1.02-0.38-1.94-0.98-2.76-1.81
			c-0.83-0.82-1.75-1.68-2.76-2.57c-1.39-1.01-2.09-2.41-2.09-4.19c0-0.25,0.03-0.41,0.09-0.48c0.07-0.06,0.09-0.22,0.09-0.48
			c0-0.38-0.03-0.79-0.09-1.24c-0.06-0.44-0.09-0.86-0.09-1.24c0-1.9,0.16-3.71,0.48-5.42c0.32-1.71,0.79-3.39,1.43-5.04
			c0.38-1.52,0.86-3.04,1.43-4.57c0.57-1.52,1.17-2.98,1.81-4.38c1.77-3.42,3.93-6.78,6.47-10.08c0.5-0.89,0.82-1.33,0.95-1.33
			c0.63-1.01,1.33-1.74,2.09-2.19c0.76-0.44,1.52-0.98,2.28-1.62c0.5-0.38,1.01-0.57,1.52-0.57c0.25,0,0.5-0.03,0.76-0.09
			c0.25-0.06,0.5-0.09,0.76-0.09c1.39,0,2.92,0.32,4.57,0.95c1.65,0.64,3.11,1.59,4.38,2.85c0.38,0.38,0.67,0.83,0.86,1.33
			c0.19,0.51,0.41,1.02,0.66,1.52c0,0.13,0.03,0.26,0.1,0.38c0.06,0.13,0.09,0.32,0.09,0.57c0,0.51-0.19,0.95-0.57,1.33
			c-0.26,0.26-0.45,0.38-0.57,0.38c-0.13,0-0.45-0.13-0.95-0.38l-3.04-2.28c-0.26-0.25-0.51-0.38-0.76-0.38
			c-0.26,0-0.45,0.07-0.57,0.19l-2.28,2.09c-0.89,1.02-1.68,2.03-2.38,3.04c-0.7,1.02-1.43,2.03-2.19,3.04
			c-1.4,2.54-2.57,5.07-3.52,7.61c-0.95,2.54-1.87,5.14-2.76,7.8c-0.51,1.02-0.86,2.03-1.05,3.04c-0.19,1.02-0.41,2.03-0.67,3.04
			c-0.13,0.26-0.19,0.6-0.19,1.05c0,0.45,0,0.79,0,1.05c0,0.26,0.13,0.51,0.38,0.76h0.19c0.25,0,0.44-0.06,0.57-0.19
			c1.65-1.52,3.2-3.17,4.66-4.95c1.46-1.78,2.82-3.74,4.09-5.9c2.03-2.92,4.03-5.8,5.99-8.66c1.96-2.85,3.9-5.74,5.8-8.66
			c1.14-1.9,2.44-3.87,3.9-5.9c1.46-2.03,2.88-4,4.28-5.9l3.61-5.14c0.51-0.76,0.89-1.14,1.14-1.14c0.13,0,0.57,0.13,1.33,0.38
			c0.38,0.26,0.82,0.45,1.33,0.57c0.5,0.13,0.89,0.32,1.14,0.57c0.89,0.89,1.33,1.71,1.33,2.47c0,0.26-0.03,0.45-0.09,0.57
			c-0.07,0.13-0.09,0.32-0.09,0.57l-2.09,6.47c-1.02,3.42-2.03,6.88-3.04,10.37c-1.02,3.49-1.97,7.01-2.85,10.56
			c-0.26,1.52-0.54,3.04-0.86,4.57c-0.32,1.52-0.6,3.17-0.86,4.95c-0.13,1.02-0.22,2.03-0.29,3.04c-0.07,1.02-0.09,2.03-0.09,3.04
			c0,0.76,0.03,1.49,0.09,2.19c0.06,0.7,0.1,1.43,0.1,2.19c0,0.76,0.09,1.4,0.29,1.9c0.19,0.51,0.41,1.08,0.67,1.71
			c0.5,0.89,1.33,1.33,2.47,1.33h0.57c0.25-0.13,0.57-0.19,0.95-0.19c0.38,0,0.7-0.13,0.95-0.38c0.63-0.63,1.3-1.24,2-1.81
			c0.7-0.57,1.36-1.24,2-2c1.77-1.9,3.55-3.87,5.33-5.9c1.77-2.03,3.36-4.25,4.76-6.66c1.39-1.9,2.73-3.8,4-5.71
			c1.27-1.9,2.6-3.87,4-5.9c0.38-0.51,0.67-1.05,0.86-1.62c0.19-0.57,0.41-1.17,0.67-1.81l1.33-1.14c0.13-0.13,0.32-0.19,0.57-0.19
			c0.25,0,0.44,0.07,0.57,0.19c0.25,0.13,0.35,0.22,0.29,0.29C846.92,113.35,846.95,113.45,847.08,113.57z M790.38,105.58
			c-1.14,0.38-1.71,1.08-1.71,2.09l-0.76,0.57c-1.52,2.28-2.85,4.79-4,7.52c-1.14,2.73-2.09,5.49-2.85,8.28
			c-0.26,0.76-0.38,1.33-0.38,1.71c0,0.38,0.06,0.7,0.19,0.95c-0.51,0.13-0.76,0.51-0.76,1.14c0,0.13,0.03,0.22,0.09,0.29
			c0.06,0.06,0.1,0.16,0.1,0.29c0,0.13-0.03,0.19-0.1,0.19c-0.07,0-0.09,0.07-0.09,0.19c-0.13,0-0.13,0.07,0,0.19
			c0-0.13,0.03-0.22,0.09-0.29c0.06-0.06,0.1-0.16,0.1-0.29c0.38-0.25,0.57-0.89,0.57-1.9c0.25-0.13,0.57-0.7,0.95-1.71
			c0.76-2.54,1.62-5.04,2.57-7.51c0.95-2.47,2.12-4.85,3.52-7.13c0.25-0.25,0.41-0.63,0.48-1.14c0.06-0.51,0.22-0.95,0.48-1.33
			C789.37,107.55,789.88,106.85,790.38,105.58z M780.78,121.37c0.06,0,0.09-0.06,0.09-0.19l-0.19,0.38
			C780.68,121.44,780.71,121.37,780.78,121.37z M781.63,118.33c0-0.13,0.03-0.22,0.1-0.29c0.06-0.06,0.09-0.16,0.09-0.29
			c-0.26,0-0.38,0.13-0.38,0.38L781.63,118.33z M786.01,119.28c-0.38,0.38-0.51,0.57-0.38,0.57L786.01,119.28z M786.58,118.33
			c0.25-0.13,0.38-0.5,0.38-1.14C786.7,117.69,786.58,118.07,786.58,118.33z M786.96,117.18c0.25-0.13,0.38-0.32,0.38-0.57v-0.57
			C787.08,116.3,786.96,116.68,786.96,117.18z M787.34,116.04c0.63-0.25,1.01-0.76,1.14-1.52
			C787.72,114.65,787.34,115.16,787.34,116.04z M788.48,114.52c0.25-0.13,0.38-0.51,0.38-1.14
			C788.61,113.51,788.48,113.89,788.48,114.52z M788.86,113.38c0.76-0.51,1.14-1.39,1.14-2.66c-0.76,0.38-1.14,1.08-1.14,2.09
			V113.38z M790.95,108.81c-0.64,0.38-0.95,1.02-0.95,1.9c0.63-0.25,0.95-0.63,0.95-1.14V109c0.76-0.13,1.14-0.63,1.14-1.52
			C791.59,107.61,791.21,108.05,790.95,108.81z M790.38,105.58c0.51-0.51,0.76-1.08,0.76-1.71c-0.51,0.26-0.76,0.7-0.76,1.33V105.58
			z M792.48,106.72c0.76-0.25,1.14-0.7,1.14-1.33C792.86,105.64,792.48,106.09,792.48,106.72z M838.52,127.46
			c-0.26,0.25-0.38,0.51-0.38,0.76L838.52,127.46z M842.13,122.32c-0.25,0.13-0.38,0.22-0.38,0.29c0,0.07-0.07,0.16-0.19,0.29
			l0.38-0.38L842.13,122.32z M844.23,118.33c0.38-0.13,0.57-0.25,0.57-0.38c-0.13,0-0.26,0.07-0.38,0.19L844.23,118.33z
			 M845.37,117.18c0,0.26-0.13,0.38-0.38,0.38c0.13,0,0.25-0.06,0.38-0.19V117.18z M846.32,114.14v0.38c0-0.13,0.03-0.19,0.09-0.19
			c0.06,0,0.09-0.06,0.09-0.19H846.32z"/>
		<path class="st1" d="M886.65,114.14c0.25,1.27,0.38,2.22,0.38,2.85c0,2.16-0.48,4.12-1.43,5.9c-0.95,1.78-1.97,3.36-3.04,4.76
			c-1.08,1.4-2.09,2.57-3.04,3.52c-0.95,0.95-1.43,1.56-1.43,1.81c0,0.13,0.13,0.19,0.38,0.19h0.19c-1.4,1.78-2.92,3.65-4.57,5.61
			c-1.65,1.97-3.17,3.65-4.57,5.04c-1.78,1.78-3.68,3.33-5.71,4.66c-2.03,1.33-4.25,2.31-6.66,2.95c-0.89,0.25-1.71,0.44-2.47,0.57
			c-0.76,0.13-1.59,0.19-2.47,0.19c-2.66,0-4.95-0.7-6.85-2.09c-1.4-1.01-2.7-2.03-3.9-3.04c-1.21-1.01-2.19-2.22-2.95-3.61
			c-0.64-1.27-1.08-2.66-1.33-4.19c-0.13-0.5-0.19-1.01-0.19-1.52c0-0.51,0-1.08,0-1.71c0-0.63,0-1.17,0-1.62
			c0-0.44,0.07-0.98,0.19-1.62v-4.57c0.25-1.14,0.51-2.25,0.76-3.33c0.25-1.08,0.51-2.12,0.76-3.14v-1.14
			c0-0.13,0.03-0.22,0.09-0.29c0.06-0.06,0.1-0.16,0.1-0.29c0-0.12-0.03-0.25-0.1-0.38c-0.07-0.13-0.09-0.25-0.09-0.38
			c0-0.13-0.03-0.19-0.1-0.19c-0.07,0-0.09-0.06-0.09-0.19l0.57-0.76c0.38-0.25,0.82-0.76,1.33-1.52c0.63-1.14,1.2-2.31,1.71-3.52
			c0.5-1.2,1.08-2.38,1.71-3.52c1.77-3.04,3.74-5.71,5.9-7.99c1.52-1.9,3.3-3.49,5.33-4.76c1.01-0.89,2.16-1.39,3.42-1.52
			c0.5-0.13,0.98-0.19,1.43-0.19c0.44,0,0.86,0,1.24,0c2.28,0,4.38,0.51,6.28,1.52c2.41,1.4,3.62,3.36,3.62,5.9v0.57
			c-0.13,1.9-0.7,3.81-1.71,5.71c-0.76,1.52-1.62,2.98-2.57,4.38c-0.95,1.4-2.13,2.6-3.52,3.61c-3.42,2.66-6.85,4.44-10.27,5.33
			l-2.09,0.57c-0.89,0.13-1.52,0.7-1.9,1.71l-1.9,14.65v0.76c0,0.64,0.06,1.3,0.19,2c0.13,0.7,0.32,1.36,0.57,2
			c0.13,1.14,0.89,1.71,2.28,1.71h1.52c1.77-0.38,3.52-0.89,5.23-1.52c1.71-0.63,3.33-1.46,4.85-2.47c1.52-1.01,2.98-2.12,4.38-3.33
			c1.39-1.2,2.79-2.5,4.19-3.9c0.76-0.76,1.84-1.68,3.23-2.76c1.39-1.08,2.54-2.12,3.42-3.14c1.14-1.39,2.22-2.76,3.23-4.09
			c1.01-1.33,2.03-2.69,3.04-4.09c0.63-1.01,1.24-2.03,1.81-3.04C885.61,116.17,886.14,115.16,886.65,114.14z M844.61,114.71
			l0.38-0.38c-0.13,0-0.19,0.03-0.19,0.09c0,0.07-0.07,0.1-0.19,0.1V114.71z M844.99,114.14c0.76-0.51,1.14-1.33,1.14-2.47
			C845.49,112.3,845.11,113.13,844.99,114.14z M848.03,112.81c1.01-1.9,2.12-3.77,3.33-5.61c1.2-1.84,2.57-3.64,4.09-5.42v-0.76
			l-0.57,0.38c-0.26,0.25-0.57,0.54-0.95,0.86c-0.38,0.32-0.7,0.67-0.95,1.05c-1.14,1.4-2.19,2.85-3.14,4.38
			c-0.95,1.52-1.87,3.11-2.76,4.76c-0.51,1.02-0.95,2.28-1.33,3.81l0.95-1.33c0.25-0.25,0.48-0.6,0.67-1.05
			C847.56,113.41,847.77,113.06,848.03,112.81z M846.89,110.72c-0.26,0.13-0.51,0.45-0.76,0.95
			C846.63,111.54,846.89,111.22,846.89,110.72z M848.6,107.67c-0.89,0.64-1.46,1.65-1.71,3.04c0.89-0.89,1.52-1.9,1.9-3.04
			c0.25-0.25,0.38-0.57,0.38-0.95C848.79,106.98,848.6,107.29,848.6,107.67z M850.31,105.2c-0.64,0.38-1.02,0.89-1.14,1.52
			C849.93,106.6,850.31,106.09,850.31,105.2z M851.07,104.25c-0.38,0.13-0.57,0.45-0.57,0.95L851.07,104.25z M851.65,103.68
			c0.25-0.25,0.38-0.57,0.38-0.95L851.65,103.68z M852.03,110.34c0.13-0.12,0.19-0.31,0.19-0.57c0,0.13-0.03,0.19-0.09,0.19
			c-0.07,0-0.1,0.07-0.1,0.19V110.34z M852.41,109.76c0.38-0.13,0.57-0.44,0.57-0.95C852.72,109.07,852.53,109.38,852.41,109.76z
			 M862.49,101.96c-0.64,0.38-1.21,0.83-1.71,1.33c-0.51,0.51-1.08,1.02-1.71,1.52c-1.27,1.52-2.35,3.08-3.23,4.66
			c-0.89,1.59-1.78,3.27-2.66,5.04c-0.13,0.13-0.19,0.32-0.19,0.57v0.19c0,0.26,0.19,0.38,0.57,0.38c0.51-0.25,0.95-0.48,1.33-0.67
			c0.38-0.19,0.76-0.41,1.14-0.67c1.39-1.14,2.69-2.35,3.9-3.62c1.2-1.27,2.19-2.73,2.95-4.38c0.89-1.52,1.39-2.92,1.52-4.19v-0.19
			c0-0.38-0.26-0.57-0.76-0.57h-0.38L862.49,101.96z M858.31,101.96c-0.26,0-0.45,0.07-0.57,0.19c-1.02,1.02-1.94,2.03-2.76,3.04
			c-0.83,1.02-1.49,2.22-2,3.62c0.38-0.13,0.63-0.38,0.76-0.76c0.76-1.01,1.55-1.97,2.38-2.85c0.82-0.89,1.55-1.84,2.19-2.85V101.96
			z M864.39,107.67c0,0.13-0.13,0.32-0.38,0.57c-0.25,0.51-0.38,0.83-0.38,0.95h0.38c-0.25,0.26-0.41,0.57-0.48,0.95
			c-0.07,0.38-0.16,0.7-0.29,0.95c-0.13,0.26-0.29,0.41-0.48,0.48c-0.19,0.07-0.35,0.22-0.48,0.48v0.19h0.19
			c0.25-0.13,0.41-0.25,0.48-0.38c0.06-0.13,0.22-0.32,0.48-0.57c0.5-0.38,0.92-0.82,1.24-1.33c0.32-0.51,0.6-1.01,0.86-1.52
			c0.25-0.25,0.38-0.54,0.38-0.86c0-0.31,0.06-0.6,0.19-0.86c-0.38,0-0.6,0.16-0.67,0.48c-0.07,0.32-0.22,0.54-0.48,0.67l-0.38,0.38
			c-0.13,0-0.19-0.06-0.19-0.19V107.67z M863.82,113.38l0.38-0.19C864.07,113.19,863.95,113.26,863.82,113.38z M866.3,110.34
			c-0.89,0.38-1.46,1.21-1.71,2.47C865.47,112.3,866.04,111.48,866.3,110.34z M866.87,109.57c-0.26,0.13-0.38,0.22-0.38,0.29
			c0,0.07-0.07,0.16-0.19,0.29c0.13,0,0.19-0.03,0.19-0.1c0-0.06,0.06-0.09,0.19-0.09C866.68,109.83,866.74,109.7,866.87,109.57z
			 M871.62,136.4c0.13-0.13,0.38-0.29,0.76-0.48c0.38-0.19,0.63-0.41,0.76-0.67l-1.71,1.14v0.19L871.62,136.4z M874.1,136.78
			c0-0.13-0.07-0.19-0.19-0.19l-0.57,0.57C873.59,136.91,873.84,136.78,874.1,136.78z M874.48,133.74
			c-0.26,0.25-0.38,0.57-0.38,0.95L874.48,133.74z M874.67,136.02c0.38-0.12,0.57-0.44,0.57-0.95
			C874.86,135.32,874.67,135.64,874.67,136.02z M875.24,135.07c0.38-0.13,0.63-0.38,0.76-0.76c-0.13,0.13-0.25,0.22-0.38,0.29
			C875.49,134.66,875.36,134.82,875.24,135.07z M875.43,132.98c0.5-0.13,0.95-0.7,1.33-1.71c-0.38,0.26-0.67,0.48-0.86,0.67
			S875.55,132.47,875.43,132.98z M876,134.31c0.51-0.25,0.95-0.76,1.33-1.52C876.57,133.29,876.12,133.8,876,134.31z M876.76,131.26
			c0.63-0.13,1.14-0.7,1.52-1.71C877.65,129.81,877.14,130.38,876.76,131.26z M878.09,131.64c-0.25,0.25-0.45,0.57-0.57,0.95
			L878.09,131.64z M878.28,129.55c0.76-0.25,1.14-0.7,1.14-1.33C878.79,128.47,878.41,128.92,878.28,129.55z M879.42,128.03
			c0.63-0.25,1.11-0.63,1.43-1.14c0.32-0.5,0.6-1.08,0.86-1.71c-0.51,0.38-0.92,0.79-1.24,1.24
			C880.15,126.86,879.8,127.4,879.42,128.03z M880.76,128.41c-0.38,0.38-0.57,0.7-0.57,0.95L880.76,128.41z M880.95,128.22
			c0.38-0.38,0.57-0.69,0.57-0.95L880.95,128.22z M881.71,125.18c0.13,0,0.32-0.32,0.57-0.95h-0.38l-0.19,0.19V125.18z
			 M882.28,124.22c0.5-0.13,0.76-0.44,0.76-0.95h-0.57L882.28,124.22z M884.56,120.61c-0.89,0.89-1.4,1.65-1.52,2.28v0.38
			c0.38-0.38,0.73-0.76,1.05-1.14C884.4,121.75,884.56,121.25,884.56,120.61z M884.56,120.61c0.51-0.13,0.76-0.32,0.76-0.57
			l-0.38-0.38v-0.19h-0.19l0.19,0.19C884.94,120.04,884.81,120.36,884.56,120.61z"/>
	</g>
</g>
<g>
	<g>
		<path class="st0" d="M124.17,88.16c7.93-13.76,14.28-34.14,3.46-46.46c-3.99-4.53-10.63-6.32-16.15-8.06
			c-4.17-1.31-8.21-2.74-11.86-4.77l2.79,6.73c4.39,1.82,9.06,3.27,13.81,5c17.19,6.26,12.66,26.71,5.4,41.36L124.17,88.16z"/>
	</g>
	<g>
		<path class="st1" d="M134.91,88.02V78.5c-0.86,0.14-1.66,0.67-2.04,1.69c-1.67,4.53-4,8.65-6.86,12.43l2.23,5.39
			C130.82,94.9,133.05,91.58,134.91,88.02z"/>
	</g>
	<g>
		<path class="st1" d="M134.91,15.07c-7.05,3.69-14.14,7.32-21.31,10.76c-2.54,1.22-0.97,4.52,1.29,4.76
			c8.03,0.86,15.06,4.25,20.02,10.67v-7.35c-3.57-3.18-7.67-5.43-12.24-6.84c4.1-2.04,8.17-4.13,12.24-6.25V15.07z"/>
	</g>
	<g>
		<path class="st0" d="M145.66,88.16c-7.93-13.76-14.28-34.14-3.46-46.46c3.99-4.53,10.62-6.32,16.15-8.06
			c4.17-1.31,8.21-2.74,11.86-4.77l-2.79,6.73c-4.39,1.82-9.06,3.27-13.81,5c-17.19,6.26-12.66,26.71-5.4,41.36L145.66,88.16z"/>
	</g>
	<g>
		<path class="st1" d="M134.91,88.02V78.5c0.86,0.14,1.66,0.67,2.04,1.69c1.67,4.53,4.01,8.65,6.86,12.43L141.58,98
			C139,94.9,136.77,91.58,134.91,88.02z"/>
	</g>
	<g>
		<path class="st1" d="M134.91,15.07c7.05,3.69,14.14,7.32,21.31,10.76c2.54,1.22,0.97,4.52-1.29,4.76
			c-8.03,0.86-15.06,4.25-20.03,10.67v-7.35c3.58-3.18,7.67-5.43,12.24-6.84c-4.1-2.04-8.17-4.13-12.24-6.25V15.07z"/>
	</g>
	<g>
		<path class="st0" d="M108.97,103.36c-4.12-15.34-14.04-34.25-30.4-35.3c-6.03-0.39-11.99,3.04-17.13,5.72
			c-3.88,2.02-7.74,3.86-11.76,5.02l6.73,2.79c4.39-1.81,8.71-4.09,13.29-6.23c16.58-7.73,27.84,9.94,33.06,25.43L108.97,103.36z"/>
	</g>
	<g>
		<path class="st1" d="M116.47,95.66l-6.74-6.74c-0.51,0.71-0.7,1.65-0.25,2.64c2.02,4.38,3.28,8.95,3.94,13.64l5.38,2.23
			C118.44,103.42,117.67,99.49,116.47,95.66z"/>
	</g>
	<g>
		<path class="st1" d="M64.89,44.08c-2.38,7.6-4.82,15.17-7.46,22.68c-0.93,2.66,2.51,3.88,4.28,2.46
			c6.28-5.06,13.66-7.64,21.7-6.61l-5.2-5.2c-4.78,0.28-9.26,1.58-13.49,3.82c1.46-4.34,2.86-8.7,4.24-13.07L64.89,44.08z"/>
	</g>
	<g>
		<path class="st0" d="M124.17,88.16c-15.34-4.12-34.25-14.04-35.3-30.41c-0.39-6.02,3.04-11.99,5.72-17.12
			c2.02-3.88,3.87-7.74,5.02-11.76l2.79,6.73c-1.82,4.39-4.09,8.71-6.23,13.29c-7.73,16.58,9.94,27.84,25.43,33.06L124.17,88.16z"/>
	</g>
	<g>
		<path class="st1" d="M116.47,95.66l-6.74-6.74c0.71-0.51,1.65-0.7,2.64-0.25c4.38,2.02,8.94,3.28,13.63,3.94l2.23,5.38
			C124.23,97.63,120.3,96.86,116.47,95.66z"/>
	</g>
	<g>
		<path class="st1" d="M64.89,44.08c7.59-2.38,15.17-4.82,22.68-7.46c2.66-0.93,3.88,2.51,2.45,4.28
			c-5.06,6.28-7.64,13.66-6.61,21.7l-5.2-5.2c0.28-4.78,1.58-9.26,3.82-13.49c-4.34,1.46-8.7,2.86-13.07,4.23L64.89,44.08z"/>
	</g>
	<g>
		<path class="st0" d="M108.97,124.85c-13.76-7.93-34.14-14.28-46.46-3.46c-4.53,3.99-6.32,10.63-8.06,16.16
			c-1.31,4.17-2.74,8.21-4.77,11.86l6.73-2.79c1.82-4.39,3.27-9.05,5-13.81c6.26-17.19,26.71-12.66,41.36-5.4L108.97,124.85z"/>
	</g>
	<g>
		<path class="st1" d="M108.84,114.1l-9.53,0c0.14,0.86,0.67,1.66,1.69,2.04c4.53,1.67,8.65,4.01,12.43,6.86l5.38-2.23
			C115.71,118.19,112.39,115.96,108.84,114.1z"/>
	</g>
	<g>
		<path class="st1" d="M35.88,114.1c3.69,7.05,7.32,14.14,10.76,21.31c1.22,2.54,4.52,0.96,4.76-1.29
			c0.86-8.03,4.25-15.06,10.67-20.02h-7.35c-3.18,3.58-5.43,7.67-6.84,12.24c-2.04-4.1-4.13-8.17-6.25-12.24H35.88z"/>
	</g>
	<g>
		<path class="st0" d="M108.97,103.36c-13.76,7.94-34.14,14.28-46.46,3.46c-4.53-3.99-6.32-10.63-8.06-16.15
			c-1.31-4.17-2.74-8.21-4.77-11.86l6.73,2.79c1.82,4.39,3.27,9.05,5,13.81c6.26,17.19,26.71,12.66,41.36,5.4L108.97,103.36z"/>
	</g>
	<g>
		<path class="st1" d="M108.84,114.1l-9.53,0c0.14-0.86,0.67-1.66,1.69-2.04c4.53-1.67,8.65-4.01,12.43-6.86l5.38,2.23
			C115.71,110.01,112.39,112.24,108.84,114.1z"/>
	</g>
	<g>
		<path class="st1" d="M35.88,114.1c3.69-7.05,7.32-14.14,10.76-21.31c1.22-2.54,4.52-0.96,4.76,1.29
			c0.86,8.03,4.25,15.06,10.67,20.02h-7.35c-3.18-3.57-5.43-7.67-6.84-12.23c-2.04,4.1-4.13,8.17-6.25,12.23H35.88z"/>
	</g>
	<g>
		<path class="st0" d="M124.17,140.04c-15.34,4.12-34.25,14.05-35.3,30.41c-0.39,6.02,3.04,11.99,5.72,17.12
			c2.02,3.88,3.86,7.74,5.02,11.76l2.79-6.73c-1.82-4.39-4.1-8.71-6.23-13.3c-7.73-16.58,9.93-27.84,25.43-33.06L124.17,140.04z"/>
	</g>
	<g>
		<path class="st1" d="M116.47,132.54l-6.74,6.74c0.71,0.51,1.65,0.7,2.64,0.25c4.38-2.02,8.94-3.28,13.63-3.93l2.23-5.39
			C124.23,130.57,120.3,131.34,116.47,132.54z"/>
	</g>
	<g>
		<path class="st1" d="M64.89,184.13c7.6,2.38,15.17,4.82,22.68,7.46c2.66,0.94,3.88-2.52,2.45-4.28
			c-5.06-6.29-7.64-13.66-6.61-21.7l-5.2,5.2c0.28,4.78,1.58,9.26,3.82,13.49c-4.34-1.46-8.7-2.86-13.07-4.23L64.89,184.13z"/>
	</g>
	<g>
		<path class="st0" d="M108.97,124.85c-4.12,15.34-14.04,34.25-30.4,35.3c-6.03,0.38-11.99-3.04-17.12-5.72
			c-3.88-2.02-7.74-3.87-11.76-5.02l6.73-2.79c4.39,1.82,8.71,4.09,13.29,6.23c16.58,7.73,27.84-9.94,33.06-25.43L108.97,124.85z"/>
	</g>
	<g>
		<path class="st1" d="M116.47,132.54l-6.74,6.74c-0.51-0.71-0.7-1.65-0.24-2.64c2.02-4.38,3.28-8.95,3.93-13.64l5.38-2.23
			C118.44,124.79,117.67,128.71,116.47,132.54z"/>
	</g>
	<g>
		<path class="st1" d="M64.89,184.13c-2.38-7.59-4.82-15.17-7.46-22.68c-0.93-2.66,2.51-3.88,4.28-2.46
			c6.28,5.06,13.66,7.64,21.7,6.61l-5.2,5.2c-4.78-0.28-9.26-1.58-13.49-3.82c1.46,4.34,2.86,8.7,4.24,13.07L64.89,184.13z"/>
	</g>
	<g>
		<path class="st0" d="M145.66,140.04c-7.93,13.76-14.28,34.15-3.46,46.46c3.99,4.53,10.63,6.32,16.15,8.06
			c4.17,1.31,8.21,2.74,11.86,4.77l-2.79-6.74c-4.39-1.82-9.06-3.26-13.81-5c-17.19-6.26-12.66-26.71-5.4-41.36L145.66,140.04z"/>
	</g>
	<g>
		<path class="st1" d="M134.91,140.18v9.53c0.86-0.14,1.66-0.67,2.04-1.69c1.67-4.53,4.01-8.65,6.86-12.42l-2.23-5.39
			C139,133.3,136.77,136.62,134.91,140.18z"/>
	</g>
	<g>
		<path class="st1" d="M134.91,213.13c7.05-3.69,14.14-7.32,21.31-10.76c2.54-1.22,0.97-4.52-1.29-4.76
			c-8.03-0.86-15.06-4.25-20.02-10.67v7.35c3.57,3.18,7.66,5.43,12.23,6.84c-4.1,2.04-8.17,4.14-12.23,6.25L134.91,213.13z"/>
	</g>
	<g>
		<path class="st0" d="M124.17,140.04c7.94,13.76,14.28,34.15,3.46,46.46c-3.99,4.53-10.63,6.32-16.15,8.06
			c-4.17,1.31-8.21,2.74-11.86,4.77l2.79-6.74c4.39-1.82,9.06-3.26,13.81-4.99c17.19-6.26,12.66-26.71,5.4-41.36L124.17,140.04z"/>
	</g>
	<g>
		<path class="st1" d="M134.91,140.18v9.53c-0.86-0.14-1.66-0.66-2.04-1.69c-1.67-4.53-4.01-8.65-6.86-12.42l2.23-5.39
			C130.82,133.3,133.05,136.62,134.91,140.18z"/>
	</g>
	<g>
		<path class="st1" d="M134.91,213.13c-7.05-3.69-14.13-7.32-21.31-10.76c-2.54-1.22-0.97-4.52,1.29-4.76
			c8.03-0.86,15.06-4.25,20.03-10.67v7.35c-3.58,3.18-7.67,5.43-12.24,6.84c4.1,2.04,8.17,4.13,12.24,6.24L134.91,213.13z"/>
	</g>
	<g>
		<path class="st0" d="M160.85,124.85c4.12,15.34,14.05,34.25,30.41,35.3c6.02,0.39,11.98-3.04,17.12-5.72
			c3.88-2.02,7.74-3.86,11.76-5.02l-6.73-2.79c-4.39,1.81-8.71,4.09-13.3,6.23c-16.58,7.73-27.84-9.93-33.06-25.43L160.85,124.85z"
			/>
	</g>
	<g>
		<path class="st1" d="M153.35,132.54l6.73,6.74c0.51-0.71,0.7-1.65,0.25-2.64c-2.02-4.39-3.28-8.95-3.93-13.64l-5.38-2.23
			C151.38,124.79,152.15,128.71,153.35,132.54z"/>
	</g>
	<g>
		<path class="st1" d="M204.93,184.13c2.38-7.6,4.82-15.17,7.46-22.68c0.94-2.66-2.52-3.88-4.28-2.46
			c-6.29,5.06-13.66,7.64-21.7,6.61l5.2,5.2c4.78-0.28,9.26-1.58,13.49-3.82c-1.45,4.34-2.85,8.7-4.23,13.07L204.93,184.13z"/>
	</g>
	<g>
		<path class="st0" d="M145.66,140.04c15.34,4.12,34.25,14.05,35.3,30.41c0.38,6.03-3.04,11.98-5.72,17.12
			c-2.02,3.88-3.87,7.74-5.02,11.76l-2.79-6.73c1.82-4.39,4.1-8.71,6.23-13.29c7.73-16.58-9.93-27.84-25.43-33.06L145.66,140.04z"/>
	</g>
	<g>
		<path class="st1" d="M153.35,132.54l6.73,6.74c-0.7,0.51-1.64,0.7-2.64,0.24c-4.38-2.02-8.95-3.28-13.64-3.94l-2.23-5.38
			C145.6,130.57,149.52,131.34,153.35,132.54z"/>
	</g>
	<g>
		<path class="st1" d="M204.93,184.13c-7.59,2.38-15.17,4.82-22.68,7.46c-2.66,0.94-3.88-2.52-2.46-4.28
			c5.06-6.29,7.64-13.66,6.61-21.7l5.2,5.2c-0.28,4.78-1.58,9.26-3.82,13.49c4.34-1.46,8.7-2.86,13.07-4.24L204.93,184.13z"/>
	</g>
	<g>
		<path class="st0" d="M160.85,103.36c13.76,7.93,34.15,14.28,46.46,3.46c4.53-3.99,6.32-10.63,8.06-16.15
			c1.31-4.17,2.74-8.21,4.77-11.86l-6.73,2.79c-1.82,4.39-3.27,9.05-5,13.81c-6.26,17.19-26.71,12.66-41.36,5.4L160.85,103.36z"/>
	</g>
	<g>
		<path class="st1" d="M160.99,114.1l9.53,0c-0.14-0.86-0.67-1.66-1.69-2.04c-4.53-1.67-8.65-4.01-12.42-6.86l-5.38,2.23
			C154.11,110.01,157.43,112.24,160.99,114.1z"/>
	</g>
	<g>
		<path class="st1" d="M233.94,114.1c-3.69-7.06-7.32-14.14-10.76-21.31c-1.22-2.54-4.52-0.96-4.77,1.29
			c-0.86,8.03-4.25,15.06-10.67,20.02h7.35c3.18-3.57,5.44-7.66,6.84-12.24c2.04,4.1,4.14,8.18,6.25,12.24L233.94,114.1z"/>
	</g>
	<g>
		<path class="st0" d="M160.85,124.85c13.76-7.94,34.15-14.28,46.46-3.46c4.53,3.99,6.32,10.63,8.06,16.15
			c1.31,4.17,2.74,8.21,4.77,11.86l-6.73-2.79c-1.82-4.39-3.26-9.06-4.99-13.81c-6.26-17.19-26.71-12.66-41.36-5.4L160.85,124.85z"
			/>
	</g>
	<g>
		<path class="st1" d="M160.99,114.1l9.53,0c-0.14,0.86-0.66,1.66-1.69,2.04c-4.53,1.67-8.65,4.01-12.42,6.86l-5.38-2.23
			C154.12,118.19,157.43,115.96,160.99,114.1z"/>
	</g>
	<g>
		<path class="st1" d="M233.94,114.1c-3.69,7.05-7.32,14.14-10.76,21.31c-1.22,2.54-4.52,0.97-4.76-1.29
			c-0.86-8.03-4.25-15.06-10.67-20.02h7.35c3.18,3.57,5.43,7.67,6.84,12.24c2.04-4.1,4.13-8.17,6.25-12.24L233.94,114.1z"/>
	</g>
	<g>
		<path class="st0" d="M145.66,88.16c15.34-4.12,34.25-14.05,35.3-30.41c0.39-6.02-3.04-11.99-5.72-17.12
			c-2.02-3.88-3.86-7.74-5.02-11.76l-2.79,6.73c1.82,4.39,4.1,8.71,6.23,13.3c7.73,16.58-9.93,27.84-25.43,33.06L145.66,88.16z"/>
	</g>
	<g>
		<path class="st1" d="M153.35,95.66l6.74-6.74c-0.71-0.51-1.65-0.7-2.64-0.25c-4.38,2.02-8.95,3.28-13.64,3.94L141.58,98
			C145.6,97.63,149.52,96.86,153.35,95.66z"/>
	</g>
	<g>
		<path class="st1" d="M204.93,44.08c-7.59-2.38-15.17-4.82-22.68-7.46c-2.66-0.93-3.88,2.51-2.46,4.28
			c5.06,6.28,7.64,13.66,6.61,21.7l5.2-5.2c-0.28-4.78-1.58-9.26-3.82-13.49c4.34,1.46,8.71,2.86,13.07,4.23L204.93,44.08z"/>
	</g>
	<g>
		<path class="st0" d="M160.85,103.36c4.12-15.34,14.05-34.25,30.41-35.3c6.03-0.39,11.99,3.04,17.12,5.72
			c3.88,2.02,7.74,3.87,11.76,5.02l-6.73,2.79c-4.39-1.82-8.72-4.1-13.3-6.23c-16.58-7.73-27.84,9.94-33.06,25.43L160.85,103.36z"/>
	</g>
	<g>
		<path class="st1" d="M153.35,95.66l6.74-6.74c0.51,0.71,0.7,1.65,0.24,2.64c-2.02,4.38-3.28,8.95-3.93,13.64l-5.38,2.23
			C151.38,103.42,152.15,99.49,153.35,95.66z"/>
	</g>
	<g>
		<path class="st1" d="M204.93,44.08c2.38,7.59,4.82,15.17,7.46,22.68c0.94,2.66-2.52,3.88-4.28,2.46
			c-6.29-5.06-13.66-7.64-21.7-6.61l5.2-5.2c4.78,0.28,9.26,1.58,13.49,3.82c-1.46-4.34-2.85-8.7-4.23-13.07L204.93,44.08z"/>
	</g>
</g>
</svg>
